<?xml version="1.0" encoding="UTF-8" standalone="no"?>
<svg version="1.1" id="bgvideo" xmlns="http://www.w3.org/2000/svg" xmlns:xlink="http://www.w3.org/1999/xlink" x="0px" y="0px"
	 width="1920px" height="1080px" viewBox="0 0 1920 1080" enable-background="new 0 0 1920 1080" xml:space="preserve">
<linearGradient id="SVGID_1_" gradientUnits="userSpaceOnUse" x1="0" y1="578.2051" x2="1920" y2="578.2051">
	<stop  offset="0" style="stop-color:#26B6DE"/>
	<stop  offset="0.3911" style="stop-color:#1EB0D9"/>
	<stop  offset="1" style="stop-color:#07A1CA"/>
</linearGradient>
<path fill="url(#SVGID_1_)" d="M1776.489,82.213c-18.022,2.898-31.56,5.348-35.429,6.074
	c-74.178,13.921-146.808,35.446-216.394,64.658c-91.531,38.426-182.175,91.984-240.359,174.509
	c-55.326,78.472-84.145,169.555-131.693,252.215c-57.413,99.809-158.575,199.365-265.407,244.973
	c-60.082,25.65-137.474,34.392-202.276,25.545C413.626,813.145,109.065,926,0,1080h1920V77.042
	C1920,77.042,1829.121,73.748,1776.489,82.213z"/>
</svg>