<?xml version="1.0" encoding="utf-8"?>
<!-- Generator: Adobe Illustrator 23.0.6, SVG Export Plug-In . SVG Version: 6.00 Build 0)  -->
<svg version="1.1" id="圖層_1" xmlns="http://www.w3.org/2000/svg" xmlns:xlink="http://www.w3.org/1999/xlink" x="0px" y="0px"
	 viewBox="0 0 15 15" style="enable-background:new 0 0 15 15;" xml:space="preserve">
<style type="text/css">
	.st0{fill:#FFFFFF;}
</style>
<g>
	<path class="st0" d="M7.5,0C3.4,0,0,3.4,0,7.5v0.4h2.5c1-1.5,2-2.9,3-4.4C5.7,3.3,5.9,3.2,6,3.3l0.8,0.8L3.7,8.4H0l0.1,0.4H4
		l4.4-6.7C8.5,2,8.7,2,8.8,2s0.3,0.1,0.4,0.2l4.6,6.7h1.1C15,8.4,15,8,15,7.5C15,3.4,11.6,0,7.5,0z"/>
	<path class="st0" d="M14.8,9.2L14.8,9.2L14.8,9.2v0.1H14h-0.1h-1.3L12,8.5l0,0L8.8,4L6,8.1L5.2,9.4H3H0.2l0,0l0.1,0.3h2h3.1
		l1.3-1.9l2.1-3l2.5,3.6l0.9,1.3h0.4h-0.1h2.2l-0.2,0.6h-3.4L9.5,8L8.7,6.9L8.2,7.7l-1.6,2.5H0.5c1.4,3.9,5.8,5.8,9.6,4.4
		C12.5,13.7,14.2,11.6,14.8,9.2L14.8,9.2z"/>
</g>
</svg>
