<svg id="Capa_1" data-name="Capa 1" xmlns="http://www.w3.org/2000/svg" viewBox="0 0 511.95 512"><defs><style>.cls-1{fill:#fff;}</style></defs><title>img-scopes02</title><path class="cls-1" d="M363.15,188.61,264.35,61.39a10,10,0,0,0-7.87-3.86h0a10,10,0,0,0-7.86,3.83L149.36,187.9a8.17,8.17,0,0,0-.5.7A138.17,138.17,0,0,0,118,275.53c0,76.07,61.9,138,138,138s138-61.89,138-138a138.22,138.22,0,0,0-30.73-86.79A.62.62,0,0,0,363.15,188.61ZM256,393.49a118,118,0,0,1-91-193,10.1,10.1,0,0,0,.77-1.08L256.42,83.78l90.7,116.79c.12.17.24.33.37.48A118,118,0,0,1,256,393.49Z" transform="translate(-0.02)"/><path class="cls-1" d="M346,284.27a10,10,0,0,0-12,7.44,77.47,77.47,0,0,1-45.86,53.71,10,10,0,0,0,7.61,18.49A97.5,97.5,0,0,0,353.4,296.3,10,10,0,0,0,346,284.27Z" transform="translate(-0.02)"/><path class="cls-1" d="M336,253.71v.2a10,10,0,1,0,20,0v-.2a10,10,0,0,0-20,0Z" transform="translate(-0.02)"/><path class="cls-1" d="M11.05,288.32c.31,0,.62,0,.93,0a10,10,0,0,0,9-10.87C10.34,161.64,87.68,53.82,200.91,26.6A236,236,0,0,1,348.4,38.89l-7.56,4.36a10,10,0,1,0,10,17.32l24.21-14a10,10,0,0,0,3.66-13.65l-14-24.21a10,10,0,0,0-18.24,7.84A256,256,0,0,0,1.11,279.24,10,10,0,0,0,11.05,288.32Z" transform="translate(-0.02)"/><path class="cls-1" d="M509.72,222.14a10,10,0,1,0-19.82,2.66C505.37,340,432.57,451,320.57,482.86A233.73,233.73,0,0,1,176.26,478l9.45-6A10,10,0,0,0,175,455.14l-23.6,15a10,10,0,0,0-3.09,13.79l14.81,23.41a10,10,0,0,0,18.38-6.47A253,253,0,0,0,255.67,512,256.19,256.19,0,0,0,509.72,222.14Z" transform="translate(-0.02)"/><path class="cls-1" d="M135.2,375l0-.05-50.95-67A10,10,0,0,0,76.28,304h0a10,10,0,0,0-7.93,3.91L17.15,374.56c-.12.15-.24.31-.35.47A78.49,78.49,0,0,0,0,423.55C0,466.24,34.12,501,76,501s76-34.72,76-77.41A78.53,78.53,0,0,0,135.2,375ZM76,481c-30.88,0-56-25.76-56-57.42a58.38,58.38,0,0,1,12.87-36.62,10,10,0,0,0,.61-.84l42.71-55.64,42.86,56.37c.1.14.2.28.31.41A58.39,58.39,0,0,1,132,423.55C132,455.21,106.89,481,76,481Z" transform="translate(-0.02)"/><path class="cls-1" d="M109,413.55a10,10,0,0,0-10,10c0,13.07-10.31,23.71-23,23.71a10,10,0,1,0,0,20c23.7,0,43-19.61,43-43.71A10,10,0,0,0,109,413.55Z" transform="translate(-0.02)"/><path class="cls-1" d="M376.77,71A78.46,78.46,0,0,0,360,119.57c0,42.68,34.09,77.41,76,77.41s76-34.73,76-77.41A78.45,78.45,0,0,0,495.16,71l0-.05L444.18,4A10,10,0,0,0,436.24,0h0a10,10,0,0,0-7.94,3.91L377.11,70.57ZM392.86,83a9.86,9.86,0,0,0,.6-.84l42.72-55.64L479,82.84l.31.41A58.4,58.4,0,0,1,492,119.57c0,31.66-25.12,57.41-56,57.41s-56-25.75-56-57.41A58.35,58.35,0,0,1,392.86,83Z" transform="translate(-0.02)"/><path class="cls-1" d="M436,163.27c23.71,0,43-19.6,43-43.7a10,10,0,1,0-20,0c0,13.07-10.32,23.71-23,23.71a10,10,0,1,0,0,20Z" transform="translate(-0.02)"/></svg>