<svg id="圖層_1" data-name="圖層 1" xmlns="http://www.w3.org/2000/svg" viewBox="0 0 491.52 512"><defs><style>.cls-1{fill:#fff;}.cls-2{fill:#fffefe;}</style></defs><title>img-scopes07</title><path class="cls-1" d="M-213.4,93.08a61.52,61.52,0,0,0,8.87,5.12c3.69,1.89,9.86,5,10.3,7.25a14.92,14.92,0,0,1-1,8.65c-1.27,2.73-2.6,5.07-3.75,7.09-3.13,5.53-8.36,14.78-.47,21.22,1.84,1.71,5,4.17,7.92,6.4a21.51,21.51,0,0,0-2.77,12.31,12.3,12.3,0,0,0,5.06,8.39c1.9,1.34,3.92,2.5,5.91,3.63,5.05,2.88,7,4.22,7.69,6.89a23.52,23.52,0,0,1-.86,10.24c-.5,2.28-1,4.57-1.28,6.83a50.69,50.69,0,0,0,2.81,23,32,32,0,0,0,30.18,23.25,34.23,34.23,0,0,0,7-.75,648.53,648.53,0,0,0,72-21.52c19.22,11.28,31.36,45.58,34.53,58.45A8.55,8.55,0,0,0-23,286l214.17-.6a8.52,8.52,0,0,0,8.12-11.09,66,66,0,0,0-8.64-16.21,80.51,80.51,0,0,1-5.52-9.24,159.92,159.92,0,0,1-9.63-24.26,287.8,287.8,0,0,1-10-49.92,8.53,8.53,0,1,0-16.93,2.08,303.76,303.76,0,0,0,10.64,52.91,178.94,178.94,0,0,0,10.59,26.7,93.53,93.53,0,0,0,6.61,11.16l.57.85-193.51.55a135.93,135.93,0,0,0-30-54.48l7.68-2.69c5.72-2,10-3.5,12.24-4.21C9.84,196,28.12,179.34,27.62,158.06a8.31,8.31,0,0,0-8.68-8.33,8.53,8.53,0,0,0-8.33,8.73c.2,8.78-7,21.59-42.46,32.81-2.31.74-6.77,2.29-12.68,4.36-6.34,2.22-14.4,5-23.3,8.05h-.06a662.88,662.88,0,0,1-73.38,22.19,15.12,15.12,0,0,1-17.56-11.37,33.92,33.92,0,0,1-2-15.23c.22-1.79.63-3.57,1-5.35a37.27,37.27,0,0,0,.74-18.17,28.35,28.35,0,0,0-15.79-17.43l-1.78-1a33,33,0,0,1,3.29-5.27,8.6,8.6,0,0,0,1.76-6.43,8.58,8.58,0,0,0-3.39-5.73c-2.05-1.5-6.88-5.12-10.41-8,.41-.75.85-1.57,1.28-2.31,1.34-2.35,2.87-5.08,4.36-8.23a32,32,0,0,0,2.28-19.1c-2.05-10.41-12-15.51-19.3-19.23a48.46,48.46,0,0,1-7-4.07,36.57,36.57,0,0,1-5.12-4.17c0-1.28,1.38-4.41,7.88-12.34A342.63,342.63,0,0,0-162-1a25.23,25.23,0,0,0,3.3-11.55,29.84,29.84,0,0,0-12.47-21.33c-3.45-3.16-6.7-6.15-7.08-8.9a15.51,15.51,0,0,1,1.33-5.86c1.4-3.66,3-7.25,4.61-10.84a124.65,124.65,0,0,0,8.35-22.5l.85-3.64a213,213,0,0,1,7-25.19,146.33,146.33,0,0,1,30.62-50c16.32-17.27,42-29.49,76.49-36.34a555.53,555.53,0,0,1,80.05-11.54,181.86,181.86,0,0,1,40.16,2.28,8.54,8.54,0,0,0,9.68-7,8.54,8.54,0,0,0-6.76-9.83,198.57,198.57,0,0,0-44-2.51,570.22,570.22,0,0,0-82.54,11.85c-38.47,7.68-66.43,21.17-85.52,41.34a163.63,163.63,0,0,0-34.23,55.83,231.32,231.32,0,0,0-7.55,27.24l-.86,3.61a111.14,111.14,0,0,1-7.29,19.43c-1.71,3.89-3.49,7.78-5,11.81a28.56,28.56,0,0,0-2.27,14.28,32.59,32.59,0,0,0,12.45,19.05c4.17,3.83,6.91,6.53,6.94,8.88a13.79,13.79,0,0,1-1.46,3.71,329.62,329.62,0,0,1-37.37,60.73c-6.17,7.51-12.63,16.28-11.26,25a26.07,26.07,0,0,0,12.39,16Z" transform="translate(225.97 226)"/><path class="cls-2" d="M115.59-151.17H94.65a8.33,8.33,0,0,0-8.32,8.33V-125a61.84,61.84,0,0,0-10,4.14L63.76-133.49a8.32,8.32,0,0,0-11.77,0l-14.81,14.8a8.29,8.29,0,0,0-2.44,5.89,8.31,8.31,0,0,0,2.44,5.89L49.76-94.33a60.91,60.91,0,0,0-4.13,10H27.83A8.33,8.33,0,0,0,19.51-76v20.94a8.33,8.33,0,0,0,8.32,8.32h17.8a60.91,60.91,0,0,0,4.13,10L37.18-24.19a8.34,8.34,0,0,0,0,11.78L52,2.39a8.32,8.32,0,0,0,11.77,0L76.34-10.19A61.84,61.84,0,0,0,86.33-6V11.74a8.33,8.33,0,0,0,8.32,8.32h20.94a8.33,8.33,0,0,0,8.33-8.32V-6a62.6,62.6,0,0,0,10-4.14L146.49,2.39a8.32,8.32,0,0,0,11.77,0l14.8-14.8a8.27,8.27,0,0,0,2.44-5.89,8.25,8.25,0,0,0-2.44-5.89L160.48-36.77a61.84,61.84,0,0,0,4.14-10h17.79a8.33,8.33,0,0,0,8.33-8.32V-76a8.33,8.33,0,0,0-8.33-8.32H164.62a62.71,62.71,0,0,0-4.13-10l12.58-12.58a8.3,8.3,0,0,0,2.43-5.89,8.28,8.28,0,0,0-2.43-5.89l-14.81-14.8a8.32,8.32,0,0,0-11.77,0l-12.58,12.58a62.6,62.6,0,0,0-10-4.14v-17.79A8.34,8.34,0,0,0,115.59-151.17Zm16.2,42.57a5.88,5.88,0,0,0,7.26-.84l13.32-13.32,10,10L149-99.48a5.88,5.88,0,0,0-.84,7.26,50,50,0,0,1,6.25,15.09,5.88,5.88,0,0,0,5.72,4.54H179v14.08H160.14A5.89,5.89,0,0,0,154.42-54a50,50,0,0,1-6.25,15.09,5.88,5.88,0,0,0,.84,7.26L162.33-18.3l-10,10L139.05-21.66a5.88,5.88,0,0,0-7.26-.84,50,50,0,0,1-15.09,6.25,5.87,5.87,0,0,0-4.53,5.72V8.32H98.08V-10.53a5.87,5.87,0,0,0-4.54-5.72A50.06,50.06,0,0,1,78.45-22.5a5.87,5.87,0,0,0-7.25.84L57.87-8.34l-10-10L61.23-31.62a5.88,5.88,0,0,0,.84-7.26A50.31,50.31,0,0,1,55.82-54a5.87,5.87,0,0,0-5.72-4.54H31.26V-72.59H50.1a5.87,5.87,0,0,0,5.72-4.54,50.31,50.31,0,0,1,6.25-15.09,5.88,5.88,0,0,0-.84-7.26L47.91-112.8l10-10L71.2-109.44a5.87,5.87,0,0,0,7.25.84,50.06,50.06,0,0,1,15.09-6.25,5.87,5.87,0,0,0,4.54-5.72v-18.85h14.09v18.85a5.87,5.87,0,0,0,4.53,5.72A50,50,0,0,1,131.79-108.6Z" transform="translate(225.97 226)"/><path class="cls-2" d="M73.65-65.55a31.51,31.51,0,0,0,31.47,31.47A31.51,31.51,0,0,0,136.6-65.55,31.51,31.51,0,0,0,105.12-97,31.51,31.51,0,0,0,73.65-65.55Zm51.2,0a19.74,19.74,0,0,1-19.73,19.72A19.74,19.74,0,0,1,85.4-65.55a19.75,19.75,0,0,1,19.72-19.72A19.75,19.75,0,0,1,124.85-65.55Z" transform="translate(225.97 226)"/><path class="cls-2" d="M-29.94-71.42H-49.43a5.87,5.87,0,0,0-5.87,5.87,5.87,5.87,0,0,0,5.87,5.88h19.49a5.88,5.88,0,0,0,5.88-5.88A5.87,5.87,0,0,0-29.94-71.42Z" transform="translate(225.97 226)"/><path class="cls-2" d="M259.67-71.42H240.18a5.87,5.87,0,0,0-5.87,5.87,5.87,5.87,0,0,0,5.87,5.88h19.49a5.88,5.88,0,0,0,5.88-5.88A5.87,5.87,0,0,0,259.67-71.42Z" transform="translate(225.97 226)"/><path class="cls-2" d="M5.47,25.8-8.31,39.58a5.87,5.87,0,0,0,0,8.31,5.87,5.87,0,0,0,8.3,0L13.77,34.11a5.87,5.87,0,1,0-8.3-8.31Z" transform="translate(225.97 226)"/><path class="cls-2" d="M204.78-156.9l13.78-13.78a5.88,5.88,0,0,0,0-8.31,5.88,5.88,0,0,0-8.31,0L196.47-165.2a5.85,5.85,0,0,0,0,8.3A5.87,5.87,0,0,0,204.78-156.9Z" transform="translate(225.97 226)"/><path class="cls-2" d="M105.12-194.73a5.88,5.88,0,0,0,5.88-5.88V-220.1a5.87,5.87,0,0,0-5.88-5.87,5.87,5.87,0,0,0-5.87,5.87v19.49A5.87,5.87,0,0,0,105.12-194.73Z" transform="translate(225.97 226)"/><path class="cls-2" d="M204.78,25.8a5.88,5.88,0,0,0-8.31,8.31l13.78,13.78a5.88,5.88,0,0,0,8.31-8.31Z" transform="translate(225.97 226)"/><path class="cls-2" d="M5.47-156.9a5.85,5.85,0,0,0,8.3,0,5.85,5.85,0,0,0,0-8.3L0-179a5.87,5.87,0,0,0-8.3,0,5.87,5.87,0,0,0,0,8.31Z" transform="translate(225.97 226)"/><path class="cls-2" d="M119.54-183.2a5.87,5.87,0,0,0-6.54,5.12,5.87,5.87,0,0,0,5.12,6.54,105.79,105.79,0,0,1,92.53,93,5.88,5.88,0,0,0,5.83,5.19c.23,0,.46,0,.69,0a5.87,5.87,0,0,0,5.15-6.52A118.13,118.13,0,0,0,119.54-183.2Z" transform="translate(225.97 226)"/><path class="cls-2" d="M217.1-57.67a5.86,5.86,0,0,0-6.56,5.09,105.86,105.86,0,0,1-49,76.58,39.53,39.53,0,0,0-18.68,33.62V81.8H67.38V57.08A38.68,38.68,0,0,0,49.27,24.36,105.71,105.71,0,0,1-1.15-66.07,106.45,106.45,0,0,1,92.14-171.53a5.88,5.88,0,0,0,5.1-6.56,5.85,5.85,0,0,0-6.55-5.1C31.93-175.91-12.9-125.38-12.9-66.07A118.1,118.1,0,0,0,2.5-7.74,118.77,118.77,0,0,0,43.09,34.35,26.86,26.86,0,0,1,55.62,57.08V82.65A15.3,15.3,0,0,0,45.34,97.07v8.38a15.24,15.24,0,0,0,3.26,9.4,15.19,15.19,0,0,0-3.26,9.4v8.37A15.3,15.3,0,0,0,60.62,147.9H79.09v13.28A13.9,13.9,0,0,0,93,175.07h24.28a13.9,13.9,0,0,0,13.89-13.89V147.9h18.47a15.3,15.3,0,0,0,15.28-15.28v-8.37a15.19,15.19,0,0,0-3.26-9.4,15.24,15.24,0,0,0,3.26-9.4V97.07a15.3,15.3,0,0,0-10.28-14.42v-25A27.84,27.84,0,0,1,167.79,34a117.57,117.57,0,0,0,54.4-85.05A5.88,5.88,0,0,0,217.1-57.67ZM149.63,93.55h0a3.56,3.56,0,0,1,3.52,3.52v8.38a3.56,3.56,0,0,1-3.52,3.52h-89a3.57,3.57,0,0,1-3.53-3.52V97.07a3.57,3.57,0,0,1,3.53-3.52h89Zm-30.22,67.63a2.18,2.18,0,0,1-2.15,2.14H93a2.17,2.17,0,0,1-2.14-2.14V147.89h28.57v13.29Zm33.74-28.56a3.56,3.56,0,0,1-3.52,3.52h-89a3.57,3.57,0,0,1-3.53-3.52v-8.37a3.58,3.58,0,0,1,3.53-3.53h89a3.57,3.57,0,0,1,3.52,3.53Z" transform="translate(225.97 226)"/></svg>