<svg xmlns="http://www.w3.org/2000/svg" width="512" height="512" viewBox="0 0 512 512">
  <metadata><?xpacket begin="﻿" id="W5M0MpCehiHzreSzNTczkc9d"?>
<x:xmpmeta xmlns:x="adobe:ns:meta/" x:xmptk="Adobe XMP Core 5.6-c142 79.160924, 2017/07/13-01:06:39        ">
   <rdf:RDF xmlns:rdf="http://www.w3.org/1999/02/22-rdf-syntax-ns#">
      <rdf:Description rdf:about=""/>
   </rdf:RDF>
</x:xmpmeta>
                                                                                                    
                                                                                                    
                                                                                                    
                                                                                                    
                                                                                                    
                                                                                                    
                                                                                                    
                                                                                                    
                                                                                                    
                                                                                                    
                                                                                                    
                                                                                                    
                                                                                                    
                                                                                                    
                                                                                                    
                                                                                                    
                                                                                                    
                                                                                                    
                                                                                                    
                                                                                                    
                           
<?xpacket end="w"?></metadata>
<defs>
    <style>
      .cls-1 {
        fill: #fff;
        fill-rule: evenodd;
      }
    </style>
  </defs>
  <path id="Forma_1" data-name="Forma 1" class="cls-1" d="M363.639,262.267a10,10,0,0,0-6.163-6.581,71.1,71.1,0,0,0-13.193-3.086c32.708-34.8,21.909-75.464,19.356-83.4a10,10,0,0,0-6.163-6.582c-1.4-.514-25.885-9.146-53.777.561a89.84,89.84,0,0,0,2.5-21.358c0-49.867-37.763-71.785-45.341-75.676a10,10,0,0,0-9.012-.3c-1.875.871-45.929,21.954-45.929,75.972a89.829,89.829,0,0,0,2.506,21.4c-27.941-9.772-52.488-1.117-53.894-.6a10,10,0,0,0-6.163,6.582c-2.553,7.941-13.352,48.6,19.356,83.405a71.1,71.1,0,0,0-13.193,3.086,10,10,0,0,0-6.164,6.582c-2.606,8.107-13.812,50.311,21.45,85.573,20.406,20.406,43.054,25.274,60.022,25.274a89.446,89.446,0,0,0,16.1-1.463v65.433a10,10,0,1,0,20,0V371.627a89.58,89.58,0,0,0,16.238,1.487c16.967,0,39.618-4.87,60.022-25.274C377.451,312.577,366.245,270.374,363.639,262.267Zm-117.71,78.212a66.666,66.666,0,0,1-1.468,11.1c-10.689,2.375-37.433,5.2-60.507-17.878-22.727-22.725-20.345-49.026-17.829-60.5a67.053,67.053,0,0,1,34.356,1.623q1.434,0.537,2.857,1.011a65.555,65.555,0,0,1,23.241,15.242c14.419,14.419,18.725,30.269,19.35,42.735v6.672Zm0-93.071a66.636,66.636,0,0,1-1.468,11.1,66.453,66.453,0,0,1-33.666-1.342q-2.167-.835-4.309-1.523a66.036,66.036,0,0,1-22.533-15.013c-22.726-22.726-20.344-49.026-17.828-60.5,10.679-2.322,37.5-5.08,60.454,17.876,0.146,0.146.278,0.293,0.421,0.438q1.316,1.476,2.636,2.829a63.324,63.324,0,0,1,16.293,39.468v6.672h0Zm10.141-50.174a67.989,67.989,0,0,1-12.237-10.112c-0.468-.513-0.941-1.026-1.427-1.537-8.355-9.281-16.494-23.518-16.494-43.769,0-32.6,20.86-49.51,30.091-55.4,9.886,6.326,30.191,23.239,30.191,55.4,0,19.11-7.171,32.822-14.963,42.09-1.62,1.622-3.136,3.26-4.565,4.906A67.146,67.146,0,0,1,256.07,197.234Zm9.921,46.933A63.3,63.3,0,0,1,281.448,202.3c1.473-1.464,2.954-3.039,4.422-4.732a64.541,64.541,0,0,1,60-17.464c2.517,11.465,4.915,37.782-17.825,60.521a66.041,66.041,0,0,1-22.491,15q-2.177.7-4.382,1.548a66.427,66.427,0,0,1-33.63,1.334,67.131,67.131,0,0,1-1.553-14.085C265.99,244.337,265.991,244.252,265.991,244.167ZM328.046,333.7c-23.078,23.079-49.823,20.252-60.487,17.886-2.325-10.638-5.136-37.514,17.862-60.512a66.023,66.023,0,0,1,22.551-15.021q2.136-.687,4.3-1.518a66.472,66.472,0,0,1,33.6-1.357C348.388,284.642,350.786,310.959,328.046,333.7ZM309.356,5.571A257.726,257.726,0,0,0,256,0,256,256,0,0,0,54.1,413.381a37.953,37.953,0,1,0,14.918-13.408A236.439,236.439,0,0,1,20,256C20,125.869,125.869,20,256,20a237.637,237.637,0,0,1,49.207,5.136A10,10,0,0,0,309.356,5.571ZM73.324,421.22a18,18,0,1,1-5.272,12.728A17.94,17.94,0,0,1,73.324,421.22ZM457.9,98.619a37.952,37.952,0,1,0-14.917,13.407A236.45,236.45,0,0,1,492,256c0,130.131-105.869,236-236,236a238.245,238.245,0,0,1-41.688-3.669,10,10,0,0,0-3.509,19.69A258.392,258.392,0,0,0,256,512,256,256,0,0,0,457.9,98.619Zm-19.227-7.84a18,18,0,1,1,5.272-12.728A17.88,17.88,0,0,1,438.677,90.779ZM168.134,475.1l-3.776,9.26,3.748-9.271a10,10,0,0,0-7.5,18.543l0.309,0.122A10,10,0,0,0,168.134,475.1ZM351.824,18.543l-0.178-.071a10,10,0,1,0-7.428,18.569l0.114,0.046A10,10,0,0,0,351.824,18.543Z"/>
</svg>
