<svg xmlns="http://www.w3.org/2000/svg" width="484" height="360" viewBox="0 0 484 360">
  <metadata><?xpacket begin="﻿" id="W5M0MpCehiHzreSzNTczkc9d"?>
<x:xmpmeta xmlns:x="adobe:ns:meta/" x:xmptk="Adobe XMP Core 5.6-c142 79.160924, 2017/07/13-01:06:39        ">
   <rdf:RDF xmlns:rdf="http://www.w3.org/1999/02/22-rdf-syntax-ns#">
      <rdf:Description rdf:about=""/>
   </rdf:RDF>
</x:xmpmeta>
                                                                                                    
                                                                                                    
                                                                                                    
                                                                                                    
                                                                                                    
                                                                                                    
                                                                                                    
                                                                                                    
                                                                                                    
                                                                                                    
                                                                                                    
                                                                                                    
                                                                                                    
                                                                                                    
                                                                                                    
                                                                                                    
                                                                                                    
                                                                                                    
                                                                                                    
                                                                                                    
                           
<?xpacket end="w"?></metadata>
<defs>
    <style>
      .cls-1 {
        fill: #fff;
        fill-rule: evenodd;
      }
    </style>
  </defs>
  <path class="cls-1" d="M414.74,33.4a113.816,113.816,0,0,0-161.088,0l-9.044,9.054L235.564,33.4A113.967,113.967,0,0,0,74.472,194.657L236.12,356.479a12,12,0,0,0,16.976,0L414.74,194.661A114.111,114.111,0,0,0,414.74,33.4Zm-16.972,144.27L244.608,331,91.444,177.671a90.172,90.172,0,0,1,0-127.284,89.842,89.842,0,0,1,127.148,0L236.12,67.934a11.985,11.985,0,0,0,16.968,0l17.528-17.547A89.957,89.957,0,1,1,397.768,177.671ZM56,151.776H12A12.013,12.013,0,0,0,12,175.8H56A12.013,12.013,0,0,0,56,151.776Zm375.992,0.388H317.144l-17.872-39.35a8,8,0,0,0-14.82.632L247.924,216.493,203.516,93.381a8,8,0,0,0-7.148-5.278,7.779,7.779,0,0,0-7.612,4.589l-29.84,63.476H60a8,8,0,0,0-8,8.009c0,4.421,5.264,7.62,9.684,7.62h104c3.1,0,4.236-1.4,5.556-4.209l23.788-50.6,45.452,125.995A8,8,0,0,0,248,248.267h0.016a7.993,7.993,0,0,0,7.516-5.33l37.376-105.445,11.8,25.992c1.3,2.863,5.832,4.309,8.968,4.309h120c4.416,0,6.312-3.2,6.312-7.62A8.007,8.007,0,0,0,431.992,152.164ZM472,147.771H436a12.013,12.013,0,0,0,0,24.026h36A12.013,12.013,0,0,0,472,147.771Z"/>
</svg>
