<svg id="Layer_1" data-name="Layer 1" xmlns="http://www.w3.org/2000/svg" viewBox="0 0 511.99 490.28"><defs><style>.cls-1{fill:#fff;}.cls-2{fill:none;}</style></defs><title>img-scopes04</title><path class="cls-1" d="M366.29,438H228.6l-11.22-58.57a7.5,7.5,0,1,0-14.73,2.82L213.33,438H176.44l-9.58-50a21.13,21.13,0,0,0-24.75-16.8l-31.29,6A21.14,21.14,0,0,0,94,402l6.91,36H64l-14.12-73.7a.43.43,0,0,0,0-.11,17.07,17.07,0,0,1,1.51-10.94l53-79c1.11-1.65,2.07-3.08,5.57-1.09l78.6,54c5.31,4.91,5.58,10.86,9.13,29.42a7.5,7.5,0,0,0,14.74-2.82l-3.44-18c-1.87-10.69-7.95-18.26-11.55-20.74-.34-.23-79.3-54.44-79.66-54.66-9.64-5.67-19.78-3.5-25.85,5.54l-53.24,79.4a6,6,0,0,0-.41.69,31.87,31.87,0,0,0-3.15,20.93.51.51,0,0,0,0,.13l13.6,71H19.5A19.53,19.53,0,0,0,0,457.53v35A19.53,19.53,0,0,0,19.5,512H394.36a7.5,7.5,0,0,0,0-15H19.5a4.51,4.51,0,0,1-4.5-4.5v-35a4.5,4.5,0,0,1,4.5-4.5h473a4.5,4.5,0,0,1,4.5,4.5v35a4.51,4.51,0,0,1-4.5,4.5H420.12a7.5,7.5,0,1,0,0,15h72.37A19.53,19.53,0,0,0,512,492.5v-35A19.53,19.53,0,0,0,492.49,438H366.29ZM116.2,438c-8.14-42.48-8.4-40.68-6.5-43.48a6.11,6.11,0,0,1,3.94-2.59c33.93-6.5,33.09-6.95,35.9-5s1.85.08,11.63,51.11Z" transform="translate(0 -21.71)"/><path class="cls-1" d="M94.06,369.85a7.66,7.66,0,0,0,1.42-.13l58.11-11.13a7.5,7.5,0,1,0-2.82-14.73L92.66,355a7.5,7.5,0,0,0,1.4,14.86Z" transform="translate(0 -21.71)"/><path class="cls-1" d="M149.81,338.84A7.5,7.5,0,1,0,147,324.11L88.88,335.24a7.5,7.5,0,0,0,1.4,14.87C91.32,350.11,87.33,350.81,149.81,338.84Z" transform="translate(0 -21.71)"/><path class="cls-1" d="M18.6,360.25a18.52,18.52,0,0,0,17.06-11.36l47.16-112.7L195,284.57a18.41,18.41,0,0,0,14.15.2c15.24-6.06,15.57-27.64.49-34.14l-49.26-21.25a7.5,7.5,0,0,0-5.94,13.78L203.7,264.4c4.22,1.82,1.46,8.21-2.75,6.39C73.1,215.66,80.17,217.67,76,219.35s-.45-4.69-54.2,123.75A3.49,3.49,0,0,1,17.27,345a3.48,3.48,0,0,1-1.87-4.55L69.76,210.49a3.49,3.49,0,0,1,4.6-1.86l56.84,24.51a7.5,7.5,0,0,0,5.94-13.78L80.3,194.85a18.49,18.49,0,0,0-24.37,9.84L1.56,334.62A18.51,18.51,0,0,0,18.6,360.25Z" transform="translate(0 -21.71)"/><path class="cls-1" d="M91.92,157.28c21.6,5,62.83,9.21,80.37,15.88-15.12,3.08-47.35,1.67-61.22.48a7.5,7.5,0,0,0-1.22,15c7.62.63,22.27,1.43,35.54,1.43,30.21,0,38.48-4,42.28-7.48a11.92,11.92,0,0,0,1.85-15.39C180,153,127.41,150,95.12,142.63c9.38-2.44,25.2-4.56,40.87-5.2a7.5,7.5,0,1,0-.61-15c-.58,0-14.39.6-28.46,2.64-16.85,2.45-34.08,6.58-34.17,18.65C72.68,152.82,84.26,155.5,91.92,157.28Z" transform="translate(0 -21.71)"/><path class="cls-1" d="M347.92,323.61Z" transform="translate(0 -21.71)"/><path class="cls-2" d="M455.47,216a70.67,70.67,0,0,0-3.19-11.4,85.1,85.1,0,0,1-5.75-43.46c-26,6.49-60.93,10.09-102.38,10.09-46.25,0-94.09-5-127.47-14.7,11.95,19.63,30.77,29.81,52.69,41.63,5.47,3,11.15,6,16.91,9.34a150.77,150.77,0,0,1,46,40c13.77-1.44,28.32-3.66,43.17-6.7A385.31,385.31,0,0,0,455.47,216Z" transform="translate(0 -21.71)"/><path class="cls-2" d="M234.27,80.86c24.06,7.08,61.79,12.6,109.87,12.6,2.67,0,5.31,0,7.92,0,44.5-.58,79.09-6,101.63-12.66C427,72.84,386.85,68.09,344.14,68.09,301.26,68.09,261,72.88,234.27,80.86Z" transform="translate(0 -21.71)"/><path class="cls-2" d="M347.92,323.61Z" transform="translate(0 -21.71)"/><path class="cls-2" d="M449.3,149.35a170.5,170.5,0,0,1,14.17-30.63,177.05,177.05,0,0,0,16.69-37.41C456.69,95.2,407,102.85,355.84,103.86l-3.1.06-2.52,0c-2,0-4,0-6.06,0l-6.37,0-2,0-4.49-.08-2.19,0c-1.53,0-3.06-.08-4.59-.14l-1.8-.05c-2.12-.08-4.22-.17-6.32-.27l-.85,0c-1.83-.09-3.63-.19-5.43-.3l-2-.12-4.41-.29-2-.15L297,102l-1.35-.11q-3.08-.27-6.09-.57l-1.23-.12q-2.4-.24-4.77-.51l-1.87-.21-4.22-.52-1.75-.22q-2.54-.33-5-.69l-.71-.1q-2.87-.4-5.66-.86l-1.34-.22c-1.41-.23-2.8-.47-4.17-.71l-1.69-.3-3.9-.74-1.47-.3q-5.24-1-10.11-2.24l-1.33-.33c-1.18-.29-2.35-.59-3.49-.9L235.3,92c-1.16-.31-2.3-.64-3.42-1l-1.14-.34c-1.47-.44-2.92-.9-4.33-1.37l-.44-.16c-1.22-.41-2.42-.84-3.6-1.28l-1.2-.45c-.93-.35-1.83-.71-2.72-1.08l-1.2-.49c-.95-.41-1.87-.82-2.78-1.24l-.77-.35c-1.13-.54-2.22-1.09-3.26-1.65l-.67-.38c-.81-.44-1.58-.89-2.32-1.34-.33-.19-.63-.39-.93-.58-.64-.41-1.26-.83-1.86-1.25l-.84-.6c-.14-.11-.3-.21-.44-.31-1.69,29.07,1,49.83,7.05,65.56,27.14,9.38,73.37,17,133.73,17C391.2,160.75,425.87,156,449.3,149.35Z" transform="translate(0 -21.71)"/><path class="cls-2" d="M347.92,323.61a124.24,124.24,0,0,1-11.34,29.22,178.25,178.25,0,0,0,57.08-22.75c-2.77-.12-5.62-.28-8.57-.49A196.48,196.48,0,0,1,347.92,323.61Z" transform="translate(0 -21.71)"/><path class="cls-2" d="M377.59,251.08c-13.3,2.72-26.37,4.8-38.92,6.3a91.28,91.28,0,0,1,9.42,23.18,87.14,87.14,0,0,1,1.76,32.65,176.45,176.45,0,0,0,36,5.89c8.32.61,15.76.82,22.49.65a138.9,138.9,0,0,0,33.95-38.41A98.78,98.78,0,0,0,456.82,227,405.39,405.39,0,0,1,377.59,251.08Z" transform="translate(0 -21.71)"/><path class="cls-2" d="M455.47,216a70.67,70.67,0,0,0-3.19-11.4,85.1,85.1,0,0,1-5.75-43.46c-26,6.49-60.93,10.09-102.38,10.09-46.25,0-94.09-5-127.47-14.7,11.95,19.63,30.77,29.81,52.69,41.63,5.47,3,11.15,6,16.91,9.34a150.77,150.77,0,0,1,46,40c13.77-1.44,28.32-3.66,43.17-6.7A385.31,385.31,0,0,0,455.47,216Z" transform="translate(0 -21.71)"/><path class="cls-2" d="M218.62,75.16c27.16-11,73.78-17.59,125.53-17.59,51.56,0,98,6.52,125.24,17.48,8.55-3.86,13.42-7.84,14.21-11.36a4.94,4.94,0,0,0,.11-.86c0-12.77-53.11-30.63-139.57-30.63S204.58,50.06,204.59,62.82C204.59,66.68,209.46,71,218.62,75.16Z" transform="translate(0 -21.71)"/><path class="cls-2" d="M234.27,80.86c24.06,7.08,61.79,12.6,109.87,12.6,2.67,0,5.31,0,7.92,0,44.5-.58,79.09-6,101.63-12.66C427,72.84,386.85,68.09,344.14,68.09,301.26,68.09,261,72.88,234.27,80.86Z" transform="translate(0 -21.71)"/><path class="cls-2" d="M347.92,323.61Z" transform="translate(0 -21.71)"/><path class="cls-2" d="M449.3,149.35a170.5,170.5,0,0,1,14.17-30.63,177.05,177.05,0,0,0,16.69-37.41C456.69,95.2,407,102.85,355.84,103.86l-3.1.06-2.52,0c-2,0-4,0-6.06,0l-6.37,0-2,0-4.49-.08-2.19,0c-1.53,0-3.06-.08-4.59-.14l-1.8-.05c-2.12-.08-4.22-.17-6.32-.27l-.85,0c-1.83-.09-3.63-.19-5.43-.3l-2-.12-4.41-.29-2-.15L297,102l-1.35-.11q-3.08-.27-6.09-.57l-1.23-.12q-2.4-.24-4.77-.51l-1.87-.21-4.22-.52-1.75-.22q-2.54-.33-5-.69l-.71-.1q-2.87-.4-5.66-.86l-1.34-.22c-1.41-.23-2.8-.47-4.17-.71l-1.69-.3-3.9-.74-1.47-.3q-5.24-1-10.11-2.24l-1.33-.33c-1.18-.29-2.35-.59-3.49-.9L235.3,92c-1.16-.31-2.3-.64-3.42-1l-1.14-.34c-1.47-.44-2.92-.9-4.33-1.37l-.44-.16c-1.22-.41-2.42-.84-3.6-1.28l-1.2-.45c-.93-.35-1.83-.71-2.72-1.08l-1.2-.49c-.95-.41-1.87-.82-2.78-1.24l-.77-.35c-1.13-.54-2.22-1.09-3.26-1.65l-.67-.38c-.81-.44-1.58-.89-2.32-1.34-.33-.19-.63-.39-.93-.58-.64-.41-1.26-.83-1.86-1.25l-.84-.6c-.14-.11-.3-.21-.44-.31-1.69,29.07,1,49.83,7.05,65.56,27.14,9.38,73.37,17,133.73,17C391.2,160.75,425.87,156,449.3,149.35Z" transform="translate(0 -21.71)"/><path class="cls-2" d="M377.59,251.08c-13.3,2.72-26.37,4.8-38.92,6.3a91.28,91.28,0,0,1,9.42,23.18,87.14,87.14,0,0,1,1.76,32.65,176.45,176.45,0,0,0,36,5.89c8.32.61,15.76.82,22.49.65a138.9,138.9,0,0,0,33.95-38.41A98.78,98.78,0,0,0,456.82,227,405.39,405.39,0,0,1,377.59,251.08Z" transform="translate(0 -21.71)"/><path class="cls-1" d="M500,185.22c-6.1-16.81-29.77-15.52-30.77-15.46a5.25,5.25,0,0,0,.65,10.48c.18,0,16.85-.79,20.25,8.56.15.41.6,1.67-.81,4.2-2.93,5.24-11.35,11.65-24.08,18.28a80.41,80.41,0,0,0-3.12-10.38c-6.47-17.19-7-30.77-4.23-42.94,25.46-8.06,39.8-19.43,39.8-33.18a5.25,5.25,0,0,0-10.5,0c0,6.4-8.17,13.9-25.21,20.41a215.62,215.62,0,0,1,10.73-21.45c8.63-15.81,18.42-33.74,21.23-58.07a14.94,14.94,0,0,0,.3-2.83c0-27-75.5-41.13-150.07-41.13-73.92,0-148.7,13.89-150,40.43a1.29,1.29,0,0,1,0,.19c-3.26,33.14-1.5,57.57,3.83,76.31-9.68-4.69-14.85-9.52-14.85-13.88a5.25,5.25,0,1,0-10.5,0c0,10.87,11.49,19.92,30,27.06,12.83,29.16,36.29,41.82,61.79,55.59,5.42,2.92,11,5.94,16.66,9.19a145,145,0,0,1,38.86,32,264.55,264.55,0,0,1-33.67.46c-25.59-1.5-35.76-7.33-36.69-11.88a5.25,5.25,0,0,0-10.28,2.1c2.39,11.79,18,18.6,46.35,20.26q6.38.38,13.33.37c8.84,0,18.31-.45,28.23-1.32a82.89,82.89,0,0,1,10.74,24.52,76.54,76.54,0,0,1,1.79,26.38c-6.47-3-10-6.35-10.74-9.45a5.25,5.25,0,1,0-10.24,2.33c1.82,8,9.36,13.75,19.2,17.82a121,121,0,0,1-16,37,5.25,5.25,0,0,0,5.23,8,187.45,187.45,0,0,0,84.95-35.08c28.24-1.32,44.66-9.68,53.07-26.39a5.25,5.25,0,1,0-9.38-4.72c-5.06,10-14.43,16.23-29.49,19a145,145,0,0,0,25.09-31.37A107.78,107.78,0,0,0,467,222.25c15.9-8,27.09-16.3,31.47-24.12A15.15,15.15,0,0,0,500,185.22ZM344.14,32.2c86.46,0,139.57,17.86,139.57,30.63a4.94,4.94,0,0,1-.11.86c-.79,3.52-5.66,7.5-14.21,11.36-27.21-11-73.68-17.48-125.24-17.48-51.75,0-98.37,6.56-125.53,17.59-9.16-4.16-14-8.48-14-12.34C204.58,50.06,257.67,32.2,344.14,32.2ZM453.69,80.76c-22.54,6.69-57.13,12.08-101.63,12.66-2.61,0-5.25,0-7.92,0-48.08,0-85.81-5.52-109.87-12.6,26.7-8,67-12.77,109.87-12.77C386.85,68.09,427,72.84,453.69,80.76ZM203.38,78.15c.14.1.3.2.44.31l.84.6c.6.42,1.22.84,1.86,1.25.3.19.6.39.93.58.74.45,1.51.9,2.32,1.34l.67.38c1,.56,2.13,1.11,3.26,1.65l.77.35c.91.42,1.83.83,2.78,1.24l1.2.49c.89.37,1.79.73,2.72,1.08l1.2.45c1.18.44,2.38.87,3.6,1.28l.44.16c1.41.47,2.86.93,4.33,1.37l1.14.34c1.12.33,2.26.66,3.42,1l1.46.4c1.14.31,2.31.61,3.49.9l1.33.33q4.88,1.2,10.11,2.24l1.47.3,3.9.74,1.69.3c1.37.24,2.76.48,4.17.71l1.34.22q2.79.45,5.66.86l.71.1q2.5.36,5,.69l1.75.22,4.22.52,1.87.21q2.37.27,4.77.51l1.23.12q3,.3,6.09.57L297,102l4.82.38,2,.15,4.41.29,2,.12c1.8.11,3.6.21,5.43.3l.85,0c2.1.1,4.2.19,6.32.27l1.8.05c1.53.06,3.06.1,4.59.14l2.19,0,4.49.08,2,0,6.37,0c2,0,4,0,6.06,0l2.52,0,3.1-.06c51.17-1,100.85-8.66,124.32-22.55a177.05,177.05,0,0,1-16.69,37.41,170.5,170.5,0,0,0-14.17,30.63c-23.43,6.62-58.1,11.4-105.14,11.4-60.36,0-106.59-7.66-133.73-17C204.41,128,201.69,107.22,203.38,78.15ZM332.31,247.5a150.77,150.77,0,0,0-46-40c-5.76-3.32-11.44-6.38-16.91-9.34-21.92-11.82-40.74-22-52.69-41.63,33.38,9.66,81.22,14.7,127.47,14.7,41.45,0,76.36-3.6,102.38-10.09a85.1,85.1,0,0,0,5.75,43.46,70.67,70.67,0,0,1,3.19,11.4,385.31,385.31,0,0,1-80,24.8C360.63,243.84,346.08,246.06,332.31,247.5Zm4.27,105.33a124.24,124.24,0,0,0,11.34-29.22h0a196.48,196.48,0,0,0,37.17,6c3,.21,5.8.37,8.57.49A178.25,178.25,0,0,1,336.58,352.83ZM442.3,281.34a138.9,138.9,0,0,1-33.95,38.41c-6.73.17-14.17,0-22.49-.65a176.45,176.45,0,0,1-36-5.89,87.14,87.14,0,0,0-1.76-32.65,91.28,91.28,0,0,0-9.42-23.18c12.55-1.5,25.62-3.58,38.92-6.3A405.39,405.39,0,0,0,456.82,227,98.78,98.78,0,0,1,442.3,281.34Z" transform="translate(0 -21.71)"/><path class="cls-1" d="M420,52.47a5.27,5.27,0,0,1,6.08-4.29c7.55,1.29,15.13,2.73,22.53,4.29a5.26,5.26,0,0,1-1.08,10.4,5.06,5.06,0,0,1-1.09-.12c-7.27-1.53-14.7-3-22.12-4.21a5.21,5.21,0,0,1-3.41-2.14,5.28,5.28,0,0,1-.9-3.93Z" transform="translate(0 -21.71)"/><path class="cls-1" d="M347.71,134.42a5.26,5.26,0,0,1-5.15-5.35,5.21,5.21,0,0,1,5.35-5.15c.53,0,54.21.9,92.47-10.28a5.25,5.25,0,0,1,2.94,10.08c-33.9,9.91-77.77,10.73-91.44,10.73-2.37,0-3.83,0-4.17,0Z" transform="translate(0 -21.71)"/><path class="cls-1" d="M325.07,128.47a5.25,5.25,0,0,1-5.78,4.63c-13.75-1.52-22.93-3.13-23.31-3.19a5.25,5.25,0,0,1,1.82-10.34c.09,0,9.26,1.61,22.64,3.1a5.25,5.25,0,0,1,4.63,5.8Z" transform="translate(0 -21.71)"/><path class="cls-1" d="M363.13,269.37c42.05-3.34,60.94-13.58,61.13-13.68a5.25,5.25,0,0,1,5.14,9.15c-.82.47-20.75,11.45-65.44,15l-.42,0a5.25,5.25,0,0,1-.41-10.49Z" transform="translate(0 -21.71)"/><path class="cls-1" d="M398.9,183.14a5.25,5.25,0,0,0-4.42-1.49l-16.34,2.22a27.67,27.67,0,0,0-23.48,32.48l.57,3L350.67,224a5.25,5.25,0,0,0,7.42,7.43l4.56-4.56,3,.56a27.6,27.6,0,0,0,32.48-23.47h0l2.22-16.34A5.25,5.25,0,0,0,398.9,183.14ZM387.77,202.5a17,17,0,0,1-7,11.6h0a17,17,0,0,1-8.62,3.18l3.9-3.9a5.25,5.25,0,0,0-7.43-7.43l-3.9,3.9a17.14,17.14,0,0,1,14.79-15.58l9.5-1.29Z" transform="translate(0 -21.71)"/><path class="cls-1" d="M297.4,315h0l-5.66-3.09-.3-3.08a27.66,27.66,0,0,0-31.68-24.54l-16.31,2.48a5.24,5.24,0,0,0-4,7.34l6.74,15.05a27.64,27.64,0,0,0,37.77,13.37l2.76-1.4,5.66,3.09a5.25,5.25,0,1,0,5-9.22Zm-22.34-12.18a5.26,5.26,0,0,0-5,9.23l4.83,2.63a17,17,0,0,1-9.17-.64h0a17,17,0,0,1-9.94-9.17l-3.92-8.74,9.49-1.45a17.15,17.15,0,0,1,18.58,10.78Z" transform="translate(0 -21.71)"/><path class="cls-1" d="M234.57,204.45l-4-4.25a27.66,27.66,0,0,0-40.08-.21L179,211.87a5.26,5.26,0,0,0,1.29,8.26l14.5,7.85A27.63,27.63,0,0,0,208,231.34a28.1,28.1,0,0,0,8.58-1.37,27.46,27.46,0,0,0,16.41-14.37l2.53-5.28A5.23,5.23,0,0,0,234.57,204.45Zm-11.09,6.63a17.17,17.17,0,0,1-23.65,7.67l-8.45-4.57,6.66-6.9A16.68,16.68,0,0,1,210.5,202a17,17,0,0,1,12.4,5.4l1.55,1.65Z" transform="translate(0 -21.71)"/></svg>