<svg id="圖層_1" data-name="圖層 1" xmlns="http://www.w3.org/2000/svg" viewBox="0 0 580.61 580.64"><defs><style>.cls-1{fill:#fff;}</style></defs><title>img-scopes05</title><path class="cls-1" d="M68,107.76A96.77,96.77,0,1,0,164.79,11,96.76,96.76,0,0,0,68,107.76Zm96.77-77.42a77.42,77.42,0,1,1-77.42,77.42,77.42,77.42,0,0,1,77.42-77.42Zm0,0" transform="translate(261 260)"/><rect class="cls-1" x="370.49" y="561.29" width="110.6" height="19.35"/><rect class="cls-1" x="329.02" y="522.58" width="193.54" height="19.35"/><rect class="cls-1" x="116.13" y="522.58" width="19.35" height="19.35"/><rect class="cls-1" x="58.07" y="541.94" width="19.35" height="19.36"/><path class="cls-1" d="M-143.9,208.13A733,733,0,0,0-50.8-78.3l90,89.46A9.66,9.66,0,0,0,46,14a9.16,9.16,0,0,0,1.57-.13,9.64,9.64,0,0,0,7.09-5.22A94.46,94.46,0,0,0,36.9-100.55L29-108.47H97a9.68,9.68,0,0,0,9.69-9.67,9.63,9.63,0,0,0-.5-3.07,94.49,94.49,0,0,0-89.74-64.68H3.91l48.32-48.6a9.66,9.66,0,0,0,0-13.68A9.75,9.75,0,0,0,49.7-250,94.49,94.49,0,0,0-59.54-232.25L-68.78-223a92,92,0,0,0-8.39,9.68A91.31,91.31,0,0,0-85.49-223l-9.23-9.24A94.46,94.46,0,0,0-203.9-250a9.69,9.69,0,0,0-4.33,13,9.82,9.82,0,0,0,1.8,2.5l48.38,48.6h-12.7a94.5,94.5,0,0,0-89.75,64.68A9.68,9.68,0,0,0-254.38-109a9.63,9.63,0,0,0,3.07.5h68l-7.92,7.92A94.46,94.46,0,0,0-209,8.63a9.67,9.67,0,0,0,7.09,5.22,9.16,9.16,0,0,0,1.57.13,9.63,9.63,0,0,0,6.82-2.82l83.81-83.31A524.46,524.46,0,0,1-210.85,183.59a363.22,363.22,0,0,0-39.5-8.05l-6-.61-1.94,19.27,5.64.55c9.68,1.38,19.29,3.34,28.86,5.55-1.94,2.43-3.87,4.9-5.88,7.29L-214.86,220A544.86,544.86,0,0,0-88.27-93.43l11.14-11.07,8.33,8.29A707.49,707.49,0,0,1-191.5,247.31l15.85,11.09c7.6-10.86,14.86-22.13,21.9-33.61A343.16,343.16,0,0,1-36.67,316.52l15-12.26a361.41,361.41,0,0,0-64.26-61H319.61V223.88H-114.63c-9.49-5.73-19.27-10.92-29.27-15.75ZM42.41-12.94-59.83-114.6A74.66,74.66,0,0,1,14-96.12l9.24,9.25A75.12,75.12,0,0,1,42.41-12.94ZM82.28-127.82H2.16A94.4,94.4,0,0,0-57.78-135,75,75,0,0,1,3.39-166.53H16.45a75.14,75.14,0,0,1,65.83,38.71ZM-55.13-209.33l9.25-9.24a75.2,75.2,0,0,1,74-19.14L-29.28-180A94.43,94.43,0,0,0-75-144.15,73.25,73.25,0,0,1-55.1-209.33Zm-53.31-9.24,9.24,9.24a73.15,73.15,0,0,1,11.13,14.66,92.2,92.2,0,0,0-7.39,32.17A94.39,94.39,0,0,0-125-180l-57.38-57.71a75.17,75.17,0,0,1,73.94,19.14Zm-62.34,52h13.06A75.05,75.05,0,0,1-96.49-135a94.46,94.46,0,0,0-59.91,7.17h-80.15a75.14,75.14,0,0,1,65.8-38.71Zm-25.9,153.59a75.16,75.16,0,0,1,19.13-73.93l9.24-9.25a74,74,0,0,1,52.47-21.59,76.59,76.59,0,0,1,21.44,3.07Zm0,0" transform="translate(261 260)"/></svg>