<svg id="圖層_1" data-name="圖層 1" xmlns="http://www.w3.org/2000/svg" viewBox="0 0 512 512"><defs><style>.cls-1{fill:#fefefe;}</style></defs><title>img-scopes06</title><path class="cls-1" d="M30,200.67c-94.11,0-170.67-76.57-170.67-170.67S-64.11-140.67,30-140.67,200.67-64.11,200.67,30,124.11,200.67,30,200.67ZM30-123.6c-84.69,0-153.6,68.91-153.6,153.6S-54.69,183.6,30,183.6,183.6,114.69,183.6,30,114.69-123.6,30-123.6Zm0,0" transform="translate(226 226)"/><path class="cls-1" d="M30,286a8.54,8.54,0,0,1-8.54-8.54V226.27a8.54,8.54,0,1,1,17.07,0v51.19A8.53,8.53,0,0,1,30,286Zm0,0" transform="translate(226 226)"/><path class="cls-1" d="M30-157.73a8.54,8.54,0,0,1-8.54-8.54v-51.2A8.54,8.54,0,0,1,30-226a8.53,8.53,0,0,1,8.53,8.53v51.2A8.53,8.53,0,0,1,30-157.73Zm0,0" transform="translate(226 226)"/><path class="cls-1" d="M-166.27,38.53h-51.2A8.53,8.53,0,0,1-226,30a8.54,8.54,0,0,1,8.53-8.54h51.2A8.55,8.55,0,0,1-157.73,30a8.54,8.54,0,0,1-8.54,8.53Zm0,0" transform="translate(226 226)"/><path class="cls-1" d="M277.46,38.53H226.27a8.54,8.54,0,1,1,0-17.07h51.19a8.54,8.54,0,1,1,0,17.07Zm0,0" transform="translate(226 226)"/><path class="cls-1" d="M-12.67,158a8.53,8.53,0,0,1-3.86-.92A8.55,8.55,0,0,1-21,147.55L2.21,47.07H-38.27a8.55,8.55,0,0,1-7.76-5A8.52,8.52,0,0,1-44.72,33L66.21-95a8.54,8.54,0,0,1,10.32-2A8.52,8.52,0,0,1,81-87.54L57.79,12.93H98.27a8.53,8.53,0,0,1,6.45,14.12l-110.94,128A8.48,8.48,0,0,1-12.67,158ZM-19.58,30H12.93a8.55,8.55,0,0,1,8.32,10.45L3.37,117.94,79.58,30H47.07a8.54,8.54,0,0,1-8.32-10.45L56.63-57.94Zm0,0" transform="translate(226 226)"/><path class="cls-1" d="M205,213.52a8.54,8.54,0,0,1-6-2.5l-36.2-36.2a8.53,8.53,0,0,1,12.07-12.07L211,199a8.54,8.54,0,0,1-6,14.57Zm0,0" transform="translate(226 226)"/><path class="cls-1" d="M-108.78-100.25a8.52,8.52,0,0,1-6-2.5L-151-138.95A8.52,8.52,0,0,1-151-151a8.52,8.52,0,0,1,12.07,0l36.2,36.2a8.52,8.52,0,0,1,0,12.07,8.48,8.48,0,0,1-6,2.5Zm0,0" transform="translate(226 226)"/><path class="cls-1" d="M-145,213.52a8.53,8.53,0,0,1-6-2.5A8.52,8.52,0,0,1-151,199l36.21-36.2a8.53,8.53,0,0,1,12.06,0,8.52,8.52,0,0,1,0,12.07l-36.2,36.2a8.54,8.54,0,0,1-6,2.5Zm0,0" transform="translate(226 226)"/><path class="cls-1" d="M168.79-100.25a8.54,8.54,0,0,1-6-2.5,8.54,8.54,0,0,1,0-12.07L199-151A8.52,8.52,0,0,1,211-151a8.52,8.52,0,0,1,0,12.07l-36.2,36.2a8.5,8.5,0,0,1-6,2.5Zm0,0" transform="translate(226 226)"/></svg>