<svg id="圖層_1" data-name="圖層 1" xmlns="http://www.w3.org/2000/svg" viewBox="0 0 409.6 336"><defs><style>.cls-1{fill:#fff;}</style></defs><title>img-scopes01</title><path class="cls-1" d="M-175-17h12a59.94,59.94,0,0,1,59.06,50.69c26.71,2.79,41,13.92,48.94,17.84V43c0-46.31,38.49-84,84.8-84a84.11,84.11,0,0,1,84,84v9.09c8.56-3.74,21.5-15.11,48.93-18.31C167.21,5.09,192.68-17,222.6-17h12V-137H-175Zm312.8-96h72.8v24H137.8Zm-96,0h72v24h-72ZM-55-113H17.8v24H-55Zm-96,0h72v24h-72Zm0,0" transform="translate(175 137)"/><path class="cls-1" d="M131.74,69.87a52.78,52.78,0,0,1-58.69,0,76.71,76.71,0,0,0-85.31,0,54.11,54.11,0,0,1-59.49,0,76.71,76.71,0,0,0-85.31,0c-7.06,4.7-12.15,5.88-17.94,8.3V125.5a53.05,53.05,0,0,0,17.94-7.63,76.71,76.71,0,0,1,85.31,0,54.11,54.11,0,0,0,59.49,0,76.71,76.71,0,0,1,85.31,0,52.78,52.78,0,0,0,58.69,0,78,78,0,0,1,86.11,0,52.15,52.15,0,0,0,16.75,6.93V77.88c-5-2.21-10.38-3.75-16.75-8a78,78,0,0,0-86.11,0Zm0,0" transform="translate(175 137)"/><path class="cls-1" d="M145.05,137.84a76.67,76.67,0,0,1-85.31,0,52.78,52.78,0,0,0-58.69,0,78,78,0,0,1-86.11,0,52.78,52.78,0,0,0-58.69,0A76.65,76.65,0,0,1-175,149.61V199H234.6V149.09c-10.59-1.76-20.94-5.17-30.06-11.25a54.11,54.11,0,0,0-59.49,0Zm0,0" transform="translate(175 137)"/></svg>