<svg xmlns="http://www.w3.org/2000/svg" width="512" height="448" viewBox="0 0 512 448">
  <metadata><?xpacket begin="﻿" id="W5M0MpCehiHzreSzNTczkc9d"?>
<x:xmpmeta xmlns:x="adobe:ns:meta/" x:xmptk="Adobe XMP Core 5.6-c142 79.160924, 2017/07/13-01:06:39        ">
   <rdf:RDF xmlns:rdf="http://www.w3.org/1999/02/22-rdf-syntax-ns#">
      <rdf:Description rdf:about=""/>
   </rdf:RDF>
</x:xmpmeta>
                                                                                                    
                                                                                                    
                                                                                                    
                                                                                                    
                                                                                                    
                                                                                                    
                                                                                                    
                                                                                                    
                                                                                                    
                                                                                                    
                                                                                                    
                                                                                                    
                                                                                                    
                                                                                                    
                                                                                                    
                                                                                                    
                                                                                                    
                                                                                                    
                                                                                                    
                                                                                                    
                           
<?xpacket end="w"?></metadata>
<defs>
    <style>
      .cls-1 {
        fill: #fff;
        fill-rule: evenodd;
      }
    </style>
  </defs>
  <path class="cls-1" d="M398.7,381.2h-52.12a10.444,10.444,0,1,0,0,20.887H398.7A10.444,10.444,0,1,0,398.7,381.2Zm-88.461,0H113.022a10.444,10.444,0,1,0,0,20.887H310.241A10.444,10.444,0,1,0,310.242,381.2Zm68.95,45.916H357.365a10.443,10.443,0,1,0,0,20.886h21.827A10.443,10.443,0,1,0,379.192,427.114Zm-153.181,0h-28.5a10.443,10.443,0,1,0,0,20.886h28.5A10.443,10.443,0,1,0,226.011,427.114Zm-64.031,0H137.551a10.443,10.443,0,1,0,0,20.886H161.98A10.443,10.443,0,1,0,161.98,427.114Zm159.86,0h-60.3a10.443,10.443,0,1,0,0,20.886h60.3A10.443,10.443,0,1,0,321.84,427.114ZM501.551,289.369H476.338V254.546a45.7,45.7,0,0,0,25.078,7.467,10.444,10.444,0,1,0,0-20.887,25.1,25.1,0,0,1-25.078-25.064v-2.23a45.705,45.705,0,0,0,25.078,7.467,10.444,10.444,0,1,0,0-20.887,25.1,25.1,0,0,1-25.078-25.065v-2.23a45.7,45.7,0,0,0,25.078,7.467,10.443,10.443,0,1,0,0-20.886,25.1,25.1,0,0,1-25.078-25.065,10.449,10.449,0,0,0-20.9,0A25.1,25.1,0,0,1,430.362,159.7a10.443,10.443,0,1,0,0,20.886,45.71,45.71,0,0,0,25.078-7.467v2.23a25.1,25.1,0,0,1-25.078,25.065,10.444,10.444,0,1,0,0,20.887,45.719,45.719,0,0,0,25.078-7.467v2.23a25.1,25.1,0,0,1-25.078,25.064,10.444,10.444,0,1,0,0,20.887,45.71,45.71,0,0,0,25.078-7.467v34.823H420.978l-76.12-136.392c1.773,0.124,3.554.21,5.348,0.21A75.063,75.063,0,1,0,283.689,43.374L262.507,5.421a10.452,10.452,0,0,0-18.118-.231L207.139,68.13,193.777,45.9a10.451,10.451,0,0,0-8.957-5.066h-0.051a10.452,10.452,0,0,0-8.958,5.154L32.749,289.369h-22.3a10.444,10.444,0,1,0,0,20.887h491.1A10.444,10.444,0,1,0,501.551,289.369ZM350.206,23.949a54.176,54.176,0,1,1-18.761,104.994L297.094,67.394A54.376,54.376,0,0,1,350.206,23.949ZM56.986,289.37L174.377,89.664v52.623a10.432,10.432,0,0,0,1.05,4.562l20.62,42.428-38.57,51.408a10.441,10.441,0,0,0,.112,12.679l28.024,36.006H56.986Zm155.1,0h0l-33.106-42.536,37.606-50.124a10.436,10.436,0,0,0,1.04-10.827l-22.356-46V88.954L315.741,289.368H212.089Zm128.034,0L219.372,88.485l33.743-57.014,143.933,257.9H340.123ZM72.512,335.284h-34.7a10.444,10.444,0,1,0,0,20.887h34.7A10.444,10.444,0,1,0,72.512,335.284Zm397.686,0H412.745a10.444,10.444,0,1,0,0,20.887H470.2A10.444,10.444,0,1,0,470.2,335.284Zm-92.979,0H108.039a10.444,10.444,0,1,0,0,20.887h269.18A10.444,10.444,0,1,0,377.219,335.284Z"/>
</svg>
