<svg id="圖層_1" data-name="圖層 1" xmlns="http://www.w3.org/2000/svg" viewBox="0 0 400 398.04"><defs><style>.cls-1{fill:#281c43;}.cls-2{fill:#a3bdde;}.cls-3{fill:none;}.cls-4{fill:#0493db;}.cls-5{fill:#0293dc;}</style></defs><title>ROC_National_Development_Council_Emblem</title><g id="g3988"><path id="path15" class="cls-1" d="M376.83,29.16l21.58,47.62c3.34,7.86.7,16.1-1.39,23.87-4.3,16-14.94,28-25.93,39.62A538.09,538.09,0,0,1,308,197.53c-37.51,27.42-66.27,47-111.18,66.77l-29.62-46.57c39.41-17.61,79.37-38.68,111-58.63,27.11-17,52-35.84,75.12-58.12,31.39-29.66,23.12-62.9,23.46-71.82Z" transform="translate(0 20.35)"/><path id="path17" class="cls-1" d="M148.31,109.41C114.68,128.67,76.16,157.2,53.39,183c-22.94,27.9-27,37-34,54.41a44.59,44.59,0,0,0,2.27,38.86C33.14,291,50.74,303.09,67,312.05c-6.79-18.61-8.4-31.07,1.28-49.63a161.28,161.28,0,0,1,19.47-28c23.61-27.12,53.55-50.87,82.86-71.56l-22.33-53.42Z" transform="translate(0 20.35)"/><path id="path19" class="cls-1" d="M387.35,134.35a178.15,178.15,0,0,1,9.53,20.22c3.66,8.23,1.24,22-9.37,39.94-19.66,28.73-44.86,51.93-72.65,72.52-26,19.32-51.95,34.94-77.9,46.38L217,282c33.49-16.77,67.51-35.39,94-53.46,20.85-14.34,41-29.62,57.53-49,12.59-16.75,19.13-22.7,18.8-45.18Z" transform="translate(0 20.35)"/><path id="path3228" class="cls-2" d="M319.43,7.71a216,216,0,0,0-24.86,1.41c-29.17,4.23-84.15,19.3-115.63,42.75l6.45,15.48c2.81-1,6.3-2.18,11-4,24.33-7.56,64-23.81,87-26.65,41.55-4.95,88,9.28,88.37,38.41,8.93-20.94,4.83-39.63,5.07-46C365.24,9.75,348.49,8,319.43,7.71Z" transform="translate(0 20.35)"/><path id="path3317" class="cls-2" d="M251.4,121.9c-15.56,3.44-29.35,7.44-38.53,11.1l1.81,4.28c6.81-1.53,16.31-2.27,30.7-3.23,19.25-.82,50.06-4.21,78.54-1.84,36.72,2.84,60.23,16.06,61.59,19.79a61,61,0,0,0,1.85-17.06,5.8,5.8,0,0,1,0-.59c-11.6-19.4-30.95-22.43-60-22.73C302.38,112.58,275.69,114.83,251.4,121.9Z" transform="translate(0 20.35)"/><path id="path3224" class="cls-2" d="M21.6,276.18c20.09,42.35,38.63,64.73,76.23,85.12,32.56,13.72,46.8,15.22,81.37,16.22,30.86,1.25,87.23-4.12,138.84-31.25L289.4,296.73c-26.82,10.53-97.54,35.66-129.6,36-28.8.63-51-2.06-81.27-14.72-18.92-9.17-42.69-23.52-56.93-41.82Z" transform="translate(0 20.35)"/><path id="path3078" class="cls-3" d="M143.05,97.09c1.07,41.4-26,76-60.45,77.29s-63.26-31.22-64.33-72.62,26-76,60.45-77.29,63.11,31,64.32,72.32" transform="translate(0 20.35)"/><g id="g3347-1-1"><path id="path3040-7-7" class="cls-4" d="M292.51-20.35l-71.3,175.21-71-169.56H101.53A17.85,17.85,0,0,0,81.34,2.47,17.57,17.57,0,0,0,83.45,10a15.51,15.51,0,0,0-9.52,24.6h-.1a14.24,14.24,0,1,0,12,22.47,14.23,14.23,0,0,0,23.19,0,14.24,14.24,0,0,0,12,6,12.19,12.19,0,0,0,6.28-1.81l51,121.92h54.25L314.41-20.35Z" transform="translate(0 20.35)"/><path id="path3124-4-4" class="cls-5" d="M47.73,116.54a9.53,9.53,0,1,1-9.81-9.25,9.53,9.53,0,0,1,9.81,9.25" transform="translate(0 20.35)"/><path id="path3120-0-0" class="cls-5" d="M93.85,116.54A9.54,9.54,0,1,1,84,107.29a9.55,9.55,0,0,1,9.81,9.25" transform="translate(0 20.35)"/><path id="path3122-9-9" class="cls-5" d="M71.54,116.54a9.54,9.54,0,1,1-9.82-9.25,9.55,9.55,0,0,1,9.82,9.25" transform="translate(0 20.35)"/><path id="path3114-4-4" class="cls-5" d="M78.72,139.13a8,8,0,1,1-8.24-7.77,8,8,0,0,1,8.24,7.77" transform="translate(0 20.35)"/><path id="path3118-8-8" class="cls-5" d="M32.76,139.13a8,8,0,1,1-8.24-7.77,8,8,0,0,1,8.24,7.77" transform="translate(0 20.35)"/><path id="path3116-8-8" class="cls-5" d="M56.32,139.13a8,8,0,1,1-8.24-7.77,8,8,0,0,1,8.24,7.77" transform="translate(0 20.35)"/><path id="path3106-2-2" class="cls-5" d="M56.64,183.69a6.16,6.16,0,1,1-6.34-6,6.16,6.16,0,0,1,6.34,6" transform="translate(0 20.35)"/><path id="path3108-4-4" class="cls-5" d="M65.05,161.63a6.17,6.17,0,1,1-6.34-6,6.17,6.17,0,0,1,6.34,6" transform="translate(0 20.35)"/><path id="path3104-5-5" class="cls-5" d="M12.33,183.69a6.17,6.17,0,1,1-6.35-6,6.17,6.17,0,0,1,6.35,6" transform="translate(0 20.35)"/><path id="path3112-5-5" class="cls-5" d="M19.07,161.63a6.16,6.16,0,1,1-6.34-6,6.16,6.16,0,0,1,6.34,6" transform="translate(0 20.35)"/><path id="path3102-1-1" class="cls-5" d="M35,183.69a6.16,6.16,0,1,1-6.34-6,6.17,6.17,0,0,1,6.34,6" transform="translate(0 20.35)"/><path id="path3110-7-7" class="cls-5" d="M42.63,161.63a6.16,6.16,0,1,1-6.34-6,6.17,6.17,0,0,1,6.34,6" transform="translate(0 20.35)"/><path id="path3126-1-1" class="cls-5" d="M61.94,92.83A11.11,11.11,0,1,1,50.5,82,11.11,11.11,0,0,1,61.94,92.83" transform="translate(0 20.35)"/><path id="path3128-1-1" class="cls-5" d="M85.47,92.83A11.12,11.12,0,1,1,74,82,11.12,11.12,0,0,1,85.47,92.83" transform="translate(0 20.35)"/><path id="path3130-5-5" class="cls-5" d="M108.06,92.83A11.12,11.12,0,1,1,96.62,82a11.12,11.12,0,0,1,11.44,10.79" transform="translate(0 20.35)"/><path id="path3132-2-2" class="cls-5" d="M74.64,71.9a11.87,11.87,0,1,1,0-.05" transform="translate(0 20.35)"/><path id="path3134-7-7" class="cls-5" d="M98.07,71.9a11.87,11.87,0,1,1,0-.05" transform="translate(0 20.35)"/><path id="path3136-6-6" class="cls-5" d="M121.25,71.9a11.87,11.87,0,1,1,0-.05" transform="translate(0 20.35)"/></g></g></svg>