<svg id="圖層_1" data-name="圖層 1" xmlns="http://www.w3.org/2000/svg" viewBox="0 0 400 390.68"><defs><style>.cls-1{fill:#002b64;}</style></defs><title>ROC_Ministry_of_Culture_Logo</title><path class="cls-1" d="M395.67-132.9,359.06-245.56c-13-39.9-57.88-72.54-99.84-72.54H140.76a86.66,86.66,0,0,0-17,1.73c17.25,2.94,30.74,10.89,33.85,18,0,0,32.18,47.1-13.25,135.82,0,0,10.23-41.27-17.68-87.32,0,0,20.25,38.93,4.18,85.28,0,0-5.93-47-69-85.77,0,0-8.45-4.46-13.08-12.56a91.33,91.33,0,0,0-6.45,13.38c18.69,9,72.63,38.22,84.17,82.31,0,0-25.46-27.57-51.28-30.4s-23.07-13-27.68-18.1a80.44,80.44,0,0,1-11.21-15.74l-32,98.53C-8.64-93,8.52-40.2,42.46-15.54L54.59-6.73C65.31-19,75.38-38.08,74.72-43.09c-.85-6.45,1.41-11.72,6-17.48s8.8-11.09,8.8-11.09-.93-21.89,12.71-35c6.43-6.2,12.34-15.23,16.79-23a117.07,117.07,0,0,1-9.07-11.5c-25.38-36.46-21.34-42.57-21.34-42.57s5.5-5.39,42.86,33.94a43.92,43.92,0,0,0,32.61,23.39c24.17,4,55.51,25.16,58.11,36.59s-20.92,6.37-31.43,5.36c-8.9-.86-20.94-7.19-27.31-14.56-9.86,7.58-15.16,19.36-15.16,19.36-6.91,17.72-29,23.6-29,23.6-6.31,3.74-3,7.15-11,16.5s-18.06,9-18.06,9C85.08-21.84,72.56-10.38,62.41-1l3.7,2.69C97.78-6.22,102.72-14.1,102.72-14.1,99.85-27.26,123.58-26.89,129-27s3.32,3.6,3.32,3.6C119.68.16,108.83-5.36,108.83-5.36a347.23,347.23,0,0,1-35,11q5.9.23,12.61.52c11.62.26,23.66.35,35.29.08l4.5-.19c.23,0,.48,0,.81,0h0a24,24,0,0,0,10.75-2.95c1-13.43,23.64-6.21,28.84-4.79s2.13,4.42,2.13,4.42C149.94,21.61,141.16,13.2,141.16,13.2a49.35,49.35,0,0,1-5.57.17c-6.38.36-27.43,1.34-52.65.51L138.3,54.1c33.94,24.64,89.45,24.64,123.39,0l95.85-69.64C391.47-40.2,408.63-93,395.67-132.9ZM170.15-297.35s54.16,16.44,81.81,35c0,0-21.24,34.17-108.39,107.22C143.57-155.1,195.36-245.06,170.15-297.35Zm-6.27,155.67a362.62,362.62,0,0,1,43.53-59.79c26.15-28.66,44.83-60.64,44.83-60.64s67.1,51.37,54.32,75.56C306.56-186.54,240.73-205.08,163.88-141.68Zm146.56,65.3c-16.89-5.19-17.78-.12-18.36,3a20.52,20.52,0,0,1-3,6.64c-14.64,22.2-52-3.53-60.76-26.87s-45.87-39.35-45.87-39.35c83.93-27.18,163,35.67,163,35.67C348.22-82.22,327.32-71.18,310.44-76.38Zm41.43-30.31s-77.42-64.88-170.54-28.21c0,0,59.58-54.32,135.86-46.11C317.18-181,373.56-140,351.87-106.69Z" transform="translate(0 318.1)"/></svg>