<svg id="svg8" xmlns="http://www.w3.org/2000/svg" viewBox="0 0 400 400"><defs><style>.cls-1{fill:#fff;}.cls-2{fill:#1cadcb;}.cls-3{fill:#4dc5e1;}.cls-4{fill:#99d64b;}.cls-5{fill:#181210;}</style></defs><title>ROC_Ministry_of_Education_Seal</title><g id="layer1"><g id="g4600"><g id="g2056"><path id="path2058" class="cls-1" d="M200-21.93c-108.61,0-197,88.37-197,197S91.42,372,200,372,396.93,283.61,396.93,175s-88.32-197-196.9-197" transform="translate(0 25)"/></g><g id="g2060"><path id="path2062" class="cls-2" d="M325.69,175A125.67,125.67,0,1,1,200,49.34,125.72,125.72,0,0,1,325.69,175" transform="translate(0 25)"/></g><g id="g2064"><path id="path2066" class="cls-3" d="M168.26,52.39l-21.71,70.18H121L87.83,233.63s47.2,68.89,109.76,68.89,103.34-54.87,111-70.18L272.9,122.57H243.54l-17.9-72.69s-35.7-3.81-57.38,2.51" transform="translate(0 25)"/></g><g id="g2068"><path id="path2070" class="cls-1" d="M183.53,51.16,167,123.89H147.8L108.25,260.4s42.14,42.11,88.06,42.11,84.21-26.76,93.16-42.11L247.35,127.71H228.19L210.35,52.39Z" transform="translate(0 25)"/></g><g id="g2072"><path id="path2074" class="cls-4" d="M114.22,264.48a125.56,125.56,0,0,0,172.37,4c-22.48-17.12-54-27.83-89-27.83-32.1,0-61.38,9-83.36,23.84" transform="translate(0 25)"/></g><g id="g2076"><path id="path2078" class="cls-4" d="M198.22,191.07c-6.91-10.6-22-27.66-48.61-27.66,0,0,10.61,47.89,46.45,53.14a12.58,12.58,0,0,0,2.16-1.61,15.26,15.26,0,0,0,2.08,1.61c35.95-5.25,46.54-53.14,46.54-53.14-26.56,0-41.73,17.06-48.62,27.66" transform="translate(0 25)"/></g><path id="path2080" class="cls-4" d="M204,247.65H192.47V205.52H204Z" transform="translate(0 25)"/><g id="g2082"><path id="path2084" class="cls-1" d="M200,52.8c-67.44,0-122.3,54.83-122.3,122.23A122.46,122.46,0,0,0,200,297.34c67.43,0,122.26-54.9,122.26-122.31A122.37,122.37,0,0,0,200,52.8m0,251.36A129.26,129.26,0,0,1,70.91,175C70.91,103.87,128.83,46,200,46S329.14,103.87,329.14,175,271.2,304.16,200,304.16" transform="translate(0 25)"/></g><g id="g2086"><path id="path2088" class="cls-5" d="M62.83,224.62l7.9,14.16-1.6.94a15.22,15.22,0,0,0-1.26-1.94,5.94,5.94,0,0,0-1.28-1.44,3.38,3.38,0,0,0-1.6-.51,4,4,0,0,0-1.58.4l-23.28,13,.16.34,33.37-4.23.66,1.19-22.16,25.8.14.25L71.47,262a21.86,21.86,0,0,0,4-2.67A4.65,4.65,0,0,0,77,257a6.68,6.68,0,0,0-.26-2.51,14.56,14.56,0,0,0-.65-2.25l1.6-.94,7.15,13-1.62.86a13.9,13.9,0,0,0-1.5-1.91A4.29,4.29,0,0,0,80,261.88a4.5,4.5,0,0,0-2.54,0A33.35,33.35,0,0,0,72.89,264l-16.41,9.12a6.88,6.88,0,0,0-2.11,1.6,4.4,4.4,0,0,0-.95,1.81,6.47,6.47,0,0,0,0,2.23,8.56,8.56,0,0,0,.8,2.19l-1.58.89-6.08-10.91,19-22.44L41.15,251.7a23.47,23.47,0,0,0-2.75.55c-.93.27-1.49.47-1.81.6L30.83,242.4l1.6-.94A10.06,10.06,0,0,0,33.52,243c.48.57.86,1,1.12,1.27a1.91,1.91,0,0,0,1.47.5,4.81,4.81,0,0,0,1.53-.5l23.13-12.77a5.5,5.5,0,0,0,1.23-1,2.81,2.81,0,0,0,.35-1.57,6,6,0,0,0-.38-1.65c-.29-.73-.49-1.33-.72-1.79Z" transform="translate(0 25)"/></g><g id="g2090"><path id="path2092" class="cls-5" d="M58.89,205.74l4.48,15.85-1.79.57c-.15-.43-.37-1.06-.69-1.91a13,13,0,0,0-.75-1.74,2.75,2.75,0,0,0-1.28-.91,2.62,2.62,0,0,0-1.62,0l-25.57,7.22a3.82,3.82,0,0,0-1.37.69,2.13,2.13,0,0,0-.61,1.58,15.63,15.63,0,0,0-.05,2,16.34,16.34,0,0,0,.2,2l-1.75.47-4.48-15.8,1.78-.48a17.09,17.09,0,0,0,.69,1.74,14.16,14.16,0,0,0,.94,1.72,2.09,2.09,0,0,0,1.34,1,5.62,5.62,0,0,0,1.57-.08l25.52-7.21a3.34,3.34,0,0,0,1.38-.78,2.6,2.6,0,0,0,.64-1.54,9.11,9.11,0,0,0,0-1.82,8.56,8.56,0,0,0-.29-2.06Z" transform="translate(0 25)"/></g><g id="g2094"><path id="path2096" class="cls-5" d="M20.05,167.6a12.77,12.77,0,0,0,.56,2.21,9,9,0,0,0,.94,2.09A4,4,0,0,0,24.14,173a27.57,27.57,0,0,0,4.66,0l26.77-1.85.14,2.25L27.35,197.6l18.86-1.33a33.69,33.69,0,0,0,4.85-.7,4.89,4.89,0,0,0,2.32-1.43,6.88,6.88,0,0,0,.89-2.53,16.38,16.38,0,0,0,.35-2.52l1.81-.09,1,15-1.84.09a10.18,10.18,0,0,0-.65-2.32,4.69,4.69,0,0,0-1-2,3.58,3.58,0,0,0-2.25-1.12,20.79,20.79,0,0,0-5.08.08l-18,1.2a7.21,7.21,0,0,0-2.35.57,4.69,4.69,0,0,0-1.73,1.21,7.65,7.65,0,0,0-1.33,2.65A9,9,0,0,0,22.8,207l-1.86.1-.7-10.42,26.43-22.49-17.36,1.21a23,23,0,0,0-4.91.77,3.78,3.78,0,0,0-2.19,1.33,8,8,0,0,0-.79,2.43,10,10,0,0,0-.35,2.5l-1.81.12-1-14.84Z" transform="translate(0 25)"/></g><g id="g2098"><path id="path2100" class="cls-5" d="M58.15,147.85,56,164.19l-1.79-.25a19.79,19.79,0,0,1,.13-2.06,6.29,6.29,0,0,0-.1-1.86,2.56,2.56,0,0,0-.73-1.35,3.09,3.09,0,0,0-1.56-.58l-26.3-3.55a4.65,4.65,0,0,0-1.55.12,2.06,2.06,0,0,0-1.17,1.18c-.3.51-.53,1.12-.89,1.86s-.44,1.41-.56,1.87l-1.78-.23L21.81,143l1.83.23c0,.47-.08,1.17-.08,1.87s.11,1.41.2,2a2,2,0,0,0,.82,1.46,3.18,3.18,0,0,0,1.47.53l26.34,3.49a3.4,3.4,0,0,0,1.52-.13,2.32,2.32,0,0,0,1.2-1.11,13.4,13.4,0,0,0,.7-1.67,10.31,10.31,0,0,0,.53-2.07Z" transform="translate(0 25)"/></g><g id="g2102"><path id="path2104" class="cls-5" d="M49.31,117.53a8.53,8.53,0,0,1,3.22-.86,11.42,11.42,0,0,1,3.58.54,10,10,0,0,1,6.56,5.84,13,13,0,0,1,.39,9.46A15.61,15.61,0,0,1,60.85,137a18.24,18.24,0,0,1-3,3.46l1.46,1.66-.62,2-12.1-3.42.61-2a26.09,26.09,0,0,0,4.48-.17,14.17,14.17,0,0,0,4-1.16A9.31,9.31,0,0,0,58.91,135,8.44,8.44,0,0,0,61,131.31a9.19,9.19,0,0,0,.48-3.13,5.31,5.31,0,0,0-.6-2.45A5.5,5.5,0,0,0,59.34,124a8.09,8.09,0,0,0-2.41-1.19,7.64,7.64,0,0,0-4.24,0,7.44,7.44,0,0,0-3.86,2.63c-.77,1-1.66,2-2.57,3.25s-1.81,2.26-2.63,3.09a12.79,12.79,0,0,1-4.89,3.56,9.51,9.51,0,0,1-6.13-.14,8.43,8.43,0,0,1-3.49-2,8.68,8.68,0,0,1-2.33-3.26,10.18,10.18,0,0,1-1-4,12.07,12.07,0,0,1,.51-4.31,13.38,13.38,0,0,1,2.1-4.06,22.55,22.55,0,0,1,2.88-3l-1.37-1.48.62-2,11.63,3.44-.59,1.93c-1.44,0-2.86,0-4.19.07a12.65,12.65,0,0,0-3.86.72,8.07,8.07,0,0,0-3.1,1.9,8,8,0,0,0-2,3.5,5.77,5.77,0,0,0,.26,4.41,5,5,0,0,0,3.15,2.83,6.35,6.35,0,0,0,4.08.07,7.65,7.65,0,0,0,3.37-2.25,30.23,30.23,0,0,0,2.63-3.09c.78-1,1.57-2,2.4-3,.74-.81,1.5-1.6,2.35-2.38a10.39,10.39,0,0,1,2.64-1.72" transform="translate(0 25)"/></g><g id="g2106"><path id="path2108" class="cls-5" d="M58.43,78.37l-.86,1.53a19.2,19.2,0,0,0-2.34-.36,25.6,25.6,0,0,0-2.77,0,13.19,13.19,0,0,0-2.64.47,3.49,3.49,0,0,0-1.76,1c-.32.47-.69,1-1.09,1.64s-.86,1.42-1.17,2L45.07,86l25.61,14.3a2.91,2.91,0,0,0,1.51.49,2.51,2.51,0,0,0,1.57-.58,11,11,0,0,0,1.37-1.52A15.92,15.92,0,0,0,76.56,97l1.6.88L69.71,112.9l-1.6-.9c.21-.44.51-1.11.89-2a9,9,0,0,0,.69-2,2.44,2.44,0,0,0-.25-1.58,3.73,3.73,0,0,0-1.27-1.17L42.37,90.78l-.74,1.34c-.23.48-.56,1-.94,1.71s-.63,1.41-.95,2.13a3.26,3.26,0,0,0,0,2,11.73,11.73,0,0,0,1,2.49,20.86,20.86,0,0,0,1.49,2.38,16.15,16.15,0,0,0,1.45,1.78l-.89,1.62-8.61-4.83,15.6-27.89Z" transform="translate(0 25)"/></g><g id="g2110"><path id="path2112" class="cls-5" d="M77.39,55.59a7,7,0,0,0-5.2-2.14,7.39,7.39,0,0,0-5.07,2.61l-3,3.25L75.66,70,78,67.43a7.93,7.93,0,0,0-.59-11.84m29.28,8.46L100,71.33c-4-.71-7.55-1.24-10.57-1.63s-6.23-.72-9.56-1l-2.54,2.83,8.51,7.84a4.32,4.32,0,0,0,1.41.85A1.93,1.93,0,0,0,88.83,80a7.66,7.66,0,0,0,1.34-.92,14.81,14.81,0,0,0,1.48-1.39L93,79,82.57,90.3l-1.34-1.2c.25-.36.59-.83,1.07-1.44a10.93,10.93,0,0,0,.83-1.42,2.25,2.25,0,0,0,0-1.47,3.19,3.19,0,0,0-1-1.37l-19.57-18a4,4,0,0,0-1.31-.88,2.23,2.23,0,0,0-1.6.13c-.42.24-.9.57-1.43.95s-1.05.82-1.37,1.1L55.58,65.5,67,53.08a19.24,19.24,0,0,1,3.3-2.85A12.15,12.15,0,0,1,73.9,48.5a8.78,8.78,0,0,1,3.75,0,7.63,7.63,0,0,1,3.61,2,9.6,9.6,0,0,1,2.31,3,7.34,7.34,0,0,1,.76,3.25,10.71,10.71,0,0,1-.46,3.4,16.86,16.86,0,0,1-1.44,3.55c3,.34,5.53.58,7.55.81s4.45.48,7.36.81a15.4,15.4,0,0,0,3.06,0,9.35,9.35,0,0,0,2.13-.54,6.8,6.8,0,0,0,1.53-.87c.5-.4.93-.81,1.26-1.07Z" transform="translate(0 25)"/></g><g id="g2114"><path id="path2116" class="cls-5" d="M113.23,18.32a5.17,5.17,0,0,0-.91,1.07,4.48,4.48,0,0,0-.82,1.28,14.48,14.48,0,0,0-.61,1.58c0,.3-.09,1.08-.15,2.25q-.08,3.45.15,6.84c.18,2.23.41,5.08.69,8.53a11.67,11.67,0,0,0,.43,2.9,9.79,9.79,0,0,0,1.38,2.6l3.93,5.78a3.39,3.39,0,0,0,1.24,1.11,2.43,2.43,0,0,0,1.68.17,9.37,9.37,0,0,0,1.92-.64,21,21,0,0,0,2-1l1,1.53L111,61.94l-1-1.52c.38-.29.94-.77,1.68-1.34a9.37,9.37,0,0,0,1.45-1.47,2,2,0,0,0,.42-1.59,3,3,0,0,0-.59-1.58l-5-7.31a4.13,4.13,0,0,0-1.28-1c-.69-.39-1.47-.81-2.37-1.35-2-1-4.14-2.18-6.45-3.37s-4.4-2.27-6.09-3.1a16.68,16.68,0,0,0-2.5-1,9.32,9.32,0,0,0-2-.23,4.71,4.71,0,0,0-1.55.34,15,15,0,0,0-1.46.67l-1-1.49,12.93-8.79,1,1.45a21.06,21.06,0,0,0-2.88,2.43c-.48.55-.61,1-.4,1.33a.88.88,0,0,0,.45.36,7.31,7.31,0,0,0,.89.61c.43.24.93.42,1.52.75s1.12.63,1.65.93c1.55.81,3.06,1.6,4.61,2.38s3.6,1.81,6.08,3.09c-.24-5.13-.42-9.12-.59-11.92s-.44-4.43-.71-4.83a1.18,1.18,0,0,0-.92-.53,3.21,3.21,0,0,0-1.27.21,5.46,5.46,0,0,0-1.5.69c-.48.27-1,.57-1.43.78l-1-1.55,10.52-7.12Z" transform="translate(0 25)"/></g><g id="g2118"><path id="path2120" class="cls-5" d="M166.91,29.08a17.24,17.24,0,0,0,.64-5.67,33,33,0,0,0-1.12-6.57,31.88,31.88,0,0,0-2.57-6.46,17,17,0,0,0-3.54-4.58,10,10,0,0,0-14.1.58,10.66,10.66,0,0,0-2.38,4.54,18.37,18.37,0,0,0-.45,5.66,32,32,0,0,0,1.12,6.33,33.58,33.58,0,0,0,2.42,6.29,18,18,0,0,0,3.48,4.58,9.86,9.86,0,0,0,4.32,2.47,9.59,9.59,0,0,0,5.22-.1,9.33,9.33,0,0,0,4.45-2.58,9.73,9.73,0,0,0,2.51-4.49m-3.2-26A17.71,17.71,0,0,1,169,8a22.16,22.16,0,0,1,3.43,7.27,21.34,21.34,0,0,1,.76,8,17.91,17.91,0,0,1-2.11,6.91,18.66,18.66,0,0,1-4.4,5.22,20,20,0,0,1-6.14,3.08,17.91,17.91,0,0,1-7.17.47,17.18,17.18,0,0,1-6.46-2.38,17.41,17.41,0,0,1-5.14-4.91,21.63,21.63,0,0,1-3.33-7,21.91,21.91,0,0,1-.75-8,17.4,17.4,0,0,1,2.11-6.95,15.87,15.87,0,0,1,4.39-5.22,17.61,17.61,0,0,1,6.11-3.08,18.42,18.42,0,0,1,7-.51A16.51,16.51,0,0,1,163.71,3" transform="translate(0 25)"/></g><g id="g2122"><path id="path2124" class="cls-5" d="M207.63,4.44l-1.93.08A13.66,13.66,0,0,0,203.23.25c-1.2-1.5-2.32-2.35-3.39-2.46-.5,0-1.14-.06-1.9-.06a21.72,21.72,0,0,0-2.49.06L189.3-2l.51,14.68,4.22-.11a9.44,9.44,0,0,0,3-.47,5.42,5.42,0,0,0,1.77-1.36A6.13,6.13,0,0,0,199.65,9a13,13,0,0,0,.48-2.59l1.93-.07.48,14.37-1.93,0a15,15,0,0,0-.61-2.51,7.47,7.47,0,0,0-1.07-2.08,4,4,0,0,0-2-1.21,9.19,9.19,0,0,0-2.83-.26l-4.24.17.4,12.58a4.43,4.43,0,0,0,.43,1.55,3,3,0,0,0,1.22,1,8.62,8.62,0,0,0,1.68.37c.89.13,1.55.21,2,.23l.05,1.81-15.86.53,0-1.8a17.85,17.85,0,0,1,2-.24,9.69,9.69,0,0,0,1.65-.36,2.22,2.22,0,0,0,1.09-1.07,3.14,3.14,0,0,0,.3-1.61L183.94,1.4a3,3,0,0,0-.34-1.49,2.13,2.13,0,0,0-1.23-1,8.27,8.27,0,0,0-1.86-.57,13.25,13.25,0,0,0-1.89-.24l0-1.84,28.72-.94Z" transform="translate(0 25)"/></g><g id="g2126"><path id="path2128" class="cls-5" d="M255.89,31.79,252.29,42l-29.2-8.29.5-1.73c.51.09,1.19.19,2.06.32a9.47,9.47,0,0,0,1.68.11,2.44,2.44,0,0,0,1.39-.68,3.55,3.55,0,0,0,.74-1.4l7.19-25.37a3.55,3.55,0,0,0,.13-1.49,2.19,2.19,0,0,0-.84-1.38A6.13,6.13,0,0,0,234.32,1a16.92,16.92,0,0,0-1.71-.81l.48-1.74,27.2,7.69-2.39,8.53-1.9-.5a11.16,11.16,0,0,0-1-4.61c-.67-1.78-1.51-2.85-2.45-3.25-.51-.17-1.12-.41-1.81-.64s-1.52-.51-2.38-.73l-5.54-1.61-4,14,3.94,1.11a8.82,8.82,0,0,0,2.93.46,4.13,4.13,0,0,0,1.88-.8,9.36,9.36,0,0,0,1.51-1.69,12.08,12.08,0,0,0,1.11-2.18l1.88.57-3.94,13.88-1.88-.55a11.44,11.44,0,0,0,.17-2.68,6.86,6.86,0,0,0-.32-2.19,3.43,3.43,0,0,0-1.4-1.74,8.54,8.54,0,0,0-2.47-1l-4-1.11-3,10.57a13,13,0,0,0-.48,2.6,2.67,2.67,0,0,0,.48,1.62,4.08,4.08,0,0,0,1.6,1.13c.69.27,1.73.57,3.13,1,.48.16,1.22.37,2.1.64a16.42,16.42,0,0,0,2.32.51,11.69,11.69,0,0,0,2,.22,2.93,2.93,0,0,0,1.6-.3,14.72,14.72,0,0,0,3.46-3,27.85,27.85,0,0,0,2.62-3.09Z" transform="translate(0 25)"/></g><g id="g2130"><path id="path2132" class="cls-5" d="M288.86,41.52a21.67,21.67,0,0,0,2.48-6.22,15.68,15.68,0,0,0,.11-5.94,12.91,12.91,0,0,0-2.11-5.1,13.31,13.31,0,0,0-4.4-3.93c-.59-.33-1.29-.75-2.06-1.15s-1.36-.75-1.75-.92L267,42.63a3.53,3.53,0,0,0-.45,3.46,7.47,7.47,0,0,0,3.2,2.88,12.47,12.47,0,0,0,5.57,1.88,10.41,10.41,0,0,0,5-.78,15,15,0,0,0,4.52-3.17,26.25,26.25,0,0,0,4-5.38m5.44,3.19a17.75,17.75,0,0,1-5.6,6.14A17.1,17.1,0,0,1,282,53.44a18.93,18.93,0,0,1-7.22-.36,24.09,24.09,0,0,1-6.83-2.72l-13.14-7.59.93-1.61a11.23,11.23,0,0,0,1.76.9,6.67,6.67,0,0,0,1.52.47,2,2,0,0,0,1.5-.26A3.36,3.36,0,0,0,261.56,41L274.8,18.18a3.22,3.22,0,0,0,.56-1.54,2.43,2.43,0,0,0-.45-1.55,7.1,7.1,0,0,0-1.23-1.34,8.24,8.24,0,0,0-1.32-1l1-1.58,13.82,8a21.38,21.38,0,0,1,5.14,4.18,20,20,0,0,1,3.45,5.17,15.61,15.61,0,0,1,1.35,7.71,19.1,19.1,0,0,1-2.79,8.5" transform="translate(0 25)"/></g><g id="g2134"><path id="path2136" class="cls-5" d="M338,63.69a14.9,14.9,0,0,0-1.71-1.29,8.46,8.46,0,0,0-2.26-1,3.54,3.54,0,0,0-2.56.86,21.75,21.75,0,0,0-3.47,3L316.76,76.51a10.52,10.52,0,0,1-9.63,3.09A17.42,17.42,0,0,1,302.68,78a16.75,16.75,0,0,1-3.45-2.66,18.27,18.27,0,0,1-3.56-4.8,12.13,12.13,0,0,1-1.37-4.73,8.92,8.92,0,0,1,.56-4.21A9.33,9.33,0,0,1,297,58.14l15.37-15.29a3.89,3.89,0,0,0,.87-1.23,3.13,3.13,0,0,0-.05-1.68,9.46,9.46,0,0,0-.77-1.62c-.4-.53-.7-1-1-1.34l1.28-1.26,10.72,10.74-1.33,1.26a10.52,10.52,0,0,0-1.44-1.07,10.82,10.82,0,0,0-1.34-.87,2.06,2.06,0,0,0-1.56-.13,4.37,4.37,0,0,0-1.34,1L302.1,60.89a17,17,0,0,0-2,2.35,8.59,8.59,0,0,0-1.25,3.05,7.5,7.5,0,0,0,.29,3.63,10.78,10.78,0,0,0,2.75,4,12.48,12.48,0,0,0,4,2.76,8.83,8.83,0,0,0,3.86.5,10.45,10.45,0,0,0,3.13-1,13.33,13.33,0,0,0,2.52-1.85l10.65-10.65a21.51,21.51,0,0,0,3-3.58,3.89,3.89,0,0,0,.83-2.56,6.61,6.61,0,0,0-1-2.46,13.22,13.22,0,0,0-1.41-2l1.3-1.27L339.37,62.4Z" transform="translate(0 25)"/></g><g id="g2138"><path id="path2140" class="cls-5" d="M321,103.83a16.42,16.42,0,0,1-2.13-6.07,15.72,15.72,0,0,1,.51-6.45,18.55,18.55,0,0,1,3.2-6.2A23.8,23.8,0,0,1,336.21,77a17.66,17.66,0,0,1,7.17,0,16,16,0,0,1,6.24,2.74,15.66,15.66,0,0,1,4.69,5.1,18.49,18.49,0,0,1,2,4.53,15.81,15.81,0,0,1,.48,4.5h2.11l1,1.81-11.05,6.85-1.09-1.73c.94-1,1.9-2,2.89-3.19A14.09,14.09,0,0,0,352.88,94a9.58,9.58,0,0,0,.9-3.89,8,8,0,0,0-1.2-3.84,9.23,9.23,0,0,0-3.28-3.37,10.23,10.23,0,0,0-4.72-1.54,16.56,16.56,0,0,0-5.81.72,26.33,26.33,0,0,0-6.61,3,20.7,20.7,0,0,0-5.1,4,16.69,16.69,0,0,0-3.1,4.76A11.92,11.92,0,0,0,323,99,9.64,9.64,0,0,0,324.5,104a11.07,11.07,0,0,0,2.53,3,10.71,10.71,0,0,0,3.05,1.69,14.42,14.42,0,0,0,3.38.64A17.11,17.11,0,0,0,337,109l.2,2.14c-3.89.6-7.12.26-9.68-1a16,16,0,0,1-6.49-6.27" transform="translate(0 25)"/></g><g id="g2142"><path id="path2144" class="cls-5" d="M350,131.37l11.92-9.73-15.31-.85Zm-9.84,18.54-4.59-14.5,1.71-.54a14,14,0,0,0,1.54,3c.48.81.94,1.12,1.29,1a1.47,1.47,0,0,0,.51-.23,1.06,1.06,0,0,0,.53-.34l6.92-5.33-3.91-12.29a26.86,26.86,0,0,0-3.36-.25h-2.59a12.1,12.1,0,0,0-1.89.08,9.73,9.73,0,0,0-1.14.25c-.63.22-1,.9-1,2.07a12.81,12.81,0,0,0,.46,3.65l-1.72.58-4.18-13.13,1.73-.58a7,7,0,0,0,.82,1.51,6.63,6.63,0,0,0,1.11,1.46,7.2,7.2,0,0,0,1.86,1,9.55,9.55,0,0,0,2.37.44c4.93.3,10.46.67,16.62,1.07s11.62.75,16.39,1l.61,2-26.46,21.21a5.21,5.21,0,0,0-1.24,1.32,4.62,4.62,0,0,0-.85,3.33,5.81,5.81,0,0,0,.24,1.6Z" transform="translate(0 25)"/></g><g id="g2146"><path id="path2148" class="cls-5" d="M368.54,177.17l-.13-1.78a11.9,11.9,0,0,0,2.11-1,16.06,16.06,0,0,0,2.29-1.6,9.09,9.09,0,0,0,1.94-1.82,3.8,3.8,0,0,0,.88-1.85c0-.49,0-1.19-.05-2a20.15,20.15,0,0,0-.11-2.3l-.13-1.47-29.2,2.34a3.92,3.92,0,0,0-1.55.48,2.81,2.81,0,0,0-1,1.38,19.71,19.71,0,0,0-.3,2,15.36,15.36,0,0,0-.16,2.33l-1.78.14-1.42-17.2,1.82-.13c.06.43.21,1.13.37,2.18a10.07,10.07,0,0,0,.53,2,2.56,2.56,0,0,0,1.1,1.17,3.38,3.38,0,0,0,1.73.28l29.44-2.39-.1-1.52c-.06-.51-.09-1.16-.22-1.94s-.18-1.52-.31-2.26a3.1,3.1,0,0,0-1.19-1.64,14.64,14.64,0,0,0-2.18-1.54,23.42,23.42,0,0,0-2.58-1.16,12.64,12.64,0,0,0-2.21-.66l-.15-1.81,9.88-.8,2.55,31.85Z" transform="translate(0 25)"/></g><g id="g2150"><path id="path2152" class="cls-5" d="M339.54,197.56l1.62-16.43,1.84.17c0,.47,0,1.15-.05,2a8.07,8.07,0,0,0,.1,1.87,2.58,2.58,0,0,0,.81,1.32,2.66,2.66,0,0,0,1.55.57l26.45,2.62a3.23,3.23,0,0,0,1.51-.13,2.34,2.34,0,0,0,1.19-1.21,14.12,14.12,0,0,0,.74-1.89,7.38,7.38,0,0,0,.48-1.91l1.83.23L376,201.15l-1.83-.17c0-.54,0-1.17,0-1.93a12.14,12.14,0,0,0-.19-1.94,2.2,2.2,0,0,0-.9-1.41,3.39,3.39,0,0,0-1.47-.5l-26.43-2.63a3.11,3.11,0,0,0-1.56.21,2.45,2.45,0,0,0-1.16,1.18,17.13,17.13,0,0,0-.64,1.71,14.32,14.32,0,0,0-.43,2Z" transform="translate(0 25)"/></g><g id="g2154"><path id="path2156" class="cls-5" d="M338.17,227.47a18.25,18.25,0,0,0,4.45,3.62,29.67,29.67,0,0,0,6.14,2.54,30.3,30.3,0,0,0,6.82,1.32,16.11,16.11,0,0,0,5.76-.43,10.64,10.64,0,0,0,4.37-2.39,10.42,10.42,0,0,0,2.83-9.77,11.33,11.33,0,0,0-2.62-4.49,16.79,16.79,0,0,0-4.5-3.43,31.57,31.57,0,0,0-5.95-2.52,32.18,32.18,0,0,0-6.61-1.34,17.29,17.29,0,0,0-5.68.43,11.12,11.12,0,0,0-4.46,2.35,10.53,10.53,0,0,0-3,9.53,9.85,9.85,0,0,0,2.4,4.58m23.65,11.35a18.47,18.47,0,0,1-7,1.86,22.84,22.84,0,0,1-7.95-1,22.49,22.49,0,0,1-7.14-3.67,17.77,17.77,0,0,1-4.68-5.57,17.63,17.63,0,0,1,2.19-19.62,16.36,16.36,0,0,1,5.47-4.14,19.28,19.28,0,0,1,6.88-1.69,23.34,23.34,0,0,1,7.73,1,20.49,20.49,0,0,1,7.18,3.76,18.55,18.55,0,0,1,4.66,5.4,17.07,17.07,0,0,1,2,6.56,17.65,17.65,0,0,1-.71,6.8,18,18,0,0,1-3.35,6.22,16.34,16.34,0,0,1-5.35,4.13" transform="translate(0 25)"/></g><g id="g2158"><path id="path2160" class="cls-5" d="M337.5,287a8.36,8.36,0,0,0,.84-2.11,6.55,6.55,0,0,0,.53-2.22,3.7,3.7,0,0,0-1.44-2.4,27.3,27.3,0,0,0-3.74-2.77l-22.64-14.4,1.22-1.88,37.21-2.64-16-10.16a24.46,24.46,0,0,0-4.32-2.28,4.42,4.42,0,0,0-2.72-.27,6.73,6.73,0,0,0-2.19,1.48,14.41,14.41,0,0,0-1.77,1.81l-1.55-1,8.09-12.72,1.54,1a17.52,17.52,0,0,0-.84,2.26,6,6,0,0,0-.43,2.2,3.37,3.37,0,0,0,1.2,2.19,23.52,23.52,0,0,0,4.11,3l15.22,9.72a8.06,8.06,0,0,0,2.24.94,5.55,5.55,0,0,0,2.14,0,7.8,7.8,0,0,0,2.53-1.34,7.09,7.09,0,0,0,2-1.8l1.55,1-5.6,8.79-34.61,2.39,14.69,9.33a20.64,20.64,0,0,0,4.37,2.3,3.76,3.76,0,0,0,2.56.21,9.43,9.43,0,0,0,2.06-1.43,13,13,0,0,0,1.76-1.85l1.55,1-8,12.55Z" transform="translate(0 25)"/></g><g id="g2162"><path id="path2164" class="cls-5" d="M200-21.93c-108.61,0-197,88.37-197,197S91.42,372,200,372,396.93,283.61,396.93,175s-88.32-197-196.9-197M200,375C89.74,375,0,285.27,0,175S89.74-25,200-25,400,64.79,400,175,310.29,375,200,375" transform="translate(0 25)"/></g><g id="g2166"><path id="path2168" class="cls-5" d="M137.63,300l1.44.83c1,1.39-.8,3.56-5.58,6.58l3.45,2.4,12.66,7.1c-.51,3.14-2.32,3.88-5.31,2.23.11-.47-3.59-2.68-11.09-6.72l-4.37-1.69-3.68,1.93c-2.43-.74-3.61-2.63-3.53-5.65l.63-1.24q6.34,1.13,15.38-5.77M136,318.1l1.66,1c1.44.7.05,3.3-4.17,7.73-1.43,2-4.15,4.62-8.16,7.95a31.42,31.42,0,0,0,8.25,13.9l2.29,2.28c-1,3-4.59,3.05-10.69.2-1.33-.46-2.88-5.12-4.7-13.91l-.13-.11a30.26,30.26,0,0,1-8.8,2.1,10.21,10.21,0,0,1-4-.83c-2.22-1.52-3.2-4.2-2.91-8l.88-1.68.34-.08a14.1,14.1,0,0,0,13.74,2.93l-1.25-12.92.55-1.05a1.41,1.41,0,0,1,1.72-.43l1.27.76c.46,0,.8,1.89,1,5.61l1.1,6.22q4.5-1.77,11-11.5Zm-21.14-24.83-3.52,5.18,2,1.22a33,33,0,0,0,7.6-2.6l-.06-.24Zm.63-9.08,1.79,1c1.28,1.34,1.1,3-.54,4.82l5.92,3.93c.6.37.73,1.15.36,2.23l4.24-1.95,1,.57c.58,2.51-2.86,4.89-10.35,7.27l3.39,2.27c-1.17,2.94-3.18,3.32-6.11,1l-2.72-1.78-6.22.82L117,310.85c1.33,1.66,0,2.51-4.11,2.32L105,314.34l.51,4.33,6.13,2.72c.58,2.75-1.68,3-6.77.77l-.32.53q-1,4.08-5.57,9.46-7.32,3.94-15.12-3.81l.66-5.94h.56l4.64,3.82c3.87,2,6.72,1.7,8.53-.91l2.3-4c-2.08-.88-8.05-2.22-17.84-4-1-.51-1.44-1.12-1.31-1.91l1-1.85c.14-1.91,3.92-1.48,11.34,1.38l8.16,2.51c.53-.23,0-2.72-1.81-7.39l.48-.94.64-.19c.71.09,1.65,1,2.77,2.72l5.19-1.17.17-.32c-4.14-3.82-9.86-6-17.1-6.52l-2.61-.79a7,7,0,0,1-2.5-6.25l.64-1.18c.26-.34,1.54.48,3.78,2.21q5.42,3.79,15.25,3.14l.49-.28-9.84-5.63-4.5-1.89-.71-1.51L93,290a3.45,3.45,0,0,1,2.8-.83c.74.86,4.72,3.25,11.94,7l2.59-5.54-8.69-3.83-.35-1.47.79-1.4,2.38-.77,7.63,4.32,2.13-3Z" transform="translate(0 25)"/></g><g id="g2170"><path id="path2172" class="cls-5" d="M202.39,321a51.66,51.66,0,0,1-9,7v.16q3.89,1.94,20.44,0l.15-.78-4.53-6.19Zm-1.76,18.67-8.3,1-.15,3.33,24.53.12v-3.79l-.77-.62Zm15.92,7.93L192,348.68l-.5,3.46,24.77.17Zm2.51-11.76h1.81c1.81-.14,1.81,2.78,0,8.59l-.18,11.32q.92,2.43,0,7.81c-3.89,1.93-5.39-.7-4.43-7.81a169.94,169.94,0,0,0-26.51,1c-3.14,4.7-7.79,7.3-13.95,7.6a13,13,0,0,1-6.71-5.2v-1.45c0-.54.82-.67,2.42-.54a32,32,0,0,0,12-1.88c4.82-1.51,6.24-7.55,4.26-18l1.15-1.14q.15.48,10.5,0l18.17,0Zm-16.8-26.3h2.16q3-.15,1,7.45l24.91-.09,6.76-.38c1.53,2.19-.37,4.37-5.71,6.48L215,321.45l5.61,8.26c.13,2-.73,2.85-2.65,2.68l-19.66.14c0-.43-3-.43-8.69,0-2,.43-3.41.11-4.31-1.1v-1.55c-.43-.57,1.73-2.2,6.47-4.93l3.82-3.93c-3.17-.21-10.38.36-21.62,1.67a4.42,4.42,0,0,1-4.57-.44l-.34-2,2.42-2.38c.1.28,5.21.17,15.28-.47L201.4,317,200.31,312v-.43c.32-1.21,1-1.85,1.95-2" transform="translate(0 25)"/></g><g id="g2174"><path id="path2176" class="cls-5" d="M285.5,296.34,301,313.83a15.84,15.84,0,0,0,6.29-8.12l.13-2.59-1.35-2c-1.37-1.32-3.74-1.57-7.17-.76-.56-.28-1.53,1.09-2.8,4.06a1.41,1.41,0,0,1-1.9.36l-.89-1,.56-13.84-.39,0Zm-5.52-.08,15.95-12.78c3-.85,3.78,2,2.31,8.65L298,296c.08.4,1.25.4,3.5,0,5.12-.07,8.42,1.73,10,5.41,1.52,5.23-1.12,10.39-7.95,15.4l6.83,7.45a4.22,4.22,0,0,1,.79,3.32c-1,1.59-2.39,1.65-4,.27q-1.9-2.65-20.66-24.46l-3.92-4.11c-.25.8-1.07,1.27-2.33,1.38l-1.33-1.32c-.4-.9-.05-1.86,1-3.12m-3.81,36c-1.2.46-.61,1.86,1.6,4.25l3.59,4.31,1.4-.11,8.29-6.88,1.9-1.31c.74-.47-.51-2.58-3.87-6.28l-1.65-1.95c-.54-.62-3.4,1.36-8.62,5.86Zm-5.61-.34c.35-.57,1.72-1.32,4.14-2.25l10.37-8.15a3.15,3.15,0,0,1,1.73-1.89c1.19-1,3.48,1.32,6.81,6.76l3.54,4.19c1,.86,1,1.94-.11,3.19-.36-.47-4.71,2.9-13,10l-2.44,1.94-1.17-.21c.31-.32-1.85-2.94-6.33-7.84l-3.89-4.3ZM261.43,306l1.46-1.19c1.31-1.17,3,.25,5,4.3l8.58-7q3.32,2.89-.95,5.42L261,319.18l-3.12,3.22-1.47.05-.92-1.06a3.3,3.3,0,0,1,.2-2.66c1.31-.53,4.3-3,9-7.22l-3.74-3a2.13,2.13,0,0,1,.41-2.52m13.4,4L276.2,309c1.49-1.07,2.9.91,4.16,5.84l.34.47,5.08-4.4c2.16.43,2.57,1.79,1.27,4l-9.81,7.73c-2.19,1.22-6.64,5.12-13.34,11.75-.74.33-1.28.35-1.68.05l-.86-1a2.71,2.71,0,0,1,.48-2.93,65,65,0,0,0,6.3-5.05c.18-.43-1.06-1.11-3.76-2.07L262.2,322a2,2,0,0,1,.35-1.92l1.6-1.26q1.16-1.87,6.07,4.13l.24.5,7.82-6.27-3.71-6Z" transform="translate(0 25)"/></g></g></g></svg>