<svg id="svg2" xmlns="http://www.w3.org/2000/svg" viewBox="0 0 400 329.95"><defs><style>.cls-1{fill:#094;}</style></defs><title>ROC_Council_of_Agriculture_Logo</title><g id="g174"><path id="path176" class="cls-1" d="M392.3-100a6.33,6.33,0,0,0-6.51-.1A6.19,6.19,0,0,0,383-96.62h0a8.2,8.2,0,0,0,2.31,8.41,28.79,28.79,0,0,0,5.36,3.86c1.19.81,3.45,2.38,4.35,3s2.64,2,2.93,2.27l0,.08s0,0,0-.06l0,0,0,0c-.06-.39-.37-2.48-.49-3.66s-.36-3.88-.46-5.3a30.22,30.22,0,0,0-.66-6.58,8.43,8.43,0,0,0-4-5.38Z" transform="translate(0 164.98)"/><path id="path178" class="cls-1" d="M363.85-112.12A18.68,18.68,0,0,1,370-100.33a17.51,17.51,0,0,1-2.37,11.11s-4.93-5.65-6.2-12C359.85-109.12,363.85-112.12,363.85-112.12Z" transform="translate(0 164.98)"/><path id="path180" class="cls-1" d="M33.11,103C-5.06,36.92,41.7-61.51,137.52-116.82c84-48.53,177.9-47.78,225.45-2.32-47.54-52.25-149.16-54.71-239.93-2.29C23.08-63.73-25.86,38.64,13.73,107.2c37.3,64.62,139.85,76.12,235.17,29C160.42,175.73,67.74,163,33.11,103Z" transform="translate(0 164.98)"/><path id="path182" class="cls-1" d="M337.45-142a16.75,16.75,0,0,0,10.91,1.52c8.9-1.77,13.06-8.59,16.51-11.23-4.33.14-11.85-2.57-19.9,1.66a16.69,16.69,0,0,0-7.52,8.05Z" transform="translate(0 164.98)"/><path id="path184" class="cls-1" d="M358.59-130.43a15.12,15.12,0,0,0,9.13,3.86c8.15.52,13.36-4.45,17-5.94-3.8-.89-9.7-5-17.68-3.21A15,15,0,0,0,358.59-130.43Z" transform="translate(0 164.98)"/><path id="path186" class="cls-1" d="M374.65-112.12a13.35,13.35,0,0,0,8.51,2.43c7.83-.23,13.23-4.71,16.84-6.21-3.61-.44-9-3.32-16.79-1.23A18.89,18.89,0,0,0,374.65-112.12Z" transform="translate(0 164.98)"/><path id="path188" class="cls-1" d="M306.44-153.5a18.46,18.46,0,0,0,12,1.69c9.78-1.95,14.36-9.46,18.16-12.37-4.77.14-13.05-2.81-21.88,1.82a18.42,18.42,0,0,0-8.29,8.86Z" transform="translate(0 164.98)"/><path id="path190" class="cls-1" d="M320.86-141.86s7.17,2.19,9.6,11.4c2,7.4-1.45,15-1.45,15s-7.14-4.37-9.69-11.6C316.18-136,320.86-141.86,320.86-141.86Z" transform="translate(0 164.98)"/><path id="path192" class="cls-1" d="M346.68-128.46s5.7,3.58,5.69,12.12c0,6.9-4.77,12.75-4.77,12.75s-5.19-5.48-5.71-12.36c-.64-8.49,4.79-12.51,4.79-12.51Z" transform="translate(0 164.98)"/><path id="path194" class="cls-1" d="M295.22-151s7.89,2.42,10.57,12.5c2.19,8.16-1.6,16.55-1.6,16.55s-7.85-4.8-10.66-12.78C290.07-144.55,295.22-151,295.22-151Z" transform="translate(0 164.98)"/><path id="path196" class="cls-1" d="M218.54,99.37c-.21.2-.41.41-.6.61-12,12.43-29.52,22.18-50.11,26.59-43.37,9.21-84-8.92-90.68-40.52a44.56,44.56,0,0,1,.91-21.82c6.47-22.43,32-49.92,67.82-70.62C165.51-17.72,185.64-24.11,203-29c28-7.87,46.39-16.79,59.5-31.77l2.38-2.91a41.51,41.51,0,0,0,7.66-18.41c2.16-15.78-9.34-26.2-26.9-25.87a78.87,78.87,0,0,0-13.24,1.67c-22.57,5.42-39.24,21.93-50.58,35-2.58,3-4.81,6.63-8.72,8.88-9.29,5.36-20.32,3.64-24.67-3.87a14.17,14.17,0,0,1-.72-12.18c2.81-7.4,8.35-14.69,15.95-21.36a232,232,0,0,0-24.82,12.26C61.32-42.8,24,37.58,55.37,92c28.92,50.11,106,60.58,178.56,27.06a28.79,28.79,0,0,1-15.39-19.69Z" transform="translate(0 164.98)"/><path id="path198" class="cls-1" d="M336-70a82.37,82.37,0,0,0-17.91-21.22,47.61,47.61,0,0,1,1.44,11.06,47,47,0,0,1-3.73,18.48C306-38.39,293.34-7.25,280.67,27.53,272.12,51,264.51,73.24,258.24,92.68a9,9,0,0,0-.38,2.61,8.7,8.7,0,0,0,5,7.82C333.27,57.43,366-18.09,336-70Z" transform="translate(0 164.98)"/><path id="path200" class="cls-1" d="M237.25-16.27a28.6,28.6,0,0,1,7.19-1.1,5.32,5.32,0,0,1,3,2.15c.57.65,1.45,5.13,2.82,5.48s3.61.87,3.87,2.24,1.08,1.41,1.35,2.42-1.64,4.27-1.66,6.66S252.49,6,251.5,8.24c-.87,1.74-8.38,11.75-9.09,13.27-.9,1.9-7.32,11.12-8.14,14.19s-3.69,3.28-5.33,9.2-3,9.63-5,12.55S209.07,73.86,205,77s-12.65,8.87-14,11.88a80.64,80.64,0,0,1-3.86,8c-1.82,3.62-1.64,8.94-3.63,8.79s-4,.88-4.3-.71.6-6.49-.94-13.25c-1.37-6.64-11.36-15-12-23S168.27,50.1,168.66,44a33,33,0,0,1,10-21.37c7.23-7.16,19-15.43,26.62-22.11,7.47-6.75,15.27-12.33,19.53-13.1,2.58-.45,7.73-2.39,12.4-3.64Z" transform="translate(0 164.98)"/></g></svg>