<svg id="svg8" xmlns="http://www.w3.org/2000/svg" viewBox="0 0 400 395.92"><defs><style>.cls-1{fill:#731d1a;}.cls-2{fill:#c7b05a;}</style></defs><title>ROC_National_Communications_Commission_Seal</title><g id="layer1"><g id="g1140"><path id="path162" class="cls-1" d="M400,296.94c0,109.18-89.8,198-200,198-110.2-.51-200-88.78-200-198S89.8,99,200,99c110.71,0,200,88.78,200,198Z" transform="translate(0 -98.98)"/><g id="g214"><path id="path216" class="cls-2" d="M199.51,297.42c0-69,31.32-127,73.27-141.66l1.24-.48a3.64,3.64,0,0,0,2.22-3.24,3.83,3.83,0,0,0-3.11-3.42c-8.28-1.87-17.49-.39-17.49-.39a103.75,103.75,0,0,0-23.47,5.38c-56.84,20.32-90.1,87.33-79.1,159.34,0,0,.29,1.71.77,4.35,0,.06.1.55.1.61a1.84,1.84,0,0,1-1.88,2.07,2.68,2.68,0,0,1-2.11-1.57,52.94,52.94,0,0,1-3.83-9.94c-4-13.69-5.91-28.8-5.91-46.24,0-37.6,14.23-77.33,38.13-106.3a61.5,61.5,0,0,1,6.29-6.12c1-.93,2.09-1.8,2.09-1.8a3.65,3.65,0,0,0,1.27-2.82,3.7,3.7,0,0,0-3.06-3.58c-3.84-1.06-10.05-.39-9.6-.46-36.08,3-70.5,21.11-95.09,49.73-24.94,29-38.68,66.79-38.68,106.34,0,68.39,41,128.14,102,148.66,0,0,9,3,17.12,3.15,0,0,6.06.48,5.66-3.45a4,4,0,0,0-.69-1.89,10.06,10.06,0,0,0-1.88-1.89c-1.32-.93-4.34-3.18-4.34-3.18a160.27,160.27,0,0,1-69.83-132.3c0-4.62.19-9.28.59-13.86a46.34,46.34,0,0,1,.66-5.22,2.18,2.18,0,0,1,2-1.86s1.5-.17,1.93,1.86c0,0,.4,2.25.87,5.86,10.45,82.52,77.9,147.47,160.46,154.37-.07,0,9.6,1,16.59-.88,2.49-.81,3.68-2.17,3.71-3.79a3.15,3.15,0,0,0-2.35-3.14l-1.24-.48c-41.95-14.7-73.27-72.66-73.27-141.71" transform="translate(0 -98.98)"/><path id="path218" class="cls-2" d="M314.09,407.5l-1.06-.22c-12.52-1.7-22.75-11.63-22.75-11.63-11-10-18.14-26.76-18.14-26.76-14.51-33.7-13.67-70.58-13.67-70.58v-2.18s-.84-36.88,13.67-70.58c0,0,7.17-16.75,18.14-26.75,0,0,10.23-9.93,22.75-11.63l1.06-.22a2.92,2.92,0,0,0,2.47-3,3,3,0,0,0-1.76-2.52,11.87,11.87,0,0,0-1.67-.7c-25.15-6.63-48.87,11.91-48.87,11.91-22.14,16.13-33.12,46.5-33.12,46.5-10.07,26.34-9.55,56.74-9.55,56.74v2.65s-.52,30.4,9.55,56.73c0,0,11,30.36,33.12,46.5,0,0,23.72,18.53,48.87,11.92a9.82,9.82,0,0,0,1.67-.71,3,3,0,0,0,1.76-2.51,2.92,2.92,0,0,0-2.47-3" transform="translate(0 -98.98)"/><path id="path220" class="cls-2" d="M346.49,379.14s-.7-.29-1-.4a37.29,37.29,0,0,1-3.64-1.29c-19.8-7.81-31.87-41.23-31.87-79.67v-1.12c0-38.46,12.07-71.88,31.87-79.68a34.53,34.53,0,0,1,3.64-1.29c.34-.1,1-.41,1-.41a2.61,2.61,0,0,0,1.7-2.33,2.65,2.65,0,0,0-1.24-2.21,6.38,6.38,0,0,0-.62-.38c-4.82-2.38-13.23-1.14-13.23-1.14-30.14,3.84-53.65,41-54.09,87h0v2h0c.44,46,23.95,83.15,54.09,87,0,0,8.41,1.23,13.23-1.14,0,0,.34-.19.62-.39a2.52,2.52,0,0,0-.46-4.55" transform="translate(0 -98.98)"/></g></g></g></svg>