<svg id="圖層_1" data-name="圖層 1" xmlns="http://www.w3.org/2000/svg" viewBox="0 0 383.1 400"><defs><style>.cls-1{fill:#1771ba;}</style></defs><title>ROC_Ministry_of_the_Interior_Logo</title><path class="cls-1" d="M229,379.34c12.56-24.74,30-27.18,30-76.69h0a66.93,66.93,0,0,0-133.85,0c0,49.51,17.48,52,30,76.69-77.94-43.87-87.94-126.93-42-198.27C47.55,221.9,5.37,320.49,61.32,389c21.74,23.69,26.38,31.44,48.8,52.42V444c-121.54-55.38-173.64-272,9.1-357.31C148.07,73.18,156.33,73.18,192.13,44,227.92,73.18,236.19,73.18,265,86.64c182.74,85.28,127.3,298.47,9.1,357.31v-2.5c22.41-21,27.05-28.73,48.79-52.42,55.95-68.54,13.77-167.13-51.93-208C317,252.41,307,335.47,229,379.34Z" transform="translate(0 -43.95)"/></svg>