<svg id="圖層_1" data-name="圖層 1" xmlns="http://www.w3.org/2000/svg" viewBox="0 0 400 400"><defs><style>.cls-1{fill:#c6951c;}.cls-2{fill:#2a2854;}</style></defs><title>ROC_Ministry_of_Finance_Seal</title><g id="部徽-曲線.cdr"><g id="g51"><g id="g53"><path id="path55" class="cls-1" d="M200-200h.14a202.77,202.77,0,0,1,62.43,10h-125A203.07,203.07,0,0,1,200-200Z" transform="translate(0 200)"/><path id="path57" class="cls-1" d="M115.72-181.43H284.28a204.94,204.94,0,0,1,18.76,10H97A211.7,211.7,0,0,1,115.72-181.43Z" transform="translate(0 200)"/><path id="path59" class="cls-1" d="M83.86-162.86H316.14c4.45,3.18,8.71,6.5,12.83,10H71C75.15-156.36,79.46-159.68,83.86-162.86Z" transform="translate(0 200)"/><path id="path61" class="cls-1" d="M61.49-144.29H338.56c3.32,3.23,6.55,6.55,9.69,10H51.75C54.89-137.74,58.12-141.06,61.49-144.29Z" transform="translate(0 200)"/><path id="path63" class="cls-1" d="M44.41-125.67H355.59c2.62,3.23,5.2,6.55,7.58,10H36.83Q40.47-120.83,44.41-125.67Z" transform="translate(0 200)"/><path id="path65" class="cls-1" d="M31.07-107.1H369c2,3.23,4,6.55,5.94,10H25.13C27-100.55,29-103.87,31.07-107.1Z" transform="translate(0 200)"/><path id="path67" class="cls-1" d="M20.59-88.53H379.41q2.46,4.92,4.63,10H16C17.45-81.93,19-85.25,20.59-88.53Z" transform="translate(0 200)"/><path id="path69" class="cls-1" d="M12.54-70H387.46c1.22,3.28,2.39,6.6,3.46,10H9.12C10.15-63.36,11.32-66.68,12.54-70Z" transform="translate(0 200)"/><path id="path71" class="cls-1" d="M6.64-51.39H393.4c.84,3.28,1.64,6.6,2.34,10H4.26Q5.31-46.47,6.64-51.39Z" transform="translate(0 200)"/><path id="path73" class="cls-1" d="M2.67-32.81H397.38q.76,4.91,1.4,10H1.26Q1.83-27.9,2.67-32.81Z" transform="translate(0 200)"/><path id="path75" class="cls-1" d="M.47-14.24H399.58q.35,4.9.42,10H0C.09-7.65.23-11,.47-14.24Z" transform="translate(0 200)"/><path id="path77" class="cls-1" d="M0,4.33H400q-.08,5-.42,10H.47C.23,11,.09,7.65,0,4.33Z" transform="translate(0 200)"/><path id="path79" class="cls-1" d="M1.26,22.9H398.78q-.63,5-1.4,10H2.67Q1.83,27.88,1.26,22.9Z" transform="translate(0 200)"/><path id="path81" class="cls-1" d="M4.26,41.47H395.74c-.7,3.32-1.5,6.69-2.34,10H6.64C5.76,48.16,5,44.79,4.26,41.47Z" transform="translate(0 200)"/><path id="path83" class="cls-1" d="M9.12,60h381.8c-1.07,3.37-2.24,6.69-3.46,10H12.54C11.32,66.73,10.15,63.41,9.12,60Z" transform="translate(0 200)"/><path id="path85" class="cls-1" d="M16,78.61H384q-2.18,5.06-4.63,10H20.59C19,85.3,17.45,82,16,78.61Z" transform="translate(0 200)"/><path id="path87" class="cls-1" d="M25.13,97.18H374.92c-1.92,3.37-3.89,6.69-5.94,10H31.07C29,103.87,27,100.55,25.13,97.18Z" transform="translate(0 200)"/><path id="path89" class="cls-1" d="M36.83,115.75H363.17c-2.38,3.42-5,6.74-7.58,10H44.41Q40.48,120.88,36.83,115.75Z" transform="translate(0 200)"/><path id="path91" class="cls-1" d="M51.75,134.32h296.5q-4.71,5.13-9.69,10H61.49C58.12,141.06,54.89,137.74,51.75,134.32Z" transform="translate(0 200)"/><path id="path93" class="cls-1" d="M71,152.89H329c-4.12,3.51-8.38,6.83-12.83,10H83.86C79.46,159.72,75.2,156.4,71,152.89Z" transform="translate(0 200)"/><path id="path95" class="cls-1" d="M97,171.47H303a195.18,195.18,0,0,1-18.76,10H115.72A201.29,201.29,0,0,1,97,171.47Z" transform="translate(0 200)"/><path id="path98" class="cls-1" d="M137.53,190h125A200.2,200.2,0,0,1,200,200,200,200,0,0,1,137.53,190Z" transform="translate(0 200)"/></g></g><g id="g100"><path id="path102" class="cls-2" d="M143.14-162.81c-.79.09-1.21.61-1.07,1.82,1.45,16.89,11.23,33.87,9.92,52.39.09,1.13-.52,1.45-1.64,1.45H107.21c-1,0-1.27.33-1.27,1.31,4.5,83,4,159.38-33.55,249,0,1,.33,1.13,1.17,1.13h95.27c1,0,1.88-.28,1.88-1.27,4.25-13.65,4.25-13.56,7.44-34.28,0-.75.7-.89,1.31-.89h41.08c.66,0,1.27.14,1.36.89C225,129.46,225,129.37,229.29,143c0,1,.85,1.27,1.88,1.27h95.27c.84,0,1.22-.14,1.22-1.13-37.58-89.62-38.1-166-33.6-249,0-1-.24-1.31-1.27-1.31H249.7c-1.13,0-1.74-.32-1.64-1.45-1.36-18.52,8.47-35.5,9.87-52.39.19-1.63-.61-2-2.06-1.77H144.13A3.36,3.36,0,0,0,143.14-162.81Z" transform="translate(0 200)"/><path id="path104" class="cls-1" d="M200-146.67c-2.43,0-4.68,1.4-4.68,4.91v19.65c0,1.12-.56,1.4-1.64,1.4H178a2.45,2.45,0,0,0-2.2.84c-2,2.11-2.39,6,0,8,.84.8.94.7,2.2.7h15.72c1.41.19,1.69.57,1.64,1.83V76.74c-.14,1.59.37,3-1.4,3.09h-3.37c-2.58,0-4.35.32-5.43,2.66a4.37,4.37,0,0,0,0,4.17c.75,2,3,2.76,5.43,2.62h3.37c1.68,0,1.35,1.21,1.4,3.83.05,1.92-.42,4,.94,5.8a5.45,5.45,0,0,0,3.74,1.83,5.66,5.66,0,0,0,3.79-1.83c1.31-1.82.89-3.88.94-5.8,0-2.62-.28-3.79,1.35-3.83h3.37c2.44.14,4.73-.61,5.48-2.62a4.66,4.66,0,0,0,0-4.17c-1.13-2.34-2.86-2.62-5.48-2.66h-3.37c-1.73-.1-1.26-1.5-1.35-3.09V-109.39c0-1.26.18-1.64,1.63-1.83H222c1.26,0,1.36.1,2.2-.7,2.39-2,2-5.84,0-8a2.45,2.45,0,0,0-2.2-.84H206.36c-1.12,0-1.68-.28-1.63-1.4v-19.65C204.68-145.27,202.48-146.67,200-146.67Z" transform="translate(0 200)"/><path id="path106" class="cls-1" d="M142.68-60.69a14.79,14.79,0,0,0-2.76,9.44V20.51c-.14,7.16,1.63,13.1,6.78,16.61,1.87,1.21,1.92,1.21.7,3.09l-14.5,23.2a4.58,4.58,0,0,0,.09,4.82,4,4,0,0,0,4,2.1A5.47,5.47,0,0,0,140.8,68l16.48-26.67c.51-1.26.7-1.31,1.31,0L175.15,68a5.49,5.49,0,0,0,3.75,2.38,4,4,0,0,0,4-2.1,4.49,4.49,0,0,0,.05-4.82l-14.46-23.2c-1.27-1.88-1.13-1.88.7-3.09,5.19-3.51,7-9.45,6.83-16.61V-51.25a14.92,14.92,0,0,0-2.85-9.44c-3-4-9.78-6-15.21-6S145.72-64.48,142.68-60.69Zm25.41,12.06h0v13.9c0,1.07-.33,1.59-1.45,1.54-5.81-.05-11.61-.05-17.32,0-1.12,0-1.5-.47-1.45-1.54v-13.9C149.42-64.2,168.55-59.48,168.09-48.63Zm-1.45,24.56h0c1.26.05,1.35.61,1.45,1.73v19c0,1.12-.33,1.4-1.45,1.4-5.9,0-11.7-.19-17.32,0-1.12,0-1.5-.28-1.45-1.4V-22.34c0-1.12.14-1.68,1.45-1.73C155.17-24.3,160.88-24.16,166.64-24.07ZM149.32,7.46h0c5.85,0,11.65.09,17.32,0,1.26,0,1.45.42,1.45,1.73V21.92c-1.55,15.67-19.61,11.6-20.22,0V9.19C147.82,7.88,148.06,7.46,149.32,7.46Z" transform="translate(0 200)"/><path id="path108" class="cls-1" d="M242.54-64.76c-2.86-.1-3.89,1.07-5,3.69L221.53-15.65c0,2.44,2,5,4.77,4.82H237c1-.05,1.22.28,1.22,1.22v24c.05.57.05.52-.51,1.08L218.2,36.74a9.32,9.32,0,0,0-1.54,2.62c-1.36,3.79,1.54,6.55,5,5.85a7.53,7.53,0,0,0,2.1-1.12l14-15.49c.19-.37.47-.28.47.33.09,12.16-.23,25.22,0,36.16a6.46,6.46,0,0,0,1.69,4.82,3.49,3.49,0,0,0,2.62,1,3.35,3.35,0,0,0,2.52-1,6.46,6.46,0,0,0,1.69-4.82c.23-10.94-.1-24,0-36.16,0-.61.28-.7.47-.33l14,15.49a7.53,7.53,0,0,0,2.1,1.12c3.47.7,6.37-2.06,5-5.85a9.32,9.32,0,0,0-1.54-2.62L247.31,15.46c-.56-.56-.61-.51-.56-1.08v-24c0-.94.23-1.27,1.21-1.22h10.77c2.8.19,4.72-2.38,4.72-4.82l-16-45.42C246.33-63.69,245.34-64.86,242.54-64.76Zm0,18.33h0c.42,0,.6.28.7.61l8.19,24.14c.28,1.31-.14,1.31-1.08,1.31H234.63c-.94,0-1.36,0-1.08-1.31l8.19-24.14A.81.81,0,0,1,242.54-46.43Z" transform="translate(0 200)"/></g></g></svg>