<svg id="svg2" xmlns="http://www.w3.org/2000/svg" viewBox="0 0 402.2 402.2"><defs><style>.cls-1{fill:#fbc829;}.cls-2{fill:none;stroke:#2350a9;stroke-width:2.2px;}.cls-3{fill:#4f4c4d;}.cls-4{fill:#73d2f6;}.cls-5{fill:#2350a9;}</style></defs><title>ROC_Ministry_of_Health_and_Welfare_Seal</title><g id="g18"><path id="path58" class="cls-1" d="M401.36,106.32c0,110.46-89.54,200-200,200s-200-89.54-200-200,89.55-200,200-200,200,89.54,200,200" transform="translate(-0.27 94.78)"/><path id="path60" class="cls-2" d="M401.36,106.32c0,110.46-89.54,200-200,200s-200-89.54-200-200,89.55-200,200-200S401.36-4.14,401.36,106.32Z" transform="translate(-0.27 94.78)"/><path id="path62" class="cls-3" d="M49.07,30.22,33.55,20.38,35.69,17,49.23,20l2.81.65c-.45-.56-1.09-1.39-1.92-2.48L41.9,7.22l1.92-3L59.34,14,58,16.2,45,8l9.86,13.18-1.28,2L37.23,19.68l13.21,8.39-1.37,2.15Z" transform="translate(-0.27 94.78)"/><path id="path64" class="cls-3" d="M62,10.69,51.25,2.8l1.46-2L63.43,8.71l-1.46,2ZM49.27,1.34,47.18-.2l1.46-2L50.72-.64l-1.45,2Z" transform="translate(-0.27 94.78)"/><path id="path66" class="cls-3" d="M65.88,5.35,55.61-3.12,57-4.83l1.46,1.2a4.94,4.94,0,0,1,0-2.56,6.09,6.09,0,0,1,1.27-2.4A6.41,6.41,0,0,1,61.37-10a4.68,4.68,0,0,1,1.72-.66,3.48,3.48,0,0,1,1.69.22A9,9,0,0,1,67.08-9l6.32,5.2L71.83-1.87,65.58-7a5.22,5.22,0,0,0-1.87-1.11A2.41,2.41,0,0,0,62.24-8a3.59,3.59,0,0,0-1.33,1,4,4,0,0,0-1,2.81,4.5,4.5,0,0,0,1.95,3l5.61,4.62-1.56,1.9Z" transform="translate(-0.27 94.78)"/><path id="path68" class="cls-3" d="M76.18-6.78l-9.77-9,1.67-1.8,9.77,9ZM64.6-17.49l-1.9-1.76L64.36-21l1.91,1.76-1.67,1.8Z" transform="translate(-0.27 94.78)"/><path id="path70" class="cls-3" d="M77.24-13.84l1.51-1.95a2.94,2.94,0,0,0,2.3.68,4.42,4.42,0,0,0,2.33-1.3,4.38,4.38,0,0,0,1.36-2.15,1.78,1.78,0,0,0-.41-1.7,1.38,1.38,0,0,0-1.4-.36,11.77,11.77,0,0,0-2.32,1.2,22.25,22.25,0,0,1-3.55,1.87,3.84,3.84,0,0,1-1.94.15,2.93,2.93,0,0,1-1.61-.9,3.27,3.27,0,0,1-.88-3,6.68,6.68,0,0,1,2.15-3.56,8.38,8.38,0,0,1,2.35-1.67A4.45,4.45,0,0,1,79.3-27a4.21,4.21,0,0,1,2.12.9L79.9-24.21q-1.75-1.34-3.78.63a4.7,4.7,0,0,0-1.39,2,1.42,1.42,0,0,0,.3,1.43,1.29,1.29,0,0,0,1.35.32,16.53,16.53,0,0,0,2.48-1.28A24.48,24.48,0,0,1,82.52-23a3.3,3.3,0,0,1,1.83-.13,3.1,3.1,0,0,1,1.59.92,3.66,3.66,0,0,1,1,3.34A7.29,7.29,0,0,1,84.58-15q-3.77,3.63-7.34,1.13" transform="translate(-0.27 94.78)"/><path id="path72" class="cls-3" d="M94-26.55l1.54,1.3a9.87,9.87,0,0,1-1.26,1.35,4.66,4.66,0,0,1-1.83,1,2.12,2.12,0,0,1-1.5-.09A7.68,7.68,0,0,1,89-24.77l-5-5.82-1.37,1.17-1.14-1.34,1.37-1.17-2.14-2.51,1-2.62,3,3.54,1.9-1.62,1.13,1.34-1.89,1.61,5,5.93a2.8,2.8,0,0,0,1.06.91,1.35,1.35,0,0,0,1.2-.42,8.17,8.17,0,0,0,.77-.78" transform="translate(-0.27 94.78)"/><path id="path74" class="cls-3" d="M97.38-26.66l-8.1-10.56L91-38.58,92.27-37a5.79,5.79,0,0,1,.11-2.43,2.9,2.9,0,0,1,1-1.34,5.14,5.14,0,0,1,2.44-1l.61,2.17a4,4,0,0,0-1.72.7,2.68,2.68,0,0,0-.89,1.21,2.24,2.24,0,0,0,0,1.47,8,8,0,0,0,1.3,2.47l4.24,5.53Z" transform="translate(-0.27 94.78)"/><path id="path76" class="cls-3" d="M107.89-28.22l-1.38-1.62a6.17,6.17,0,0,0,1.28-.6,3,3,0,0,0,.95-.91,2,2,0,0,0,.3-1.08c0-.14-.13-.93-.4-2.38l-11.93-8.1,2.22-1.46,6.77,4.77c.84.6,1.7,1.26,2.57,2a28.65,28.65,0,0,1-.83-3.08l-1.66-8.19,2.07-1.36,2.8,14.34a21.08,21.08,0,0,1,.5,3.88,3.89,3.89,0,0,1-.49,1.84,3.93,3.93,0,0,1-1.29,1.31,5.23,5.23,0,0,1-1.48.64" transform="translate(-0.27 94.78)"/><path id="path78" class="cls-3" d="M123-50.9a5.24,5.24,0,0,0,2.75,3,4.21,4.21,0,0,0,3.35-.17,4,4,0,0,0,2.17-2.41,5.22,5.22,0,0,0-.48-4,5.22,5.22,0,0,0-2.75-3,4.17,4.17,0,0,0-3.35.17,4,4,0,0,0-2.18,2.4,5.27,5.27,0,0,0,.49,4m-2.29,1.06a6.68,6.68,0,0,1-.44-5.53A7,7,0,0,1,124-59a7,7,0,0,1,5.15-.45A6.46,6.46,0,0,1,133-55.7a6.9,6.9,0,0,1,.51,5.65,7,7,0,0,1-3.71,3.65,7,7,0,0,1-5.16.46,6.65,6.65,0,0,1-4-3.9" transform="translate(-0.27 94.78)"/><path id="path80" class="cls-3" d="M139.61-50.87l-4-10.82-2,.77-.61-1.65,2.05-.76-.5-1.33a5,5,0,0,1-.41-2.35,2.85,2.85,0,0,1,.82-1.59,5.54,5.54,0,0,1,2-1.17,13.72,13.72,0,0,1,2.24-.59l.35,2A9,9,0,0,0,138-68a2.36,2.36,0,0,0-1.33,1,2.22,2.22,0,0,0,.13,1.7l.43,1.16,2.66-1,.62,1.64-2.67,1,4.05,10.82-2.29.85Z" transform="translate(-0.27 94.78)"/><path id="path82" class="cls-3" d="M154.72-56l-3.93-18,2.6-.57L155-67.14l10.2-2.24-1.62-7.37,2.6-.57,3.93,18-2.6.56-1.85-8.46L155.46-65l1.85,8.46Z" transform="translate(-0.27 94.78)"/><path id="path84" class="cls-3" d="M175.57-68.06l8.07-.86a4.23,4.23,0,0,0-1.25-2.47,4,4,0,0,0-3.14-.91,4.12,4.12,0,0,0-2.7,1.33,3.9,3.9,0,0,0-1,2.91M184-65.3l2.56,0a5.57,5.57,0,0,1-1.95,3.44,7.3,7.3,0,0,1-4,1.51,7,7,0,0,1-5.16-1.22A6.53,6.53,0,0,1,173-66.39a6.82,6.82,0,0,1,1.36-5.43,6.81,6.81,0,0,1,4.67-2.32,6.58,6.58,0,0,1,4.87,1.27,6.72,6.72,0,0,1,2.43,4.92l0,.59-10.8,1.16A4.88,4.88,0,0,0,177.35-63a4.34,4.34,0,0,0,3.11.81A3.9,3.9,0,0,0,184-65.3" transform="translate(-0.27 94.78)"/><path id="path86" class="cls-3" d="M199.62-68.33a19.59,19.59,0,0,1-4,.92,9.33,9.33,0,0,0-2.16.5,2.17,2.17,0,0,0-.95.74,1.79,1.79,0,0,0-.32,1.09,1.78,1.78,0,0,0,.81,1.51,3.6,3.6,0,0,0,2.18.53,5.53,5.53,0,0,0,2.39-.56,3.63,3.63,0,0,0,1.58-1.4,4.71,4.71,0,0,0,.49-2.5v-.83Zm.29,5a9.28,9.28,0,0,1-2.55,1.5,8.07,8.07,0,0,1-2.76.54,5.86,5.86,0,0,1-3.64-1A3.29,3.29,0,0,1,189.55-65a3.46,3.46,0,0,1,.6-2,4.21,4.21,0,0,1,1.71-1.42,11.2,11.2,0,0,1,3.33-.8,23.78,23.78,0,0,0,4.4-.86v-.57a2.43,2.43,0,0,0-.69-1.91,4.25,4.25,0,0,0-2.84-.75,4.86,4.86,0,0,0-2.56.58,3.24,3.24,0,0,0-1.22,2L189.86-71a4.79,4.79,0,0,1,2-3.15,8.58,8.58,0,0,1,4.5-1.06,8.13,8.13,0,0,1,3.61.58A3,3,0,0,1,201.68-73a8.56,8.56,0,0,1,.39,2.77l.06,3a26.92,26.92,0,0,0,.23,4,4.9,4.9,0,0,0,.65,1.59l-2.57,0a4.53,4.53,0,0,1-.53-1.63" transform="translate(-0.27 94.78)"/><path id="path88" class="cls-3" d="M206.35-61.53,207-79.88l2.46.09-.67,18.35Z" transform="translate(-0.27 94.78)"/><path id="path90" class="cls-3" d="M218.59-62.86l.19,2a9.18,9.18,0,0,1-1.85.07,4.68,4.68,0,0,1-2-.53,2.11,2.11,0,0,1-1-1.12,7.88,7.88,0,0,1-.1-2.65l.54-7.64-1.8-.13.13-1.75,1.8.13.23-3.29,2.55-1.18-.33,4.64,2.48.18-.13,1.75-2.48-.18-.55,7.77a2.83,2.83,0,0,0,.12,1.4,1.36,1.36,0,0,0,1.15.53,8.07,8.07,0,0,0,1.09,0" transform="translate(-0.27 94.78)"/><path id="path92" class="cls-3" d="M221.07-60.66l2.41-18.21,2.44.32L225.05-72a5.64,5.64,0,0,1,2.13-1.1,6,6,0,0,1,2.45-.14,5.62,5.62,0,0,1,3.5,1.58c.79.85,1.05,2.25.8,4.21l-1.11,8.36-2.44-.33,1.11-8.36a3.21,3.21,0,0,0-.49-2.56,3.2,3.2,0,0,0-2.13-1.05,4.18,4.18,0,0,0-2.84.6,4.35,4.35,0,0,0-1.57,3.25l-1,7.21Z" transform="translate(-0.27 94.78)"/><path id="path94" class="cls-3" d="M255.59-60.72a19.5,19.5,0,0,1-4.11-.23,9.79,9.79,0,0,0-2.22-.14,2.25,2.25,0,0,0-1.12.45,1.81,1.81,0,0,0-.62,1,1.78,1.78,0,0,0,.36,1.67,3.61,3.61,0,0,0,2,1.13,5.54,5.54,0,0,0,2.45.13,3.67,3.67,0,0,0,1.91-.9,4.72,4.72,0,0,0,1.18-2.27l.22-.8Zm-1.14,4.92a9.54,9.54,0,0,1-2.86.72,7.84,7.84,0,0,1-2.81-.26,5.91,5.91,0,0,1-3.23-1.94,3.29,3.29,0,0,1-.57-3,3.4,3.4,0,0,1,1.15-1.81,4.2,4.2,0,0,1,2-.88,11.43,11.43,0,0,1,3.42.17,24.43,24.43,0,0,0,4.46.41l.17-.55a2.41,2.41,0,0,0-.12-2,4.18,4.18,0,0,0-2.52-1.52,4.89,4.89,0,0,0-2.62-.17,3.31,3.31,0,0,0-1.74,1.6L247-66a4.81,4.81,0,0,1,2.84-2.46,8.72,8.72,0,0,1,4.62.25,8.46,8.46,0,0,1,3.3,1.57,3.06,3.06,0,0,1,1.16,2,8.44,8.44,0,0,1-.4,2.77L257.7-59a27.78,27.78,0,0,0-.9,3.88,4.79,4.79,0,0,0,.19,1.7l-2.49-.68a4.59,4.59,0,0,1-.05-1.71" transform="translate(-0.27 94.78)"/><path id="path96" class="cls-3" d="M260.2-52.33,265-64.77,267-64l-.67,1.76a5.21,5.21,0,0,1,2.42-.84,6.27,6.27,0,0,1,2.69.45,6.5,6.5,0,0,1,1.89,1.09,4.49,4.49,0,0,1,1.18,1.42,3.27,3.27,0,0,1,.33,1.67,8.92,8.92,0,0,1-.69,2.66l-2.92,7.65L268.94-49l2.89-7.56a5,5,0,0,0,.45-2.12,2.37,2.37,0,0,0-.6-1.35,3.48,3.48,0,0,0-1.41-.93,4,4,0,0,0-3-.09,4.53,4.53,0,0,0-2.19,2.8l-2.6,6.79-2.29-.87Z" transform="translate(-0.27 94.78)"/><path id="path98" class="cls-3" d="M279.47-51.65a5.32,5.32,0,0,0-.66,4,3.73,3.73,0,0,0,1.91,2.37,3.65,3.65,0,0,0,3,.15,5,5,0,0,0,2.67-2.72,6,6,0,0,0,.81-4.16,3.75,3.75,0,0,0-2-2.46,3.5,3.5,0,0,0-2.94-.1,5.62,5.62,0,0,0-2.75,3m4,9.44.75-1.5a4.32,4.32,0,0,1-2.2.54,5,5,0,0,1-2.25-.57,6.18,6.18,0,0,1-3.15-3.64,6.81,6.81,0,0,1,.63-5.42,8.25,8.25,0,0,1,2.48-3.06,5.59,5.59,0,0,1,3.05-1.09,6.42,6.42,0,0,1,3.11.72,5.27,5.27,0,0,1,1.8,1.45,4.65,4.65,0,0,1,.94,2l3-5.88,2.21,1.12-8.29,16.39Z" transform="translate(-0.27 94.78)"/><path id="path100" class="cls-3" d="M299.34-32.58l7.13-17.76,2.14,1.67-5,11.38c-.51,1.17-1.06,2.34-1.65,3.49l2.8-2.13,10.66-7.42,2.53,2-3.47,9.1a49.94,49.94,0,0,1-2.77,6.09c.94-.78,2-1.63,3.24-2.54l9.76-7.36,2.11,1.64L311.14-23.35l-2-1.58,5.28-13.64.83-2.09c-.64.51-1.24,1-1.79,1.34l-12,8.4Z" transform="translate(-0.27 94.78)"/><path id="path102" class="cls-3" d="M323.6-22.5l5.67,5.82a4.3,4.3,0,0,0,1.16-2.51,4,4,0,0,0-1.23-3,4.12,4.12,0,0,0-2.71-1.3,3.89,3.89,0,0,0-2.89,1m3,8.35,1.57,2a5.55,5.55,0,0,1-3.9.6,7.42,7.42,0,0,1-3.66-2.19,7.14,7.14,0,0,1-2.23-4.81,6.54,6.54,0,0,1,2.31-4.92,6.85,6.85,0,0,1,5.11-2.29,6.85,6.85,0,0,1,4.7,2.24,6.58,6.58,0,0,1,2,4.61,6.74,6.74,0,0,1-2.37,5l-.44.41-7.58-7.78a4.86,4.86,0,0,0-1.46,3.36A4.3,4.3,0,0,0,322-15a3.9,3.9,0,0,0,4.65.85" transform="translate(-0.27 94.78)"/><path id="path104" class="cls-3" d="M327.5-6.72l14-11.88,1.59,1.88-14,11.88L327.5-6.72Z" transform="translate(-0.27 94.78)"/><path id="path106" class="cls-3" d="M332.18-1l9.13-7.08L340-9.85l1.38-1.08,1.34,1.73,1.12-.86a4.86,4.86,0,0,1,2.13-1.1,2.81,2.81,0,0,1,1.75.31,5.27,5.27,0,0,1,1.71,1.52,13.23,13.23,0,0,1,1.23,2l-1.77.92a8.88,8.88,0,0,0-.8-1.22,2.35,2.35,0,0,0-1.31-1,2.21,2.21,0,0,0-1.59.64l-1,.75L345.93-5l-1.39,1.08L342.8-6.2,333.67.89Z" transform="translate(-0.27 94.78)"/><path id="path108" class="cls-3" d="M347.45,8.82A19.72,19.72,0,0,1,344.5,6a10.13,10.13,0,0,0-1.59-1.55A2.29,2.29,0,0,0,341.77,4a1.88,1.88,0,0,0-1.92,1.82A3.68,3.68,0,0,0,340.59,8a5.61,5.61,0,0,0,1.76,1.71,3.81,3.81,0,0,0,2,.57,4.74,4.74,0,0,0,2.38-1l.68-.46Zm-4.07,3a9.33,9.33,0,0,1-2.64-1.32,8,8,0,0,1-1.95-2,5.92,5.92,0,0,1-1.17-3.58,3.31,3.31,0,0,1,1.55-2.67,3.42,3.42,0,0,1,2.05-.61,4.24,4.24,0,0,1,2.12.66,11.52,11.52,0,0,1,2.48,2.37,24.59,24.59,0,0,0,3.1,3.22l.49-.31a2.36,2.36,0,0,0,1.23-1.61,4.23,4.23,0,0,0-.91-2.79,4.85,4.85,0,0,0-1.88-1.83,3.2,3.2,0,0,0-2.35.07L344.4-.82a4.8,4.8,0,0,1,3.76,0,8.72,8.72,0,0,1,3.33,3.21A8.2,8.2,0,0,1,353,5.73,3,3,0,0,1,352.54,8a8.6,8.6,0,0,1-2.12,1.83l-2.49,1.68a29.27,29.27,0,0,0-3.22,2.35,5,5,0,0,0-1,1.41l-1.43-2.13a4.55,4.55,0,0,1,1.08-1.34" transform="translate(-0.27 94.78)"/><path id="path110" class="cls-3" d="M345.42,18.22,357,11.58l1.11,1.93-1.75,1a5.67,5.67,0,0,1,2.39.42,2.89,2.89,0,0,1,1.19,1.16,4.92,4.92,0,0,1,.63,2.55l-2.23.31a3.74,3.74,0,0,0-.47-1.79,2.61,2.61,0,0,0-1.07-1,2.23,2.23,0,0,0-1.46-.22,8.09,8.09,0,0,0-2.61,1l-6,3.48-1.22-2.13Z" transform="translate(-0.27 94.78)"/><path id="path112" class="cls-3" d="M358.15,24.8l3.58,7.29a4.24,4.24,0,0,0,1.88-2,4,4,0,0,0-.21-3.26,4.15,4.15,0,0,0-2.17-2.08,3.93,3.93,0,0,0-3.08.07m.29,8.88.86,2.41a5.6,5.6,0,0,1-3.9-.65,7.43,7.43,0,0,1-2.78-3.22A7.05,7.05,0,0,1,352,27,6.53,6.53,0,0,1,355.72,23a6.46,6.46,0,0,1,9.35,3,6.54,6.54,0,0,1,.47,5,6.73,6.73,0,0,1-3.79,4l-.55.25-4.78-9.75A4.79,4.79,0,0,0,354,28.22a4.27,4.27,0,0,0,.29,3.2,3.89,3.89,0,0,0,4.15,2.26" transform="translate(-0.27 94.78)"/><path id="path114" class="cls-3" d="M132.65,261.43l5,2.4a.33.33,0,0,1,.15.5l-.36.74c-.12.24-.28.31-.5.21l-5-2.4c-.22-.1-.26-.28-.14-.52l.35-.74c.12-.23.28-.29.49-.19m-9.6-.05,3.15,1.53,1-2.13-2.66-1.29c-.53.69-1,1.33-1.51,1.89m6.12,4.47,6.8,3.29a.34.34,0,0,1,.15.51l-.36.73c-.11.25-.28.32-.5.22l-1.93-.94-5.68,11.71q-.8,1.65-3.92.13l-.87-.42c-.1-.05-.09-.21,0-.49a3.16,3.16,0,0,0,.18-1.33l0-.09a5.33,5.33,0,0,0,1.21.81c.93.45,1.52.41,1.78-.12l5.38-11.09-3-1.46c-.22-.11-.26-.28-.14-.53l.35-.74a.33.33,0,0,1,.49-.19m-5.39,2.9.8-1.64-5.37-2.59-.79,1.63,5.36,2.6Zm-2.93-12.62,2.86,1.38c.44-.54.87-1.12,1.3-1.74a.37.37,0,0,1,.42,0l1.32,1a.41.41,0,0,1,.19.52.34.34,0,0,1-.51.15.47.47,0,0,0-.44.15c-.2.26-.37.52-.54.76l3.8,1.84q.44.21.3.48L128,263.8l.86.42c.16.07.19.2.11.39l-.36.74a.26.26,0,0,1-.37.14l-10.33-5c-.15-.07-.18-.19-.09-.35l.36-.75c.08-.18.2-.24.34-.17l2.8,1.36,1.49-1.91-2.61-1.26c-.14-.07-.17-.2-.08-.38l.35-.72c.08-.19.2-.24.34-.17m-2.42,6.41,8.18,4c.29.14.39.31.29.51l-1.76,3.63c-.1.19-.29.22-.57.08l-8.19-4c-.29-.14-.38-.31-.28-.5l1.75-3.63c.1-.2.29-.23.58-.09M116,270.6l-.89,1.84,3.34,1.62.89-1.84Zm2.74-18a9,9,0,0,1,1.62,2.14.19.19,0,0,1-.29.11.85.85,0,0,0-.7,0,12.06,12.06,0,0,1-3.47,1.48,19.38,19.38,0,0,1-2.82.53.88.88,0,0,1-.42-.43,9.88,9.88,0,0,0-.54-.94.35.35,0,0,1-.07-.34c.7-.11,1.4-.24,2.11-.37a10.1,10.1,0,0,0,2.56-.9,8.5,8.5,0,0,0,1.82-1.15c.08-.12.14-.16.2-.13m2.44,20.49-.89,1.84,3.23,1.56c.14.07.17.2.08.38l-.36.73c-.11.25-.24.33-.39.26l-3.23-1.56-1,2.11c-.09.19-.27.23-.54.1l-1.11-.54c-.22-.11-.28-.26-.18-.46l1-2.1-7-3.4c-.14-.07-.15-.22,0-.47l.36-.73c.09-.18.2-.24.35-.17l1.83.88,1.42-2.93c.08-.17.23-.2.44-.1l4.86,2.36.63-1.31c.06-.12.2-.13.42,0,1.29.63,1.9,1,1.81,1.22s-.22.27-.37.21-.29,0-.42.31l-.23.48,2.8,1.35a.25.25,0,0,1,.12.37l-.36.76c-.11.23-.25.3-.41.22l-2.8-1.35Zm-5.09-14.77a9,9,0,0,1,1.62,2.14.19.19,0,0,1-.29.11.89.89,0,0,0-.68,0,19.69,19.69,0,0,1-2.84,1.73l-5.43,11.21q-.14.3-.57.09l-1.09-.52a.32.32,0,0,1-.18-.46l4.5-9.28c-.67.2-1.52.41-2.56.62a1,1,0,0,1-.44-.47c-.15-.28-.33-.58-.52-.9a.37.37,0,0,1-.06-.37c.86-.18,1.75-.4,2.65-.66a14.28,14.28,0,0,0,3.33-1.38,11.85,11.85,0,0,0,2.36-1.71c.08-.11.15-.16.2-.13" transform="translate(-0.27 94.78)"/><path id="path116" class="cls-3" d="M157,268.54l2,1.07c.18.18.27.31.24.42a.39.39,0,0,1-.43.32.42.42,0,0,0-.51.25c-.58,1-1.07,1.81-1.5,2.47l7.11,1.49.95-4.5c0-.2.22-.26.53-.2,1.49.32,2.21.57,2.17.77s-.18.34-.38.33-.33.13-.4.44l-.76,3.61,9.84,2.07c.23,0,.33.16.29.35l-.21,1c-.06.27-.21.38-.44.33l-9.83-2.06-1.19,5.66,8.42,1.77a.33.33,0,0,1,.28.45l-.18.82c-.05.25-.19.35-.43.3l-8.42-1.77-1.42,6.75L174,293.05c.24.05.33.18.29.4l-.21,1c-.06.25-.2.35-.43.3l-26-5.46a.33.33,0,0,1-.27-.45l.21-1c0-.22.18-.3.42-.25l12.64,2.66,1.42-6.75L153,281.58a.33.33,0,0,1-.28-.45l.17-.82c.06-.25.2-.35.44-.3l9.12,1.92,1.2-5.67-7.88-1.65q-.87,1.09-1.77,2a14.78,14.78,0,0,1-2.16,1.7,2,2,0,0,1-.65-.24c-.38-.23-.76-.45-1.15-.65-.12-.1-.18-.17-.17-.22A.31.31,0,0,1,150,277a14,14,0,0,0,3.28-2.81A17.11,17.11,0,0,0,155,272a23.72,23.72,0,0,0,1.79-3.26c.09-.13.18-.19.28-.17" transform="translate(-0.27 94.78)"/><path id="path118" class="cls-3" d="M214,294l4.3-.07,0-2.64-4.31.08Zm-.11-6.81,0,2.54,4.3-.07,0-2.54Zm3.14-5.05,0-2.94-8.6.14,0,2.94Zm-9.62,12,4.44-.07-.05-2.64-4.43.07Zm-.07-4.28,4.44-.07,0-2.53-4.43.07Zm-.66-12.08,12-.19c.32,0,.48.09.49.29l.09,5.57q0,.33-.48.33l-12,.2c-.32,0-.48-.1-.49-.32l-.08-5.57c0-.2.15-.3.47-.31m-1.08,7.93,14.24-.23q.48,0,.48.3l.18,10.78c0,.22-.16.33-.48.34l-1.19,0q-.48,0-.48-.33l0-1-10.89.17,0,1c0,.22-.16.33-.48.34l-1.19,0c-.32,0-.48-.1-.48-.32l-.18-10.66c0-.28.15-.43.47-.44m-.18-11.27,14.47-.23c.24,0,.36.13.37.39v.81c0,.27-.11.41-.35.41l-14.47.24c-.24,0-.36-.13-.37-.4v-.81c0-.27.12-.4.35-.41M202,283.53l1.08,0c.32,0,.48.14.49.42a11.7,11.7,0,0,0-.32,2.83,21.54,21.54,0,0,0,1.19,6.92c0,.12-.09.21-.29.26l-1.73.16-.19-.38a87,87,0,0,1-.7-9.75c0-.29.16-.44.47-.44m-7.43-8.62,7.77-.13c.24,0,.36.13.36.4l0,.81c0,.28-.11.43-.35.43l-7.77.13c-.25,0-.37-.14-.37-.43l0-.8c0-.27.12-.41.36-.41m-.22,8.64,2.19.4q.33.12.33.3a.27.27,0,0,1-.26.33c-.3.11-.48.4-.56.87a49.25,49.25,0,0,1-.16,6.44c-.2,1.14-.41,2.15-.64,3,0,.16-.11.23-.35.24-1.2-.3-1.8-.51-1.81-.61a19.77,19.77,0,0,0,.82-3.37q.23-2.46.2-7.37c0-.17.08-.26.24-.26M193.18,280l10.52-.17c.24,0,.37.13.37.4V281c0,.26-.11.4-.35.41l-3.95.06.26,15.35c0,.22-.16.33-.48.34l-1.19,0c-.32,0-.48-.11-.49-.33l-.25-15.34-4.42.07c-.24,0-.36-.13-.37-.4v-.81c0-.27.11-.4.35-.41" transform="translate(-0.27 94.78)"/><path id="path120" class="cls-3" d="M257.34,265.61l2.58-.41c.3,0,.45.07.46.12s-.07.31-.36.38c-.38.27-.47.75-.28,1.48l4.93,18.35q.54,2-2.69,2.86l-2.08.56c-.16,0-.28-.1-.37-.43a3.93,3.93,0,0,0-.9-1c-.05-.2,0-.31.16-.35a12.29,12.29,0,0,0,2.5-.36c.85-.23,1.19-.64,1-1.23l-4.8-17.86a10.29,10.29,0,0,0-.38-1.22,2.24,2.24,0,0,1-.2-.5c0-.14.09-.26.4-.34M252.06,270q2.2-.6,2.28-.3a.36.36,0,0,1-.18.47c-.19.07-.24.26-.16.57l3.4,12.66c.06.2-.07.34-.38.42l-1.16.31c-.31.09-.49,0-.54-.17l-3.64-13.55c-.06-.19.07-.33.38-.41m-4.63-.2a2.91,2.91,0,0,0-.47.2,21.89,21.89,0,0,1-2.71,1.55,4.3,4.3,0,0,1-.6.32l1.19,4.39,5.54-1.49q.35-.09.45.3l.21.79c.07.27,0,.43-.24.49l-5.22,1.4a20,20,0,0,0,2.33,2.11A16.24,16.24,0,0,0,252,282c.2,0,.3.08.33.17s0,.16-.14.28a6.92,6.92,0,0,1-.67,1c-.07.16-.16.26-.26.28a1.45,1.45,0,0,1-.56,0,16.84,16.84,0,0,1-3.58-2.15c-.39-.31-.78-.65-1.17-1l3,11.17c0,.18-.09.31-.4.39l-1.15.31c-.32.09-.49,0-.54-.14l-2.8-10.41c-.06.21-.13.4-.18.58a27.89,27.89,0,0,1-1.45,3.36,21.12,21.12,0,0,1-2.07,3,.81.81,0,0,1-.56,0,12.76,12.76,0,0,0-1.35-.55.87.87,0,0,1-.16-.23,16.27,16.27,0,0,0,1.69-2.13,19,19,0,0,0,1.76-3.37,37.14,37.14,0,0,0,1.19-4.08l-6.27,1.68q-.34.09-.45-.3L236,279c-.07-.27,0-.43.24-.49l6.47-1.74-1.09-4.05c-.34.14-.66.28-1,.4-1.33.5-2.55.89-3.67,1.19a.64.64,0,0,1-.73-.17c-.33-.24-.71-.51-1.14-.8q-.07-.27.27-.36l1.73-.47a24.86,24.86,0,0,0,3.55-1.19,15.55,15.55,0,0,0,2.64-1.18,10.22,10.22,0,0,0,2.43-1.67.73.73,0,0,1,.18-.14.75.75,0,0,1,.52,0q2,.79,2.13,1.11t-.27.36l-.89-.05Z" transform="translate(-0.27 94.78)"/><path id="path122" class="cls-3" d="M291,251.7l10.36,18c.11.2,0,.38-.28.55l-1,.59c-.27.16-.47.15-.58,0l-11-19c-.1-.18,0-.35.26-.51l7.26-4.18a1.45,1.45,0,0,1,.75-.25c.61,0,.95.08,1,.2l-.07,8.45a1.4,1.4,0,0,0,.1.41.62.62,0,0,0,.39.25,12.11,12.11,0,0,1,3.85,1.53,8.57,8.57,0,0,1,2.89,2.92,4.5,4.5,0,0,1,.63,2.36,3.35,3.35,0,0,1-.92,2.23,5.94,5.94,0,0,1-2.16,1.77c-.45.26-.75.26-.9,0a3.39,3.39,0,0,0-1.16-.94c-.11-.18-.05-.32.16-.44l1.34-.55a2.53,2.53,0,0,0,1.41-1.62,2.22,2.22,0,0,0-.3-1.71,7.5,7.5,0,0,0-2.31-2.34,14.39,14.39,0,0,0-4.57-1.76c-.21,0-.34-.05-.4-.15a1.5,1.5,0,0,1-.1-.42l.28-8.13L291,251.7Zm-5.34,6,1.86-.36c.31-.06.5,0,.59.13s0,.22-.11.35a.38.38,0,0,0-.18.46,15.88,15.88,0,0,1,.14,3.85c0,.23,0,.37-.1.41a1.09,1.09,0,0,1-.53.1q-.67.09-1.23.21c-.16,0-.25,0-.27,0a.33.33,0,0,1,0-.2,14.73,14.73,0,0,0,.1-2.29,8.78,8.78,0,0,0-.32-2.28c-.05-.21,0-.33.06-.39m.57,17.36,7.08-4.07L291,267.07l-7.08,4.08,2.27,3.94Zm-4.56-4.54,10-5.75c.27-.16.46-.15.56,0l4.38,7.6c.11.19,0,.36-.25.52l-1,.6c-.26.15-.44.13-.55-.06l-.61-1.06L287,276.51l.61,1.06c.11.19,0,.36-.25.52l-1,.6c-.28.16-.47.15-.59,0l-4.32-7.51c-.14-.23-.07-.43.21-.59m-3.45-2.19,13.49-7.78c.2-.11.35-.05.48.17l.41.71c.13.23.11.4-.08.51L279,269.75c-.21.12-.38.06-.51-.17l-.41-.71a.32.32,0,0,1,.12-.51m.66-6.51a17.34,17.34,0,0,1,2.28,1.5,10.74,10.74,0,0,1,1.77,1.44,9.07,9.07,0,0,1-1.5,1.48,9.75,9.75,0,0,0-1.33-1.29,14.31,14.31,0,0,0-2.2-1.48c-.08-.14.25-.69,1-1.65m.32-6.4q2-1.14,2.13-.87a.33.33,0,0,1-.07.48c-.16.12-.15.33,0,.61l1,1.76,5.08-2.93c.2-.12.38-.06.51.18l.41.71a.34.34,0,0,1-.11.53L275.79,263c-.19.11-.35,0-.49-.19l-.41-.71c-.13-.23-.11-.41.08-.52l5.39-3.1L278.89,256c-.1-.17,0-.34.26-.5" transform="translate(-0.27 94.78)"/><path id="path124" class="cls-4" d="M360.31,105.84A159.51,159.51,0,1,1,200.8-53.67,159.51,159.51,0,0,1,360.31,105.84" transform="translate(-0.27 94.78)"/><path id="path126" class="cls-5" d="M273.22,12.58c-7.37-.18-14.74-.52-22-.25-2.1.49-4.2.82-6.14,1.45-9.64,3-13.92,6.85-17.31,16.37C224.75,47,231,67.24,235.47,84.09c3,6,4.93,10.37,12.49,12.23,3-.28,3-.28,3.6-.49,4-4.64,4.2-10.2,3.06-15.63-1.27-4.07-2.38-8-3.51-12.09-3.92-10-9.15-20.6-11.42-30.63,0-4.66.07-3.77,3.31-7,8.2-3.58,19.2-2,28.79-3.77,2.84-1.24,6.57-3,8.18-5.85,2-5.59-3-7.31-6.75-8.3" transform="translate(-0.27 94.78)"/><path id="path128" class="cls-5" d="M169.6,27.18c-1-1.33-2.06-2.82-3.08-4.16-4-4-8.63-6-13.05-8a12.52,12.52,0,0,1-2.86-.86,118.28,118.28,0,0,0-34.61-3c-1.57,3.64.9,9,3.08,12.28,5.14,4.43,10.58,4.49,17.66,5.28,8.09.32,18.55-1.2,22.09,8.66.54,11.42-4.45,22.33-8,33.2-2.23,9.07-6.35,19.59,5.55,23.67,3.89-.3,4.6-.12,7.64-2.8,3.76-7.07,4.65-14.84,6.1-22.69a254.11,254.11,0,0,0,1.95-26c-.07-4.51-.07-4.51-.4-9-.73-2.1-1.43-4.19-2.06-6.44" transform="translate(-0.27 94.78)"/><path id="path130" class="cls-5" d="M280.79-10.83c-4.57-3.68-10.3-4.64-15.42-5.31-7.66.28-16.07,1.16-17.13,10.05.38,4.81.08,5,4.8,7.74,3.15.55,6.47,1.09,10.23,1.49,6.46-.56,12.93-.06,18.26-4.95,2.35-3.5,1.25-6.34-.74-9" transform="translate(-0.27 94.78)"/><path id="path132" class="cls-5" d="M121.76-.76a65.74,65.74,0,0,0,15,1.71c4.17-.21,8.22-.13,12.11-3,4.33-6.53-2.59-10.18-7.47-12.21-9.67-2-24.83-5.76-27.14,7.51.72,4.35,3.16,4.46,7.48,6" transform="translate(-0.27 94.78)"/><path id="path134" class="cls-5" d="M211.33,3.35l.12.3a34.42,34.42,0,0,1-7.94,4.44c-.23-5.25-.34-10.27-.12-15.39,3.62-.21,8.94,2.23,9.89,5.37.1,1.64-.1,4.2-1.95,5.28m.4,41.94a4.47,4.47,0,0,1-.84,5.73A20.29,20.29,0,0,1,205,53.08l-.5-.24c-.24-3.61,0-7.46,0-10.86,2.69.1,5.17.64,7.26,3.31m-11.18,36.3-1.75-.26c-6.68-1.88-12.72-7.65-10.34-14.61,2.42-3.8,7.17-5.09,11.59-5.6.33,11.34.72,12.21.5,20.47m-1-48-1.92-.38c-1.88-.42-3.88-1-5.27-1.42-1.63-1.18-1.63-1.18-2-1.17v-.3l-.34-.15c-3.1-6,1.63-7.84,6.23-9.87l3.3-.82c.21,3,.13,4.19,0,14.11M186.11-13.83l-2.52,1.1C182.5-14.07,182.3-14.06,181-14l-.78,2.41a14,14,0,0,1-2.67.5c-2.15-1-1.56-1.63-.65-2.85,3.3-1.85,5.29-2,9.24-.9l0,1.05Zm17.82-7,0-1.89c.09-7.83.09-7.83-.22-27.51-.39-2-3.56-1.3-4.58-.68l-.41.76c.49,21,.49,21,.46,28.41-7.39-.34-20.35-1.93-24.93,5.36-1.47,4.38-.86,3.77-5.15,5.5l-.05.59a31.91,31.91,0,0,0,4.53.38l-3.19,2-.12.46c1.15.28,2.87-.2,4.42.37,6.8,4,13.15,1.14,20.94-.64l3.7.07c.1,6,.09,11.75.25,17.61l-2,1.53c-6.07,2.21-10.93,4.09-15.44,8.68-3.53,6.52-2,11.61,3.21,16.93l.41.15v.3c2.67,1.45,5.42,3.07,8.89,3.76,1.77.27,3.63.39,5.44.51.18,3.61-.09,7.14.29,11.28-12.58,2.61-21.89,6.66-17.43,21.48.75,1.49,1.6,3.13,2.43,4.66,2.92,3.47,6.11,5.42,10.39,7.64,2,.13,3.63,1.72,5.13,2,.15,4.06.3,7.55.28,10.15a20.43,20.43,0,0,0,2.35.1,19.62,19.62,0,0,0,2.31-.17c-.09-1.05-.06-10.29.45-11.24,4.42-1.76,8.83-2.62,13.2-5.27a14.84,14.84,0,0,0,4.39-9.92l-1.25.47A26.66,26.66,0,0,1,217,79.3c-2.17.72-9.26,3.77-11,2.17-.19-6.91-1-14.22-.67-20.77,6.38-1.31,11.37-2.1,15.48-8,3.79-8.18.3-13.23-6.66-16.72-3-.71-7.11-1.45-10.09-2.16-.3-5.41-.42-10.3-.58-15.41,1.63-.78,5.61-1.9,9.93-3.48,6.74-3.26,10.51-6.17,12.41-13.72a28.89,28.89,0,0,0-.2-6.47c-2.88-9-13.84-13.51-21.63-15.49" transform="translate(-0.27 94.78)"/><path id="path136" class="cls-1" d="M334.74,91a1,1,0,0,0-1.26-.22c-.2.12-19.9,12.71-37.24,38.06-16,23.39-33.24,62.76-24.51,117.49a1,1,0,0,0,1.9-.23c-.07-.88-6.49-88.73,61-153.82a1,1,0,0,0,.09-1.28m-58.93,39.69a15,15,0,1,0-15,15,14.89,14.89,0,0,0,15-15M71.66,90.78a1,1,0,0,0-1.18,1.5c67.54,65.12,61.09,152.94,61,153.82a1,1,0,0,0,1.9.23c8.73-54.73-8.51-94.1-24.51-117.49-17.34-25.35-37-37.94-37.23-38.06m87.64,39.91a15,15,0,1,0-15,15,15,15,0,0,0,15-15m90.35,23.4a1,1,0,0,0,.09-1.28,1,1,0,0,0-1.26-.22,63.35,63.35,0,0,0-7.36,5.72,152.87,152.87,0,0,0-15.72-29.47,157,157,0,0,0-19.65-23.44c3.83-4.45,7.95-8.84,12.39-13.12a1,1,0,0,0,.09-1.28,1,1,0,0,0-1.26-.22,113.39,113.39,0,0,0-14.4,11.58,113.82,113.82,0,0,0-14.41-11.58,1,1,0,0,0-1.17,1.5c4.44,4.28,8.56,8.67,12.39,13.12a157,157,0,0,0-19.65,23.44,153,153,0,0,0-15.38,28.64,59.59,59.59,0,0,0-6.41-4.89,1,1,0,0,0-1.26.22,1,1,0,0,0,.09,1.28c2.24,2.16,4.33,4.37,6.32,6.61-8.46,22.23-13.42,50.82-7.87,85.63a1,1,0,0,0,1.9-.23c-.05-.55-2.59-35.54,12.33-77.63C198,206.53,194.88,249.56,194.84,250a1,1,0,0,0,1.9.23c5.48-34.36-5.35-59.08-15.39-73.77a100.67,100.67,0,0,0-10.22-12.6,197.64,197.64,0,0,1,31.44-54.69,197.46,197.46,0,0,1,31.8,55.68,100.65,100.65,0,0,0-9.3,11.61c-10,14.69-20.87,39.41-15.39,73.77a1,1,0,0,0,1.9-.23c0-.48-3.11-42.67,24.51-80.42,14.49,41.58,12,75.94,11.92,76.48a1,1,0,0,0,1.9.23c5.47-34.29.75-62.56-7.49-84.64,2.25-2.57,4.65-5.11,7.23-7.6M212.8,177.86a9.59,9.59,0,1,0-9.59,9.59,9.6,9.6,0,0,0,9.59-9.59" transform="translate(-0.27 94.78)"/></g></svg>