<svg id="svg2" xmlns="http://www.w3.org/2000/svg" xmlns:xlink="http://www.w3.org/1999/xlink" viewBox="0 0 400 122.28"><defs><style>.cls-1{fill:none;}.cls-2{clip-path:url(#clip-path);}.cls-3{fill:url(#未命名漸層);}.cls-4{fill:#4285f4;}.cls-5{fill:#fff;}</style><clipPath id="clip-path" transform="translate(0 -31.97)"><path class="cls-1" d="M267.38,62.68C265,27,156.8,9.68,0,151.87H33.16C135.45,34.33,281.61,22.14,259.11,84.4h0s63.8-68.51,139.37-43.16h0a.76.76,0,0,0,1.13.11h0c.27-.35-.09-1-.28-1.41h0a115,115,0,0,0-42.41-8h0c-50.06,0-89.54,30.71-89.54,30.71"/></clipPath><linearGradient id="未命名漸層" x1="387.17" y1="131.53" x2="387.96" y2="131.53" gradientTransform="matrix(375.54, -153.72, -153.72, -375.54, -125161.75, 109063.28)" gradientUnits="userSpaceOnUse"><stop offset="0" stop-color="#e1740d"/><stop offset="1" stop-color="#f3d922"/></linearGradient></defs><title>ROC_Ministry_of_Science_and_Technology_Logo_2017</title><g id="g12"><g class="cls-2"><g id="g14"><g id="g20"><g id="g22"><path id="path30" class="cls-3" d="M267.38,62.68C265,27,156.8,9.68,0,151.87H33.16C135.45,34.33,281.61,22.14,259.11,84.4h0s63.8-68.51,139.37-43.16h0a.76.76,0,0,0,1.13.11h0c.27-.35-.09-1-.28-1.41h0a115,115,0,0,0-42.41-8h0c-50.06,0-89.54,30.71-89.54,30.71" transform="translate(0 -31.97)"/></g></g></g></g></g><g id="g40"><path id="path42" class="cls-4" d="M241.54,87.5c-19.89,0-38.93,15-42.44,33.37s9.82,33.38,29.71,33.38,38.94-15,42.45-33.38S261.44,87.5,241.54,87.5" transform="translate(0 -31.97)"/></g><g id="g44"><path id="path46" class="cls-4" d="M388.21,105.76H373l-8.65,45.4H352.91c-9.64,0-6.65-9.35-6.65-9.35l6.89-36.1H301.44c-3.38,0-6.12,1-6.66,3.86s1.71,4.16,4.81,4.16h22.17c.71,0,18-.26,13.74,19.62-1.31,6.06-5.84,17.81-20.35,17.81H267.22c3.66-11.77,7.43-15.22,14.7-15.22h28.52c3.21,0,5.82-.62,6.37-3.53S314.9,129,311.76,129H291.27s-19.91.65-15.79-19.26c3.71-18,20.33-19.2,21-19.2H400l-2.38,8.72a9.53,9.53,0,0,1-9.41,6.51" transform="translate(0 -31.97)"/></g><g id="g48"><path id="path50" class="cls-4" d="M98,151.17l9.47-49.68c1.2-6.26,8-11.33,15.26-11.33,4.3,0,8,1.82,9.84,4.87L148,120.29a1,1,0,0,0,1.43,0L174.52,95a16.82,16.82,0,0,1,11.69-4.87c7.24,0,12.14,5.07,10.94,11.33l-9.47,49.68H176.21c-8.45,0-6.66-9.35-6.66-9.35l5.13-27.12-18.63,18.76c-5.9,5.94-16.06,5.94-19.7,0L124.87,114.7l-5.37,28.2s-.63,8.27-8.44,8.27Z" transform="translate(0 -31.97)"/></g><g id="g202"><path id="path204" class="cls-5" d="M245.63,95.41a1.58,1.58,0,0,0-.76-.39c-1-.16-1.7,1-2.51,1.57-1.16.89-2.79.83-4.13,1.42a8.77,8.77,0,0,0-3,2.65c-3.24,3.82-6.51,7.16-9.49,11.19-2.29,3.1-6.16,7-6.86,11.71-1.66,11.05,6.65,15.56,8.33,19.65a7.06,7.06,0,0,1,.6,3.45.68.68,0,0,0,.53.73,5.39,5.39,0,0,1,1.77,1.1.68.68,0,0,0,1.08-.35c.87-3.2.43-7.3,2.19-10a18.36,18.36,0,0,1,2.91-3.07,22.81,22.81,0,0,0,5.2-8.16c1.64-4.1,2.12-8.64,4.14-12.57,1.33-2.59,3.36-5.06,3.32-8a19.86,19.86,0,0,1-.15-3.17,3.92,3.92,0,0,1,1.57-2.46,1.26,1.26,0,0,0,.58-1.22,2,2,0,0,0-.47-1.07,2.25,2.25,0,0,0-1.2-.49,6.83,6.83,0,0,1-1.06-.41,6.2,6.2,0,0,1-1.81-1.36,9.09,9.09,0,0,0-.74-.78" transform="translate(0 -31.97)"/></g></svg>