<svg id="svg2" xmlns="http://www.w3.org/2000/svg" viewBox="0 0 400 399.68"><defs><style>.cls-1{fill:#fff;}.cls-2{fill:#d21577;}.cls-3{fill:#0f298f;}.cls-4{fill:#231815;}.cls-5{fill:#d71718;}.cls-6{fill:red;}.cls-7{fill:#ff0;}</style></defs><title>ROC_Ministry_of_Transportation_and_Communications_Emblem</title><g id="layer1"><g id="g13525"><g id="g6978"><path id="path6980" class="cls-1" d="M394.85,99.93c0,107.65-87.21,194.86-194.84,194.86S5.16,207.58,5.16,99.93,92.39-94.9,200-94.9A194.79,194.79,0,0,1,394.85,99.93" transform="translate(0 99.92)"/></g><g id="g6982"><path id="path6984" class="cls-2" d="M195.74,143.66l.81-31.32a15.32,15.32,0,0,0-10.74,6.9c-3.79,6.17-2.53,13.32-.34,16.68s5.69,6.73,10.27,7.74" transform="translate(0 99.92)"/></g><g id="g6986"><path id="path6988" class="cls-2" d="M202.36,112.33l.28,31.38s9.76-2.18,12.06-10.82-2-15.54-6.25-18.06c0,0-4-2.41-6.09-2.5" transform="translate(0 99.92)"/></g><g id="g6990"><path id="path6992" class="cls-2" d="M205.29,91.5l21.85,0s.75,0,.16,3.09c0,0-2.21,6.11-3.45,6.31,0,0-6-5.44-10.62-7.12a37.27,37.27,0,0,0-7.94-2.3" transform="translate(0 99.92)"/></g><g id="g6994"><path id="path6996" class="cls-3" d="M307.46,94.73s-10.34,8.38-19.37-1.29c0,0-14.36,4.4-15.09-9.82,0,0-11.5-2.33-15.56-9.45,0,0-.68-2.3,1.88-1.26a25.4,25.4,0,0,0,4.45.2s6.17-.65,15-6.65c0,0,8-5.35,15.56-.2,0,0,10.46-5.88,15.15,6.57,0,0,7.51,5.32,4.51,12.61,0,0,2.41,7.44-6.48,9.29M128.11,84.15s-5.78,9.29-12.23,7.86a5.58,5.58,0,0,0-5.24.45S92.81,98.29,89.55,80.62c0,0-7.48-3.34-2.86-13,0,0,2.67-2.13,4.49-2,0,0,1.71-5,12.62-3.54a17.78,17.78,0,0,1,4,2.33A1.06,1.06,0,0,0,109,63.8s13.29-2.72,17.64,10c0,0,4.6,7.54,1.43,10.4M309,48.85l-30.71.48s-1.6,10.93-14.47,11.19c0,0-9.56.56-14.1-9.59h-5.67A15.27,15.27,0,0,1,231,60.52c-10,.78-14.11-7.41-15.26-10l-4-.05v7.29h-26l-.11-7.24-6.84.12a14.36,14.36,0,0,1-14,10,14.66,14.66,0,0,1-14.21-10.38l-3.82.12a14.45,14.45,0,0,1-15,10.15c-11.3-.45-13.32-9.23-13.83-11.19L90,48.43s-21.22,38.36-6.73,87.12c8.81,29.67,40.1,73.89,93,83.26,27.37,4.85,93.35,5.8,130.28-62.9,28-52,5.61-100.78,2.47-107.06" transform="translate(0 99.92)"/></g><g id="g6998"><path id="path7000" class="cls-3" d="M227.64,24.08l-8.92-8.53-11.5,7.1L218.61-1.41l6.59,8.58L242.13-4.3Zm-48.74-7.8s-2.8,1.46-9.67,8.75L152.88-1.92s6.51,1,16.35,9.76L176.6-.52l13.1,22.44ZM275.14,5.82c-22.49-18.51-48.71-23.38-48.71-23.38-.5,1.17-3.56,1.09-3.56,1.09-2.19,2.19-6.22,1.49-6.22,1.49-4.77,5.27-9.9,2.29-9.9,2.29-5.67,3.31-5.5,11.53-5.5,11.53l-13.68-2c-7.88-1.2-1.13-3.14-1.13-3.14,4.41-1.85,5.14-8.44,1-9.73-6.9-2.16-6.79-2.72-6.79-2.72-32.41,4.38-52,21.62-56.89,25C106.44,18.1,92.84,43.4,92.84,43.4l25.24-.79C121.53,30.53,131.85,31,131.85,31c14.27.58,14.94,12.31,14.94,12.31l3.62,0c2.36-13.41,14.27-12,14.27-12C178.43,31.42,179.15,43,179.15,43h7.21a17.79,17.79,0,0,1,10.4-8.46l-.19-6-14,0,.08-3.68H197l-.06-12.53c0-.54.76-1,.76-1h3.59c.81.81.45.89.45.89L201.78,25l12.71-.17v3.56l-12.79.09V34.4c7.74,2,9.81,9.45,9.81,9.45h4.1c-.09-.37,1.34-12.57,14.1-12.57,13.94,0,15.2,12.71,15.2,12.71l4.54.28c0-.79,1.94-13.15,14.67-13,12.93.12,14.52,12.29,14.52,12.29l28.27.58h.17A129.56,129.56,0,0,0,275.14,5.82" transform="translate(0 99.92)"/></g><g id="g7002"><path id="path7004" class="cls-4" d="M358.75,49.43,331,50l1.51,3.56,3.79-.89a24.58,24.58,0,0,1,2,4.57l-4.23,1.29s6,20.47,5.66,33.2l5,0,.25,5.47h-5.05s.79,21.64-3.25,33.81l5.05,1.83-1.43,5.16-4.74-1.35a88.46,88.46,0,0,1-12.87,30.93l4.71,3.42-2.72,4.57-4.41-2.47S307,192.33,301.16,198.33l3.39,4.07-3.17,3.42-4.46-3.92a127.77,127.77,0,0,1-25.32,20l2.92,4.71-4.71,2.91L267,224.83S245.58,235,238,236.75l1.43,5-5,1.32-1.76-5.22s-20.5,5-30.74,3.76l-.17,6.45-5.18-.14v-6.17s-22.77-.81-31-4L164,242.75l-5.22-1.82,1.26-4.18s-23.86-8.33-29.41-13.52l-3,5.05-4.77-2.58,2.27-4.29s-19.18-14.78-24.36-20.16l-3.9,3.59-3.79-3.59,3.62-3.9s-13.49-15.06-18.37-25.66l-5,2.92-3.05-4.23L75,167.63s-10.07-20.95-12-30.4l-4.91,1-1.26-5.05,4.68-1.6S57.2,110.59,58.15,98.2l-5,.14L53,93l5.19-.34s2.3-23.89,4.91-30.36l-5.41-1.94,1.65-4.91,5,1.29s1.09-5.8,2.27-7.12L39.14,48.45s-4.21,0-1.77-4a5,5,0,0,1,3.06-1.6L69.7,42s4.88-11.36,7.15-14.31l-4.2-3.11,2.89-4.2,4.23,2.44S90.17,5.58,102.51-4L99.15-7.77l3.75-3.76,3.71,3.45s19.48-14.64,29.44-19l-1.82-4.57,4.23-2.44,2.92,4.43s16.26-7,20.36-6.73c0,0,2.27,1.32,1.71,2.94,0,0-19.1,5.73-20.61,7.52L147.38-17s20.78-8.3,27.79-8c0,0,.73,4.8,4,4.13,0,0-2,2.63,3.68,3.75,1.79.59,3.56.7,4.6,1.69,0,0,7.29,5.13-4.71,10.4-1,.36,1.43,2.07,8.13,2.77l10.65,1.6s.14-8.41,5.36-11.66c0,0,5.86,3.42,10.07-2.3,0,0,3.92.64,5.86-1.63,0,0,3.81.7,6.47-4.37,0,0,1.83.53,3.73-1.49a61.55,61.55,0,0,1,16.27,5.41l4.4-9.11s-3.9-3.48-12.53-5.19c0,0,2.13-2.3,3.64-2.3,0,0,9.84,3.12,10.21,3.9l2.19-4.09,4.57,2-1.63,4.09s23.36,12,29.95,19.69l3.64-3.59,3.37,3.78L294.23-4s15.59,15,20.33,23.41l4.29-2.58,2.8,4.55L318.09,24a123.55,123.55,0,0,1,9.12,18l30.06.84s3.81-.2,4.23,3.36c0,0-.2,3-2.75,3.25M379,139.67c2.13-9.08,4.88-27.23,4.52-38.13l-9.26-.57-.36-12.36,9.48-.28s-3.2-31.1-6.2-37l-9.37,2.27L364,41.39l8.86-3.26s-11.44-30.95-16.41-34l-7.62,4.63-6-9.09,7.38-5.69c0,.59-18.37-25-23.36-27.17l-7.29,6.76-9.09-8.33,6.34-7.12S291-62.59,280.91-65.53l-4.21,9-10.51-5,3.42-8.89s-27.73-10.4-37.91-10.94l-2.61,9.15L219-74.62l1.66-8.55s-31-3.2-39.09-.17l-.11,9.42-10.21.76L170-81.66s-25.07,2.58-42.37,12.12l3.67,7-10.15,5.44-3.92-7.69S94-53.62,81.65-41.81l5.61,6.22-7.63,6.93-6.17-5.89S47.72-8.55,46.82-2.92l6.82,4.74-5.78,9L40.54,6.76s-14.19,26-15.37,33.65L33.47,44l-3.14,9.59-8.55-2.13S15.44,79.66,16,87.37l8.86.73-.28,10.24-8.92.48s-.39,27.36,3.9,39.67l9.25-1.85L31,147l-8.69,2.63s5.41,19.89,14.33,35.62l8.13-4L50.1,190l-8.1,4.9s17.72,27.57,23.55,30.82l6.28-6,8,8.33-5.74,6.19s23.77,21.23,28.46,21.62l4.18-7,8,5.3-4,6.65s24.87,13.54,36,15l2.27-7.88,10.32,3.2-1.82,7.6s33.12,7.46,36.2,4.68l.17-7.74,12.48-.17,0,7.91S239.83,282,242,278.53l-2.13-6.95,12-3.62,2.38,7.07s26.45-7.38,31.49-13.13l-3.61-6.36,8.1-5,4.12,6.45s24.26-13.94,31-23.11l-5.16-6.22,6.85-6.88,5.91,5.5s22.94-26.19,22.94-29.89l-7.15-5.24,5-9.12,8.08,4.18s12.87-25.35,14.13-34.35l-8.89-3.28,2.86-11.05,9,2.13Z" transform="translate(0 99.92)"/></g><g id="g7006"><path id="path7008" class="cls-4" d="M248.61,98.92H230.92c-2.58-2,.53-2.72.53-2.72l17.22-.06c1.77,2.08-.06,2.78-.06,2.78m-17-10h12.81c3.59,1.55,1.07,3.17,1.07,3.17H231.68c-2.58-1.37-.06-3.17-.06-3.17m-16,25.44a4.88,4.88,0,0,1-2.61-9.14s5.49-3.12,7.23,4.15c0,0-.14,4.51-4.62,5m-3.9,38.89s-5.36-.11-5.05-5.69a5.28,5.28,0,0,1,2.38-3.42s6.23-2.78,7.29,4.23c0,0-.39,4.74-4.62,4.88m-30-39.68s-5,.67-5.44-5.07c0,0-.19-3.17,3.73-4.57a5.34,5.34,0,0,1,5.86,3.87s.06,5.32-4.15,5.77m3.2,30.82a5.41,5.41,0,0,1,5.83,3.9s.56,4.68-4.09,5.83c0,0-5,.59-5.5-5.16,0,0-.19-3.17,3.76-4.57m-7.43-1s-5.1.59-5.52-5.1c0,0-.23-3.2,3.73-4.6a5.42,5.42,0,0,1,5.88,3.87s0,5.33-4.09,5.83m-9.2-20.78s-.19-3.17,3.76-4.6a5.42,5.42,0,0,1,5.86,3.87s.06,5.33-4.12,5.78c0,0-5.08.67-5.5-5m-3-23.22-16.74,0s-1.15-1.88.4-2.78h16.65s1.74,1.21-.31,2.8m-12.78-9.7H164.6s2.55,1.29.7,2.83l-14-.08s-1.4-1.6,1.21-2.75m85.1-11.35s-15.14-13.3-39.68-13c0,0-21-2-42.37,15.46,0,0-11.33,8.8-11.49,13.51,0,0-3.2,9.9,4.4,17l23.83-9.2S168.83,94,169.76,91.4h22.66s-28.16,6.82-28.69,34.3c-.17,11,5.75,31.77,31.49,35.55l.65-17.78s-14.64-3.81-12.31-18.73a14.64,14.64,0,0,1,13-12.2s6.87-1.06,11.83,2.19c0,0,10.57,6.23,5.72,19.66,0,0-3.51,8.07-11.69,9.34l.36,17.41s29.7-1.35,31.83-34.49a35.93,35.93,0,0,0-9.87-25.15L249.57,113s7.85-9.42,3.47-18.48c0,0-7.37-11.3-15.45-16.2" transform="translate(0 99.92)"/></g><g id="g7010"><path id="path7012" class="cls-4" d="M270.77,42.26s.31,3.28,0,3.84-1.15.59-.54,1.74c0,0,.7.39,1.46-.79,0,0,.59-3.56.06-4.85,0,0-1-.47-1,.06" transform="translate(0 99.92)"/></g><g id="g7014"><path id="path7016" class="cls-4" d="M272.3,41.38c.73,1.69.22,2.56.39,3.59,0,0-.22,4.29-2.07,5.08,0,0-.59,1.37,1.15.81,0,0,2.41-1.54,2.13-6.25,0,0,.14-4.29-1-4.29s-.64,1.06-.64,1.06" transform="translate(0 99.92)"/></g><g id="g7018"><path id="path7020" class="cls-4" d="M274.49,39.33s2,3.48,1.29,9.7c0,0-.76,5-3.78,4.38,0,0-.68-.76.64-1.46,0,0,3.48-2.58,1.94-8.64,0,0-1-3.39-.85-3.93a1.38,1.38,0,0,1,.76-.05" transform="translate(0 99.92)"/></g><g id="g7022"><path id="path7024" class="cls-4" d="M255.79,41.9s1.48-.84.92.87c0,0-1.06,4,.06,5.44,0,0,.59,1.8-.93,1.12a9.82,9.82,0,0,1-.05-7.43" transform="translate(0 99.92)"/></g><g id="g7026"><path id="path7028" class="cls-4" d="M254.5,40.81s.28-1.15,1-.11c0,0,.4.36-.45,1.32,0,0-1.12,6.67.12,8.52,0,0,.64,1.21-.26,1.26,0,0-.64.31-1.17-1.76,0,0-.73-7.91.78-9.23" transform="translate(0 99.92)"/></g><g id="g7030"><path id="path7032" class="cls-4" d="M253.27,39.22s.45-.87,1.34-.14c0,0,.42.81-.67,1.06,0,0-3.25,7.35.9,12.62,0,0,.42,1.26-.23,1.32,0,0-1.71,0-2.88-4.82,0,0-.59-8,1.54-10" transform="translate(0 99.92)"/></g><g id="g7034"><path id="path7036" class="cls-4" d="M171.42,42.59a17.13,17.13,0,0,1,.05,3.5c-.19.51-1.12.59-.56,1.74,0,0,.7.48,1.49-.76a8.33,8.33,0,0,0,.06-4.85s-1-.22-1,.37" transform="translate(0 99.92)"/></g><g id="g7038"><path id="path7040" class="cls-4" d="M173.06,41.68a9.57,9.57,0,0,1,.39,4s-.33,3.56-2.13,4.34c0,0-.61,1.38,1.15.82,0,0,2.11-.51,2.19-5.42,0,0,0-5.13-.87-5.27-1.35-.19-.73,1.54-.73,1.54" transform="translate(0 99.92)"/></g><g id="g7042"><path id="path7044" class="cls-4" d="M175.17,39.36s1.93,2.1,1.51,9.31a7.3,7.3,0,0,1-.92,2.8c-.84,1.32-1.82,2.33-3,2,0,0-.76-.79.62-1.49,0,0,3.17-1.85,1.9-8.69,0,0-.67-2.1-.81-2.8,0,0-.7-1.71.73-1.15" transform="translate(0 99.92)"/></g><g id="g7046"><path id="path7048" class="cls-4" d="M156.16,42.42s.34-.86.79-.86c.67,0,.78.22.47,1.26,0,0-1.2,3.64-.11,4.93,0,0,.59.84.37,1.38-.59.42-.73.44-1.38-.45a8.33,8.33,0,0,1-.14-6.26" transform="translate(0 99.92)"/></g><g id="g7050"><path id="path7052" class="cls-4" d="M155.15,40.81s.62-1.12,1.18-.39a1.57,1.57,0,0,1-.45,1.71s-1.37,4.65,0,8.47c0,0,.59,1.2-.25,1.2,0,0-.79.31-1.21-1.68a15.83,15.83,0,0,1,.76-9.31" transform="translate(0 99.92)"/></g><g id="g7054"><path id="path7056" class="cls-4" d="M154,39.25s.42-.82,1.26-.11c0,0,.54.11-.95,2.18,0,0-2.61,7.21,1.26,11.44,0,0,.79,1-.25,1.38,0,0-1.68,0-2.89-4.83,0,0-.59-8,1.57-10.06" transform="translate(0 99.92)"/></g><g id="g7058"><path id="path7060" class="cls-4" d="M139.24,42.61a17.92,17.92,0,0,1,.08,3.62c-.16.48-1.2.25-.53,1.77,0,0,.65.42,1.4-.81,0,0,1-2.81.09-4.88-.14-.4-1.21-.28-1,.3" transform="translate(0 99.92)"/></g><g id="g7062"><path id="path7064" class="cls-4" d="M141.05,42.12a9.52,9.52,0,0,1,.25,3s0,4-1.93,4.86c-.31.16-.73,1.59,1,1.09,0,0,2.41-1.6,2.13-6.28,0,0,.11-4.38-.93-4.46-1.32-.17-.53,1.82-.53,1.82" transform="translate(0 99.92)"/></g><g id="g7066"><path id="path7068" class="cls-4" d="M144.09,41.74s1,4.51.22,7.26c0,0-.45,3.65-2.86,4.35-1,.28-1.62-.7-.28-1.4,0,0,3.51-2.58,2-8.64,0,0-1.43-3.39-.82-3.93,0,0,.62-1.15,1.77,2.36" transform="translate(0 99.92)"/></g><g id="g7070"><path id="path7072" class="cls-4" d="M124.34,42c.29-.5,1.49-.95,1,.87,0,0-1.06,3.25,0,5.44.42.76.12,1.57-.84,1-.61-.36-1.6-4-.17-7.32" transform="translate(0 99.92)"/></g><g id="g7074"><path id="path7076" class="cls-4" d="M122.56,41.68s.59-2.21,1.57-1.37c0,0,.51.2-.61,2.92-.42.92-.7,5.8.22,7.4,0,0,.7,1.09-.22,1.32,0,0-.7.25-1.18-1.38a16.38,16.38,0,0,1,.22-8.89" transform="translate(0 99.92)"/></g><g id="g7078"><path id="path7080" class="cls-4" d="M121.71,39.33s.71-1.1,1.55-.31c.25.22.11.76-.84,1.57,0,0-3.14,7.07,1.06,12.31,0,0,.56,1.6-.81,1.12a8.12,8.12,0,0,1-2.33-4.65s-1.18-7,1.37-10" transform="translate(0 99.92)"/></g><g id="g7082"><path id="path7084" class="cls-4" d="M236.81,43.57s-.65-1.9.87-1.31c0,0,.84,3.08,0,4.9,0,0-1.21,1.27-1.52.23-.25-.59.15-.93.59-1.24a9.34,9.34,0,0,0,.06-2.58" transform="translate(0 99.92)"/></g><g id="g7086"><path id="path7088" class="cls-4" d="M238.18,41.58s-.23-2,1.12-1.27c.48.4,1.79,9.23-1.71,10.55a.6.6,0,1,1-.42-1.12s2.13-1.43,1.51-6.82Z" transform="translate(0 99.92)"/></g><g id="g7090"><path id="path7092" class="cls-4" d="M239.77,40.86s-1.15-1.82.67-1.54c0,0,2.36,3.06,1.24,10.07,0,0-1.07,4.31-3.26,4-.39-.09-.89-1.12.26-1.4,0,0,2.69-1.6,2-8.47a26.81,26.81,0,0,0-.9-2.64" transform="translate(0 99.92)"/></g><g id="g7094"><path id="path7096" class="cls-4" d="M221.47,42.53s.31-1.15,1.21-.47a1.9,1.9,0,0,1-.22,1.51,8.38,8.38,0,0,0,.11,4.21s.59,1.65-.17,1.76c0,0-1.09-.11-1.32-2.27,0,0,0-4,.39-4.74" transform="translate(0 99.92)"/></g><g id="g7098"><path id="path7100" class="cls-4" d="M220.54,40.53a.62.62,0,0,1,.93-.25,1.48,1.48,0,0,1-.39,1.74s-1.24,5.95,0,8.67c0,0,.4,1.51-.67,1.17,0,0-1.51.26-.73-8.61,0,0,.34-2.43.81-2.72" transform="translate(0 99.92)"/></g><g id="g7102"><path id="path7104" class="cls-4" d="M219,39.38a1.08,1.08,0,0,1,1.54-.36s.42.79-.76,1.68c0,0-2.18,5.58-.53,9.59a10.18,10.18,0,0,0,1.6,2.5s.62,1.18-.34,1.18c0,0-.59.11-1.26-.93,0,0-2.83-3.34-1.48-10.23A11.43,11.43,0,0,1,219,39.38" transform="translate(0 99.92)"/></g><g id="g7106"><path id="path7108" class="cls-4" d="M267.26,58.58S254.45,62,250.75,48a13.69,13.69,0,0,1,6.59-13.85s10.26-5.84,17.19,3.58c7.26,9.88-1.74,20.14-7.27,20.84m-33.59-.17S220.74,62.25,217,48.54c0,0-3-9.62,6-14.47,0,0,11.61-5.1,17.83,4.26,6.85,10.44-2.32,19.44-7.09,20.08M193.74,45.23s1.71-3.78,5.61-3.5c0,0,4,.28,4.82,3.5ZM168.36,58.41S155.57,62,151.68,48.65c0,0-1.94-9.76,6.33-14.24,0,0,10.91-4.91,17.33,3.81,7.35,10-2.38,19.66-7,20.19m-32.05.09S123,62,119.43,48.32a13,13,0,0,1,6.48-14s10.6-5.58,17.27,3.84-1.57,19.15-6.87,20.39M357.78,44.64l-79-1.29c-2.5-12.87-13.85-12.48-13.85-12.48-14.86,0-15.62,12.76-15.62,12.76h-4.38c-.14-1-1.68-12.56-15.08-12.81-13.91-.34-14.5,12.53-14.5,12.53h-4c-2-7.37-9.45-8.94-9.45-8.94V28.77h12.79l.11-4H202l-.22-12.47a1.12,1.12,0,0,0-.64-1h-3.23c-1-.08-1,.73-1,.73l.09,12.73H182.55v4l13.91-.08.11,5.72c-6.73,1.71-10.4,8.49-10.4,8.49H179.3c-1.21-11.69-13.55-12-13.55-12C151.28,30,150.05,43,150.05,43h-2.83c-.2-.58-1.91-12.42-14.81-12.17s-14.58,11.25-14.58,11.25L40.32,44.78c-2.66,1-.72,2.19-.19,2.3s31.4,1.24,33.79,1.24c9.17,0,43.91,1.06,43.91,1.06s2,11.3,14.27,11.25,14.61-10.21,14.61-10.21l3.87-.14c.31.5,2,10.21,14.36,10.32,11.81,0,13.8-10,13.8-10l6.73-.09.16,7.26,26.14,0,0-7.24,4,.09c.73.56,3.22,10.48,14.61,10S244.27,51,244.27,51l5.47-.09c4.46,10.1,13.91,9.65,13.91,9.65,12.61-.23,14.8-11.16,14.8-11.16l80.12-1.35a1.94,1.94,0,0,0,1.79-1.4c.25-1.57-2.58-2-2.58-2" transform="translate(0 99.92)"/></g><g id="g7110"><path id="path7112" class="cls-4" d="M316.77,50.48l10.85-.23a39.79,39.79,0,0,1,1.88,4.46l-9.81,3.17Z" transform="translate(0 99.92)"/></g><g id="g7114"><path id="path7116" class="cls-4" d="M312.91,42l10.88.14s-2-7.32-8.61-16.63l-8.69,5.36C309.83,36,312.91,42,312.91,42" transform="translate(0 99.92)"/></g><g id="g7118"><path id="path7120" class="cls-4" d="M285.39,6.17S295.88,15.48,303,26.61L312.11,21S299.49,3.39,292.34-1.43Z" transform="translate(0 99.92)"/></g><g id="g7122"><path id="path7124" class="cls-4" d="M254.66-14.62s17,8.33,26.59,17.53l6.81-7.8S271.71-19.8,259-24.12Z" transform="translate(0 99.92)"/></g><g id="g7126"><path id="path7128" class="cls-4" d="M137.6-24l4.65,9S117.66.16,116.73,2.24l-7.34-7.85S129.47-21.23,137.6-24" transform="translate(0 99.92)"/></g><g id="g7130"><path id="path7132" class="cls-4" d="M105-1.58l7.18,7.4s-18.4,19-20.45,24.56L82.91,25S93.65,7.5,105-1.58" transform="translate(0 99.92)"/></g><g id="g7134"><path id="path7136" class="cls-4" d="M80.12,29.94S74,40.54,73.92,42l11.47-.31s3.17-6.23,3.36-6.34Z" transform="translate(0 99.92)"/></g><g id="g7138"><path id="path7140" class="cls-4" d="M70.89,49.73l10.52.51s-3.9,9.42-4,10L68,57.75s2.13-7.51,2.92-8" transform="translate(0 99.92)"/></g><g id="g7142"><path id="path7144" class="cls-4" d="M66.48,62.93l9.93,3S71.33,84.3,71.7,92.85l-10,.14s1.12-22.51,4.79-30.06" transform="translate(0 99.92)"/></g><g id="g7146"><path id="path7148" class="cls-4" d="M61.28,98.78l10.29.14s1.26,23.81,2.86,29l-9.23,2.92s-4.43-16.66-3.92-32.05" transform="translate(0 99.92)"/></g><g id="g7150"><path id="path7152" class="cls-4" d="M66.48,136.27l9.37-2.92s6.87,22.1,11.33,27.51L78.37,166s-12.08-24.76-11.89-29.75" transform="translate(0 99.92)"/></g><g id="g7154"><path id="path7156" class="cls-4" d="M81.05,170.72l8.58-4.82s13.4,18.25,17.19,21.95l-7.1,7.29s-16.93-19.35-18.67-24.42" transform="translate(0 99.92)"/></g><g id="g7158"><path id="path7160" class="cls-4" d="M111,191.28s12.64,14.25,21.51,17.47l-5.16,9.15s-21-13.38-23.75-18.93Z" transform="translate(0 99.92)"/></g><g id="g7162"><path id="path7164" class="cls-4" d="M137.49,211.88l-5.33,9.05s22.43,13,29.28,12.4l3-9.73s-21.37-7.52-26.95-11.72" transform="translate(0 99.92)"/></g><g id="g7166"><path id="path7168" class="cls-4" d="M169.88,224.83l-3,9.81s16.91,5,30,4.41V228.76s-22.52-1.18-27-3.93" transform="translate(0 99.92)"/></g><g id="g7170"><path id="path7172" class="cls-4" d="M202.25,228.39l.11,10.49s23.64-.28,29.9-4.49l-2.72-9.65s-19.18,4-27.29,3.65" transform="translate(0 99.92)"/></g><g id="g7174"><path id="path7176" class="cls-4" d="M234.92,223.24l3,9.84s17.36-3.81,27.54-11.66l-4.69-8.58s-16.65,9.14-25.85,10.4" transform="translate(0 99.92)"/></g><g id="g7178"><path id="path7180" class="cls-4" d="M265.21,209.88l5.72,9.11s14.72-8.07,24.28-18.9l-7.8-7.51s-12.42,12.76-22.2,17.3" transform="translate(0 99.92)"/></g><g id="g7182"><path id="path7184" class="cls-4" d="M308.64,166.12l9,5.27S304.15,193,298.94,196l-7.38-7.23s11.78-11.95,17.08-22.6" transform="translate(0 99.92)"/></g><g id="g7186"><path id="path7188" class="cls-4" d="M322.55,132.68s-2.92,15.51-11.16,28.15L320,166.3s9-11.72,12.25-30.73Z" transform="translate(0 99.92)"/></g><g id="g7190"><path id="path7192" class="cls-4" d="M326.66,97.49s1.71,15-2.7,28.94l10,3.25s3.81-12.08,3.17-32.08Z" transform="translate(0 99.92)"/></g><g id="g7194"><path id="path7196" class="cls-4" d="M321.24,63.18s5.13,14.64,5.41,28.77l10.07-.2a107.39,107.39,0,0,0-5.56-31.82Z" transform="translate(0 99.92)"/></g><g id="g7198"><path id="path7200" class="cls-4" d="M327.78,50.42a43.58,43.58,0,0,1,1.74,4.29l-9.84,3.17-2.92-7.4,10.85-.23" transform="translate(0 99.92)"/></g><g id="g7202"><path id="path7204" class="cls-1" d="M248.61,98.92H230.92c-2.58-2,.53-2.72.53-2.72l17.22-.06c1.77,2.08-.06,2.78-.06,2.78m-17-10h12.81c3.59,1.55,1.07,3.17,1.07,3.17H231.68c-2.58-1.37-.06-3.17-.06-3.17m-16,25.44a4.88,4.88,0,0,1-2.61-9.14s5.49-3.12,7.23,4.15c0,0-.14,4.51-4.62,5m-3.9,38.89s-5.36-.11-5.05-5.69a5.28,5.28,0,0,1,2.38-3.42s5.53-3.09,7.29,4.23a5.17,5.17,0,0,1-4.62,4.88m-30-39.68s-5,.67-5.44-5.07c0,0-.19-3.17,3.73-4.57a5.34,5.34,0,0,1,5.86,3.87s.06,5.32-4.15,5.77m3.2,30.82a5.41,5.41,0,0,1,5.83,3.9s.06,5.3-4.09,5.83c0,0-5,.59-5.5-5.16,0,0-.19-3.17,3.76-4.57m-7.43-1s-5.1.59-5.52-5.1c0,0-.23-3.2,3.73-4.6a5.42,5.42,0,0,1,5.88,3.87s0,5.33-4.09,5.83m-9.2-20.78s-.19-3.17,3.76-4.6a5.42,5.42,0,0,1,5.86,3.87s.06,5.33-4.12,5.78c0,0-5.08.67-5.5-5m-3-23.22-16.74,0s-1.15-1.88.4-2.78h16.65s1.74,1.21-.31,2.8m-12.78-9.7H164.6s2.55,1.29.7,2.83l-14-.08s-1.4-1.6,1.21-2.75" transform="translate(0 99.92)"/></g><g id="g7206"><path id="path7208" class="cls-5" d="M195.74,143.66l1.09-31.29s-7.91.31-11.41,6.73-2.81,12.11.05,16.82a16.68,16.68,0,0,0,10.27,7.74" transform="translate(0 99.92)"/></g><g id="g7210"><path id="path7212" class="cls-5" d="M202.36,112.33l.28,31.38s8.64-.39,12.06-10.82c2.92-9.09-1.65-16-5.92-18.48,0,0-3.64-2.19-6.42-2.08" transform="translate(0 99.92)"/></g><g id="g7214"><path id="path7216" class="cls-6" d="M205.29,91.5l21.85,0s.75,0,.16,3.09c0,0-2.21,6.11-3.45,6.31,0,0-6-5.44-10.62-7.12a37.27,37.27,0,0,0-7.94-2.3" transform="translate(0 99.92)"/></g><g id="g7218"><path id="path7220" class="cls-6" d="M224.87,102.31c9.93,9.87,9.67,23.47,9.67,23.47,0,14.39-7.82,22.63-7.82,22.63-11.44,13.07-23.95,12.68-23.95,12.68-.3,1.31.28,19.37.28,19.37,2.5,14.3,17.64,11.61,17.64,11.61,12.34-3,19.72-19.68,19.72-19.68l-3.51-2.61,11.89-11.39,2.38,17-5-1.46c-5,13.4-17.42,23.44-17.42,23.44-6.87,6.11-17.5,9-17.5,9a30.4,30.4,0,0,0-12.28,4.26c-1.74-2.35-9.22-3.17-9.22-3.17-10.1-2.15-20.42-9.56-20.42-9.56-11.3-7.6-19.4-24-19.4-24l-3.68.73L148,157.69l12.53,11.84-5.89,2.32c6.26,13.88,21.88,19.77,21.88,19.77,15.56,4.29,17.66-11.19,18-12.22s.62-18.15.62-18.15c-17.45-2.49-25-15.17-25-15.17-3.48-4.71-6.28-11.69-6.2-20.75.17-14.35,10.1-23.61,10.1-23.61,7-6.87,19.07-10.4,19.07-10.4l-23.67-.11c-1,2,2.72,10.91,2.72,10.91l-23.7,8.94c-1.4-.56-3.5-4.68-3.5-4.68-3.7-10.18,1.09-16.29,1.09-16.29.93-1.43,9.42-9.4,9.42-9.4,7.21-5.83,19.66-11.33,19.66-11.33C179.78,67.26,193.86,64,207,66s20.72,6.56,24.37,8.33a62.58,62.58,0,0,1,21.34,19.88c5.1,8.27-3.09,18.48-3.09,18.48L225,101.44a1.26,1.26,0,0,1-.14.87m37.27-11.1C244.86,64,207.91,60.53,207.91,60.53c-30.15-3.84-53.4,15.06-53.4,15.06-27.08,20.61-30.31,50.89-30.31,50.89-7.06,42.71,26.11,68.76,26.11,68.76,22.29,21,53.28,18.56,53.28,18.56,32.83,1.43,56.7-28.15,56.7-28.15,4.17-2.55,16.43-26.55,16.57-38.19.25-20.39,2.58-29-14.72-56.25" transform="translate(0 99.92)"/></g><g id="g7222"><path id="path7224" class="cls-6" d="M384.33,152.89c-2.69,10-17.25,53.67-49.69,83.93-23.92,22.35-57.29,44.28-99.8,52a192,192,0,0,1-128.76-21.59c-40.64-22.68-68.68-58.89-82.67-91.89-5.16-12-21.79-58.19-12.76-107.51S47.53-18.58,56.19-27C63.65-34.4,90-65.44,139.42-82c17.5-5.86,41.41-10.43,60.48-10.43,0,0,45.2,1.09,75.32,16s55.44,28.86,82.5,67.56a185.45,185.45,0,0,1,31.69,78.29c4.68,30.48,4.12,49.71-5.08,83.42M399.78,91c-1-16.07-3.78-32.28-5.16-37.58-3.59-13.6-10.35-31.15-10.35-31.15C377,3.6,362.54-16.7,362.54-16.7c-10.68-15.87-31.77-34.69-31.77-34.69-9-8.53-32.39-22.91-32.39-22.91-4.06-3.53-28.77-13.4-28.77-13.4-4.54-2.5-27.87-7.88-27.87-7.88-45.48-10.52-89.48,1.4-89.48,1.4-34.38,9.42-44.92,17.1-53.11,21.37-19.18,10-43.41,34-49.32,40.54C27.78-8.12,15,24.07,14.35,25.55,5.07,49.08,1.71,74,1.71,74c.05,1.35-2.5,16-1.46,33.23C1.71,130.4,3.7,137.8,4.79,143.8c3.73,19.8,15,43.08,15,43.08,2,6.31,17.33,29.78,21.48,35,22,27.9,39.82,38.08,43.16,41.33s23.75,15.09,36.67,20.73c32.08,14,64.92,15.39,64.92,15.39,27.12,1.24,37.44-.25,53.73-3.25s39.11-12.2,39.11-12.2c24.12-9.5,48.18-29.64,48.18-29.64a188.24,188.24,0,0,0,33.37-35c16.91-22.74,22.18-38,25.1-44.5,7.51-16.85,12.25-45.91,12.25-45.91.36-.56,3-21.84,2-37.82" transform="translate(0 99.92)"/></g><g id="g7226"><path id="path7228" class="cls-7" d="M204.83-27l8.89-3.34s1.62-.89,1.06,1.38-3.17,7.32-3.17,7.32l-7-3.51s-1.6-1.07.17-1.85" transform="translate(0 99.92)"/></g><g id="g7230"><path id="path7232" class="cls-7" d="M217.48-29.73l-1.68,4.06,5,3.31Z" transform="translate(0 99.92)"/></g><g id="g7234"><path id="path7236" class="cls-7" d="M215.12-24l5,3.11-13.58,5.3,1.27-5.86,4.85,1.79Z" transform="translate(0 99.92)"/></g><g id="g7238"><path id="path7240" class="cls-7" d="M206.44-22.12l-1.06,4.63-3.17-6.73Z" transform="translate(0 99.92)"/></g><g id="g7242"><path id="path7244" class="cls-7" d="M223.31-20.62l-5.5-13.23s-.22-3.25,4.27-4.57l19.07-8.39s5.07-2.18,5-1.43a22.7,22.7,0,0,1-9.4,7.35s-2.35.87-1,2.47c0,0,1,.87,2.33-.37,0,0,6-3.39,8.75-6.42,0,0,2.88-2.21,1.79,1.24a23.68,23.68,0,0,1-13.15,7.85s-4.12.76-4,2.86c0,0-.28,1.6,3.17.53,0,0,7.17-3.06,8.27-4.09,0,0,2.41-.84,0,1.46a21.13,21.13,0,0,1-13,5.1s-2.47,2,.17,2.52a6.77,6.77,0,0,0,3.05-.56s.4-.28.65-.05c.42.25.56.84-2,1.73a27.37,27.37,0,0,1-3.56,1.13s-1.82.39-.65,1.85c0,0,2.64.7-.11,2.32,0,0-1.54,3.79-5.05,3.26-1.9,1.12-3.73,2-6.19,1.65,0,0-4.57,5.08-7.6,2.22Z" transform="translate(0 99.92)"/></g><g id="g7246"><path id="path7248" class="cls-7" d="M205.54-34.17s-.37,1.46-2,.7c0,0-1.57-1.91.22-2.64a1.43,1.43,0,0,1,1.8,1.94m-15.31,4.6a1.54,1.54,0,0,1-1,.56,8.37,8.37,0,0,1-1.49-2.64c-.67-1.76-5.47-4-5.47-4-1.74-.81-.11-1.94.7-1.57,8.22,3.53,7.3,7.6,7.3,7.6m17.07-6.37c-5.69-4.68-8.72,3.9-8.72,3.9-1.2,3-3,1-3,1-1.06-.95-6.39-6.84-5.35-5.55-1.6-2.86-12.09-6.7-12.09-6.7-5-1.07-20.86-12.4-20.86-12.4-2.16-2.13-1.77-.16-1.77-.16,3.39,6.31,18.68,13.18,18.68,13.18,1.85,1.51.39,2.55-1.6,1.4-8.16-4.66-8.33-3.14-8.33-3.14.5.84,8,5.3,8,5.3,3.06,2,1.6,2.52,1.6,2.52-.73.81-4.8-1.93-4.8-1.93-9.17-7.38-8-4.86-8-4.86,3.71,5.72,11.92,9,11.92,9,2,.84,2.1,1.43,2,2-.28,1.07-2.32.17-2.32.17-8.72-5.77-6-2-6-2,.95,1.83,5.63,4.07,5.63,4.07,2.33.67,5.08,4.85,5.08,4.85,1,3.28,3,2.69,3,2.69,3-.17,3.29,3.09,3.29,3.09,8.72,2.69,8.55,7.82,8.55,7.82-.62,4.91-3.59,6.2-3.59,6.2L199.45-3c-.5-4,5.72-10.27,5.72-10.27l-6.06-13.2L210-31.65c.71-1.06-2.69-4.29-2.69-4.29" transform="translate(0 99.92)"/></g><g id="g7250"><path id="path7252" class="cls-7" d="M192,79.56a7.18,7.18,0,0,1,1.74-4.12s5.52-5.08,9.7,1.34c0,0,2.89,6.34-3.61,8.53,0,0-7.3,2.29-7.83-5.75m56.9,78.85-11.86,11.27,3.56,2.67a44.28,44.28,0,0,1-11,14.75c-8.27,7.15-14.07,5.77-20.52,2.77-6.65-4.15-6.06-11.66-6.06-11.66l-.93-74.48h7.13l-.2-4.91-6.59-.14-.11-9.48c8.72-3.19,7.07-12.42,7.07-12.42a12.05,12.05,0,0,0-12.76-9.65c-10.69,1.63-10,11.39-10,11.39C186,89,197,90.1,197,90.1l-.17,8.58-7.85.14.34,4.91h7.51c.17,1.68-2.18,75.51-2.18,75.51-2.53,16.44-17.08,12.87-17.08,12.87-18.34-7.51-22.8-20.3-22.8-20.3l5.75-2.3L148.1,157.62l-1.66,17,3.54-.93c.56,2.36,9.08,14.08,9.08,14.08,10,14.47,30.85,19.77,30.85,19.77,6.53.36,9.22,3,9.22,3,1.27-1.37,10.13-4.12,10.13-4.12,6.28-.47,12.11-4.4,12.11-4.4,17.08-8.38,24.93-28.15,24.93-28.15l5,1.45-2.35-17Z" transform="translate(0 99.92)"/></g></g></g></svg>