<svg id="圖層_1" data-name="圖層 1" xmlns="http://www.w3.org/2000/svg" viewBox="0 0 400 400"><defs><style>.cls-1{fill:#0054a7;}</style></defs><title>ROC_Ministry_of_Labor_Logo</title><path class="cls-1" d="M200.68,194.6c-110.46,0-200,89.55-200,200s89.54,200,200,200,200-89.54,200-200S311.13,194.6,200.68,194.6Zm0,35.09a43.15,43.15,0,1,1-43.15,43.15A43.15,43.15,0,0,1,200.7,229.69Zm73.4,250.57v78.1H221l-.24-93.46L280.55,405l-.1-2.92-17.74-17.85-3-.1L200.2,443.83l-58.38-58.58H138.7L121,402.9v2.92l58.78,59v93.56H126.5l-.4-78.24L43.42,396.65l95.18-95.58,1.11,0,59.68,60.9,2.32,0,59.73-60.69,94.92,94.5v2.39Z" transform="translate(-0.68 -194.6)"/></svg>