<?xml version="1.0" encoding="UTF-8" standalone="no"?>
<!-- Generator: Adobe Illustrator 16.0.0, SVG Export Plug-In . SVG Version: 6.00 Build 0)  -->

<svg
   xmlns:dc="http://purl.org/dc/elements/1.1/"
   xmlns:cc="http://creativecommons.org/ns#"
   xmlns:rdf="http://www.w3.org/1999/02/22-rdf-syntax-ns#"
   xmlns:svg="http://www.w3.org/2000/svg"
   xmlns="http://www.w3.org/2000/svg"
   xmlns:xlink="http://www.w3.org/1999/xlink"
   xmlns:sodipodi="http://sodipodi.sourceforge.net/DTD/sodipodi-0.dtd"
   xmlns:inkscape="http://www.inkscape.org/namespaces/inkscape"
   version="1.1"
   id="圖層_1"
   x="0px"
   y="0px"
   width="200"
   height="175.01767"
   viewBox="0 0 200.00001 175.01766"
   enable-background="new 0 0 442.205 612.283"
   xml:space="preserve"
   inkscape:version="0.48.4 r9939"
   sodipodi:docname="原住民族委員會.svg"><metadata
   id="metadata306"><rdf:RDF><cc:Work
       rdf:about=""><dc:format>image/svg+xml</dc:format><dc:type
         rdf:resource="http://purl.org/dc/dcmitype/StillImage" /></cc:Work></rdf:RDF></metadata><defs
   id="defs304"><linearGradient
     inkscape:collect="always"
     xlink:href="#SVGID_11_"
     id="linearGradient3412"
     gradientUnits="userSpaceOnUse"
     gradientTransform="matrix(16.588,-14.326,-14.326,-16.588,8968.5293,10345.569)"
     x1="0"
     y1="612.38092"
     x2="1"
     y2="612.38092" /></defs><sodipodi:namedview
   pagecolor="#ffffff"
   bordercolor="#666666"
   borderopacity="1"
   objecttolerance="10"
   gridtolerance="10"
   guidetolerance="10"
   inkscape:pageopacity="0"
   inkscape:pageshadow="2"
   inkscape:window-width="1440"
   inkscape:window-height="747"
   id="namedview302"
   showgrid="false"
   fit-margin-top="0"
   fit-margin-left="0"
   fit-margin-right="0"
   fit-margin-bottom="0"
   inkscape:zoom="0.38544267"
   inkscape:cx="74.444724"
   inkscape:cy="-122.06553"
   inkscape:window-x="-8"
   inkscape:window-y="-8"
   inkscape:window-maximized="1"
   inkscape:current-layer="圖層_1" />
<g
   id="g3"
   transform="translate(-146.65777,-43.637333)">
	<g
   id="g5">
		<defs
   id="defs7">
			<rect
   id="SVGID_1_"
   y="0.013"
   width="442.20001"
   height="612.27002"
   x="0" />
		</defs>
		<clipPath
   id="SVGID_2_">
			<use
   xlink:href="#SVGID_1_"
   overflow="visible"
   id="use11"
   style="overflow:visible"
   x="0"
   y="0"
   width="442.20499"
   height="612.28302" />
		</clipPath>
	</g>
</g>
<g
   id="g13"
   transform="translate(-146.65777,-43.637333)">
	<defs
   id="defs15">
		<rect
   id="SVGID_3_"
   y="0.013"
   width="442.20001"
   height="612.27002"
   x="0" />
	</defs>
	<clipPath
   id="SVGID_4_">
		<use
   xlink:href="#SVGID_3_"
   overflow="visible"
   id="use19"
   style="overflow:visible"
   x="0"
   y="0"
   width="442.20499"
   height="612.28302" />
	</clipPath>
</g>



















































































































<g
   id="g3285"
   transform="matrix(1.7574526,0,0,1.7574526,-257.7441,-209.25814)"><g
     id="g37">
	<defs
   id="defs39">
		<polyline
   points="162.365,170.303 215.009,124.838 260.274,177.25 207.63,222.715   "
   id="SVGID_7_" />
	</defs>
	<clipPath
   id="SVGID_8_">
		<use
   id="use43"
   overflow="visible"
   xlink:href="#SVGID_7_"
   style="overflow:visible"
   x="0"
   y="0"
   width="442.20499"
   height="612.28302" />
	</clipPath>
	<g
   id="g45"
   clip-path="url(#SVGID_8_)">
		<defs
   id="defs47">
			<path
   d="m 200.846,159.702 c 0,0 -1.737,3.915 -0.951,8.783 0.913,4.401 2.839,7.757 7.171,10.631 0,0 2.727,1.525 6.124,1.044 2.554,-0.296 5.166,-2.046 5.878,-4.491 0,0 1.77,-4.093 -1.323,-6.454 0,0 0.18,2.607 -2.11,3.598 0,0 -3.318,1.136 -5.062,-1.99 0,0 -1.743,-3.237 2.649,-6.566 0,0 4.088,-2.604 7.972,0.908 0,0 6.313,5.606 0.78,15.799 0,0 -5.002,9.519 -16.544,8.871 0,0 -12.24,-0.111 -19.455,-13.161 0.401,9.509 9.879,20.681 24.368,20.694 9.228,0.272 25.225,-6.735 25.395,-25.156 0,0 0.928,-16.558 -15.033,-21.703 0,0 -2.035,-0.596 -4.877,-0.596 -4.611,0 -11.349,1.568 -14.982,9.789"
   id="SVGID_9_"
   inkscape:connector-curvature="0" />
		</defs>
		<clipPath
   id="SVGID_10_">
			<use
   id="use51"
   overflow="visible"
   xlink:href="#SVGID_9_"
   style="overflow:visible"
   x="0"
   y="0"
   width="442.20499"
   height="612.28302" />
		</clipPath>
		
			<linearGradient
   gradientTransform="matrix(16.588,-14.326,-14.326,-16.588,8968.5293,10345.569)"
   y2="612.38092"
   x2="1"
   y1="612.38092"
   x1="0"
   gradientUnits="userSpaceOnUse"
   id="SVGID_11_">
			<stop
   id="stop54"
   style="stop-color:#F39700"
   offset="0" />
			<stop
   id="stop56"
   style="stop-color:#8FC41E"
   offset="1" />
		</linearGradient>
		<polygon
   id="polygon58"
   points="162.366,170.303 215.009,124.838 260.274,177.25 207.631,222.715 "
   clip-path="url(#SVGID_10_)"
   style="fill:url(#linearGradient3412)" />
	</g>
</g><path
     id="path60"
     d="m 146.764,145.342 c -0.328,0.201 0.171,0.338 0.583,0.482 l 0.273,-0.623"
     inkscape:connector-curvature="0"
     style="fill:#f39800" /><path
     id="path62"
     d="m 148.716,145.263 c 0.303,-0.244 0.612,-0.494 0.937,-0.693 -0.235,0.1 -0.465,0.21 -0.693,0.349 -0.815,-0.207 0.045,-0.665 0.35,-0.8 -1.306,0.296 -0.417,0.774 -0.594,1.144"
     inkscape:connector-curvature="0"
     style="fill:#f39800" /><path
     id="path64"
     d="m 150.623,144.679 c 0.639,0.027 0.46,-0.367 0.184,-0.487 -0.043,0.174 -0.455,0.37 -0.184,0.487"
     inkscape:connector-curvature="0"
     style="fill:#f39800" /><path
     id="path66"
     d="m 178.314,169.023 c 0,-0.195 -0.04,-0.412 0.068,-0.431 -0.18,-0.133 -0.29,-0.132 -0.068,0.431"
     inkscape:connector-curvature="0"
     style="fill:#f39800" /><polyline
     id="polyline68"
     points="178.383,168.591 178.499,168.678 178.421,168.58 "
     style="fill:#f39800" /><path
     id="path70"
     d="m 175.564,154.736 c -0.718,-0.406 -0.842,-0.863 -1.409,-1.334 l 0.082,-0.633 c -0.653,-0.485 -0.534,0.02 -1.105,-0.239 -0.236,-0.764 -1.555,-1.629 -1.764,-1.893 -0.017,-0.337 0.423,-0.015 0.599,-0.032 -0.777,-0.549 -1.051,-0.147 -1.91,-0.924 l 0.069,-0.113 c -2.48,-1.324 -5.253,-3.525 -8.255,-4.414 0.179,0.115 0.089,0.186 0.119,0.309 -2.925,-1.269 -6.685,-2.105 -9.177,-1.048 1.704,-0.107 4.202,1.285 6.038,0.985 0.467,0.551 1.542,0.424 1.609,0.974 2.041,1.201 3.327,0.882 5.28,2.221 0.224,0.266 -0.041,0.369 -0.095,0.618 -0.55,-0.276 -1.075,-0.586 -1.636,-0.826 0.292,0.232 0.546,0.518 0.812,0.777 -0.493,-0.114 -1.402,-0.836 -1.735,-0.511 1.645,0.294 3.395,2.16 4.823,2.586 -0.415,-0.52 -1.151,-0.911 -1.721,-1.426 -0.182,-0.339 -0.554,-0.72 -0.389,-0.904 2.213,0.769 3.465,2.272 5.212,3.782 0.462,0.362 0.956,0.984 0.856,1.214 -0.314,-0.225 -0.264,0.12 -0.553,-0.034 0.689,0.467 0.661,-0.519 1.394,0.431 l -0.693,0.433 c 0.954,-0.234 0.821,1.191 1.729,1.509 -0.057,0.44 -0.555,0.128 -0.979,-0.346 0.355,0.652 0.757,0.394 1.114,0.861 l -0.874,0.012 c 0.899,0.046 0.576,0.951 0.614,1.35 0.158,-0.066 0.364,-0.651 0.807,-0.009 0.133,0.313 -0.106,0.286 -0.135,0.411 0.157,-0.077 0.568,-0.039 0.88,0.363 -0.13,0.22 -0.476,-0.068 -0.677,0.05 0.232,0.302 0.444,0.529 0.452,0.871 0.547,0.435 0.243,-0.234 0.686,-0.041 0.455,0.957 -0.582,0.544 -0.773,1.142 -0.695,-0.44 -1.351,-1.181 -1.734,-1.397 l 1,1.077 c -0.27,0.089 0.195,1.075 -0.46,0.605 0.598,1.296 1.691,2.57 2.533,3.711 -0.011,-0.215 -0.082,-0.463 0.081,-0.511 0.488,0.554 0.152,0.648 0.049,0.872 0.403,0.392 0.785,0.126 1.236,0.267 0.156,1.18 0.43,1.214 0.345,2.334 l 0.384,-0.256 c -0.045,0.778 0.624,0.562 0.698,1.348 -0.073,0.079 -0.296,-0.124 -0.492,-0.28 0.415,0.52 -0.089,0.719 0.345,1.217 l -0.678,-0.231 c 0.232,0.457 0.7,1.066 0.193,1.025 0.851,0.564 1.392,2.107 2.21,2.961 l -0.387,0.132 c 0.72,0.277 1.051,1.955 1.866,2.059 l -0.083,0.166 1.104,0.685 c 0.26,0.471 -0.328,0.687 -0.167,0.623 0.66,0.742 1.154,1.524 1.364,2.234 0.545,-0.131 1.369,1.698 1.946,2.474 7.698,11.304 8.253,8.593 12.293,10.081 2.279,0.919 -0.645,-1.544 0.121,-1.466 -0.776,-0.525 -0.986,-0.271 -1.79,-0.719 -0.525,-0.48 -0.481,-1.052 -0.748,-1.674 l -0.006,0.552 c -0.957,-0.211 -0.374,-0.556 -1.233,-0.583 l 0.454,-0.588 c -0.419,0.166 -0.725,-0.49 -0.808,-0.793 l -0.496,0.251 c -0.26,-0.586 -0.44,-0.936 -0.26,-1.389 l -0.269,0.382 c 0.016,-0.328 5.467,3.401 6.49,3.332 -0.182,-0.041 -7.5,-4.891 -7.692,-5.201 l 0.113,-0.188 c -0.422,-0.305 -0.69,-0.182 -0.58,-0.475 0.26,0.148 -1.075,-1.026 -0.863,-1.094 -1.891,-0.883 0.09,1.099 -1.129,-0.475 l 0.251,-0.16 -0.555,-0.221 0.008,-0.665 c -1.265,0.003 -1.491,-2.423 -2.597,-3.209 -0.341,-0.38 -0.159,-1.264 -0.792,-2.092 l -0.338,0.324 c -0.154,-1.03 -1.28,-3.283 -0.664,-4.454 -0.63,-0.392 -0.045,0.105 -0.368,0.279 -1.065,-0.878 -0.449,-1.368 -0.533,-2.097 -0.567,-0.621 0.13,0.635 -0.376,0.409 -0.26,-1.276 -0.968,-0.649 -1.393,-2.239 0.165,-0.257 0.342,0.293 0.569,0.37 -0.916,-0.798 -1.539,-2.876 -2.436,-4.43 -0.562,-1.914 -2.086,-4.859 -3.208,-6.995 l -0.156,0.065 c -0.265,-1.065 -1.222,-1.705 -1.838,-2.73"
     inkscape:connector-curvature="0"
     style="fill:#f39800" /><path
     id="path72"
     d="m 162.414,148.857 -0.043,0.436 0.981,0.267 c -0.177,-0.48 -0.5,-0.35 -0.938,-0.703"
     inkscape:connector-curvature="0"
     style="fill:#f39800" /><polyline
     id="polyline74"
     points="163.191,147.903 162.628,147.79 163.405,148.21 "
     style="fill:#f39800" /><path
     id="path76"
     d="m 172.556,157.069 -0.038,-0.144 c -0.512,-0.43 -0.992,-0.878 -1.522,-1.277 0.542,0.444 1.039,0.943 1.56,1.421"
     inkscape:connector-curvature="0"
     style="fill:#f39800" /><path
     id="path78"
     d="m 177.924,169.135 c -0.284,-0.112 -0.339,-0.448 -0.574,-0.595 l 0.577,0.744"
     inkscape:connector-curvature="0"
     style="fill:#f39800" /><path
     id="path80"
     d="m 181.146,178.295 c 0.819,-0.06 0.339,0.51 0.663,-0.169 -0.441,-0.437 -0.369,0.172 -0.663,0.169"
     inkscape:connector-curvature="0"
     style="fill:#f39800" /><path
     id="path82"
     d="m 183.038,179.277 c -0.146,-0.276 -0.323,-0.346 -0.493,-0.426 -0.054,0.506 0.254,0.305 0.493,0.426"
     inkscape:connector-curvature="0"
     style="fill:#f39800" /><path
     id="path84"
     d="m 185.377,176.838 c -0.063,-0.074 -0.236,0.072 -0.105,-0.041 0.105,-0.003 0.19,0 0.105,0.041"
     inkscape:connector-curvature="0"
     style="fill:#f39800" /><path
     id="path86"
     d="m 180.881,181.805 c 0.008,-0.014 0.011,-0.029 0.018,-0.041 -0.018,0.002 -0.035,0.004 -0.059,0.004 m 4.462,-4.525 c 0,-0.007 -0.006,-0.009 -0.046,-0.009 0.019,0 0.034,0.002 0.046,0.009 m -7.496,1.376 c 0.003,-0.003 0.003,-0.003 0.006,-0.003 -0.017,-0.01 -0.032,-0.02 -0.057,-0.025 -0.006,0.019 0.011,0.025 0.051,0.028 m 8.381,-1.945 c -0.382,-0.545 -0.19,-1.07 -0.119,-1.867 -0.165,-0.173 -0.423,-0.337 -0.428,-0.581 -0.509,-0.604 -0.85,-1.75 -1.917,-1.898 0.013,0.112 -0.096,0.231 -0.157,0.255 l 0.02,-0.084 -0.134,0.159 c -0.063,-0.01 0.047,-0.235 0.11,-0.241 -0.341,-0.168 -0.705,-0.124 -1.05,-0.252 -0.06,0.291 -0.187,-0.019 -0.226,0.292 -0.014,-0.058 0.006,-0.072 0.024,-0.129 -0.262,0.148 -0.254,0.155 -0.495,-0.216 -1.039,-0.245 -1.995,0.342 -2.79,0.893 -0.768,0.679 -1.078,1.646 -1.267,2.522 0.395,0.281 0.13,0.384 0.487,0.625 l -0.132,-0.042 c 0.175,0.172 -0.065,0.141 -0.261,0.279 0.16,0.026 0.036,0.068 0.301,0.089 0.222,0.084 -0.393,0.042 -0.281,0.143 -0.089,-0.01 0.16,0.017 0.075,0.022 0.298,0.244 -0.146,-0.062 -0.439,0.199 0.104,0.415 0.372,0.773 0.275,1.15 -0.017,-0.02 0.197,-0.066 0.205,-0.032 -0.423,0.117 0.14,0.094 -0.014,0.188 -0.091,0.014 -0.122,-0.009 -0.168,-0.016 -0.136,0.203 0.149,0.273 0.006,0.484 0.209,0.088 -0.078,0.378 0.171,0.402 -0.171,0.041 -0.095,0.111 -0.158,0.179 0.52,-0.116 -0.042,0.364 0.328,0.338 l -0.078,0.04 c 0.254,0.34 0.4,0.843 0.907,0.989 0.2,0.128 0.1,0.701 0.491,0.681 0.084,-0.026 0.119,-0.144 0.179,-0.159 0.05,0.051 -0.095,0.133 -0.11,0.201 0.236,-0.101 0.24,0.224 0.404,0.313 0.058,-0.064 0.114,-0.064 0.155,-0.181 0.024,0.402 0.468,0.075 0.55,0.397 0.092,-0.469 0.184,-0.189 0.284,-0.28 0.03,0.029 0.002,0.144 -0.036,0.228 0.16,-0.02 0.232,-0.02 0.39,0.146 0.089,-0.033 0.152,-0.279 0.233,-0.192 0.017,0.329 0.191,0.056 0.274,0.164 0,-0.276 0.122,-0.491 0.203,-0.376 l -0.034,0.388 c 0.284,-0.235 0.791,0.167 1.02,-0.419 l 0.084,0.213 c 0.277,-0.315 0.699,-0.244 0.781,-0.772 0.138,0.071 0.3,0.053 0.37,-0.006 -0.016,-0.229 0.023,-0.241 -0.105,-0.533 0.019,-0.039 0.151,0.086 0.212,0.135 0.138,-0.04 0.481,0.098 0.299,-0.25 l 0.139,0.132 c -0.062,-0.23 -0.139,-0.5 0.101,-0.457 -0.109,-0.136 -0.085,-0.261 -0.296,-0.354 -0.003,-0.066 0.274,0.168 0.144,0.009 l 0.194,0.204 c 0.22,-0.185 0.2,-0.484 0.193,-0.764 0.338,0.076 0.052,-0.237 0.271,-0.306 -0.144,-0.137 0.149,-0.205 -0.223,-0.374 l 0.182,0.05 c 0.065,-0.104 0.081,-0.25 0.196,-0.378 0.064,-0.079 -0.213,-0.125 -0.299,-0.202 l 0.189,0.024 c -0.101,-0.082 -0.349,-0.132 -0.536,-0.168 0,-0.015 0,-0.021 0.004,-0.032 0.04,-0.025 -0.019,-0.042 0.086,-0.075 0.097,0.058 0.293,0.117 0.55,0.182 0.086,-0.09 -0.377,-0.205 -0.085,-0.246 0.071,-0.07 -0.008,-0.135 -0.264,-0.14 0.081,0.015 0.144,-0.046 0.26,-0.003 -0.004,-0.057 -0.025,-0.091 -0.13,-0.121 0,0.008 -0.031,0.023 -0.027,0.034 -0.167,-0.018 -0.185,-0.058 -0.374,-0.058 v -0.063 c 0.159,-0.009 0.271,0.046 0.376,0.007 l -0.376,-0.081 c 0,-0.156 -0.008,-0.314 -0.03,-0.475 -0.005,-0.058 -0.017,-0.11 -0.027,-0.17 0.057,0.054 0.149,0.092 0.324,0.112 0.215,0.15 1.019,0.125 1.019,0.125 m -1.809,-1.909 c -0.017,0.114 -0.042,0.217 -0.054,0.317 -0.115,-0.177 -0.245,-0.344 -0.39,-0.499 0.028,-0.021 0.062,-0.041 0.099,-0.068 l 0.191,-0.16 c -0.038,0.098 -0.155,0.227 -0.206,0.307 0.138,-0.102 0.127,0.056 0.295,-0.085 -0.061,0.078 -0.1,0.085 -0.149,0.138 0.002,0.08 0.328,-0.116 0.314,-0.009 l -0.1,0.059 z m 0.523,2.488 c 0.007,0.006 0.011,0.013 0,0.024 v -0.024 z m 0,0.192 c 0.029,0.019 0.037,0.039 0,0.054 v -0.054 z m -0.231,-1.634 c -0.005,-0.032 -0.011,-0.061 -0.03,-0.089 0.03,0 0.074,0.004 0.109,0.004 0.047,0.011 -0.005,0.046 -0.079,0.085"
     inkscape:connector-curvature="0"
     style="fill:#f39800" /><path
     id="path88"
     d="m 185.411,176.931 c -0.147,0.034 -0.233,0.094 -0.434,0.071 0.139,-0.017 0.299,-0.063 0.434,-0.071"
     inkscape:connector-curvature="0"
     style="fill:#f39800" /><path
     id="path90"
     d="m 183.76,178.005 c 0.042,0.019 -0.068,-0.004 -0.093,-0.009 -0.004,-0.015 -0.121,-0.061 -0.045,-0.049 0.005,0.02 0.073,0.037 0.138,0.058"
     inkscape:connector-curvature="0"
     style="fill:#f39800" /><path
     id="path92"
     d="m 183.598,178.195 c -0.125,-0.061 -0.209,-0.142 -0.216,-0.168"
     inkscape:connector-curvature="0"
     style="fill:#f39800" /><path
     id="path94"
     d="m 183.012,178.108 c -0.102,-0.039 -0.16,-0.08 -0.146,-0.089 0.063,0.035 0.09,0.058 0.146,0.089"
     inkscape:connector-curvature="0"
     style="fill:#f39800" /><path
     id="path96"
     d="m 183.283,178.267 c -0.01,0.014 -0.079,-0.017 -0.15,-0.051 0.103,0.056 -0.048,-0.064 0.15,0.051"
     inkscape:connector-curvature="0"
     style="fill:#f39800" /><path
     id="path98"
     d="m 182.772,178.317 c 0.003,0.012 0.079,0.101 -0.037,0.003 0.083,0.065 -0.11,-0.14 0.037,-0.003"
     inkscape:connector-curvature="0"
     style="fill:#f39800" /><path
     id="path100"
     d="m 182.827,178.569 c -0.009,-0.002 -0.028,-0.021 -0.005,0.009 -0.049,-0.039 -0.109,-0.124 -0.109,-0.136"
     inkscape:connector-curvature="0"
     style="fill:#f39800" /><polyline
     id="polyline102"
     points="180.229,177.992 180.302,177.992 180.177,178.037 "
     style="fill:#f39800" /><path
     id="path104"
     d="m 180.26,176.225 c -0.063,-0.06 0.125,0.036 0.147,0.04 0.007,0.023 -0.152,-0.074 -0.147,-0.04"
     inkscape:connector-curvature="0"
     style="fill:#f39800" /><polyline
     id="polyline106"
     points="180.329,174.956 180.323,174.967 180.143,174.753 "
     style="fill:#f39800" /><path
     id="path108"
     d="m 192.577,175.767 c 0.146,1.111 -0.544,2.121 -1.536,2.257 -0.996,0.128 -1.914,-0.665 -2.055,-1.775 -0.144,-1.112 0.543,-2.124 1.538,-2.255 0.993,-0.131 1.91,0.661 2.053,1.773"
     inkscape:connector-curvature="0"
     style="fill:#f39800" /><path
     id="path110"
     d="m 193.08,175.737 c -0.064,-0.048 -0.233,0.056 -0.105,-0.02 0.107,-0.011 0.19,-0.008 0.105,0.02"
     inkscape:connector-curvature="0"
     style="fill:#f39800" /><path
     id="path112"
     d="m 193.216,175.745 c 0,-0.003 -0.005,-0.005 -0.043,-0.005 0.016,0 0.025,0.005 0.043,0.005 m -3.062,3.376 c 0.007,-0.009 0.012,-0.022 0.018,-0.041 -0.011,0.006 -0.025,0.009 -0.044,0.01 l 0.026,0.031 z m -2.286,-2.354 c 0.005,-0.003 0.005,-0.007 0.007,-0.007 -0.016,-0.002 -0.035,-0.006 -0.062,-0.009 -10e-4,0.013 0.019,0.016 0.055,0.016 m 5.753,-3.119 c -0.131,-0.125 -0.271,-0.187 -0.25,-0.389 -0.389,-0.433 -0.449,-0.749 -1.315,-0.826 0,0.112 -0.097,0.232 -0.146,0.264 l 0.029,-0.084 -0.127,0.165 c -0.047,0 0.057,-0.233 0.109,-0.248 -0.265,-0.12 -0.546,-0.073 -0.811,-0.183 -0.058,0.293 -0.146,-0.01 -0.19,0.301 -10e-4,-0.056 0.01,-0.07 0.022,-0.133 -0.203,0.15 -0.188,0.161 -0.378,-0.217 -0.814,-0.239 -1.559,0.26 -2.177,0.668 -0.591,0.543 -0.462,0.865 -0.582,1.521 0.414,0.246 0.16,0.302 0.528,0.503 l -0.138,-0.041 c 0.189,0.132 -0.055,0.098 -0.244,0.188 0.161,0.03 0.036,0.05 0.304,0.079 0.221,0.067 -0.39,0.014 -0.272,0.09 -0.094,-0.006 0.157,0.023 0.071,0.023 0.307,0.18 -0.143,-0.055 -0.431,0.133 0.103,0.31 0.376,0.56 0.261,0.837 -0.019,-0.011 0.195,-0.052 0.208,-0.03 -0.43,0.103 0.13,0.061 -0.028,0.137 -0.094,0.014 -0.124,0 -0.167,-0.004 -0.149,0.16 0.13,0.196 -0.022,0.358 0.204,0.05 -0.111,0.305 0.133,0.293 -0.173,0.051 -0.102,0.098 -0.173,0.158 0.511,-0.142 -0.071,0.293 0.284,0.233 l -0.079,0.04 c 0.194,0.25 0.283,0.641 0.707,0.711 0.155,0.077 0,0.602 0.331,0.54 0.079,-0.031 0.119,-0.147 0.175,-0.167 0.029,0.038 -0.096,0.136 -0.118,0.198 0.206,-0.12 0.175,0.178 0.3,0.241 0.055,-0.063 0.096,-0.074 0.146,-0.189 -0.023,0.39 0.358,0.027 0.394,0.331 0.113,-0.455 0.16,-0.201 0.244,-0.295 0.016,0.026 -0.014,0.141 -0.047,0.226 0.128,-0.024 0.184,-0.031 0.291,0.128 0.065,-0.041 0.124,-0.283 0.185,-0.203 0.002,0.324 0.144,0.042 0.199,0.155 0.008,-0.275 0.098,-0.493 0.156,-0.373 l -0.032,0.386 c 0.209,-0.24 0.601,0.169 0.754,-0.381 l 0.075,0.213 c 0.184,-0.3 0.526,-0.176 0.532,-0.67 0.118,0.077 0.245,0.083 0.294,0.045 -0.044,-0.214 -0.007,-0.217 -0.154,-0.492 0.006,-0.032 0.133,0.097 0.19,0.149 0.109,-0.013 0.418,0.147 0.217,-0.174 l 0.132,0.129 c -0.074,-0.198 -0.19,-0.435 0.03,-0.363 -0.112,-0.125 -0.116,-0.226 -0.319,-0.335 -0.008,-0.047 0.274,0.181 0.131,0.035 l 0.199,0.189 c 0.178,-0.115 0.13,-0.351 0.082,-0.563 0.325,0.095 0.024,-0.166 0.226,-0.188 -0.149,-0.117 0.124,-0.135 -0.254,-0.29 l 0.186,0.051 c 0.05,-0.066 0.058,-0.161 0.171,-0.25 0.054,-0.053 -0.215,-0.092 -0.309,-0.149 l 0.188,0.022 c -0.081,-0.049 -0.272,-0.087 -0.444,-0.114 0.002,-0.025 0.014,-0.047 0.027,-0.066 0.102,0.031 0.286,0.076 0.51,0.122 0.094,-0.06 -0.379,-0.15 -0.09,-0.17 0.074,-0.044 -0.004,-0.089 -0.259,-0.093 0.084,0.01 0.147,-0.032 0.259,-0.004 -0.004,-0.038 -0.027,-0.059 -0.129,-0.081 -0.001,0.005 -0.034,0.016 -0.027,0.027 -0.083,-0.011 -0.137,-0.022 -0.182,-0.027 0,-0.014 0.004,-0.027 0.008,-0.041 0.065,0.002 0.124,0.005 0.178,-0.011 l -0.17,-0.018 c 0.041,-0.129 0.068,-0.254 0.096,-0.377 0.222,-0.205 -0.317,0.031 0.283,0.345 0.187,-0.582 0.693,-0.418 0.219,-1.995 m -1.096,0.169 c 0,0 -0.006,-0.005 -0.007,-0.005 l 0.021,-0.019 c -0.002,0.001 -0.006,0.015 -0.014,0.024"
     inkscape:connector-curvature="0"
     style="fill:#f39800" /><path
     id="path114"
     d="m 193.119,175.802 c -0.16,0.024 -0.236,0.067 -0.447,0.053"
     inkscape:connector-curvature="0"
     style="fill:#f39800" /><path
     id="path116"
     d="m 191.509,176.372 c 0.048,0.013 -0.061,-0.014 -0.086,-0.019 -0.005,-0.009 -0.13,-0.05 -0.056,-0.03 0.012,0.007 0.081,0.03 0.142,0.049"
     inkscape:connector-curvature="0"
     style="fill:#f39800" /><path
     id="path118"
     d="m 191.392,176.434 c -0.125,-0.053 -0.219,-0.111 -0.236,-0.125"
     inkscape:connector-curvature="0"
     style="fill:#f39800" /><path
     id="path120"
     d="m 190.86,176.242 c -0.103,-0.053 -0.155,-0.083 -0.154,-0.081 0.065,0.033 0.095,0.049 0.154,0.081"
     inkscape:connector-curvature="0"
     style="fill:#f39800" /><path
     id="path122"
     d="m 191.131,176.393 c 0,0.009 -0.073,-0.026 -0.143,-0.07 0.106,0.061 -0.058,-0.042 0.143,0.07"
     inkscape:connector-curvature="0"
     style="fill:#f39800" /><path
     id="path124"
     d="m 190.766,176.225 c 0.006,0.011 0.094,0.086 -0.022,-0.015 0.078,0.071 -0.13,-0.117 0.022,0.015"
     inkscape:connector-curvature="0"
     style="fill:#f39800" /><path
     id="path126"
     d="m 190.905,176.392 c -0.008,-0.007 -0.025,-0.025 0,0 -0.044,-0.042 -0.109,-0.117 -0.116,-0.131"
     inkscape:connector-curvature="0"
     style="fill:#f39800" /><polyline
     id="polyline128"
     points="190.058,176.35 190.123,176.335 189.996,176.381 "
     style="fill:#f39800" /><path
     id="path130"
     d="m 190.067,175.53 c -0.073,-0.047 0.118,0.043 0.138,0.051 0.014,0.012 -0.151,-0.072 -0.138,-0.051"
     inkscape:connector-curvature="0"
     style="fill:#f39800" /><polyline
     id="polyline132"
     points="189.838,174.687 189.838,174.694 189.649,174.479 "
     style="fill:#f39800" /><path
     id="path134"
     d="m 188.012,163.594 c -0.062,-0.079 -0.216,0.068 -0.1,-0.042 0.1,-0.006 0.181,0.004 0.1,0.042"
     inkscape:connector-curvature="0"
     style="fill:#f39800" /><path
     id="path136"
     d="m 188.04,163.69 c -0.141,0.033 -0.208,0.09 -0.401,0.064 0.131,-0.016 0.274,-0.062 0.401,-0.064"
     inkscape:connector-curvature="0"
     style="fill:#f39800" /><path
     id="path138"
     d="m 186.512,164.817 c 0.033,0.014 -0.062,-0.004 -0.079,-0.005 -0.014,-0.016 -0.124,-0.058 -0.046,-0.048 0.001,0.013 0.07,0.032 0.125,0.053"
     inkscape:connector-curvature="0"
     style="fill:#f39800" /><path
     id="path140"
     d="m 186.351,165.022 c -0.111,-0.054 -0.187,-0.134 -0.198,-0.167"
     inkscape:connector-curvature="0"
     style="fill:#f39800" /><path
     id="path142"
     d="m 186.046,165.127 c -0.005,0.014 -0.08,-0.014 -0.143,-0.042 0.094,0.049 -0.04,-0.062 0.143,0.042"
     inkscape:connector-curvature="0"
     style="fill:#f39800" /><path
     id="path144"
     d="m 183.495,168.527 c 0.005,-0.014 0.015,-0.026 0.019,-0.041 -0.015,0 -0.041,0 -0.06,0.009 m 4.445,-4.506 c 0.014,0.004 0.032,0.011 0.043,0.011 0,-0.004 -0.01,-0.009 -0.043,-0.011 m -7.447,1.379 v -0.009 c -0.008,-0.01 -0.03,-0.014 -0.054,-0.021 -0.002,0.017 0.017,0.021 0.054,0.03 m 8.151,-3.769 c -0.157,-0.176 -0.407,-0.342 -0.417,-0.577 -0.508,-0.603 -0.865,-1.701 -1.899,-1.86 0.008,0.106 -0.087,0.214 -0.144,0.234 l 0.011,-0.077 -0.13,0.142 c -0.067,-0.007 0.039,-0.215 0.114,-0.22 -0.341,-0.162 -0.699,-0.118 -1.037,-0.249 -0.052,0.268 -0.18,-0.017 -0.222,0.268 -0.013,-0.053 0.002,-0.066 0.019,-0.122 -0.258,0.139 -0.248,0.149 -0.483,-0.196 -1.016,-0.221 -1.956,0.335 -2.73,0.882 -0.757,0.665 -1.081,1.607 -1.271,2.476 0.363,0.263 0.107,0.37 0.429,0.606 l -0.122,-0.039 c 0.168,0.169 -0.057,0.142 -0.239,0.28 0.151,0.026 0.033,0.071 0.28,0.085 0.199,0.08 -0.366,0.048 -0.263,0.148 -0.081,-0.007 0.148,0.01 0.07,0.019 0.271,0.243 -0.133,-0.057 -0.409,0.202 0.097,0.408 0.339,0.772 0.262,1.141 -0.015,-0.018 0.18,-0.058 0.187,-0.028 -0.392,0.107 0.134,0.098 -0.012,0.187 -0.08,0.014 -0.115,-0.011 -0.148,-0.016 -0.132,0.199 0.136,0.274 0.003,0.474 0.2,0.093 -0.061,0.373 0.172,0.401 -0.16,0.035 -0.084,0.107 -0.142,0.173 0.483,-0.094 -0.03,0.355 0.317,0.339 l -0.078,0.041 c 0.249,0.337 0.406,0.831 0.895,0.986 0.194,0.13 0.118,0.675 0.494,0.663 0.081,-0.021 0.111,-0.132 0.171,-0.144 0.044,0.048 -0.09,0.123 -0.102,0.185 0.223,-0.086 0.24,0.223 0.4,0.31 0.056,-0.058 0.109,-0.058 0.149,-0.169 0.033,0.383 0.453,0.084 0.545,0.385 0.081,-0.428 0.176,-0.169 0.273,-0.252 0.028,0.027 0,0.134 -0.032,0.209 0.153,-0.016 0.232,-0.014 0.381,0.143 0.092,-0.031 0.144,-0.253 0.228,-0.176 0.022,0.3 0.201,0.056 0.279,0.155 0,-0.252 0.116,-0.455 0.2,-0.346 l -0.035,0.354 c 0.282,-0.215 0.78,0.155 1.018,-0.39 l 0.081,0.196 c 0.274,-0.291 0.681,-0.243 0.784,-0.745 0.137,0.068 0.291,0.046 0.355,-0.015 -0.004,-0.217 0.037,-0.228 -0.076,-0.495 0.018,-0.044 0.135,0.069 0.197,0.116 0.136,-0.047 0.46,0.075 0.301,-0.253 l 0.125,0.125 c -0.049,-0.221 -0.112,-0.475 0.115,-0.449 -0.097,-0.125 -0.074,-0.251 -0.265,-0.334 -0.003,-0.057 0.252,0.15 0.135,0.009 l 0.174,0.184 c 0.22,-0.184 0.208,-0.481 0.21,-0.757 0.319,0.068 0.056,-0.238 0.262,-0.31 -0.125,-0.135 0.143,-0.21 -0.201,-0.369 l 0.176,0.039 c 0.065,-0.099 0.077,-0.247 0.182,-0.381 0.065,-0.08 -0.19,-0.121 -0.271,-0.194 l 0.178,0.015 c -0.089,-0.078 -0.316,-0.124 -0.489,-0.162 0.005,-0.011 0.005,-0.024 0.005,-0.032 0.033,-0.027 -0.024,-0.041 0.074,-0.073 0.089,0.052 0.275,0.111 0.501,0.176 0.084,-0.09 -0.337,-0.206 -0.071,-0.246 0.061,-0.074 -0.015,-0.135 -0.239,-0.146 0.07,0.017 0.13,-0.046 0.236,0 -0.012,-0.057 -0.029,-0.095 -0.122,-0.125 -0.002,0.012 -0.03,0.025 -0.024,0.041 -0.154,-0.026 -0.169,-0.063 -0.342,-0.063 -0.002,-0.018 -0.002,-0.04 -0.002,-0.062 0.145,-0.009 0.254,0.049 0.344,0.008 l -0.348,-0.087 c -0.007,-0.083 -0.007,-0.157 -0.024,-0.236 -0.012,-0.143 -0.029,-0.285 -0.037,-0.423 0.054,0.054 0.143,0.097 0.3,0.114 0.206,0.16 0.544,0.812 0.544,0.812 -0.359,-0.548 0.207,-1.736 0.25,-2.505 m -1.029,2.416 c 0.002,0.005 0.003,0.014 0.002,0.026 0,0 0,-0.007 -0.002,-0.007 0,-0.005 0.002,-0.013 0,-0.019 m 0,0.194 c 0.027,0.022 0.032,0.04 0,0.055 v -0.055 z"
     inkscape:connector-curvature="0"
     style="fill:#f39800" /><polyline
     id="polyline146"
     points="182.679,164.809 182.745,164.811 182.63,164.85 "
     style="fill:#f39800" /><path
     id="path148"
     d="m 182.715,162.912 c -0.061,-0.054 0.112,0.032 0.136,0.035 0.002,0.027 -0.138,-0.071 -0.136,-0.035"
     inkscape:connector-curvature="0"
     style="fill:#f39800" /><polyline
     id="polyline150"
     points="182.866,161.63 182.857,161.639 182.688,161.442 "
     style="fill:#f39800" /><path
     id="path152"
     d="m 179.832,151.832 c 0.091,0.029 0.036,-0.039 -0.036,-0.118 -0.182,0 0.057,0.004 0.036,0.118 m -7.694,-5.114 c 0.002,0 0.002,-0.002 0.012,-0.002 -0.01,-0.017 -0.015,-0.04 -0.028,-0.062 -0.018,0.011 -0.006,0.025 0.016,0.064 m 7.275,5.36 c 0.007,0.017 0.009,0.027 0.02,0.039 0.008,-0.002 0.003,-0.012 -0.02,-0.039 m 2.634,-5.402 c -0.072,0.092 -0.237,0.086 -0.296,0.051 l 0.071,-0.048 h -0.207 c -0.042,-0.064 0.195,-0.134 0.253,-0.084 -0.135,-0.419 -0.453,-0.697 -0.632,-1.093 -0.249,0.148 -0.132,-0.18 -0.378,0.002 0.031,-0.05 0.051,-0.045 0.11,-0.07 -0.317,-0.122 -0.322,-0.107 -0.252,-0.575 -0.654,-1.045 -1.885,-1.418 -2.973,-1.612 -1.168,-0.102 -2.211,0.378 -3.091,0.924 0.065,0.493 -0.227,0.383 -0.17,0.83 l -0.06,-0.133 c -0.016,0.265 -0.17,0.071 -0.424,0.04 0.093,0.138 -0.037,0.082 0.145,0.29 0.083,0.226 -0.32,-0.246 -0.328,-0.085 -0.059,-0.073 0.106,0.128 0.032,0.07 0.007,0.408 -0.049,-0.15 -0.479,-0.159 -0.259,0.417 -0.372,0.906 -0.744,1.152 0.007,-0.029 0.183,0.091 0.162,0.133 -0.371,-0.233 0.021,0.188 -0.162,0.146 -0.077,-0.059 -0.077,-0.106 -0.095,-0.142 -0.261,0.062 -0.123,0.345 -0.379,0.403 0.062,0.239 -0.356,0.26 -0.201,0.472 -0.15,-0.101 -0.15,0.021 -0.245,0.021 0.431,0.327 -0.31,0.272 -0.043,0.552 l -0.087,-0.031 c -0.081,0.491 -0.365,1.022 -0.121,1.573 0.054,0.281 -0.437,0.647 -0.14,0.974 0.08,0.051 0.189,-0.011 0.242,0.032 -0.002,0.081 -0.162,0.021 -0.216,0.063 0.235,0.127 0.015,0.384 0.058,0.596 0.096,0.004 0.135,0.054 0.248,0 -0.262,0.328 0.293,0.469 0.131,0.786 0.387,-0.262 0.267,0.028 0.408,0.043 0.002,0.05 -0.102,0.112 -0.183,0.139 0.137,0.128 0.192,0.191 0.197,0.444 0.095,0.06 0.314,-0.062 0.319,0.076 -0.209,0.247 0.114,0.209 0.107,0.36 0.186,-0.196 0.448,-0.245 0.429,-0.088 l -0.3,0.238 c 0.399,0.085 0.52,0.796 1.151,0.586 l -0.089,0.213 c 0.461,0.023 0.774,0.391 1.266,0.106 0.059,0.159 0.211,0.263 0.313,0.276 0.169,-0.172 0.219,-0.146 0.347,-0.441 0.046,-0.016 0.054,0.168 0.067,0.252 0.153,0.074 0.323,0.423 0.462,0.042 l 0.004,0.193 c 0.141,-0.205 0.296,-0.456 0.467,-0.249 0.026,-0.176 0.153,-0.251 0.062,-0.469 0.045,-0.048 0.081,0.317 0.108,0.109 l -0.017,0.284 c 0.339,0.027 0.577,-0.218 0.819,-0.43 0.2,0.297 0.251,-0.151 0.477,-0.049 0.013,-0.209 0.29,-0.058 0.165,-0.453 l 0.095,0.168 c 0.138,-0.027 0.273,-0.147 0.468,-0.168 0.117,-0.019 -0.046,-0.254 -0.046,-0.378 l 0.124,0.152 c 0,-0.134 -0.135,-0.353 -0.233,-0.52 0.007,-0.01 0.022,-0.014 0.03,-0.024 0.044,0.005 0.023,-0.051 0.12,0 0.021,0.116 0.111,0.307 0.236,0.542 0.132,-0.005 -0.084,-0.435 0.151,-0.261 0.106,-0.01 0.106,-0.111 -0.038,-0.284 0.046,0.044 0.125,0.057 0.158,0.158 0.045,-0.05 0.056,-0.101 0.013,-0.204 -0.013,0.008 -0.044,0 -0.046,0.015 -0.106,-0.137 -0.079,-0.187 -0.209,-0.323 0.017,-0.019 0.035,-0.035 0.054,-0.055 0.117,0.111 0.147,0.241 0.252,0.281 l -0.19,-0.355 c 0.065,-0.073 0.126,-0.138 0.19,-0.217 0.12,-0.088 0.23,-0.178 0.336,-0.272 0.017,0.066 0.048,0.137 0.111,0.226 0.019,0.303 0.927,0.186 0.927,0.186 0.815,-0.696 0.205,-0.071 0.85,-0.676 0.025,-0.267 0.488,-1.631 0.663,-1.833 0.101,-0.93 0.358,-1.389 -0.324,-2.418 m -5.263,-1.817 c 0.019,-0.013 0.033,-0.026 0.042,-0.026 v 0.018 c -0.009,0.006 -0.031,0.008 -0.042,0.008 m 2.15,7.19 c 0.012,-0.014 0.027,-0.029 0.047,-0.042 0,0.036 -0.014,0.057 -0.047,0.042 m -6.977,-0.098 c 0.011,-0.006 0.025,-0.008 0.044,-0.015 -0.019,-0.014 -0.034,-0.03 -0.052,-0.047 l 0.008,0.062 z m 7.812,-0.013 c -0.097,-0.095 -0.238,-0.176 -0.354,-0.269 0.125,0.174 0.228,0.186 0.354,0.269"
     inkscape:connector-curvature="0"
     style="fill:#f39800" /><path
     id="path154"
     d="m 177.292,151.744 c -0.047,-0.132 -0.038,-0.262 -0.014,-0.293"
     inkscape:connector-curvature="0"
     style="fill:#f39800" /><path
     id="path156"
     d="m 176.861,151.284 c -0.051,-0.108 -0.065,-0.171 -0.04,-0.174"
     inkscape:connector-curvature="0"
     style="fill:#f39800" /><path
     id="path158"
     d="m 176.93,151.594 c -0.019,0.008 -0.052,-0.069 -0.084,-0.146 0.032,0.118 0.028,-0.083 0.084,0.146"
     inkscape:connector-curvature="0"
     style="fill:#f39800" /><path
     id="path160"
     d="m 176.369,151.284 c -0.01,0.012 -0.032,0.129 -0.043,-0.024 0.011,0.106 0.043,-0.18 0.043,0.024"
     inkscape:connector-curvature="0"
     style="fill:#f39800" /><path
     id="path162"
     d="m 176.149,151.509 c -0.005,-0.014 -0.005,-0.042 -0.016,0 -0.009,-0.066 0.011,-0.166 0.024,-0.175"
     inkscape:connector-curvature="0"
     style="fill:#f39800" /><polyline
     id="polyline164"
     points="174.237,148.101 174.288,148.167 174.166,148.101 "
     style="fill:#f39800" /><path
     id="path166"
     d="m 175.978,146.454 c 0,-0.095 0.065,0.111 0.074,0.129 -0.017,0.028 -0.046,-0.165 -0.074,-0.129"
     inkscape:connector-curvature="0"
     style="fill:#f39800" /><polyline
     id="polyline168"
     points="177.244,145.556 177.234,145.556 177.253,145.275 "
     style="fill:#f39800" /><path
     id="path170"
     d="m 171.453,168.283 c 0.054,-0.084 -0.14,-0.164 0.011,-0.104 0.038,0.091 0.054,0.16 -0.011,0.104"
     inkscape:connector-curvature="0"
     style="fill:#f39800" /><path
     id="path172"
     d="m 171.372,168.354 c -0.079,-0.113 -0.163,-0.155 -0.201,-0.337 0.06,0.114 0.155,0.224 0.201,0.337"
     inkscape:connector-curvature="0"
     style="fill:#f39800" /><path
     id="path174"
     d="m 171.031,168.354 v 0.034 c 0.01,0 0.014,-0.003 0,-0.034 m -6.098,-2.619 c 0.014,0 0.028,10e-4 0.043,0.008 -0.012,-0.023 -0.018,-0.038 -0.029,-0.061 l -0.014,0.053 z m 1.783,-4.261 h 0.011 c 0.002,-0.02 0.002,-0.041 0.002,-0.06 -0.014,0 -0.014,0.019 -0.013,0.06 m 8.164,3.258 c -0.079,0.055 -0.214,0 -0.252,-0.048 l 0.07,-0.014 -0.162,-0.074 c -0.017,-0.066 0.202,-0.046 0.227,0.015 0.024,-0.389 -0.154,-0.722 -0.174,-1.099 -0.251,0.04 -0.053,-0.192 -0.313,-0.122 0.043,-0.03 0.056,-0.021 0.115,-0.025 -0.223,-0.195 -0.228,-0.194 -0.026,-0.541 -0.211,-1.072 -1.092,-1.778 -1.912,-2.31 -0.915,-0.482 -1.926,-0.45 -2.831,-0.3 -0.111,0.418 -0.315,0.239 -0.406,0.614 l -0.014,-0.129 c -0.097,0.209 -0.16,0.005 -0.365,-0.106 0.031,0.142 -0.052,0.058 0.022,0.284 0,0.209 -0.175,-0.307 -0.233,-0.178 -0.026,-0.076 0.042,0.139 0,0.068 -0.125,0.337 0.013,-0.138 -0.343,-0.281 -0.346,0.249 -0.606,0.613 -0.987,0.697 0.008,-0.022 0.119,0.135 0.089,0.157 -0.233,-0.307 -0.044,0.164 -0.179,0.071 -0.041,-0.071 -0.032,-0.111 -0.032,-0.148 -0.233,-0.03 -0.215,0.244 -0.445,0.211 -0.024,0.216 -0.371,0.099 -0.316,0.323 -0.088,-0.128 -0.128,-0.032 -0.204,-0.062 0.246,0.408 -0.339,0.132 -0.216,0.445 l -0.057,-0.056 c -0.22,0.38 -0.621,0.731 -0.589,1.266 -0.056,0.246 -0.56,0.398 -0.419,0.762 0.048,0.066 0.151,0.047 0.181,0.097 -0.021,0.071 -0.133,-0.031 -0.194,-0.017 0.149,0.185 -0.11,0.328 -0.128,0.518 0.064,0.033 0.085,0.084 0.196,0.075 -0.317,0.183 0.093,0.481 -0.132,0.696 0.395,-0.096 0.204,0.105 0.313,0.161 -0.009,0.046 -0.111,0.061 -0.188,0.061 0.069,0.145 0.098,0.221 0.02,0.425 0.061,0.077 0.278,0.049 0.236,0.163 -0.245,0.134 0.031,0.214 -0.019,0.333 0.208,-0.098 0.431,-0.056 0.374,0.068 l -0.324,0.093 c 0.297,0.205 0.182,0.822 0.754,0.866 l -0.136,0.141 c 0.374,0.171 0.512,0.579 0.997,0.512 0.005,0.151 0.089,0.289 0.171,0.331 0.194,-0.08 0.222,-0.042 0.42,-0.237 0.046,0.004 -0.005,0.156 -0.022,0.221 0.11,0.119 0.125,0.457 0.363,0.196 l -0.059,0.161 c 0.186,-0.12 0.398,-0.265 0.47,-0.041 0.077,-0.133 0.206,-0.156 0.201,-0.359 0.051,-0.022 -0.036,0.28 0.051,0.124 l -0.102,0.226 c 0.268,0.133 0.545,0.016 0.812,-0.073 0.066,0.311 0.255,-0.038 0.411,0.123 0.077,-0.168 0.258,0.047 0.283,-0.311 l 0.021,0.166 c 0.123,0.022 0.279,-0.026 0.447,0.016 0.1,0.022 0.041,-0.22 0.089,-0.321 l 0.041,0.163 c 0.046,-0.109 0.003,-0.328 -0.015,-0.495 0.012,-0.006 0.018,-0.008 0.034,-0.01 0.035,0.017 0.033,-0.034 0.098,0.038 -0.024,0.102 -0.011,0.287 0.011,0.516 0.124,0.036 0.081,-0.383 0.211,-0.162 0.101,0.025 0.132,-0.067 0.053,-0.277 0.015,0.076 0.096,0.099 0.096,0.211 0.046,-0.028 0.073,-0.064 0.068,-0.162 -0.009,0.007 -0.035,-0.012 -0.038,-0.002 -0.039,-0.145 -0.003,-0.175 -0.068,-0.328 0.026,-0.007 0.043,-0.019 0.065,-0.03 0.06,0.13 0.036,0.242 0.111,0.311 l -0.038,-0.351 c 0.073,-0.036 0.151,-0.07 0.226,-0.117 0.135,-0.078 0.273,-0.158 0.403,-0.238 -0.043,0.071 -0.058,0.178 -0.017,0.343 -0.082,0.258 0.296,0.248 0.629,0.203 0.655,-0.21 0.531,-0.086 1.031,-0.46 0.326,-0.125 0.368,-0.269 0.572,-0.383 0.381,-0.738 1.217,-1.535 0.973,-2.604 m -4.234,3.444 c 0.014,-0.009 0.033,-0.016 0.054,-0.028 -0.015,0.038 -0.029,0.051 -0.054,0.028 m 0.063,-6.507 h -0.006 l 0.011,-0.023 c -0.001,0.007 -0.005,0.014 -0.005,0.023 m 0.411,-0.096 -0.009,0.192 c -0.013,0.002 -0.019,0.01 -0.026,0.018 -0.076,-0.031 -0.147,-0.049 -0.223,-0.07 0.047,-0.076 0.09,-0.155 0.131,-0.214 0.016,0.059 0.157,-0.02 0.195,-0.02 -0.031,0.153 -0.028,-0.022 -0.068,0.094 m 0.352,0.374 c -0.019,-0.008 -0.032,-0.02 -0.049,-0.025 0.001,-0.011 0.016,-0.023 0.017,-0.037 0.032,0 0.038,0.026 0.032,0.062 m 0.524,0.332 h -0.002 c 0.002,-0.001 0.004,-0.001 0.007,-0.006 0,0.005 -0.005,0.006 -0.005,0.006 m 0.107,0.037 -0.032,0.028 c -0.014,-0.014 -0.03,-0.028 -0.046,-0.037 0.053,-0.057 0.097,-0.088 0.078,0.009 m 0.193,4.931 c 0.014,-0.011 0.027,-0.017 0.038,-0.027 v 0.003 c 0,0.033 -0.011,0.033 -0.038,0.024 m 0.014,-4.678 c 0.027,-0.009 0.051,-0.018 0.083,-0.034 -0.018,0.022 -0.035,0.039 -0.059,0.057 -0.003,-0.01 -0.011,-0.015 -0.024,-0.023 m 0.099,0.102 c -0.01,-0.011 -0.016,-0.02 -0.021,-0.031 0.018,-0.008 0.029,0 0.021,0.031 m 0.127,0.156 c -0.007,-0.003 -0.018,-0.012 -0.019,-0.024 0.012,0.007 0.022,0.009 0.03,0.007 0,0.005 -0.005,0.014 -0.011,0.017 m 0.648,3.659 -0.022,-0.015 c 0.013,-0.012 0.023,-0.027 0.03,-0.042 0.005,0.028 0.005,0.045 -0.008,0.057"
     inkscape:connector-curvature="0"
     style="fill:#f39800" /><polyline
     id="polyline176"
     points="167.986,163.28 168.011,163.343 167.929,163.252 "
     style="fill:#f39800" /><path
     id="path178"
     d="m 169.963,162.494 c 0.028,-0.076 0.022,0.112 0.022,0.129 -0.025,0.017 0.015,-0.148 -0.022,-0.129"
     inkscape:connector-curvature="0"
     style="fill:#f39800" /><polyline
     id="polyline180"
     points="171.306,162.205 171.296,162.205 171.408,161.984 "
     style="fill:#f39800" /><path
     id="path182"
     d="m 162.511,156.484 c 0,-0.115 -0.224,-0.044 -0.056,-0.1 0.086,0.056 0.143,0.106 0.056,0.1"
     inkscape:connector-curvature="0"
     style="fill:#f39800" /><path
     id="path184"
     d="m 154.509,158.46 c 0.018,-0.009 0.027,-0.014 0.038,-0.021 -0.016,-0.009 -0.043,-0.021 -0.057,-0.034 m -1.058,-5.25 v -0.004 c 0,-0.016 -0.014,-0.035 -0.028,-0.052 -0.013,0.014 0,0.027 0.028,0.056 m 8.729,3.704 c 0.003,0.012 0.013,0.025 0.019,0.032 0.003,-0.003 0.003,-0.014 -0.019,-0.032 m -0.463,0.246 c 0.032,0.109 0.14,0.263 0.292,0.45 0.131,-0.054 -0.133,-0.397 0.116,-0.295 0.096,-0.046 0.077,-0.148 -0.081,-0.271 0.053,0.029 0.123,0.017 0.174,0.104 0.03,-0.062 0.043,-0.114 -0.019,-0.202 -0.006,0.012 -0.043,0.012 -0.043,0.028 -0.112,-0.103 -0.093,-0.158 -0.238,-0.249 0.016,-0.022 0.029,-0.045 0.043,-0.069 0.121,0.075 0.168,0.188 0.27,0.194 l -0.218,-0.283 c 0.05,-0.093 0.099,-0.188 0.143,-0.286 0.075,-0.168 0.156,-0.334 0.238,-0.497 0.008,0.092 0.055,0.197 0.162,0.311 0.065,0.304 -0.406,0.43 -0.224,1.058 0.046,-0.792 1.119,-0.662 1.844,-2.387 -0.037,-0.272 -0.159,-0.612 -0.051,-0.861 -0.114,-0.97 0.103,-2.27 -0.788,-3.123 -0.038,0.103 -0.187,0.129 -0.249,0.106 l 0.056,-0.055 -0.192,0.034 c -0.057,-0.057 0.139,-0.164 0.198,-0.125 -0.225,-0.387 -0.604,-0.583 -0.872,-0.927 -0.187,0.184 -0.169,-0.144 -0.35,0.067 0.014,-0.051 0.036,-0.051 0.081,-0.092 -0.327,-0.049 -0.33,-0.037 -0.387,-0.474 -0.907,-0.847 -2.177,-0.944 -3.307,-0.88 -1.173,0.152 -2.13,0.844 -2.906,1.595 0.146,0.436 -0.156,0.419 -0.041,0.81 l -0.079,-0.099 c 0.028,0.248 -0.148,0.114 -0.401,0.162 0.112,0.105 -0.014,0.089 0.182,0.229 0.116,0.189 -0.339,-0.135 -0.32,0.017 -0.068,-0.053 0.112,0.092 0.04,0.059 0.069,0.387 -0.067,-0.13 -0.478,-0.01 -0.177,0.471 -0.22,0.987 -0.515,1.338 0,-0.03 0.181,0.035 0.171,0.08 -0.377,-0.115 0.046,0.181 -0.125,0.193 -0.068,-0.035 -0.083,-0.077 -0.114,-0.114 -0.217,0.14 -0.048,0.38 -0.278,0.51 0.107,0.221 -0.257,0.357 -0.085,0.529 -0.155,-0.059 -0.132,0.064 -0.214,0.09 0.445,0.208 -0.216,0.351 0.071,0.565 l -0.085,-0.01 c 0.034,0.516 -0.108,1.118 0.25,1.612 0.105,0.276 -0.236,0.751 0.113,1.008 0.085,0.036 0.158,-0.047 0.22,-0.02 0.022,0.088 -0.135,0.056 -0.174,0.11 0.237,0.079 0.109,0.382 0.213,0.578 0.08,-0.018 0.129,0.021 0.218,-0.05 -0.146,0.371 0.39,0.408 0.334,0.742 0.282,-0.33 0.246,-0.018 0.38,-0.027 0.018,0.045 -0.058,0.12 -0.126,0.161 0.165,0.097 0.236,0.152 0.309,0.39 0.103,0.039 0.271,-0.113 0.311,0.014 -0.13,0.27 0.166,0.184 0.207,0.322 0.124,-0.216 0.351,-0.301 0.381,-0.153 l -0.219,0.271 c 0.409,0.017 0.715,0.638 1.276,0.342 l -0.032,0.203 c 0.46,-0.052 0.861,0.204 1.286,-0.137 0.102,0.129 0.271,0.192 0.385,0.177 0.137,-0.192 0.187,-0.177 0.251,-0.463 0.048,-0.024 0.096,0.134 0.123,0.201 0.18,0.036 0.419,0.308 0.482,-0.062 l 0.046,0.171 c 0.102,-0.22 0.221,-0.477 0.43,-0.339 -0.005,-0.16 0.109,-0.263 -0.021,-0.427 0.038,-0.054 0.14,0.26 0.13,0.068 l 0.033,0.256 c 0.353,-0.064 0.546,-0.354 0.762,-0.608 0.25,0.214 0.231,-0.214 0.469,-0.187 -0.016,-0.196 0.277,-0.138 0.097,-0.464 l 0.114,0.124 c 0.136,-0.065 0.25,-0.215 0.437,-0.301 0.11,-0.052 -0.077,-0.223 -0.098,-0.343 l 0.139,0.106 c -0.022,-0.124 -0.175,-0.288 -0.291,-0.418 0.011,-0.014 0.022,-0.028 0.032,-0.04 0.033,-0.012 0.009,-0.054 0.112,-0.037 m 0.038,-0.171 c 0.005,0.032 0,0.055 -0.038,0.055 0.011,-0.019 0.029,-0.038 0.038,-0.055"
     inkscape:connector-curvature="0"
     style="fill:#f39800" /><path
     id="path186"
     d="m 162.47,156.611 c -0.13,-0.043 -0.234,-0.021 -0.364,-0.155 0.111,0.056 0.266,0.091 0.364,0.155"
     inkscape:connector-curvature="0"
     style="fill:#f39800" /><path
     id="path188"
     d="m 160.334,157.083 c 0.03,0.031 -0.056,-0.031 -0.068,-0.046 0.011,-0.018 -0.057,-0.118 0.003,-0.071 -0.009,0.02 0.035,0.065 0.065,0.117"
     inkscape:connector-curvature="0"
     style="fill:#f39800" /><path
     id="path190"
     d="m 160.006,157.244 c -0.063,-0.104 -0.065,-0.231 -0.041,-0.271"
     inkscape:connector-curvature="0"
     style="fill:#f39800" /><path
     id="path192"
     d="m 159.481,156.966 c -0.068,-0.082 -0.093,-0.136 -0.063,-0.149 0.036,0.058 0.041,0.093 0.063,0.149"
     inkscape:connector-curvature="0"
     style="fill:#f39800" /><path
     id="path194"
     d="m 159.6,157.223 c -0.024,0.013 -0.07,-0.041 -0.111,-0.103 0.049,0.096 0.019,-0.085 0.111,0.103"
     inkscape:connector-curvature="0"
     style="fill:#f39800" /><path
     id="path196"
     d="m 158.905,157.128 c -0.013,0.014 -0.016,0.125 -0.062,-0.004 0.04,0.09 0.018,-0.173 0.062,0.004"
     inkscape:connector-curvature="0"
     style="fill:#f39800" /><path
     id="path198"
     d="m 158.687,157.386 c -0.014,-0.007 -0.016,-0.032 -0.021,0.004 -0.028,-0.054 -0.022,-0.144 -0.014,-0.158"
     inkscape:connector-curvature="0"
     style="fill:#f39800" /><polyline
     id="polyline200"
     points="155.542,153.958 155.596,154.006 155.481,153.975 "
     style="fill:#f39800" /><path
     id="path202"
     d="m 157.045,151.677 c -0.011,-0.088 0.089,0.08 0.102,0.089 -0.016,0.036 -0.077,-0.133 -0.102,-0.089"
     inkscape:connector-curvature="0"
     style="fill:#f39800" /><polyline
     id="polyline204"
     points="158.274,150.514 158.263,150.516 158.228,150.262 "
     style="fill:#f39800" /><path
     id="path206"
     d="m 180.771,189.667 c 0.474,-1.488 -0.431,0.734 0.268,-0.987 0,0.223 -0.046,0.529 -0.268,0.987"
     inkscape:connector-curvature="0"
     style="fill:#df0615" /><path
     id="path208"
     d="m 255.231,144.846 1.854,0.062 -1.75,-0.071 2.781,0.056 c 0,0 -0.39,1.02 -0.502,0.837 v 0.011 l -0.006,0.011 c -0.019,0.072 -0.01,0.104 0.036,0.067 l 0.041,-0.049 0.002,-0.005"
     inkscape:connector-curvature="0"
     style="fill:#df0615" /><path
     id="path210"
     d="m 181.44,190.003 c -0.212,0.28 -0.626,1.29 -0.466,0.424 0.125,-0.068 0.412,-0.563 0.466,-0.424"
     inkscape:connector-curvature="0"
     style="fill:#df0615" /><path
     id="path212"
     d="m 190.86,205.23 c 0.03,0.023 0.07,0.406 0.078,0.5 -0.105,-0.342 -0.28,-0.637 -0.311,-0.932 0.108,0.352 0.144,0.282 0.233,0.432"
     inkscape:connector-curvature="0"
     style="fill:#df0615" /><path
     id="path214"
     d="m 192.828,212.404 c -0.117,-0.081 -0.622,-1.597 -0.889,-2.495"
     inkscape:connector-curvature="0"
     style="fill:#df0615" /><path
     id="path216"
     d="m 199.382,211.963 c 0.563,-0.194 0.434,-0.087 -0.278,0.269 -0.076,-0.017 0.155,-0.156 0.278,-0.269"
     inkscape:connector-curvature="0"
     style="fill:#df0615" /><path
     id="path218"
     d="m 199.727,211.558 c 0.498,-0.255 0.779,-0.334 1.05,-0.412 -0.054,-0.062 -1.155,0.633 -1.05,0.412"
     inkscape:connector-curvature="0"
     style="fill:#df0615" /><path
     id="path220"
     d="m 211.749,208.292 c 0.303,0.193 0.99,0.555 1.213,0.824 -0.275,-0.266 -1.516,-0.861 -1.213,-0.824"
     inkscape:connector-curvature="0"
     style="fill:#df0615" /><path
     id="path222"
     d="m 217.578,212 c 0.185,0.133 0.252,0.195 0.483,0.316 0.317,0.265 -0.076,0.08 -0.371,-0.108"
     inkscape:connector-curvature="0"
     style="fill:#df0615" /><polyline
     id="polyline224"
     points="242.301,144.609 243.043,144.577 242.936,144.664 "
     style="fill:#df0615" /><path
     id="path226"
     d="m 205.4,129.16 c -0.411,0.635 -0.386,0.362 -0.468,0.455 0.4,-0.546 -0.063,0.268 0.468,-0.455"
     inkscape:connector-curvature="0"
     style="fill:#df0615" /><polyline
     id="polyline228"
     points="205.676,140.6 205.724,140.115 205.796,140.963 "
     style="fill:#df0615" /><polyline
     id="polyline230"
     points="222.324,124.776 222.327,124.844 222.481,124.761 " /><path
     id="path232"
     d="m 222.991,124.808 0.026,-0.097 -0.509,0.181 c 0.009,0.285 0.477,-0.273 0.483,-0.084"
     inkscape:connector-curvature="0" /><path
     id="path234"
     d="m 223.055,124.901 c 0.06,0.154 0.205,0.017 0.269,-0.025 -0.121,0.106 -0.181,-0.177 -0.269,0.025"
     inkscape:connector-curvature="0" /><line
     id="line236"
     y2="130.397"
     x2="233.67"
     y1="130.405"
     x1="233.71201" /><path
     id="path238"
     d="m 253.692,142.231 c -0.185,-0.157 -0.771,-0.673 -1.009,-0.788 -0.85,-0.716 -1.775,-1.181 -2.668,-1.842 -0.475,-0.35 -0.868,-0.469 -1.364,-0.777 l 0.047,-0.113 c -1.067,-0.153 -3.433,-2.212 -4.554,-2.354 l 0.141,-0.095 c -0.251,0.12 -0.475,-0.374 -0.636,-0.05 l -0.043,-0.023 -0.062,-0.15 c -0.068,0.005 -0.131,0.005 -0.191,0 l -0.715,-0.428 c -0.249,-0.258 -0.489,-0.556 -0.95,-0.635 l 0.097,-0.056 c -0.238,-0.057 -0.498,-0.148 -0.587,-0.316 0.024,0 0.028,-0.032 0.089,-0.023 -0.396,-0.726 -1.302,-0.783 -1.929,-1.2 l 0.171,-0.112 c -0.422,-0.011 -0.887,-0.545 -1.349,-0.719 l 0.075,-0.062 -0.271,-0.022 0.088,-0.153 c -0.522,-0.349 -1.103,-0.536 -1.626,-0.846 l 0.11,-0.119 c -0.626,-0.063 -1.02,-0.648 -1.592,-0.871 l 0.063,-0.029 c -1.248,-0.868 -2.576,-1.398 -3.92,-2.109 l 0.09,-0.039 c -0.087,0.004 -0.213,0.047 -0.274,-0.005 0,-0.043 0.06,-0.053 0.088,-0.053 -0.128,-0.395 -0.879,-0.361 -0.944,-0.64 -0.091,-0.027 -0.181,0.045 -0.186,0.149 -1.035,-0.583 -2.126,-1.22 -3.251,-1.695 -0.032,-0.06 -0.004,-0.128 0.054,-0.2 -0.199,-0.034 -0.423,-0.061 -0.647,-0.091 l -6.706,-3.983 0.135,0.205 -0.011,-0.004 c -0.064,-0.09 -0.094,-0.125 -0.076,-0.077 l 0.028,0.049 -0.424,-0.252 c -0.054,-0.063 -0.093,-0.088 -0.121,-0.072 0.028,0.054 0.067,0.116 0.112,0.188 l 0.597,0.996 0.18,0.489 c 0.269,0.013 0.097,0.23 0.129,0.347 l -0.072,0.095 c -0.149,0.175 0.544,0.075 0.178,0.192 0.13,0.164 0.518,0.629 0.967,1.194 l 0.631,1.052 c -0.018,0.017 -0.037,0.037 -0.06,0.057 0,0.099 0.066,0.072 0.133,0.054 l 0.061,0.104 c -0.052,0.048 -0.146,0.048 -0.05,0.173 l 0.123,-0.041 c -0.066,0.089 -0.013,0.12 0.082,0.133 l 5.725,9.579 c 0.004,0.035 0.013,0.068 0.013,0.102 0.025,0.026 0.065,0.048 0.095,0.074 l 3.073,5.145 0.101,0.005 0.064,0.222 0.294,0.066 1.004,-0.029 -0.026,0.022 c 0.195,-0.147 0.824,-0.042 1.033,-0.224 l 1.355,0.033 c -0.01,0.027 -0.028,0.051 -0.058,0.058 0.73,0.042 1.47,0.028 2.206,-0.007 l 10.576,0.258 c 1.143,0.197 2.311,0.444 2.956,0.502 0.876,-0.389 1.828,-0.11 2.752,-0.254 l 0.001,0.022 0.102,-0.04 c 0.047,-0.008 0.088,-0.017 0.129,-0.026 l -0.082,0.066 m -27.104,-16.448 -0.011,-0.01 c 0,0 0.006,0.005 0.011,0.005 v 0.005 z m 27.391,16.323 -0.007,0.095 c -0.023,-0.027 -0.044,-0.048 -0.071,-0.073 0.028,-0.014 0.055,-0.014 0.078,-0.022"
     inkscape:connector-curvature="0" /><path
     id="path240"
     d="m 231.2,128.242 0.005,0.009 c 0.025,-0.002 0.013,-0.006 -0.005,-0.009"
     inkscape:connector-curvature="0" /><path
     id="path242"
     d="m 219.932,123.401 -0.01,-0.084 c -0.029,0.021 0.003,0.057 0.01,0.084"
     inkscape:connector-curvature="0" /><polyline
     id="polyline244"
     points="256.473,157.455 256.426,157.489 256.569,157.56 " /><path
     id="path246"
     d="m 256.809,157.955 0.092,-0.032 -0.411,-0.28 c -0.219,0.142 0.464,0.213 0.319,0.312"
     inkscape:connector-curvature="0" /><path
     id="path248"
     d="m 256.774,158.041 c -0.082,0.124 0.104,0.161 0.172,0.186 -0.149,-0.032 0.03,-0.22 -0.172,-0.186"
     inkscape:connector-curvature="0" /><path
     id="path250"
     d="m 260.385,184.974 c 0.008,-0.515 -0.117,-0.86 -0.156,-1.372 l 0.113,-0.017 c -0.465,-0.852 -0.188,-3.581 -0.697,-4.465 l 0.15,0.056 c -0.225,-0.127 0.033,-0.526 -0.311,-0.485 v -0.041 l 0.084,-0.123 c -0.043,-0.048 -0.078,-0.09 -0.104,-0.135 l -0.072,-0.732 c 0.072,-0.302 0.162,-0.627 -0.035,-1.005 l 0.1,0.043 c -0.082,-0.198 -0.154,-0.423 -0.076,-0.581 0.012,0.023 0.043,0.01 0.068,0.058 0.328,-0.645 -0.115,-1.328 -0.143,-1.995 l 0.178,0.07 c -0.221,-0.311 -0.068,-0.909 -0.182,-1.326 l 0.078,0.021 -0.129,-0.207 0.164,-0.012 c -0.023,-0.551 -0.193,-1.06 -0.24,-1.599 l 0.148,0.026 c -0.293,-0.489 -0.053,-1.064 -0.205,-1.585 l 0.061,0.033 c -0.025,-1.34 -0.344,-2.563 -0.533,-3.884 l 0.078,0.043 c -0.051,-0.06 -0.152,-0.125 -0.143,-0.203 0.031,-0.016 0.064,0.02 0.086,0.041 0.227,-0.292 -0.204,-0.815 -0.025,-1.002 -0.033,-0.074 -0.135,-0.103 -0.211,-0.054 -0.119,-1.037 -0.234,-2.149 -0.486,-3.199 0.032,-0.051 0.091,-0.068 0.184,-0.054 -0.085,-0.166 -0.184,-0.34 -0.283,-0.519 l -0.631,-6.823 -0.079,0.191 v -0.004 c 0.033,-0.092 0.048,-0.129 0.017,-0.095 l -0.023,0.046 -0.041,-0.43 c 0.02,-0.072 0.02,-0.117 -0.006,-0.119 -0.029,0.043 -0.055,0.102 -0.081,0.169 l -0.433,0.919 -0.27,0.373 c 0.133,0.197 -0.124,0.186 -0.193,0.265 h -0.111 c -0.213,-0.025 0.239,0.427 -0.051,0.216 -0.053,0.176 -0.201,0.684 -0.377,1.295 l -0.455,0.976 c -0.027,-0.004 -0.051,-0.011 -0.081,-0.022 -0.069,0.054 -0.015,0.09 0.03,0.125 l -0.045,0.093 c -0.068,-0.009 -0.111,-0.082 -0.153,0.052 l 0.099,0.073 c -0.105,-0.008 -0.1,0.049 -0.057,0.124 l -4.15,8.87 c -0.023,0.023 -0.05,0.042 -0.073,0.059 0.001,0.032 0.001,0.071 -0.007,0.102 l -2.226,4.766 0.054,0.07 -0.133,0.156 0.109,0.245 0.563,0.72 -0.028,-0.009 c 0.219,0.071 0.479,0.578 0.735,0.638 l 0.709,1 c -0.03,0.004 -0.053,0.004 -0.078,-0.012 0.365,0.549 0.779,1.077 1.205,1.594 l 5.545,7.796 c 0.47,0.927 0.918,1.901 1.223,2.388 0.773,0.449 1.076,1.278 1.688,1.877 l -0.012,0.016 0.084,0.052 c 0.027,0.026 0.057,0.053 0.086,0.08 l -0.091,-0.034 0.276,0.366 c 0.021,-0.206 0.094,-0.89 0.051,-1.111 0.081,-0.974 -0.072,-1.878 -0.05,-2.849 m -2.534,-24.156 -0.005,-0.017 c 0.005,0.006 0.005,0.007 0.008,0.011 -0.003,0 -0.003,0.003 -0.003,0.006 m 2.43,27.947 c 0.004,-0.033 0.014,-0.059 0.02,-0.085 0.016,0.011 0.041,0.026 0.056,0.041 l -0.076,0.044 z m -1.613,-23.167 -0.004,0.005 c 0.016,0.017 0.01,0.009 0.004,-0.005"
     inkscape:connector-curvature="0" /><path
     id="path252"
     d="m 256.213,155.039 0.064,-0.047 c -0.033,-0.01 -0.043,0.03 -0.064,0.047"
     inkscape:connector-curvature="0" /><line
     id="line254"
     y2="205.459"
     x2="243.257"
     y1="205.48399"
     x1="243.239" /><path
     id="path256"
     d="m 251.965,197.557 -0.801,0.159 -0.366,-0.005 c -0.063,0.18 -0.179,0.012 -0.262,0 l -0.05,-0.072 c -0.081,-0.154 -0.16,0.356 -0.16,0.072 -0.132,0.048 -0.529,0.193 -0.996,0.364 l -0.837,0.162 c -0.004,-0.012 -0.015,-0.033 -0.02,-0.056 -0.068,-0.028 -0.066,0.033 -0.068,0.079 l -0.078,0.009 c -0.026,-0.044 0,-0.106 -0.106,-0.069 v 0.098 c -0.043,-0.073 -0.078,-0.046 -0.104,0.015 l -7.584,1.492 c -0.021,-0.001 -0.044,-0.008 -0.071,-0.02 -0.016,0.019 -0.04,0.034 -0.062,0.046 l -4.071,0.804 -0.021,0.07 -0.162,-0.013 -0.104,0.187 -0.188,0.71 -0.012,-0.022 c 0.06,0.176 -0.139,0.584 -0.06,0.783 l -0.297,0.939 c -0.016,-0.017 -0.03,-0.034 -0.03,-0.058 -0.168,0.496 -0.306,1.002 -0.433,1.52 l -2.33,7.361 c -0.367,0.746 -0.773,1.502 -0.94,1.936 0.08,0.716 -0.299,1.311 -0.392,1.992 l -0.015,-0.002 0.008,0.082 c -0.006,0.033 -0.008,0.065 -0.014,0.096 l -0.019,-0.077 -0.104,0.351 c 0.144,-0.085 0.609,-0.358 0.733,-0.492 0.649,-0.407 1.151,-0.938 1.777,-1.38 0.331,-0.246 0.49,-0.484 0.803,-0.756 l 0.06,0.062 c 0.319,-0.708 2.18,-1.818 2.504,-2.568 l 0.036,0.122 c -0.028,-0.211 0.352,-0.229 0.159,-0.43 l 0.026,-0.026 h 0.11 c 0.016,-0.051 0.027,-0.091 0.04,-0.132 l 0.434,-0.392 c 0.226,-0.103 0.474,-0.197 0.623,-0.503 l 0.013,0.088 c 0.084,-0.154 0.203,-0.309 0.331,-0.324 -0.006,0.015 0.014,0.028 0,0.066 0.562,-0.09 0.788,-0.703 1.199,-1.035 l 0.035,0.146 c 0.093,-0.29 0.539,-0.476 0.756,-0.751 l 0.022,0.066 0.074,-0.182 0.084,0.098 c 0.342,-0.275 0.581,-0.625 0.893,-0.91 l 0.062,0.103 c 0.17,-0.418 0.646,-0.538 0.908,-0.884 l 0.005,0.054 c 0.839,-0.65 1.462,-1.437 2.213,-2.192 l 0.007,0.076 c 0.011,-0.069 0.01,-0.165 0.058,-0.192 0.028,0.009 0.023,0.054 0.02,0.072 0.29,0.012 0.418,-0.519 0.618,-0.489 0.037,-0.058 0.009,-0.136 -0.056,-0.164 0.595,-0.579 1.245,-1.173 1.793,-1.835 0.045,-0.01 0.085,0.031 0.119,0.087 0.065,-0.129 0.131,-0.275 0.197,-0.429 l 4.027,-3.647 -0.157,0.033 v -0.002 c 0.067,-0.015 0.103,-0.027 0.067,-0.031 l -0.038,0.01 0.256,-0.238 c 0.049,-0.017 0.078,-0.035 0.066,-0.057 -0.032,0 -0.083,0.009 -0.128,0.025 m -20.625,18.817 -0.062,-0.03 c 0.021,-0.009 0.043,-0.016 0.062,-0.027 v 0.057 z m 16.508,-14.881 c -0.002,-0.005 -0.002,0 -0.002,-0.005 l 0.005,-0.007 c 0,0.004 -0.003,0.007 -0.003,0.012"
     inkscape:connector-curvature="0" /><path
     id="path258"
     d="m 245.2,204.294 h -0.008 c -0.003,0.02 0,0.012 0.008,0"
     inkscape:connector-curvature="0" /><path
     id="path260"
     d="m 250.731,197.679 0.066,0.019 c -0.011,-0.027 -0.043,-0.014 -0.066,-0.019"
     inkscape:connector-curvature="0" /><polyline
     id="polyline262"
     points="218.735,217.401 218.714,217.367 218.651,217.452 " /><path
     id="path264"
     d="m 218.356,217.567 0.006,0.063 0.243,-0.239 c -0.076,-0.16 -0.203,0.28 -0.249,0.176"
     inkscape:connector-curvature="0" /><path
     id="path266"
     d="m 218.293,217.531 c -0.066,-0.073 -0.116,0.048 -0.14,0.087 0.041,-0.092 0.148,0.045 0.14,-0.087"
     inkscape:connector-curvature="0" /><line
     id="line268"
     y2="217.30499"
     x2="210.989"
     y1="217.30901"
     x1="210.966" /><path
     id="path270"
     d="m 221.35,218.287 c -0.021,-0.023 -0.059,-0.045 -0.098,-0.071 l -0.59,-0.402 -0.226,-0.227 c -0.151,0.063 -0.112,-0.101 -0.155,-0.159 l 0.007,-0.075 c 0.041,-0.138 -0.321,0.105 -0.144,-0.057 -0.113,-0.058 -0.448,-0.216 -0.842,-0.409 l -0.621,-0.421 c 0.007,-0.013 0.015,-0.027 0.026,-0.051 -0.031,-0.05 -0.068,-0.019 -0.089,0.008 l -0.059,-0.041 c 0.01,-0.042 0.068,-0.064 -0.023,-0.114 l -0.059,0.06 c 0.019,-0.067 -0.017,-0.071 -0.075,-0.051 l -5.624,-3.83 c -0.008,-0.024 -0.026,-0.042 -0.032,-0.059 -0.027,0 -0.048,-0.009 -0.075,-0.012 l -3.012,-2.058 -0.059,0.026 -0.093,-0.108 -0.176,0.039 -0.555,0.286 0.007,-0.018 c -0.072,0.133 -0.446,0.246 -0.517,0.404 l -0.764,0.347 c -0.002,-0.031 0.008,-0.052 0.042,-0.056 -0.42,0.172 -0.827,0.375 -1.235,0.595 l -5.97,2.71 c -0.682,0.197 -1.403,0.371 -1.776,0.509 -0.387,0.455 -0.988,0.556 -1.467,0.884 l -0.008,-0.011 -0.045,0.053 c -0.023,0.017 -0.045,0.035 -0.062,0.048 l 0.027,-0.06 -0.28,0.138 c 0.142,0.038 0.604,0.173 0.759,0.173 0.656,0.172 1.295,0.185 1.957,0.322 0.353,0.063 0.599,0.022 0.956,0.063 v 0.075 c 0.636,-0.2 2.474,0.318 3.138,0.093 l -0.058,0.089 c 0.117,-0.138 0.378,0.102 0.372,-0.162 l 0.1,0.089 c 0.471,-0.289 0.756,0.258 1.308,0.098 l -0.046,0.053 c 0.148,-0.029 0.312,-0.045 0.409,0.024 -0.017,0.006 -0.009,0.027 -0.046,0.039 0.404,0.298 0.92,0.09 1.379,0.152 l -0.068,0.11 c 0.244,-0.11 0.64,0.07 0.934,0.039 l -0.029,0.054 0.161,-0.057 -0.008,0.106 c 0.379,0.054 0.745,0.005 1.121,0.036 l -0.032,0.098 c 0.364,-0.134 0.732,0.094 1.108,0.064 l -0.029,0.03 c 0.92,0.148 1.787,0.088 2.718,0.127 l -0.039,0.048 c 0.049,-0.027 0.108,-0.087 0.157,-0.073 0.011,0.025 -0.024,0.046 -0.041,0.054 0.175,0.186 0.584,-0.034 0.693,0.107 0.057,-0.015 0.087,-0.076 0.064,-0.131 0.721,0.043 1.496,0.106 2.243,0.072 0.031,0.027 0.035,0.07 0.013,0.124 0.173,-0.05 0.359,-0.11 0.551,-0.172 -0.06,0.008 -0.129,0.027 -0.192,0.052 -0.017,-0.05 -0.051,-0.072 -0.1,-0.085 l 0.292,0.033 h 0.008 l 0.662,0.057 c -0.003,0.013 -0.003,0.035 0.016,0.061 0.033,0.022 0.064,0 0.091,-0.052 l 3.685,0.333 c 0.061,0.034 0.086,0.05 0.063,0.025 l -0.027,-0.022 0.3,0.026 c 0.047,0.022 0.075,0.022 0.079,0.011 m -24.472,-2.172 -0.015,-0.055 c 0.015,0.008 0.033,0.014 0.048,0.018 -0.008,0.013 -0.018,0.022 -0.033,0.037 m 18.808,1.704 c -0.125,-0.021 -0.254,-0.051 -0.382,-0.083 l 0.415,0.04 c -0.012,0.011 -0.023,0.022 -0.033,0.043"
     inkscape:connector-curvature="0" /><path
     id="path272"
     d="m 212.909,217.848 -0.003,-0.009 c -0.008,0.011 -0.005,0.011 0.003,0.009"
     inkscape:connector-curvature="0" /><path
     id="path274"
     d="m 220.418,217.531 0.025,0.048 c 0.01,-0.026 -0.019,-0.035 -0.025,-0.048"
     inkscape:connector-curvature="0" /><path
     id="path276"
     d="m 189.164,208.27 -0.098,-0.39 -0.012,-0.197 c -0.093,0 -0.007,-0.088 -0.004,-0.133 l 0.039,-0.037 c 0.081,-0.07 -0.196,-0.031 -0.042,-0.076 -0.032,-0.061 -0.113,-0.248 -0.213,-0.465 l -0.109,-0.412 c 0.009,-0.003 0.022,-0.01 0.03,-0.017 0.009,-0.04 -0.021,-0.028 -0.041,-0.022 l -0.008,-0.042 c 0.019,-0.019 0.056,-0.019 0.036,-0.067 l -0.059,0.017 c 0.042,-0.039 0.027,-0.045 -0.004,-0.053 l -0.964,-3.73 c 0.003,-0.013 0.003,-0.028 0.011,-0.039 -0.011,-0.008 -0.021,-0.021 -0.022,-0.029 l -0.526,-2.007 h -0.034 l 0.005,-0.084 -0.105,-0.027 -0.377,0.012 0.006,-0.002 c -0.092,0.055 -0.322,0.017 -0.421,0.093 0,0 0.014,0.008 0.017,0.026 l -0.282,0.005 c -0.051,-0.018 -0.1,-0.036 -0.168,0 h -0.011 l 0.005,-0.023 -0.061,0.023 -0.024,0.007 c 0.016,-0.038 0.035,-0.079 0.066,-0.065 -0.287,-0.014 -0.522,0.022 -0.745,0.075 l -1.886,0.036 -0.074,-0.036 0.049,0.036 -1.902,0.038 c -0.282,-0.057 -0.555,-0.114 -0.723,-0.127 -0.384,0.157 -0.707,0.058 -1.076,0.115 l 0.004,-0.004 -0.052,0.016 c -0.017,0.006 -0.035,0.008 -0.051,0.013 l 0.049,-0.029 -0.191,0.004 c 0.05,0.057 0.204,0.254 0.277,0.299 0.231,0.279 0.521,0.458 0.775,0.713 0.137,0.138 0.268,0.179 0.424,0.299 l -0.037,0.044 c 0.389,0.054 0.445,0.618 0.856,0.663 l -0.068,0.04 c 0.116,-0.05 0.131,0.159 0.246,0.008 l 0.009,0.076 c 0.343,-0.041 0.24,0.35 0.563,0.405 l -0.04,0.025 c 0.084,0.024 0.165,0.057 0.178,0.12 -0.008,0 -0.013,0.014 -0.038,0.01 0.063,0.284 0.395,0.298 0.58,0.461 l -0.075,0.044 c 0.161,0.005 0.262,0.21 0.416,0.277 l -0.03,0.022 0.093,0.007 -0.052,0.061 c 0.154,0.136 0.349,0.203 0.506,0.327 l -0.056,0.044 c 0.23,0.023 0.306,0.249 0.49,0.332 l -0.027,0.015 c 0.366,0.332 0.802,0.532 1.214,0.803 l -0.033,0.017 c 0.029,-0.003 0.086,-0.019 0.102,0 -0.007,0.018 -0.031,0.018 -0.04,0.018 0,0.161 0.289,0.143 0.271,0.251 0.033,0.008 0.078,-0.021 0.09,-0.059 0.319,0.223 0.65,0.465 1.012,0.643 0.004,0.028 -0.008,0.055 -0.045,0.082 0.095,0.017 0.192,0.031 0.3,0.043 l 0.309,0.238 c 0,0.005 -0.008,0.01 -0.008,0.022 0.008,0.016 0.021,0.016 0.041,0.006 l 1.627,1.253 -0.027,-0.088 c 0.016,0.04 0.02,0.061 0.02,0.04 l -0.004,-0.026 0.138,0.106 c 0.007,0.019 0.02,0.029 0.028,0.022 0,-0.017 -0.008,-0.04 -0.017,-0.066 m -9.902,-7.555 0.018,-0.03 c 0.002,0.006 0.002,0.015 0.011,0.024 -0.009,0.003 -0.024,0.003 -0.029,0.006 m 5.476,4.273 0.006,-0.01 0.046,0.037 c -0.021,-0.012 -0.036,-0.02 -0.052,-0.027 m 1.996,1.554 c -0.027,-0.032 -0.061,-0.065 -0.091,-0.1 l 0.113,0.089 c -0.003,0.001 -0.016,0.003 -0.022,0.011 m 0.245,0.204 c 0.007,-0.012 0.007,-0.026 0.007,-0.04 l 0.058,0.045 c -0.022,0 -0.043,-0.005 -0.065,-0.005 m -1.55,-0.943 c -0.013,0 -0.001,0 0,0"
     inkscape:connector-curvature="0" /><path
     id="path278"
     d="m 189.074,207.647 -0.008,0.036 c 0.013,-0.014 0.005,-0.025 0.008,-0.036"
     inkscape:connector-curvature="0" /><path
     id="path280"
     d="m 191.02,206.417 c 0.091,0.436 0.082,0.855 0.324,1.383 0.023,0.287 -0.257,-0.363 -0.079,0.296 0.266,0.543 0.183,-0.403 -0.06,-1.466 -0.006,-0.022 -0.006,-0.044 -0.006,-0.057 -0.036,0.057 -0.084,0.049 -0.179,-0.156 -0.049,-0.236 -0.119,-0.472 -0.273,-0.732 0.12,0.361 0.206,0.591 0.273,0.732 m 0.179,0.156 c 0.012,-0.023 0.022,-0.052 0.038,-0.085 -0.026,-0.028 -0.038,-0.008 -0.038,0.085 m 17.798,0.509 c 0.097,-0.039 0.256,-0.123 0.526,-0.278 -0.233,0.111 -0.397,0.202 -0.526,0.278 m 13.535,8.409 c -0.045,-0.015 -0.097,-0.029 -0.125,-0.039 0.056,0.024 0.095,0.034 0.125,0.039 m -4.221,-2.809 c -0.051,-0.019 -0.107,-0.046 -0.173,-0.079 l 0.173,0.079 z m -10.538,-86.58 c 0.036,-0.062 0.077,-0.117 0.117,-0.174 -0.025,-0.032 -0.063,0.048 -0.117,0.174 m 12.569,4.263 c -0.017,-0.032 -0.041,-0.062 -0.058,-0.098 0.004,0.012 0.011,0.023 0.013,0.036 0.017,0.018 0.032,0.04 0.045,0.062 m 3.172,5.028 c -0.008,-0.022 -0.014,-0.043 -0.021,-0.072 0,0.015 0.007,0.043 0.021,0.072 m 34.984,56.454 -0.027,-0.042 -0.201,-0.294 c -0.247,-0.371 -0.385,-0.649 -0.264,-0.662 -0.267,-0.294 -0.525,-0.587 -0.274,-0.149 -0.503,-0.875 -2.138,-3.1 -3.272,-4.517 0.472,0.719 0.375,0.698 0.321,0.836 -0.321,-0.085 -0.211,-0.354 -0.742,-0.868 0.054,-0.061 -0.371,-0.772 0.197,-0.097 -1.222,-2.118 -3.401,-4.708 -5.157,-7.186 -0.393,-0.476 -0.309,-0.302 -0.528,-0.508 -0.976,-1.676 -2.548,-3.432 -3.704,-5.156 0.137,0.275 -0.067,0.213 -0.414,-0.116 -0.01,-0.195 -0.015,-0.391 -0.02,-0.589 0.075,-0.103 0.207,-0.381 0.426,-0.975 0.186,-0.545 0.637,-1.505 0.846,-1.905 l 0.015,0.048 c 0.228,-0.666 0.669,-1.669 1.112,-2.375 l -0.053,0.126 c 0.319,-0.598 0.771,-1.251 1.067,-1.891 -0.002,-0.359 0.86,-1.853 0.918,-2.295 0.052,-0.072 0.005,0.055 0.124,-0.098 l -0.098,-0.119 0.695,-1.22 c -0.089,0.3 -0.063,0.395 -0.213,0.762 0.76,-1.294 0.119,-0.51 0.401,-1.25 0.38,-0.99 0.476,-0.87 0.752,-1.295 -0.128,0.417 -0.372,0.67 -0.466,0.916 -0.172,0.583 0.322,-0.544 0.402,-0.526 0.104,-0.199 0,-0.37 0.371,-1.035 0.307,-0.59 0.965,-2.005 1.02,-1.767 0.182,-0.543 0.492,-1.134 0.626,-1.546 -0.264,0.465 -0.744,1.336 -0.884,1.398 0.203,-0.449 0.603,-1.342 0.728,-1.448 l -0.142,0.373 c 0.142,-0.373 0.823,-1.634 0.367,-1.031 l 0.631,-0.826 c 0.069,-0.398 0.531,-1.309 0.884,-2.073 0.157,0.035 0.008,0.723 0.739,-0.666 l 0.466,-1.28 c 0.304,-0.645 0.416,-0.793 0.45,-0.653 1.162,-2.138 0.789,-1.81 1.766,-3.457 -0.105,0.406 0.058,-0.159 0.171,-0.303 l 0.093,-0.136 0.059,-0.094 0.031,-0.048 0.007,-0.015 v -0.005 l 0.003,-0.003 -0.624,-0.28 0.014,-0.035 h -0.092 l -0.785,-0.351 c -0.313,-0.466 -0.22,-0.228 -0.166,-0.075 l -0.062,-0.027 c -0.004,-0.008 -0.008,-0.015 -0.014,-0.026 l -0.004,0.008 -0.002,0.01 -0.153,-0.072 c -1.669,-0.422 -5.566,-0.159 -8.281,-0.382 0.18,0.228 -1.216,0.05 -1.773,0.129 0.167,-0.235 -1.53,0.026 -2.269,-0.124 l 0.405,0.233 c -1.649,-0.155 -2.702,0.318 -3.727,0.03 -0.929,-0.082 0.317,-0.168 0.711,-0.198 -1.284,-0.27 -3.439,0.163 -4.458,-0.127 -0.111,0.093 0.27,0.249 -0.854,0.319 -0.899,-0.107 -2.685,-0.253 -2.514,-0.294 -0.748,0.04 -0.945,0.112 -1.754,0.019 0.079,-0.061 0.426,-0.061 0.684,-0.086 -0.557,-0.028 -0.744,0.118 -1.231,0.133 l -0.254,-0.066 -1.567,0.096 -1.117,-2.107 c -0.342,-0.57 -0.684,-1.154 -0.945,-1.654 -0.614,-0.608 -1.187,-2.123 -1.473,-2.071 0.042,0.015 -0.027,-0.162 -0.059,-0.253 -0.357,-0.436 -0.747,-0.727 -1.127,-1.329 l 0.271,0.101 c 0.262,0.017 -0.838,-1.516 -0.994,-1.915 0.109,0.414 -0.444,-0.76 -0.582,-0.733 l -0.48,-0.688 c -0.733,-1.113 -0.158,-0.083 -1.041,-1.475 -0.491,-0.795 0.02,-0.387 0.166,-0.098 -0.329,-0.72 -0.779,-1.367 -1.234,-2.034 0.152,0.249 0.193,0.335 0.012,0.12 0.009,-0.027 -0.012,-0.094 -0.057,-0.182 -0.168,-0.256 -0.343,-0.513 -0.501,-0.782 0.004,0.004 0.009,0.004 0.012,0.009 0.189,0.282 0.352,0.542 0.476,0.737 -0.094,-0.184 -0.26,-0.462 -0.432,-0.745 -0.004,-0.037 -0.056,-0.12 -0.14,-0.232 -0.132,-0.23 -0.257,-0.448 -0.313,-0.597 l 0.235,0.117 c -0.296,-0.498 -1.256,-1.769 -1.278,-1.692 -1.058,-1.977 -3.058,-5.077 -3.922,-6.357 0.166,0.222 0.217,0.216 0.028,-0.002 -0.215,-0.326 -0.457,-0.659 -0.645,-0.926 l -0.129,-0.188 -0.007,-0.002 c -0.523,-1.007 -0.434,-0.023 -0.786,-0.042 l -0.005,0.003 v 0.007 l -0.012,0.009 -0.012,0.02 -0.027,0.037 -0.047,0.071 c -0.069,0.08 -0.12,0.13 -0.143,0.13 -0.412,0.641 -0.504,0.495 -1.213,1.411 -0.031,0 -0.011,0.132 0.077,0.076 -1.313,1.434 -2.529,3.576 -4.024,5.336 0.107,-0.158 0.203,-0.422 0.284,-0.599 -1.032,1.473 -2.021,2.878 -2.861,4.273 0.05,-0.176 -0.027,-0.174 0.202,-0.536 -0.758,0.995 -1.601,2.176 -1.848,2.724 0.565,-0.635 -0.025,-0.094 0.324,-0.551 0.64,-0.632 -0.23,0.729 -0.753,1.363 h -0.039 c -0.749,1.001 -0.721,1.094 -1.477,2.089 -0.514,0.549 0.367,-0.545 0.113,-0.359 -0.352,0.094 -1.838,2.184 -2.011,2.37 -0.137,0.269 -0.364,0.629 -0.291,0.629 -0.542,0.82 -0.374,0.278 -0.774,0.826 l -1.216,2.258 -0.096,0.123 c -0.105,0.031 -0.606,0.507 -0.22,-0.112 -0.604,0.816 -1.023,1.501 -1.381,2.109 -0.099,0.121 -0.16,0.283 -0.233,0.426 l -0.197,0.252 -0.13,0.09 c 0.035,-0.008 0.07,-0.021 0.098,-0.044 l -0.079,0.108 c 0,0 0.005,-0.005 0.016,-0.009 0.011,-0.004 0.025,-0.012 0.046,-0.023 0,0 0,-0.001 0.003,-0.003 0.022,-0.009 0.046,-0.023 0.082,-0.037 0.127,-0.059 0.334,-0.158 0.607,-0.28 h 0.008 c 0.07,-0.032 0.14,-0.063 0.219,-0.097 h 0.005 c 0.319,-0.136 0.708,-0.298 1.161,-0.472 0.001,0 0.001,-0.001 0.001,-0.001 0.117,-0.044 0.233,-0.088 0.35,-0.131 0.009,0 0.011,-0.005 0.018,-0.005 0.124,-0.045 0.241,-0.088 0.37,-0.139 0.002,0 0.002,0 0.012,-0.001 0.257,-0.094 0.531,-0.188 0.821,-0.286 -0.412,0.195 0.539,0.044 -0.011,0.296 0.98,-0.433 3.447,-1.042 5.022,-1.307 -1.079,-0.057 1.752,-0.486 1.972,-0.699 0.358,-0.055 0.718,-0.105 1.088,-0.151 0.375,0.003 0.104,0.17 0.584,0.138 1.933,-0.313 3.794,-0.299 5.561,-0.257 0,0 0.025,0.032 -0.069,0.039 1.629,-0.047 4.235,0.354 5.868,0.541 -0.088,0.032 0.048,0.104 -0.366,0.05 0.912,0.255 0.948,0.155 1.104,0.119 0.364,0.093 0.726,0.191 1.098,0.299 l -0.372,-0.014 c 1.247,0.227 2.305,0.811 3.689,1.208 0.02,0.08 -0.277,-0.027 -0.479,-0.079 1.061,0.385 2.18,0.945 3.139,1.353 0.166,0.093 0.333,0.182 0.494,0.278 -0.036,0.037 -0.219,-0.033 -0.573,-0.163 0.923,0.611 1.234,0.575 1.906,0.975 0,0.004 0.004,0.004 0.006,0.004 0.121,0.082 0.25,0.163 0.373,0.244 0,0.002 0.007,0.009 0.011,0.009 0.52,0.347 1.03,0.71 1.539,1.098 0.013,0.009 0.026,0.012 0.034,0.027 0.249,0.181 0.491,0.377 0.734,0.57 0.022,0.015 0.036,0.034 0.057,0.047 0.246,0.199 0.494,0.408 0.74,0.617 0.113,0.174 0.442,0.489 0.88,1.02 2.382,2.24 4.52,4.856 6.266,7.659 1.418,2.846 2.495,5.865 3.304,8.912 0.044,0.173 0.083,0.35 0.122,0.528 v 0.002 c -0.012,0.899 -0.485,-1.535 -0.485,-0.828 0.177,-0.098 0.346,1.062 0.737,3.02 l -0.014,0.084 c 0.174,0.84 0.114,1.329 0.27,2.239 l 0.048,-0.041 c 0.06,0.224 0.084,0.516 0.103,0.842 -0.124,0.255 -0.088,0.337 0.006,0.337 0.024,1.055 -0.071,2.255 -0.071,2.255 0.224,0.96 -0.087,1.524 0.022,2.705 l -0.035,-0.136 c -0.206,1.573 -0.18,3.327 -0.482,3.894 -0.189,1.08 -0.507,2.258 -0.575,2.837 0,0 -0.008,0.005 -0.008,0.006 -0.048,0.14 -0.089,0.282 -0.138,0.426 v 0.002 c -0.051,-0.022 -0.057,-0.151 -0.056,-0.281 -1.038,3.549 -3.12,6.974 -5.415,9.805 -0.19,0.216 -0.377,0.43 -0.57,0.642 -0.043,0.046 -0.082,0.086 -0.115,0.128 -0.395,0.423 -0.805,0.845 -1.229,1.264 -0.051,0.043 -0.088,0.084 -0.131,0.128 -0.429,0.416 -0.879,0.826 -1.349,1.232 -0.048,0.047 -0.103,0.088 -0.149,0.131 -0.233,0.2 -0.47,0.403 -0.716,0.6 0,0 0,0.005 -0.003,0.005 -0.245,0.2 -0.496,0.401 -0.751,0.596 -0.056,0.043 -0.112,0.093 -0.168,0.132 -0.253,0.194 -0.513,0.388 -0.776,0.581 -0.002,0 -0.002,0.006 -0.004,0.006 -0.265,0.196 -0.539,0.389 -0.814,0.578 -0.064,0.045 -0.129,0.09 -0.189,0.133 -0.278,0.19 -0.555,0.379 -0.841,0.56 0,0.004 0,0.005 -0.007,0.008 -0.286,0.188 -0.577,0.372 -0.878,0.561 -0.074,0.037 -0.146,0.084 -0.214,0.131 -0.293,0.179 -0.594,0.359 -0.903,0.542 -0.007,0.001 -0.007,0.001 -0.009,0.003 -0.313,0.181 -0.629,0.363 -0.946,0.539 -0.078,0.041 -0.155,0.086 -0.239,0.13 -0.314,0.174 -0.646,0.346 -0.972,0.521 -0.004,0 -0.007,0.002 -0.011,0.002 -0.333,0.175 -0.674,0.347 -1.02,0.516 -0.082,0.043 -0.166,0.084 -0.255,0.128 -0.347,0.17 -0.696,0.339 -1.056,0.509 h -0.012 c -0.008,0.002 -0.015,0.006 -0.026,0.012 h -0.003 c -0.017,0.006 -0.028,0.014 -0.05,0.018 0,0.003 -0.005,0.003 -0.011,0.003 -0.017,0.01 -0.043,0.02 -0.066,0.033 h -0.002 c -0.026,0.011 -0.056,0.016 -0.086,0.03 -0.005,0 -0.012,0.006 -0.012,0.01 -0.031,0.008 -0.067,0.02 -0.109,0.033 -0.002,0 -0.006,0 -0.006,0.006 -0.041,0.01 -0.084,0.025 -0.127,0.043 h -0.002 c -0.049,0.019 -0.096,0.037 -0.151,0.057 h -0.01 c -0.103,0.039 -0.222,0.08 -0.352,0.121 -0.004,0 -0.004,0.006 -0.01,0.006 -0.129,0.042 -0.269,0.088 -0.422,0.133 0,0.002 -0.005,0.005 -0.012,0.005 -0.153,0.048 -0.316,0.097 -0.494,0.146 h -0.005 c -0.176,0.056 -0.37,0.107 -0.561,0.159 -0.002,0 -0.008,0.006 -0.012,0.006 -0.195,0.054 -0.403,0.103 -0.623,0.158 h -0.007 c -0.225,0.057 -0.452,0.109 -0.691,0.166 -0.364,0.08 -0.74,0.158 -1.145,0.231 0,0 -0.01,0.004 -0.012,0.004 -0.264,0.05 -0.539,0.098 -0.815,0.144 h -0.023 c -0.275,0.042 -0.566,0.089 -0.857,0.127 -0.012,0 -0.02,0.004 -0.03,0.004 -0.289,0.041 -0.592,0.077 -0.897,0.107 h -0.034 c -0.307,0.035 -0.622,0.061 -0.934,0.087 -0.016,0 -0.031,0.003 -0.042,0.005 -0.168,0.009 -0.323,0.019 -0.487,0.031 -1.258,0.032 -2.516,0.005 -3.75,-0.076 l -0.024,-0.012 c -0.004,0 -0.007,0.009 -0.013,0.009 -1.878,-0.124 -3.7,-0.372 -5.35,-0.716 -0.506,-0.119 -1.018,-0.264 -1.536,-0.417 0,0 -0.007,-0.005 -0.009,-0.005 -0.172,-0.047 -0.34,-0.101 -0.51,-0.158 h -0.002 c -0.515,-0.165 -1.033,-0.349 -1.556,-0.553 -0.004,-0.003 -0.011,-0.004 -0.011,-0.008 -0.176,-0.065 -0.347,-0.133 -0.517,-0.209 -0.013,-0.043 -0.033,-0.093 -0.252,-0.175 -0.414,-0.144 -0.822,-0.303 -1.23,-0.482 v -0.001 c -0.438,-0.207 -0.873,-0.428 -1.306,-0.664 -0.011,-0.011 -0.027,-0.019 -0.041,-0.021 -0.424,-0.239 -0.847,-0.479 -1.277,-0.739 -0.012,-0.008 -0.029,-0.021 -0.041,-0.032 -0.431,-0.261 -0.853,-0.533 -1.27,-0.825 -0.017,-0.011 -0.033,-0.021 -0.047,-0.031 -0.208,-0.144 -0.418,-0.289 -0.626,-0.444 -0.011,-0.011 -0.029,-0.02 -0.046,-0.032 -0.202,-0.153 -0.413,-0.304 -0.621,-0.467 -0.003,0 -0.003,0 -0.007,-0.004 -1.184,-0.931 -2.305,-1.941 -3.349,-2.962 -0.153,-0.158 -0.308,-0.312 -0.462,-0.473 -0.048,-0.047 -0.092,-0.103 -0.136,-0.144 -0.111,-0.116 -0.222,-0.236 -0.327,-0.356 -0.054,-0.054 -0.106,-0.112 -0.158,-0.167 -0.105,-0.118 -0.219,-0.241 -0.325,-0.369 -0.043,-0.045 -0.088,-0.1 -0.137,-0.148 -0.299,-0.346 -0.605,-0.702 -0.9,-1.073 -0.051,-0.052 -0.098,-0.112 -0.141,-0.17 -0.105,-0.131 -0.208,-0.264 -0.316,-0.397 -0.049,-0.062 -0.099,-0.129 -0.154,-0.197 -0.101,-0.131 -0.204,-0.271 -0.31,-0.404 -0.045,-0.059 -0.086,-0.119 -0.138,-0.181 -0.144,-0.195 -0.293,-0.395 -0.436,-0.596 -0.003,-0.004 -0.005,-0.007 -0.005,-0.009 -0.146,-0.2 -0.29,-0.402 -0.431,-0.607 -0.043,-0.062 -0.09,-0.128 -0.135,-0.197 -0.1,-0.146 -0.199,-0.297 -0.302,-0.437 -0.051,-0.076 -0.101,-0.153 -0.148,-0.227 -0.103,-0.158 -0.203,-0.308 -0.301,-0.463 -0.043,-0.066 -0.089,-0.134 -0.132,-0.205 -0.139,-0.22 -0.277,-0.444 -0.421,-0.67 l -0.002,-0.004 c -0.138,-0.226 -0.279,-0.454 -0.414,-0.685 -0.044,-0.075 -0.087,-0.146 -0.131,-0.222 -0.097,-0.164 -0.194,-0.328 -0.284,-0.492 -0.048,-0.09 -0.103,-0.173 -0.146,-0.259 -0.093,-0.163 -0.192,-0.337 -0.284,-0.51 -0.044,-0.071 -0.09,-0.15 -0.13,-0.231 -0.133,-0.245 -0.269,-0.498 -0.402,-0.751 l -1.356,6.053 0.07,-0.303 c -0.157,0.555 -0.445,1.137 -0.471,0.883 l -0.304,1.105 -0.108,-0.097 c -0.292,0.908 -0.292,1.764 -0.575,2.533 -0.142,0.38 -0.284,1.252 -0.422,1.659 v 0.236 c -0.084,0.245 -0.054,0.099 -0.178,0.427 l 0.458,-0.081 0.175,-0.036 0.59,0.073 c -0.489,-0.131 -0.682,-0.007 -0.817,-0.236 l 0.194,-0.036 c -0.013,0.068 0.012,0.05 0.044,-0.005 l 0.181,-0.032 c 0.448,0 1.219,0.224 1.685,0.113 l 0.843,-0.28 c 0.089,0 0.178,0 0.262,0.008 -0.498,0.135 -0.127,0.147 -0.1,0.219 0.253,-0.067 0.531,-0.169 0.851,-0.195 l -0.374,0.248 c 0.651,-0.35 2.178,-0.104 2.648,-0.231 l -0.154,0.071 c 1.688,-0.178 -0.959,0.243 0.171,0.052 0.97,-0.119 0.851,-0.172 1.752,-0.216 0.794,-0.132 1.032,0.261 2.116,0.057 l 0.098,0.339 0.243,0.861 c 0.152,0.565 0.283,1.106 0.367,1.589 0.467,1.488 1.021,3.123 1.507,4.447 0.377,1.338 -0.257,-0.008 0.233,1.318 -0.123,-0.123 -0.155,0.091 -0.191,0.237 0.138,0.178 0.693,2.509 0.59,1.385 0.259,0.981 0.542,2.026 0.833,3.079 l 0.446,1.582 0.229,0.781 0.011,0.039 0.015,0.174 0.041,0.159 c 0,0.125 0.061,0.275 0.096,0.392 l -0.008,0.055 v 0.012 l 0.09,0.39 c 0.473,-0.262 0.148,-0.08 0.658,-0.402 l 0.039,-0.033 -0.004,0.004 0.016,-0.013 0.079,-0.062 0.011,-0.004 0.058,-0.027 c 0.811,-0.574 2.298,-1.418 3.901,-2.175 -0.099,-0.126 -0.615,0.132 -0.514,-0.091 0.222,-0.141 0.575,-0.389 0.976,-0.576 0.302,0.03 0.339,0.289 1.758,-0.419 -0.262,0.426 -2.424,1.185 -1.672,1.089 -0.536,0.498 -3.091,1.795 -3.726,1.971 -1.161,0.829 1.006,-0.469 0.858,-0.163 1.137,-0.585 1.62,-0.953 3.373,-1.869 -0.029,-0.113 -0.631,0.176 0.142,-0.312 1.473,-0.996 2.03,-0.837 2.435,-1.03 -0.217,0.141 -0.534,0.306 -0.752,0.444 1.072,-0.45 1.375,-0.77 2.476,-1.312 0.438,0.113 -1.738,0.912 -2.068,1.276 l 0.885,-0.208 c 1.711,-0.824 0.357,-0.449 2.142,-1.26 l -0.168,0.203 1.067,-0.605 c -0.033,-0.108 -0.335,-0.137 -1.264,0.35 0.491,-0.56 0.843,-0.469 2.307,-1.26 0.408,-0.385 -0.622,0.328 -0.725,0.199 -0.213,-0.058 0.809,-0.572 1.547,-0.969 1.219,-0.616 0.703,-0.163 1.242,-0.314 -0.221,0.142 -1.154,0.636 -1.09,0.497 -1.437,0.904 0.801,-0.028 -0.198,0.6 1.185,-0.484 1.071,-0.634 1.628,-0.983 -0.323,0.135 0.121,-0.237 -0.156,-0.163 0.207,-0.16 0.382,-0.289 0.541,-0.391 0.098,0.002 0.193,0.006 0.284,0.014 0.204,0.274 0.438,0.59 1.27,1.104 -0.232,-0.489 2.604,1.262 1.459,0.136 0.459,0.243 1.035,0.551 1.47,0.874 -0.583,-0.157 0.718,0.656 -0.229,0.244 l 0.659,0.441 -1.107,-0.467 c 0.654,0.59 1.785,1.496 2.123,1.83 0.993,0.555 -0.197,-0.351 0.924,0.336 -0.437,-0.17 0.195,0.354 0.682,0.667 -0.934,-0.706 0.127,-0.231 0.765,0.134 0.965,0.639 1.635,1.299 1.47,1.243 l -0.841,-0.402 c 0.526,0.264 0.166,0.229 0.85,0.619 0.261,0.048 0.793,0.206 1.107,0.25 0.635,0.372 0.995,0.778 1.221,0.896 l -1.034,-0.55 c 1.299,0.815 0.12,0.432 1.475,1.241 l 0.42,0.098 c 0.195,0.154 0.289,0.271 0.183,0.255 0.317,0.131 0.913,0.547 1.209,0.701 l 0.04,0.143 c 0.579,0.305 1.388,0.584 1.944,1.187 -0.394,-0.546 -0.663,-0.443 -1.544,-1.154 -0.487,-0.539 1.017,0.476 1.24,0.598 -0.094,0.085 0.25,0.322 0.706,0.596 l 0.362,0.209 0.021,0.015 0.014,0.008 h 0.005 c -0.306,0.115 0.351,0.336 1.013,0.861 l 0.327,-0.964 0.043,-0.43 0.011,-0.049 0.023,-0.108 0.047,-0.208 c 0.062,-0.276 0.118,-0.528 0.172,-0.723 0.219,-0.423 0.371,-0.806 0.498,-1.067 l -0.066,-0.344 c 0.384,-0.203 0.366,-1.567 0.713,-2.415 -0.032,0.478 0.108,0.443 0.326,-0.155 -0.47,0.759 0.109,-1.437 -0.117,-1.235 0.529,-1.542 0.182,0.452 0.479,0.032 0.037,-0.826 0.61,-1.708 0.53,-2.296 -0.396,1.119 -0.093,-0.219 -0.125,-0.485 0.425,-1.418 0.032,0.266 0.403,-0.715 0.142,-0.609 0.191,-1.439 -0.142,-0.534 0.285,-0.823 0.337,-1.823 0.742,-2.715 0.253,-0.339 -0.435,1.768 -0.177,1.253 0.585,-1.976 -0.063,-1.093 0.417,-2.951 -0.308,0.767 -0.342,-0.065 -0.174,-0.979 0.646,-2.023 -0.168,0.914 0.239,0.191 l 0.206,-0.82 c 0.573,-1.057 -0.285,2.525 0.23,1.508 l 0.167,-0.906 c 0.016,0.213 0.065,0.534 0.232,0.191 -0.111,-0.277 0.548,-2.074 0.553,-2.245 -0.094,-0.225 -0.161,0.73 -0.232,0.552 0.112,-0.476 0.139,-0.834 0.202,-1.252 0.021,-0.166 0.048,-0.343 0.097,-0.538 0.697,-0.076 0.18,-0.222 1.201,-0.337 l -0.1,0.115 c 3.773,-0.716 8.475,-1.656 11.643,-2.675 0.622,0.039 1.839,-0.19 3.739,-0.454 -0.84,0.112 -0.065,-0.15 0.401,-0.261 h 0.932 c 1.122,-0.115 2.529,-0.568 3.516,-0.866 0.187,0 0.253,0.039 0.317,0.076 0.991,-0.081 0.991,-0.304 1.36,-0.412 h 0.664 l 0.113,-0.154 0.764,-0.183 0.191,-0.036 0.093,-0.019 0.024,-0.01 h 0.008 l 0.012,-0.004 c 0.402,-0.098 0.588,-0.145 1.162,-0.342 l -0.709,-0.839 z m -39.666,-63.814 c 0.087,0.142 0.203,0.314 0.32,0.5 -0.127,-0.186 -0.247,-0.358 -0.32,-0.5 m -39.982,69.876 c -0.019,-0.03 -0.031,-0.06 -0.046,-0.105 0.027,0.004 0.052,0.008 0.081,0.013 l -0.035,0.092 z m 0.557,-3.196 c -0.018,-0.008 -0.035,-0.008 -0.064,0.009 -0.063,0.253 0.203,0.487 0.165,0.638 l -0.219,0.621 c -0.007,-0.371 0.235,-2.082 0.48,-2.443 0.037,-0.053 0.064,-0.072 0.074,-0.072 l -0.436,1.247 z m 5.044,2.888 c -0.167,0.013 -0.301,0.023 -0.422,0.039 l 0.514,-0.084 c -0.027,0.016 -0.062,0.028 -0.092,0.045 m 8.925,15.95 0.005,-0.062 0.02,0.074 c -0.007,-0.003 -0.017,-0.007 -0.025,-0.012 m 39.792,-15.308 c 0,-0.021 0.012,-0.039 0.012,-0.061 0.037,0.008 0.044,0.032 -0.012,0.061 m -20.273,-78.642 0.453,-0.532 -0.453,0.532 z m -30.448,78.363 c -0.043,0.025 -0.081,0.049 -0.106,0.075 l 0.106,-0.075 z m -1.934,-6.506 c 0.033,-0.125 0.063,-0.253 0.084,-0.371 l -0.084,0.371 z"
     inkscape:connector-curvature="0"
     style="fill:#e60012" /></g>
<g
   id="g282"
   transform="translate(-146.65777,-43.637333)">
	<g
   id="g284">
		<defs
   id="defs286">
			<rect
   id="SVGID_12_"
   y="0.013"
   width="442.20001"
   height="612.27002"
   x="0" />
		</defs>
		<clipPath
   id="SVGID_13_">
			<use
   xlink:href="#SVGID_12_"
   overflow="visible"
   id="use290"
   style="overflow:visible"
   x="0"
   y="0"
   width="442.20499"
   height="612.28302" />
		</clipPath>
	</g>
</g>
<g
   id="g292"
   transform="translate(-146.65777,-43.637333)">
	<g
   id="g294">
		<defs
   id="defs296">
			<rect
   id="SVGID_14_"
   y="0.013"
   width="442.20001"
   height="612.27002"
   x="0" />
		</defs>
		<clipPath
   id="SVGID_15_">
			<use
   xlink:href="#SVGID_14_"
   overflow="visible"
   id="use300"
   style="overflow:visible"
   x="0"
   y="0"
   width="442.20499"
   height="612.28302" />
		</clipPath>
	</g>
</g>
</svg>