<svg id="圖層_1" data-name="圖層 1" xmlns="http://www.w3.org/2000/svg" viewBox="0 0 351.83 400"><defs><style>.cls-1{fill:#009a3e;}.cls-2{fill:#f39800;}.cls-3{fill:#c09b0f;}</style></defs><title>ROC_Public_Construction_Commission_Seal</title><g id="g3"><g id="g5"><path id="path7" class="cls-1" d="M345,227.39H338.6c.21-.73-1.14-.73-1.66-.73l-2.31.73c1.13-2.57-2.25-2.09-2.25-3.95a7.42,7.42,0,0,0-5.09,0v.61h-5.81c-.2-.61.38-1.83-1-1.83h-1.29c-1.3-1.67-4.67-1.51-5.85-3.63h-5.8v-.33l-7.74-.29a15.53,15.53,0,0,0-5.81-4.42c-5.08-.16-5.68-4.1-10.93-3.66.55-2.25-3-.17-3.21-1.84,0-1.79.37-4.41-2.28-4.41-2.79.16-4.86.16-5.82-1.83h-.94c.21-.59,0-1.21-.9-1.07h-1.32v-2.86c.52,0,1.11,0,1.32-.47-.22-2-3.61-.59-4.94-1.81-1.11,1.35-4.08.45-6.36.75.36-.3-.39-.91-.77-.75-2.63-.77-4-3.5-6.76-4-.57-1.49-.4-2.83-2.26-3.3.72-1.69-1.32-1.69-1.91-2.59h-1.32c-.57-1.82-.2-3.67-2.27-4.26,0-.64-.22-1.22-.91-1.22s-1.5-.16-1.9.44v.78c-3.58,1.05-5.61.15-8.08-1.22.74-2.29-2.07-2.16-3.2-3.2H228v-3.37c.56,0,1.11.19,1.3-.25.38-1.69-1.69-1-2.25-1.89h-2.29c.22-.58,0-1.18-.74-1h-1.49c0-.46.36-1.24-.38-1.51h-.92c0-.33.16-.93-.4-1.08-1.11.6-1.11,2.59-3.58,1.82-.36-.9.76-2.45-1-2.57H215c0-.34,0-.94-.57-1.08h-.94c.35-2-1.09-2.42-1.29-4.42h-2.69c.24-.28-.55-.92-.88-.74h-1.33c0-.32,0-.92-.61-1.09H206c-.92-2.14-2.27-3.5-2.27-6.25a1.71,1.71,0,0,0-1.52.48v.59h-1.33v-2.41c2.28-.94-.69-1.54-.35-3.08-1.51.33-3.91-.6-4.49.75-.75-1-.6-3.34.93-3.92.93-1.07,1.31-2.46,3-2.92-.21-1.18-1.87-.59-1.3-2.28,2.62-1.37,3.9-3,6.42-4.41.34-.9-.58-1.82-1.93-1.36-2.63,0-2.07,3.06-3.91,3.64-1.14,1.67-6-.46-6.42,1.83h-4.91c-.16-3.64.58-8.37-3.17-9.59-1.88.46-2.83,2.13-5.44,1.55a5.86,5.86,0,0,1,3.2-3.37c-.78-1.36-4-2-3.58-4.27h-1c.77-2.56-1.3-3.36-1.3-5.48-1.33,0-2.83-.29-3.77.3v.78l-.39-2.59c.39.14,1.13-.28.91-.79-.72-2.85-3.9-2.85-4.45-5.76h-1c1.7-1.07,2.11-3.18,3.23-4.72-2.25-2.13-3-5-5.45-6.68,0-1.83-.57-3-2.29-3.66-1.9-1,1-5-3.19-4.26-1.49-3.36,2.82-2.45,2.29-5.2-2.67-1.21-5.86-1.21-4.55-5.16,1.68.45,1.31-1.06,1.31-1.84,1.15-2.73-3-.45-3.56-2.13-1.49-.74.2-3-2.26-2.87V71.82c1.52-1.34,2.83-3,2.26-5.47,0-2.29-3.38-1.7-4-3.33.23-1.87,3.23-3.69.78-5.49-1.71-1.84-.2-5.34-1.36-7.63H148v-3c2.65-1.22,4.52-2.74,3.76-6.09a1.78,1.78,0,0,0-1.51-.45c.21-1.51,0-3.34-1.69-3.67h-1.31c-1.85-3.64,4.51-2.74,2.26-6.83.4.16,1.15-.46.76-.75-.35-1.54,1.9-1.54,2.27-2.6.94-3.37-5.45-5-1.71-7.32,2.84,0,3.4-2.9,6.21-2.9,1.71-.45-.17-3.19,2.26-2.88-.55-2.12-4.12-1.38-6.76-1.53-.77,1.4-3.56.48-5.28.77-1.71-3.34,7.35-4.59.76-6.24v-4c2.65,0,1-2.3,2.26-3.05.77-1.21-1.28-.59-1.28-1.82-1.54.44-.78-1.37-1.73-1.37,1.9-1.83,4.92-2,6.22-4.42-2.26-1.23.92-5.48-2.65-5.76h-3.57c-.34-2.32,0-4.58,3-4.43,0-.91,1.72-1.23,2.28-1.86-1-1,0-2.55-2.28-2.55v-7.62h1c-1-5.94,6.18-7,6.76-11.7-1.11-.63-3-.33-4.5-.47v-2.14h1.86c1.53,1.83,2.64-.61,4.9-.3.76-1.86-1.11-2-1.68-3.05h-1.53a8.58,8.58,0,0,1,4.17-4.72c-.57-3.06,3-4.86.32-7.3,1.89-.48,3.79-.16,4.19-1.83,1.88.46,1.29-1.36,1.29-2.12,0-.46.41-1.23-.36-1.54h-.93c-.21-1.83.21-2.58,1.88-3.19-.18.3.16.45.33.61,2.11-.16,2.46-2.12,2.28-4-1.09-1.06-1.5-3.8,0-4.73,1.7-.15,2.07-1.19,3.17-1.83v-1.54c2.86,0,0-3.5,3.25-3.19,2.65-1.66-.22-5.76,3.92-6.23.21-1.53,2.48-1.36,2.84-2.9,1.87-.61,1.31-3.34,4-3.34,1.85-1.07,1.3-3,2.81-4.41.18-2.73,2.83-3.82,3-6.53,1.7-.92,2.24-2.92,3.21-4.41,4.12-.94,2.83-6.85,8.1-6.85,6-7.64,9-19.2,21.81-21.64,1.31-5.48,6.93-9.9,12.58-12.8,7.55-8.35,20.17-8.35,29.39-14.29,8.48-.17,16.93-1.54,23.88,2.56,5.85-1.62,7.94,3.38,10.92,6,6,4.26,14.12,6.39,18.45,12-.39,4.71,4.13,9.11,1.87,14.63-1.48,7.59-8.63,13.66-13.15,20.06A70.61,70.61,0,0,0,289-94.08c-7,3.92-13,7.91-17.53,13.53-.54,0-1.45-.28-1.86.29-1.29,1.55-3,2.76-3.59,4.74-1.08,2.74-7.12,2-6.78,5.48-2.41,2.59-4.3,5.33-7.35,7.75,0,2.29-4.5.91-4.5,3.66-.56-.14-1.28,0-1.28.76.16.46-.4,1.09.53,1.37h.77V-55c-2.82-.46,0,2.41-2.27,2.59l-5.26,4.25c1.69.45.55,2.59.75,3.66-4.13.91-.75,6.84-6.18,6.71v.58h-.95c0-.29.16-.91-.38-1.07s-1.13.49-.93.78v1.07c-.78,0-1.49.13-1.32.77,0,.6-.17,1.49.75,1.49h1.51V-32h-.57c-1.14,1.84.74,5.51-1.69,6.25v2.92h-.56c-.57,3-.41,6.4-3.59,7.59V-14h-.95a4.81,4.81,0,0,0,0,3.93h.95v2.88c-1.85,1.08-1.67,3.82-3.58,4.73-5.07-1.23-6,2-8.63,3.35V2c-.59,0-1.53.16-1.34.77,0,.6-.19,1.52,1,1.52.54-.17,1.5.15,1.7-.45V3c2.64.45,3.56-1.35,5.09-1.81,0,.46-.2.91.38,1.21h.92V3.8c-1.31-.47-1.5.74-1.3,1.5,0,.46-.4,1.23.38,1.37h.92v6.71c-1.87.92-1.87,2.89-2.27,5,.18.66-.41,1.57.39,1.88l.95,4.4h.92v1.51c-.39,0-1.11-.15-1.32.32,0,.43-.38,1.22.4,1.52h.92c-.92,4.25,1.88,6.24.91,10.52-.53-.2-1.1.44-.91.76v1c-.39,0-1.11,0-1.32.46-.77,1.36,1.14,1.52,2.25,1.36h1.34c-.58,2.59.73,4.27,2.24,5.47.78,2.46-1.85,7,2.28,7.31.52,4.57-1.49,6.11,1.87,9.14.41,1.53-1.13,4.6,1.32,4.71.36,1.26-.77,3.2.93,3.67,1.73-.31,2.26,1.21,2.26,2.29S235,77,235.78,78h.92c.2,4.25.2,9,3.93,10.63-1.14,3,4,1.22,2.82,4.43h1c1.31,2.15-1,6.07,3,6.23-.57,1.22,1.54.62,1.54,1.84h.75a45.64,45.64,0,0,1,1.52,5.46h.7c-.7,3.21,5.47,1.83,3.21,5.78.23,2.59,9.25,1.85,4.13,5.21-1.5-2-3,.42-5,.29-.38.88-3,1.22-2.29,3.37-1.84-.33-.91,1.35-2.22,1.8,1.52.58,3.75.44,4.5-.45.56-1.56,3.19-1.35,3.77-2.91,4.48.32,10.15-1,10.36,3.36.21.44.9.3,1.29.3-2.08,5.2,7.48,2.12,4.53,7.6,2.64,2.28,5.05,3.23,8.63,4.43v2.25c-6.77,3.21-3.58-6.36-8.63-1.51-3.56.63-1.88,5.06-2.28,7.64,2.45,1.83,5.64,2.59,10,2.28,2.45-.76.93-3.36,1.31-5.2.4,0,1.14.18,1.3-.29v-.74l1,4.41c3.41.75,3.76-1.54,7.17-.75,0,2.57-2.85,3.46-5.26,4.4v.75h-1a7,7,0,0,0,0,5.49h1a.73.73,0,0,0,.75,1.06c2.6-.15,2.6-2.15,4.11-2.88h1.3v1.34c-.74,1.21-2.26,1.84-1.7,3.67,2.3,0,2.87,1.83,5.3,1.06v2.62c1.7.57,3.78.27,5.47.45v2.12c-2.67.75,1.12.91.54,2.13h6.21c1.14-1.51,3.58-3.67,1.29-5.49.57-3.06-4.68-1.52-4.47-4.27,1.12-1.08,3.18-.75,5-.75,2.67,1.69-.15,7.62,5.88,6.84,2.42,0,2-2.74,5.45-1.82-.79,1.36,1.48.79,1.28,1.82,1.48-.14.55,2.29,2.65,1.82-1.3,2.71,2.62,1.22,3.2,2.59.91-1.37,3.58-.42,5.47-.74.14.74-.41,1.53.35,1.83.94,0,.36,1.05.58,1.54-2.46-.34-4.36.25-5.49,1.5-.18,2-3.52,1.81-2.22,4.71,1.29,2,5.09.75,7.71,1.07-.58,1.67,1.11,4.72-1.34,5.18-2.6.15-1.69.6-3.75-.46.95-3.05-2.24-3.5-2.62-5.79-3.06-.14-6.22,0-8.11,1.07V177c-2.82.78-1.69-2.76-5.05-1.83-1.16-1.53-4.14-1.35-5.27-2.9h-1.53c.38-.91,0-2.58-1.7-1.81h-1.31c-.18-.46.24-1.23-.55-1.5h-1c0-.63.41-1.54-.38-1.84-2,0-2.61,1.21-4.88.75a25.47,25.47,0,0,0-7.7-7c-.78-1.85-6.21-.47-4.55-4-3.19.29-3-2-5.43-2.31.75-1.68-1.31-1.82-1.88-2.85-1.34-1.4-4.54-.5-6.77-.79-.4-2,1.11-5.47-1.33-6.09.55-1.68-1.71-1.08-2.61-1.21-.62.13-1.52-.18-1.9.46v.75c-2.66-.46-2.66,1.38-5.41.62,2-.62,2-2.12,2.22-4-1.89-.91-5.26.31-6.73-1.08V139c2.05-.14,1.69-2,3.72-2.14-1.67-.31-2.25-4.26-4.53-1.82h-3.23c-.33-1.08.77-2.91-.86-3.35-2.11-.31-2.64,1.66-3.6-.31v-2.57c-3.39-2.15-7,2.88-8.1-1.55-1-.29-2.62-.6-1.86-2.12,1.11-1.68,4.51-1,5.42-3.35s-1.67-2.73-1.29-5h-1.87V116c-1.51-.92-4.5.32-5.42-1.08,0-.9.32-2-.4-2.59-4.33-.58-4-6.68-10.93-4.41,3.72-6.82-6.77-4.41-3.19-11.25-2.46-1.38-3.21.91-5.84.75V98h-.93a8.53,8.53,0,0,0,0,5.47c1.09.31,1.5,1.82,3.19,1.82-.57,1.37,1.51.78,1.3,1.8h1c.36,2.32,2.43,3.06,2.28,5.5h.93c-.61,2.6.75,3.95,2.26,5.18-.19,2,1.14,3,2.64,3.63H229v.8c-.38,0-1.17-.16-1.32.29,0,.46-.42,1.21.39,1.54H229c1.14,1.33,4.3,1.33,3.21,4.41,4.11,1.05.35,8.36,7.7,6.84,0,1.79.55,3.21,2.26,3.66-.91,2,1.09,2.43,1.7,3.64,4.14.33,6.4,3.67,9,5.47.19.47-.43,1.24.56,1.53h.76c-.76,1.67,1.3,1.67,1.86,2.61,1.9,0,1.69,2.41,3.59,2.88,1,3.66,6.77,2.74,7.72,6.54,1.72,2.12,6.23,1.51,7.7,3.66,1.73.31,3.79.63,3.23,2.59.21.46.75.3,1.31.3v3.32h-1.91a33.9,33.9,0,0,0-5.42-5.16c-3.56-.88-5.86-2.42-9.82-2.87,1.17-2.12-2.07-1.39-2.24-2.58-1.68-.64-1.48,1-2.83,1a18.83,18.83,0,0,1-4.92,4.13c-.34,1.5-3.5,1.19-2.79,3.64H249c-1,.93-.38,2.45-.61,3.69,4.89-.34-.35,5.75,4.54,5.44h3.18c0,.31-.18.91.43,1h.89c-.74,1.7,1.34,1.7,1.86,2.6h1.36c-.4,1.66,1.71.78,2.24,1.85h2.24c-.13.31.38.91.95.76,1.89-.32,1.68,1.67,3.59,1.83-.2,1,1,1.18,1.86,1.83h1.34c-.2.43,0,1,.92,1h1.31c.59,2.3-5,4-.58,5,1.17-1.52,5.26.44,5.47-1.84H285a31,31,0,0,0-4.5,4.88,6.44,6.44,0,0,0,5.26,1.37c3.36-1.52,7.53-2.43,8.29-6.25-1.14-.9-1.33-2.9-4.15-2.14-.6.18-.39.73-.39,1.07h-3.19c0-1.65,6.59-2.28,2.27-4.41,0-1.09-1-1.21-1.89-1.81a11.84,11.84,0,0,1-5.82.72v-2.09c2.26,0,3.78-.46,4.5-1.85h2.66c.55,2.76,5.41,1.39,6,4.44h.74c.4,1-.74,3.63,1.88,2.87.76,0,1.89,0,1.89-.76V188h.73c1.14-1.36-.35-3.63,1.54-4.41-2.45-.75-5.05.16-6-2.12a53.65,53.65,0,0,0-6.2-4.88c1.31-.46,1.91-1.51,4-1.06-.21.44.54.92.9.76h1.33c1.29,1.67,5.64.76,6,3.63h1.7c-.22.33.54.91.91.78h1.33c2,1.82,5.64,2.6,8.08,4.43a4.06,4.06,0,0,0,4.15,1.83c1.5,1.51,4.9,1.36,6.39,2.87h1.34v1.06h-3.22c-1.68-.76-4-1.21-4.9-2.57-5.26.9-6.2-4.88-10.89-1.36-.75,1.36-5.3,2.87-2.29,5,2.12,2.76,6.06-1.37,7.7,1.54,1.86.92,1.72,3.49,3.62,4.41l-3.22.31v-.31l-6.22-.47c-1.69-.89-2.1-2.57-3.77-3.63h-.74c.57-.93-1-1.26-1.88-1.06-.57.13-1.52-.32-1.89.28v.78c-2.41,0-.72,2.28-2.26,2.86-.56,2.61,1,4,2.26,5.17,5.1-.27,3.79,4.89,9.05,3.38.71-.46,2.62-.78,3.18-1.22v1.22c-1.48-.46-1.3,1.07-1.3,1.82.19.43-.37,1,.36,1.38h.93c-.73,1.66,1.3,1.8,1.87,2.57H318c0,.61-.37,1.53.38,1.82,1.12,1.35-3.75,4.44.57,5.48.75-.12,1.84.33,2.63-.28v-.76c2.24.6,2.63-1.08,4.13-1.55v-.29c2.65.29,1.86,3.52,3.94,4.43a2.48,2.48,0,0,0,3.18,1.82l3.24-.77c-1.34,3.19,1.68,4.85,4.47,5,3.43-1.54,3.43-6.09,10-4.27-.35.6.38,1.37,1.34,1.05-1.54,2.28-5.52,2.28-6.8,4.7" transform="translate(0 172.61)"/><path id="path9" class="cls-2" d="M65.39-128.83a43.76,43.76,0,0,1,43.77-43.78,43.74,43.74,0,0,1,43.76,43.78,43.74,43.74,0,0,1-43.76,43.76,43.78,43.78,0,0,1-43.77-43.76" transform="translate(0 172.61)"/><path id="path11" class="cls-3" d="M4.66,224.69H9c-.09-.57.8-.57,1.19-.57l1.57.57c-.8-1.94,1.53-1.62,1.53-3a4.72,4.72,0,0,1,3.47,0v.47h4c.11-.47-.26-1.39.6-1.39h.92c.9-1.25,3.23-1.17,4-2.76h3.95v-.23l5.28-.23a10.86,10.86,0,0,1,4-3.38c3.49-.12,3.87-3.13,7.47-2.78-.37-1.72,2.05-.1,2.19-1.36,0-1.41-.26-3.37,1.58-3.37s3.3.11,4-1.39h.62c-.12-.46,0-.94.62-.8h.92v-2.21c-.39,0-.76,0-.92-.35.17-1.51,2.45-.46,3.36-1.37.76,1.05,2.85.33,4.37.59-.26-.26.24-.73.53-.59,1.77-.57,2.69-2.66,4.65-3,.37-1.15.25-2.2,1.51-2.54-.51-1.27.94-1.27,1.28-2h.93c.4-1.42.1-2.78,1.53-3.24,0-.47.11-.94.63-.94s1.07-.1,1.33.35v.59c2.42.81,3.86.1,5.52-.94-.54-1.68,1.4-1.62,2.19-2.42h.89v-2.53c-.39,0-.78.11-.89-.26-.26-1.27,1.16-.69,1.52-1.37h1.56c-.13-.46,0-.93.5-.81h1.06c0-.37-.26-.91.25-1.16h.66c0-.26-.15-.67.24-.8.78.46.78,2,2.44,1.37.27-.69-.49-1.86.64-2h.92c0-.23,0-.68.4-.81h.63c-.26-1.46.78-1.83.89-3.32h1.8c-.1-.25.43-.7.65-.61h.89c0-.22,0-.67.43-.81h.49c.64-1.61,1.55-2.65,1.55-4.74a1.08,1.08,0,0,1,1,.37v.44h.92v-1.86c-1.57-.66.5-1.15.25-2.29,1,.23,2.7-.47,3.08.57.47-.79.39-2.53-.62-3-.66-.8-.94-1.85-2.06-2.22.1-.92,1.26-.45.89-1.7-1.82-1.06-2.74-2.35-4.39-3.36-.25-.69.38-1.42,1.28-1.05,1.82,0,1.43,2.32,2.74,2.78.75,1.24,4.1-.35,4.36,1.39h3.36c.11-2.79-.42-6.37,2.16-7.3,1.28.35,1.91,1.59,3.74,1.16a4.36,4.36,0,0,0-2.18-2.54c.51-1.06,2.71-1.51,2.42-3.24H119c-.51-2,.88-2.57.88-4.19.9,0,1.93-.22,2.56.26v.57l.3-2c-.3.08-.8-.22-.68-.58.48-2.21,2.72-2.21,3.09-4.41h.64c-1.17-.8-1.41-2.4-2.16-3.59,1.52-1.61,2-3.78,3.72-5.09,0-1.38.35-2.34,1.55-2.76,1.28-.81-.65-3.82,2.18-3.24,1-2.56-1.92-1.87-1.53-3.94,1.79-.92,4-.92,3.09-3.94-1.18.37-.92-.81-.92-1.39-.78-2.07,2.06-.34,2.45-1.62,1-.58-.15-2.28,1.54-2.19v-2.19a4.4,4.4,0,0,1-1.54-4.16c0-1.76,2.32-1.3,2.69-2.56-.13-1.39-2.17-2.77-.51-4.16,1.17-1.38.15-4.06.9-5.79h2.18V87.48c-1.8-1-3.08-2.09-2.57-4.63a1.2,1.2,0,0,1,1-.33c-.13-1.19,0-2.55,1.16-2.79h.91c1.3-2.78-3.1-2.09-1.56-5.22-.24.13-.77-.32-.51-.56.27-1.19-1.28-1.19-1.54-2-.64-2.54,3.77-3.83,1.17-5.54-1.94,0-2.31-2.21-4.23-2.21-1.19-.36.11-2.41-1.57-2.22.38-1.6,2.83-1,4.63-1.14.51,1.06,2.46.34,3.61.6,1.19-2.56-5-3.47-.53-4.77v-3c-1.8,0-.62-1.74-1.54-2.31-.5-.93.92-.48.92-1.41,1,.35.51-1,1.15-1-1.28-1.4-3.35-1.5-4.25-3.36,1.54-.92-.65-4.16,1.8-4.4h2.44c.26-1.73,0-3.47-2.07-3.36,0-.7-1.16-.9-1.54-1.37.67-.84,0-2,1.54-2V28.71h-.64c.64-4.53-4.26-5.32-4.61-8.91.75-.48,2-.24,3.07-.34V17.82h-1.27c-1.06,1.4-1.8-.47-3.36-.25-.55-1.38.77-1.49,1.17-2.31h1a6.41,6.41,0,0,0-2.83-3.59c.38-2.3-2.06-3.69-.26-5.54-1.28-.36-2.58-.14-2.83-1.4-1.29.36-.88-1-.88-1.61,0-.34-.28-.92.23-1.17h.66c.13-1.38-.13-1.93-1.28-2.43.12.24-.14.37-.26.5-1.42-.13-1.69-1.63-1.53-3,.74-.79,1-2.87,0-3.55-1.16-.12-1.43-1-2.21-1.41V-9.14c-1.92,0,0-2.65-2.19-2.43-1.8-1.28.14-4.41-2.68-4.76-.15-1.16-1.69-1-2-2.21C114-19,114.34-21,112.53-21c-1.28-.82-.89-2.32-1.91-3.37-.14-2-1.94-2.88-2.07-5-1.16-.69-1.54-2.19-2.18-3.36-2.82-.7-1.92-5.21-5.55-5.21-4.1-5.78-6.17-14.55-14.95-16.43-.87-4.18-4.76-7.52-8.58-9.71C72.1-70.48,63.49-70.48,57.18-75c-5.8-.13-11.57-1.17-16.35,2-4-1.28-5.39,2.54-7.43,4.52-4.15,3.23-9.67,4.87-12.61,9.15.24,3.58-2.84,6.9-1.3,11.1,1.05,5.78,5.9,10.42,9,15.25A50.89,50.89,0,0,1,43-19.67c4.77,3,8.87,6,12,10.3.4,0,1-.22,1.31.23.87,1.15,2,2.08,2.44,3.6C59.51-3.46,63.63-4,63.37-1.4c1.67,2,3,4.06,5.05,5.93,0,1.7,3.07.67,3.07,2.77a.62.62,0,0,1,.88.58c-.17.33.26.79-.35,1h-.53v1.15c1.93-.34,0,1.87,1.55,2l3.62,3.21c-1.18.35-.39,2-.53,2.78,2.82.72.53,5.25,4.22,5.11v.44H81c0-.2-.13-.67.27-.79s.78.35.64.59v.79c.51,0,1,.12.89.58s.15,1.15-.49,1.15h-1v1.64h.37c.78,1.38-.54,4.16,1.16,4.73v2.19h.38c.4,2.32.24,4.86,2.47,5.81v.91h.6a3.78,3.78,0,0,1,0,3h-.6V46.4c1.27.79,1.13,2.91,2.41,3.58,3.49-.95,4.14,1.49,5.94,2.57v.78c.37,0,1,.11.9.6s.11,1.14-.69,1.14c-.33-.1-1,.12-1.12-.34v-.58c-1.8.34-2.48-1-3.5-1.41,0,.37.16.7-.25,1H88.7v1c.89-.34,1,.57.89,1.15,0,.33.26.94-.25,1.06h-.65V62c1.28.72,1.28,2.22,1.54,3.83-.14.46.26,1.15-.26,1.4l-.63,3.36h-.65v1.12c.26,0,.75-.08.88.26s.26.9-.24,1.16h-.66c.66,3.24-1.3,4.73-.65,8,.4-.13.78.36.65.58v.83c.26,0,.76,0,.89.33C90.08,83.9,88.79,84,88,83.9h-.89a4.19,4.19,0,0,1-1.52,4.15c-.53,1.86,1.27,5.32-1.56,5.54-.4,3.48,1,4.64-1.29,6.94-.25,1.16.78,3.46-.89,3.6-.26,1,.51,2.41-.64,2.77-1.16-.25-1.6.94-1.6,1.74s.3,1.73-.21,2.41h-.65c-.15,3.26-.15,6.85-2.7,8.11.76,2.3-2.71.92-2,3.38h-.63c-.9,1.61.63,4.6-2,4.73.35.92-1.06.45-1.06,1.4h-.51a28.54,28.54,0,0,0-1,4.14h-.5c.5,2.44-3.76,1.42-2.22,4.44-.17,1.94-6.31,1.35-2.83,3.91,1-1.51,2,.31,3.46.23.26.69,2.09.92,1.59,2.55,1.23-.24.6,1,1.5,1.38-1,.45-2.56.35-3.09-.35-.38-1.16-2.17-1-2.56-2.18-3.1.2-7-.81-7,2.53-.17.35-.69.23-.91.23,1.4,3.94-5.17,1.61-3.13,5.79a15.76,15.76,0,0,1-5.89,3.35v1.74c4.61,2.45,2.44-4.87,5.89-1.16,2.49.46,1.3,3.82,1.59,5.81-1.7,1.38-3.87,2-6.83,1.72-1.69-.57-.65-2.56-.92-3.92-.26,0-.77.1-.94-.24V158l-.62,3.38c-2.3.6-2.56-1.16-4.89-.57,0,2,2,2.67,3.65,3.34v.58h.63a5.66,5.66,0,0,1,0,4.17h-.63a.54.54,0,0,1-.53.79c-1.8-.11-1.8-1.61-2.85-2.2h-.87v1c.48.94,1.51,1.4,1.14,2.79-1.55,0-1.93,1.4-3.59.81v2c-1.17.47-2.59.23-3.72.36v1.61c1.77.59-.77.68-.37,1.63H29.1c-.77-1.13-2.49-2.76-.91-4.15-.39-2.32,3.24-1.19,3.09-3.26-.77-.81-2.18-.59-3.48-.59-1.8,1.31.13,5.82-4,5.24-1.67,0-1.44-2.1-3.72-1.39.51,1-1.08.55-.91,1.39-1.06-.15-.44,1.72-1.78,1.37.86,2.08-1.83.92-2.25,2-.62-1-2.41-.34-3.71-.57-.14.57.27,1.13-.26,1.37-.64,0-.27.83-.4,1.18a3.89,3.89,0,0,1,3.75,1.16c.12,1.49,2.43,1.4,1.51,3.59-.89,1.5-3.46.58-5.26.81.4,1.3-.76,3.58.93,3.93,1.77.11,1.17.45,2.55-.35-.65-2.28,1.56-2.66,1.78-4.39,2.06-.13,4.27,0,5.56.81v.57c1.95.57,1.17-2.08,3.48-1.38.77-1.15,2.82-1,3.57-2.19h1.06c-.26-.73,0-2,1.14-1.4h.93c.13-.37-.12-.92.37-1.16h.68c0-.48-.26-1.18.22-1.42,1.4,0,1.8.94,3.34.62a18.57,18.57,0,0,1,5.32-5.35c.52-1.37,4.21-.33,3.08-3,2.18.22,2-1.52,3.72-1.75-.5-1.27.91-1.37,1.31-2.18.91-1.05,3.08-.35,4.62-.6.27-1.5-.78-4.15.9-4.6-.4-1.3,1.14-.83,1.82-.93.35.1,1-.12,1.24.32V162c1.83-.37,1.83,1,3.77.45-1.4-.45-1.4-1.62-1.55-3,1.28-.69,3.6.23,4.65-.8v-1.15c-1.46-.14-1.2-1.51-2.59-1.63,1.13-.24,1.54-3.25,3.09-1.38H68c.25-.83-.51-2.21.61-2.55,1.43-.24,1.8,1.27,2.47-.24v-1.95c2.32-1.64,4.78,2.19,5.57-1.16.62-.26,1.77-.48,1.24-1.63-.76-1.27-3.11-.8-3.73-2.55s1.13-2.08.9-3.83h1.31V140c1-.7,3.08.23,3.74-.81,0-.69-.29-1.5.22-2,3-.5,2.72-5.12,7.48-3.36-2.56-5.21,4.62-3.39,2.18-8.59,1.69-1.06,2.22.69,4,.58v.47h.62a7.5,7.5,0,0,1,0,4.15c-.75.25-1,1.43-2.2,1.43.4,1-1,.57-.88,1.37h-.66c-.26,1.75-1.68,2.3-1.53,4.11h-.65a3.9,3.9,0,0,1-1.54,4,2.64,2.64,0,0,1-1.83,2.76H84.07v.6c.23,0,.76-.13.88.23s.26.94-.25,1.17h-.63c-.78,1-3,1-2.2,3.35-2.84.79-.25,6.36-5.26,5.2,0,1.38-.39,2.43-1.59,2.78.68,1.51-.78,1.84-1.12,2.76-2.86.25-4.42,2.81-6.18,4.18-.14.35.24.91-.41,1.18h-.53c.53,1.26-.86,1.26-1.26,1.93-1.3,0-1.19,1.86-2.46,2.2-.68,2.77-4.66,2.11-5.32,5-1.07,1.61-4.2,1.15-5.24,2.76-1.18.24-2.59.47-2.22,2-.1.32-.48.23-.87.23v2.54h1.3a22.55,22.55,0,0,1,3.71-4c2.44-.69,4-1.83,6.69-2.19-.76-1.61,1.42-1,1.56-2,1.13-.47,1,.84,1.93.84A13.17,13.17,0,0,0,67.94,178c.26,1.16,2.41.92,1.91,2.79h.5c.67.71.26,1.84.41,2.77-3.34-.24.26,4.37-3.07,4.19H65.5c0,.18.1.69-.26.8h-.65c.51,1.25-.93,1.25-1.3,2h-.92c.28,1.27-1.13.55-1.53,1.34H59.3c.14.27-.26.73-.63.59-1.29-.19-1.18,1.31-2.44,1.41.11.81-.64.93-1.3,1.39H54c.17.35,0,.81-.61.81H52.5c-.41,1.75,3.44,3,.38,3.85-.79-1.2-3.61.31-3.74-1.42H45.67a24.11,24.11,0,0,1,3.1,3.71,4.11,4.11,0,0,1-3.64,1c-2.3-1.15-5.11-1.84-5.65-4.74.76-.68.88-2.19,2.82-1.61.39.13.28.56.28.81h2.19c0-1.27-4.53-1.73-1.55-3.36,0-.82.64-.93,1.31-1.38a7.12,7.12,0,0,0,3.95.56V191.9c-1.54,0-2.58-.33-3.09-1.34H43.6c-.39,2.07-3.73,1-4.14,3.34H39c-.27.81.48,2.78-1.31,2.2-.5,0-1.3,0-1.3-.6v-.79h-.49c-.76-1,.27-2.82-1-3.36,1.68-.58,3.52.15,4.16-1.6A38.56,38.56,0,0,1,43.22,186c-.92-.34-1.28-1.14-2.72-.8.15.37-.4.72-.62.6H39c-.92,1.3-3.87.56-4.16,2.77H33.71c.11.22-.37.69-.68.56h-.87c-1.44,1.41-3.86,2-5.57,3.34a2.54,2.54,0,0,1-2.81,1.41c-1,1.14-3.33,1-4.36,2.2h-.91v.82h2.21c1.11-.58,2.68-.92,3.34-2,3.59.69,4.25-3.71,7.47-1,.52,1,3.6,2.2,1.51,3.83-1.38,2.06-4.1-1-5.27,1.15-1.26.69-1.18,2.68-2.44,3.36l2.19.23v-.23l4.27-.36c1.18-.69,1.4-1.93,2.56-2.77h.51c-.4-.69.64-.92,1.3-.79.36.1,1-.26,1.28.21v.58c1.67,0,.55,1.74,1.57,2.19.38,2-.64,3-1.57,3.95-3.5-.23-2.58,3.72-6.17,2.53-.54-.37-1.8-.56-2.18-.93v.93c1-.37.89.82.89,1.41-.15.31.24.81-.26,1.05h-.63c.48,1.26-.91,1.35-1.31,1.94H23.16c0,.46.25,1.17-.28,1.39-.74,1,2.61,3.37-.36,4.18-.49-.12-1.27.24-1.78-.22v-.59c-1.57.45-1.83-.83-2.84-1.18v-.2c-1.83.2-1.3,2.66-2.75,3.34A1.66,1.66,0,0,1,13,220.29l-2.2-.58c.93,2.43-1.14,3.71-3.07,3.8-2.34-1.14-2.34-4.61-6.85-3.22.26.46-.23,1.05-.87.79,1.1,1.78,3.79,1.78,4.66,3.61" transform="translate(0 172.61)"/></g></g></svg>