<?xml version="1.0" encoding="utf-8"?>
<!-- Generator: Adobe Illustrator 22.1.0, SVG Export Plug-In . SVG Version: 6.00 Build 0)  -->
<svg version="1.1" id="圖層_1" xmlns="http://www.w3.org/2000/svg" xmlns:xlink="http://www.w3.org/1999/xlink" x="0px" y="0px"
	 viewBox="0 0 47.5 47.5" style="enable-background:new 0 0 47.5 47.5;" xml:space="preserve">
<style type="text/css">
	.st0{fill-rule:evenodd;clip-rule:evenodd;fill:#3B5998;}
	.st1{fill:#FFFFFF;}
</style>
<g>
	<g>
		<path class="st0" d="M47.5,23.7c0,13.1-10.6,23.7-23.7,23.7C10.6,47.5,0,36.8,0,23.7C0,10.6,10.6,0,23.7,0
			C36.8,0,47.5,10.6,47.5,23.7"/>
	</g>
	<g>
		<path class="st1" d="M30,19.6h-4V17c0.3-2.5,4.4-2,4.4-2l0-0.2l0,0v-4.1h0c-0.1,0-8.2-2-9.8,4.2c0,0,0,0,0,0l0,0
			c-0.3,0.8-0.2,4.3-0.2,4.7H17v4.7h3.7v12.8H26V24.3H30l0.5-4.7H30L30,19.6z"/>
	</g>
</g>
</svg>
