<?xml version="1.0" encoding="utf-8"?>
<!-- Generator: Adobe Illustrator 24.2.1, SVG Export Plug-In . SVG Version: 6.00 Build 0)  -->
<svg version="1.1" xmlns="http://www.w3.org/2000/svg" xmlns:xlink="http://www.w3.org/1999/xlink" x="0px" y="0px" width="847px"
	 height="227px" viewBox="0 0 847 227" style="enable-background:new 0 0 847 227;" xml:space="preserve">
<style type="text/css">
	.st0{display:none;}
	.st1{fill:#F4F4F4;}
	.st2{display:inline;fill:#F4F4F4;}
	.st3{opacity:0.41;}
	.st4{fill:#FFFFFF;}
	.st5{opacity:0.41;fill:#FFFFFF;enable-background:new    ;}
</style>
<g id="圖層_2" class="st0">
	<rect x="-8.1" y="-2.2" class="st1" width="872.1" height="236.9"/>
	<rect x="0.8" y="-0.3" class="st2" width="847" height="225.3"/>
</g>
<g id="圖層_1">
	<g>
		<g class="st3">
			<rect x="229" y="0.1" class="st4" width="4.6" height="226.9"/>
			<path class="st4" d="M233.7,30c0,0.1,0.1,0.3,0.3,0.3h1.2c0.1,1.6,0.4,2.8,0.4,2.8s0.4-0.9,1.3-1.8c0.1,0.8,0.2,1.1,0.2,1.1
				s0.4-0.7,1.3-1.5c0.1,0.7,0.2,1,0.2,1s0.4-0.6,1.1-1.3c0.1,0.5,0.2,0.9,0.2,0.9s0.3-0.6,0.9-1.1c0,0.5,0.1,0.7,0.1,0.7
				s0.4-0.7,1.2-1.1c0,0,0,0,0,0c-0.7-0.3-1.2-1.1-1.2-1.1c-0.1,0.3-0.1,0.4-0.1,0.7c-0.6-0.5-0.9-1.1-0.9-1.1
				c-0.1,0.3-0.1,0.5-0.2,0.8c-0.7-0.6-1.1-1.2-1.1-1.2c-0.1,0.4-0.2,0.6-0.2,1c-0.8-0.8-1.3-1.5-1.3-1.5c-0.1,0.4-0.2,0.6-0.3,1
				c-0.1-0.1-0.2-0.2-0.3-0.3c-0.1,0.2-0.2,0.3-0.2,0.3s-0.1-0.3-0.2-0.8c-0.4-0.6-0.6-1-0.6-1c-0.3,1-0.4,1.9-0.4,2.8H234
				C233.8,29.8,233.7,29.9,233.7,30z"/>
			<path class="st4" d="M238.2,24.6c0.1,1.1,0.3,1.5,0.3,1.5s0.6-1.1,1.8-2.2c0.1,1,0.3,1.5,0.3,1.5s0.5-0.9,1.6-1.8
				c0.1,0.8,0.2,1.2,0.2,1.2s0.4-0.8,1.3-1.6c0.1,0.7,0.2,1,0.2,1s0.5-1,1.7-1.5c0,0,0,0,0,0c-1.1-0.5-1.7-1.5-1.7-1.5
				c-0.1,0.4-0.2,0.6-0.2,1c-0.8-0.7-1.3-1.5-1.3-1.5c-0.1,0.4-0.2,0.8-0.3,1.2c-1-0.9-1.6-1.8-1.6-1.8c-0.2,0.6-0.3,0.9-0.3,1.4
				c-1.2-1.1-1.8-2.1-1.8-2.1c-0.2,0.6-0.3,0.9-0.4,1.4c-1.2-1.3-1.8-2.5-1.8-2.5c-0.4,1.4-0.6,2.8-0.6,4.1h-1.7
				c-0.2,0-0.4,0.2-0.4,0.4s0.2,0.4,0.4,0.4h1.7c0,1.4,0.2,2.6,0.4,3.3c0.1,0.1,0.2,0.3,0.4,0.5C236.8,26.4,237.3,25.5,238.2,24.6z"
				/>
			<path class="st4" d="M233.7,47.1c0,0.2,0.1,0.3,0.3,0.3h1.6c0.1,2.2,0.5,3.8,0.5,3.8s0.6-1.2,1.7-2.4c0.1,1,0.3,1.4,0.3,1.4
				s0.6-1,1.7-2c0.1,1,0.3,1.4,0.3,1.4s0.5-0.8,1.4-1.7c0.1,0.7,0.2,1.1,0.2,1.1s0.4-0.8,1.2-1.4c0.1,0.6,0.2,0.9,0.2,0.9
				s0.5-1,1.5-1.4c0,0,0,0,0,0c-1-0.4-1.5-1.4-1.5-1.4c-0.1,0.3-0.2,0.6-0.2,0.9c-0.8-0.7-1.2-1.4-1.2-1.4c-0.1,0.4-0.2,0.7-0.2,1.1
				c-0.9-0.9-1.4-1.6-1.4-1.6c-0.2,0.5-0.3,0.8-0.3,1.3c-1.1-1-1.7-1.9-1.7-1.9c-0.2,0.5-0.3,0.8-0.3,1.3c-0.1-0.1-0.3-0.3-0.4-0.4
				c-0.1,0.3-0.2,0.4-0.2,0.4s-0.1-0.4-0.2-1c-0.5-0.7-0.8-1.3-0.8-1.3c-0.4,1.3-0.5,2.6-0.5,3.8h-1.5
				C233.9,46.7,233.7,46.9,233.7,47.1z"/>
			<path class="st4" d="M239.6,39.9c0.2,1.4,0.5,2.1,0.5,2.1s0.8-1.4,2.4-2.9c0.1,1.4,0.4,2,0.4,2s0.7-1.2,2.1-2.4
				c0.1,1,0.3,1.6,0.3,1.6s0.6-1.1,1.7-2.1c0.1,0.9,0.3,1.3,0.3,1.3s0.7-1.4,2.2-2c0,0,0,0,0,0c-1.4-0.6-2.2-2.1-2.2-2.1
				c-0.1,0.5-0.2,0.8-0.3,1.3c-1.1-0.9-1.7-2-1.7-2c-0.2,0.6-0.3,1-0.3,1.6c-1.3-1.2-2.1-2.4-2.1-2.4c-0.2,0.8-0.4,1.2-0.4,1.9
				c-1.5-1.5-2.4-2.8-2.4-2.8c-0.2,0.8-0.4,1.1-0.5,1.9c-1.6-1.7-2.4-3.4-2.4-3.4c-0.6,1.8-0.8,3.7-0.8,5.4h-2.2
				c-0.3,0-0.5,0.2-0.5,0.5c0,0.3,0.2,0.5,0.5,0.5h2.2c0.1,1.9,0.3,3.4,0.5,4.4c0.1,0.2,0.3,0.4,0.5,0.6
				C237.8,42.3,238.5,41.1,239.6,39.9z"/>
			<g>
				<path class="st4" d="M243.1,77.1c3.8-1.7,6.4-4.8,6.4-9.2c0-4.4-2.6-7.5-6.3-9.2c-0.9-2-2.6-3.3-4.5-3.3c-0.9,0-1.7,0.3-2.4,0.7
					c-0.1,0.5-0.2,1.2-0.3,2.1c0.3-0.1,0.6-0.1,0.9-0.1c1.7,0,3.1,1.4,3.1,3.1c0,1.7-1.4,3.1-3.1,3.1c-0.5,0-0.9-0.1-1.3-0.3
					c0,1.4-0.1,2.2-0.1,4.1c0,1.7,0,2.5,0.1,3.9c0.4-0.2,0.8-0.3,1.3-0.3c1.7,0,3.1,1.4,3.1,3.1c0,1.7-1.4,3.1-3.1,3.1
					c-0.3,0-0.7-0.1-1-0.2c0.1,0.6,0.1,1.2,0.2,1.7c0.8,0.6,1.6,0.9,2.6,0.9C240.5,80.2,242.1,78.9,243.1,77.1z M240.3,66.1v-0.8
					c0-0.2,0.2-0.3,0.3-0.3s0.3,0.2,0.3,0.3v0.8c0,0.2-0.2,0.3-0.3,0.3S240.3,66.3,240.3,66.1z M245,66.4c-1.5-0.2-2.4-2.4-2-5
					c0.1-0.5,0.3-1.1,0.5-1.5c2,1,3.4,2.5,4.2,4.5C247,65.7,246,66.6,245,66.4z M243,74.3c-0.4-2.5,0.5-4.8,2-5c1-0.1,2,0.7,2.7,2
					c-0.8,2-2.2,3.5-4.2,4.5C243.3,75.3,243.1,74.8,243,74.3z M239.7,77.7c0-0.5,0.4-0.9,0.9-0.9c0.5,0,0.9,0.4,0.9,0.9
					c0,0.5-0.4,0.9-0.9,0.9C240.1,78.6,239.7,78.2,239.7,77.7z"/>
				<path class="st4" d="M239.3,61.1c0-1.4-1.1-2.5-2.5-2.5c-1.4,0-2.5,1.1-2.5,2.5c0,1.4,1.1,2.5,2.5,2.5
					C238.2,63.6,239.3,62.5,239.3,61.1z M235.9,61.1c0-0.5,0.4-1,1-1c0.5,0,1,0.4,1,1c0,0.5-0.4,1-1,1
					C236.3,62.1,235.9,61.7,235.9,61.1z"/>
				<path class="st4" d="M239.3,74.7c0-1.4-1.1-2.5-2.5-2.5c-1.4,0-2.5,1.1-2.5,2.5s1.1,2.5,2.5,2.5
					C238.2,77.2,239.3,76.1,239.3,74.7z M235.9,74.7c0-0.5,0.4-1,1-1c0.5,0,1,0.4,1,1s-0.4,1-1,1C236.3,75.7,235.9,75.2,235.9,74.7z
					"/>
			</g>
		</g>
		<g class="st3">
			<path class="st4" d="M847,209.1H533.8c-15.5,0-28.1-12.6-28.1-28.1V88.6h4.2V181c0,13.2,10.7,23.9,23.9,23.9H847L847,209.1
				L847,209.1z"/>
			<path class="st4" d="M740.5,142.8c0-1.2-0.9-2.1-2.1-2.2c0.2-0.4,0.3-0.9,0.3-1.4c0-2-1.6-3.7-3.7-3.7c-0.3,0-0.6,0-0.9,0.1
				c-0.5-2.1-2.4-3.6-4.6-3.6c-2.6,0-4.8,2.1-4.8,4.8c0,0,0,0.1,0,0.1c-0.2,0-0.4,0-0.5,0c-1.9,0-3.5,1.6-3.5,3.5
				c0,0.2,0,0.4,0.1,0.6c-0.2-0.1-0.4-0.1-0.6-0.1c-1.1,0-2,0.9-2,2c0,1.1,0.9,2,2,2v0h18.5l0,0
				C739.7,144.8,740.5,143.9,740.5,142.8z"/>
			<g>
				<path class="st4" d="M562.9,174.4l-1.5,31.3h3.8l-1.5-31.2c-0.1,0-0.3,0.1-0.4,0.1C563.2,174.5,563,174.4,562.9,174.4z"/>
				<path class="st4" d="M563.8,171.3c0.2-0.7,0.5-1.7,0.5-2.2c0,0-0.5-7.6-0.8-7.6l-0.2,0c-0.3,0-1,7.6-1,7.6
					c0,0.5,0.3,1.5,0.5,2.2c0.2-0.1,0.4-0.1,0.6-0.1C563.5,171.2,563.7,171.2,563.8,171.3z"/>
				<path class="st4" d="M566.7,173.8c-0.3-0.2-1.1-0.6-1.8-0.8c0,0.4-0.3,0.8-0.6,1.1c0.4,0.5,0.9,1.1,1.2,1.3c0,0,6.4,4,6.6,3.8
					l0.1-0.2C572.5,178.8,566.7,173.8,566.7,173.8z"/>
				<path class="st4" d="M561.7,172.8c-0.6,0.2-1.4,0.4-1.7,0.6c0,0-6.3,4.2-6.2,4.5l0.1,0.2c0.2,0.3,7-2.9,7-2.9
					c0.3-0.2,0.8-0.6,1.3-1.1C561.9,173.7,561.7,173.3,561.7,172.8z"/>
				<path class="st4" d="M564.1,173.2c0.1-0.2,0-0.2,0-0.5c0.2,0.1,0.5,0.2,0.8,0.3c0-0.1,0-0.1,0-0.2c0-0.7-0.5-1.4-1.1-1.6
					c-0.1,0.2-0.1,0.4-0.2,0.5c-0.2-0.1-0.1-0.2-0.3-0.2c-0.3,0-0.2,0.1-0.4,0.2c0-0.1-0.1-0.3-0.2-0.5c-0.6,0.2-1.1,0.8-1.1,1.5
					l0,0c0.4-0.1,0.7-0.2,0.9-0.2c0,0.2-0.1,0.2,0,0.4c0.1,0.2,0.2,0.1,0.4,0.2l0-1h0.7l0.1,2.2c0.2-0.1,0.4-0.2,0.6-0.3
					c-0.2-0.3-0.4-0.6-0.6-0.8C564,173.3,564,173.4,564.1,173.2z"/>
				<path class="st4" d="M562.2,174c0.2,0.2,0.4,0.3,0.6,0.4l0.1-1.1C562.8,173.5,562.5,173.8,562.2,174z"/>
				<path class="st4" d="M563,172.2l0,1c0,0,0,0,0.1,0c0,0,0,0.1-0.1,0.1l-0.1,1.1c0.1,0,0.3,0.1,0.5,0.1c0.1,0,0.3,0,0.4-0.1
					l-0.1-2.2L563,172.2L563,172.2z"/>
				<path class="st4" d="M563.4,171.6c0.2,0,0.1,0.1,0.3,0.2c0-0.1,0.1-0.3,0.2-0.5c-0.2,0-0.3-0.1-0.5-0.1c-0.2,0-0.4,0-0.6,0.1
					c0.1,0.2,0.1,0.4,0.2,0.5C563.2,171.6,563.1,171.6,563.4,171.6z"/>
				<path class="st4" d="M565,173c-0.3-0.1-0.6-0.2-0.8-0.3c0,0.3,0.1,0.3,0,0.5c-0.1,0.2-0.1,0.1-0.3,0.1c0.1,0.2,0.3,0.5,0.6,0.8
					C564.7,173.9,564.9,173.5,565,173z"/>
				<path class="st4" d="M562.9,173.3l0-0.1c-0.2-0.1-0.2,0-0.4-0.2c-0.1-0.2,0-0.1,0-0.4c-0.2,0-0.5,0.1-0.9,0.2
					c0,0.5,0.2,0.9,0.5,1.2C562.5,173.8,562.8,173.5,562.9,173.3z"/>
				<path class="st4" d="M563,173.2C563,173.2,563,173.2,563,173.2L563,173.2C563,173.3,563,173.3,563,173.2z"/>
				<path class="st4" d="M546.2,162.1l-2.1,44.6h5.6l-2.1-44.6c-0.2,0-0.4,0.1-0.7,0.1C546.7,162.2,546.4,162.2,546.2,162.1z"/>
				<path class="st4" d="M548,155.3c0.2-0.8,0.4-1.6,0.4-2.1c0,0-0.7-11.1-1.2-11.1l-0.3,0c-0.5,0-1.4,11.1-1.4,11.1
					c0,0.5,0.2,1.3,0.4,2.1c0.4-0.1,0.7-0.2,1.1-0.2C547.4,155.2,547.7,155.2,548,155.3z"/>
				<path class="st4" d="M559.9,168l0.2-0.3c0.3-0.4-8.2-7.6-8.2-7.6c-0.3-0.2-0.9-0.5-1.5-0.8c-0.2,0.8-0.6,1.5-1.3,2.1
					c0.4,0.5,0.8,0.9,1,1C550.2,162.5,559.6,168.4,559.9,168z"/>
				<path class="st4" d="M543.5,159c-0.6,0.2-1.1,0.4-1.4,0.5c0,0-9.3,6.1-9,6.5l0.2,0.3c0.2,0.4,10.3-4.3,10.3-4.3
					c0.3-0.2,0.7-0.5,1-0.8C543.9,160.7,543.5,159.9,543.5,159z"/>
				<path class="st4" d="M548.9,158.7C548.9,158.8,548.9,158.8,548.9,158.7c0.5,0.2,1,0.5,1.5,0.7c0-0.2,0.1-0.4,0.1-0.7
					c0-1.6-1-2.9-2.5-3.4c-0.2,0.6-0.3,1.1-0.5,1.5C548.3,157.1,548.9,157.9,548.9,158.7z"/>
				<path class="st4" d="M545.7,160.1c-0.4,0.4-0.8,0.8-1.2,1.1c0.5,0.5,1.1,0.8,1.7,0.9l0.1-1.6
					C546.1,160.4,545.8,160.3,545.7,160.1z"/>
				<path class="st4" d="M547.5,160.5l0.1,1.6c0.6-0.1,1.1-0.4,1.6-0.7c-0.4-0.4-0.7-0.9-1-1.2C548,160.4,547.8,160.5,547.5,160.5z"
					/>
				<path class="st4" d="M546.3,156.9c-0.1-0.4-0.3-1-0.4-1.5c-1.4,0.5-2.4,1.8-2.4,3.3c0,0.1,0,0.2,0,0.3c0.5-0.2,1.1-0.3,1.6-0.4
					C545.1,157.8,545.6,157.1,546.3,156.9z"/>
				<path class="st4" d="M546.9,160.6c-0.2,0-0.4,0-0.6-0.1l-0.1,1.6c0.2,0,0.5,0.1,0.7,0.1c0.2,0,0.4,0,0.7-0.1l-0.1-1.6
					C547.3,160.6,547.1,160.6,546.9,160.6z"/>
				<path class="st4" d="M547,156.8c0.2,0,0.4,0,0.6,0.1c0.1-0.4,0.3-1,0.5-1.5c-0.3-0.1-0.7-0.2-1-0.2c-0.4,0-0.8,0.1-1.1,0.2
					c0.1,0.6,0.3,1.1,0.4,1.5C546.5,156.8,546.7,156.8,547,156.8z"/>
				<path class="st4" d="M550.4,159.4c-0.5-0.2-1.1-0.4-1.5-0.6c0,0.6-0.3,1.1-0.7,1.4c0.3,0.4,0.7,0.8,1,1.2
					C549.8,160.9,550.3,160.2,550.4,159.4z"/>
				<path class="st4" d="M545.7,160.1c-0.4-0.4-0.6-0.9-0.6-1.4c0,0,0-0.1,0-0.1c-0.5,0.1-1.1,0.3-1.6,0.4c0.1,0.9,0.5,1.7,1.1,2.2
					C544.9,160.9,545.3,160.5,545.7,160.1z"/>
				<path class="st4" d="M545.7,160.1c0.2,0.2,0.4,0.3,0.6,0.4l0.1-1.1C546.2,159.6,545.9,159.8,545.7,160.1z"/>
				<path class="st4" d="M547.6,156.9c0,0.1-0.1,0.2-0.1,0.2c-0.3-0.2-0.1-0.3-0.5-0.3c-0.4,0-0.3,0.1-0.6,0.4
					c0-0.1-0.1-0.2-0.1-0.3c-0.7,0.3-1.2,0.9-1.3,1.7c0.3-0.1,0.6-0.1,0.8-0.2c0,0.3-0.2,0.3,0,0.5c0.2,0.3,0.2,0.2,0.5,0.3l0.1-1.5
					h1l0.1,2.7c0.2-0.1,0.5-0.2,0.6-0.3c-0.2-0.3-0.4-0.5-0.5-0.7c0.3-0.1,0.3,0,0.5-0.2c0.2-0.3,0.1-0.3,0-0.7
					c0.2,0.1,0.4,0.1,0.7,0.2c0,0,0-0.1,0-0.1C548.9,157.9,548.3,157.1,547.6,156.9z"/>
				<path class="st4" d="M546.4,157.8l-0.1,1.5c0,0,0.1,0,0.1,0c0,0-0.1,0.1-0.1,0.1l-0.1,1.1c0.2,0.1,0.4,0.1,0.6,0.1
					c0.2,0,0.4,0,0.6-0.1l-0.1-2.7H546.4z"/>
				<path class="st4" d="M547,156.8c0.3,0,0.2,0.1,0.5,0.3c0-0.1,0.1-0.1,0.1-0.2C547.4,156.8,547.2,156.8,547,156.8
					c-0.3-0.1-0.5,0-0.7,0.1c0,0.1,0.1,0.2,0.1,0.3C546.7,157,546.6,156.8,547,156.8z"/>
				<path class="st4" d="M548.1,159.3c-0.2,0.3-0.2,0.1-0.5,0.2c0.1,0.2,0.3,0.4,0.5,0.7c0.4-0.3,0.7-0.8,0.7-1.4
					c-0.3-0.1-0.5-0.2-0.7-0.2C548.2,159,548.3,159,548.1,159.3z"/>
				<path class="st4" d="M546.4,159.2c-0.3-0.1-0.4,0-0.5-0.3c-0.2-0.3,0-0.2,0-0.5c-0.2,0-0.5,0.1-0.8,0.2c0,0,0,0.1,0,0.1
					c0,0.6,0.2,1.1,0.6,1.4c0.3-0.3,0.5-0.5,0.7-0.7L546.4,159.2z"/>
				<path class="st4" d="M546.5,159.3c0,0-0.1,0-0.1,0l0,0.2C546.4,159.4,546.4,159.3,546.5,159.3z"/>
			</g>
			<polygon class="st4" points="783,120.6 783,119.2 783,119.2 827,119.1 827,120.6 783,120.6 			"/>
			<path class="st4" d="M759.9,187.3h-3.8c-0.3-1.7-1.7-3.1-3.4-3.4l-0.8-11l0.4-2.4h-3.9l0.5,2.4l-0.8,11c-1.7,0.3-3.1,1.7-3.4,3.4
				h-3.6c-1,0-1.9,0.8-1.9,1.8v17.3h11.2h0h11.2v-17.3C761.8,188.1,761,187.3,759.9,187.3z M745.9,202.8h-4.2v-5.1h4.2V202.8z
				 M745.9,194.8h-4.2v-5.1h4.2V194.8z M753.2,202.8H749v-5.1h4.2V202.8z M753.2,194.8H749v-5.1h4.2V194.8z"/>
			<path class="st4" d="M782.7,203.3h-3.2v5.8h2.1c0.3-0.9,1.7-1.7,3.4-1.7h5.2c1.7,0,3.1,0.7,3.4,1.7h2.1v-5.8h-3.2v-4h-2.9V132
				l0.6-6.5v-0.6l12.9,0.2v0.6v0.6h1.3v-0.6h0.2v0.6h1.3v-0.6h0.2v0.6h1.3v-0.6h0.2v0.6h1.3v-1.1l0.8,0v-4.7l-0.8,0v-0.8H808v0.6
				h-0.2v-0.6h-1.3v0.6h-0.2v-0.6h-1.3v0.6h-0.2v-0.6h-1.3v0.6v0.3l-12.9,0.2v-0.3h-0.6l0-3.7h-1.6v-2.3h-0.8v2.3h-1.6l0,3.7h-0.5
				v0.4l-42.6,0.5v0.4h-2.2v2.3h2.2v0.4l42.6,0.5v0.7l0.4,6.5v67.3h-2.9L782.7,203.3L782.7,203.3z M785.2,123.5l-42.6,0h0v-1.4h0
				l42.6,0V123.5z M790.4,122l12.9,0v1.5l-12.9,0V122z M786.9,189.8h1.6v4.7h-1.6V189.8z M786.9,176h1.6v4.7h-1.6V176z M786.9,160.3
				h1.6v4.7h-1.6V160.3z M786.9,144.6h1.6v4.7h-1.6V144.6z M786.9,126.5h0.4h0.8h0.4v4.7h-1.6L786.9,126.5L786.9,126.5z"/>
			<path class="st4" d="M732.4,180h-2.7l-1.6-23.5l0.7-3.5H723l0.7,3.5l-1.6,23.5h-7.2l-1.6-23.5l0.7-3.5h-5.7l0.7,3.5l-1.6,23.5
				h-3.4c-1.5,0-2.8,1.2-2.8,2.7v3v17.1v3h34.1v-3v-17.1v-3C735.2,181.2,734,180,732.4,180z M709.6,202.8h-2.3v-5.5h2.3V202.8z
				 M709.6,194.2h-2.3v-5.8h2.3V194.2z M714.4,202.8h-2.3v-5.5h2.3V202.8z M714.4,194.2h-2.3v-5.8h2.3V194.2z M719.3,202.8H717v-5.5
				h2.3V202.8z M719.3,194.2H717v-5.8h2.3V194.2z M724.2,202.8h-2.3v-5.5h2.3V202.8z M724.2,194.2h-2.3v-5.8h2.3V194.2z M729,202.8
				h-2.3v-5.5h2.3V202.8z M729,194.2h-2.3v-5.8h2.3V194.2z"/>
		</g>
		<g class="st3">
			<path class="st4" d="M330.7,89.4"/>
			<path class="st4" d="M234.1,93.8l0-4.6l460.3-0.4l0,0l1.4,0c14.4,0,26.1-11.7,26.1-26.1V0h4.6v62.7c0,16.5-13,29.9-29.3,30.7l0,0
				l-1.4,0L234.1,93.8z"/>
			<path class="st4" d="M6.9,121.3c-0.4,3.9-6.1,7.7-6.1,12.2c0,2.8,2.8,6.2,6.6,6.2c3.7,0,6.5-3.5,6.6-6.2
				c0.1-4.2-5.5-8.8-6.2-12.2c0,0,0-0.2-0.4-0.2C6.9,121.1,6.9,121.3,6.9,121.3z"/>
			<path class="st4" d="M30.7,86.8v-4.7h1.2c0.6,2,2.5,3.5,4.7,3.5c2.7,0,4.9-2.2,4.9-4.9c0-2.7-2.2-4.9-4.9-4.9
				c-2.2,0-4.1,1.5-4.7,3.5h-1.2v-2.9c0-0.8-1.4-1.4-2.2-1.4c-0.8,0-2.2,0.6-2.2,1.4v2.9h-1.2c-0.6-2-2.5-3.5-4.7-3.5
				c-2.7,0-4.9,2.2-4.9,4.9c0,2.7,2.2,4.9,4.9,4.9c2.2,0,4.1-1.5,4.7-3.5h1.2v4.7c-2.6,0.6-4.5,2.3-4.9,4.4h14.1
				C35.3,89.1,33.3,87.4,30.7,86.8z M36.6,78.7c1.1,0,2,0.9,2,2c0,1.1-0.9,2-2,2c-1.1,0-2-0.9-2-2C34.6,79.6,35.5,78.7,36.6,78.7z
				 M20.4,82.8c-1.1,0-2-0.9-2-2c0-1.1,0.9-2,2-2c1.1,0,2,0.9,2,2C22.4,81.9,21.5,82.8,20.4,82.8z"/>
			<path class="st4" d="M57.1,94.1v1.9H35.7v-2.2H21.4v2.2h-2.2c-8.7,0-15.8,6.5-16.7,14.9c-1.4,0.3-2.5,1.6-2.5,3.1
				c0,1.5,1,2.7,2.4,3.1v0h0.1c0.3,0.1,0.5,0.1,0.8,0.1h7.2c0.3,0,0.5,0,0.8-0.1h0v0c1.4-0.4,2.4-1.6,2.4-3.1c0-1.4-0.9-2.6-2.2-3
				c0.9-3.5,4-6.1,7.7-6.1h2.2v0.8c0,2.9,3.2,5.3,7.1,5.3c3.9,0,7.1-2.4,7.1-5.3v-0.8h21.4v2.1h4.2V94.1H57.1z"/>
			<path class="st4" d="M229.9,168.9H92.4c-16.9,0-30.7-13.8-30.7-30.7V57.6h4.6v80.6c0,14.4,11.7,26.1,26.1,26.1h137.5L229.9,168.9
				L229.9,168.9z"/>
			<path class="st4" d="M63.3,57.5c7.6,0.1,15-5.6,14.8-13.3c-0.2-9.3-12.3-22-13.7-30.3c0,0,0-0.7-0.9-0.7c-0.7,0-0.8,0.7-0.8,0.7
				c-1.5,9.4-14,21.4-14.1,30.1C48.6,51.7,55.7,57.5,63.3,57.5z M63,49.2c1.7,0.6,5.9,2,8.4-0.1c4.5-3.9,4.3-9.6,4.3-9.6
				s0.3,1.2,0.4,3c0,1.8-0.1,5.1-2.7,8.2c-2.4,2.9-5.2,3.5-7.4,3.6c-1.7,0.1-3.2-0.2-4.8-0.9C57.9,51.8,59.5,47.9,63,49.2z"/>
			<path class="st4" d="M754.7,38.7l-7-7c-0.5-0.5-1.4-0.6-2-0.1c-0.4-0.2-0.8-0.3-1.2-0.3h-6.7V18.3c0-1.5-1.2-2.7-2.7-2.7h-9.2
				v20.8h0v11.1h18.5c0.4,0,0.8-0.1,1.1-0.3v0.5c0.6,0.6,1.5,0.6,2,0l7-6.9C755.3,40.1,755.3,39.2,754.7,38.7z M743.8,39.2h-5.9
				v-4.3h5.9V39.2z M743.8,43.9h-5.9v-4.3h5.9V43.9z M728.6,24.9h5.9v4.3h-5.9V24.9z M728.6,20.2h5.9v4.3h-5.9V20.2z M728.6,34.9
				h5.9v1.4v2.9h-5.9v-2.9V34.9z M734.5,43.9h-5.9v-4.3h5.9V43.9z"/>
			<g>
				<path class="st4" d="M425.1,58.5l-1.4,30.3h3.7L426,58.5c-0.1,0-0.3,0.1-0.4,0C425.4,58.6,425.3,58.5,425.1,58.5z"/>
				<path class="st4" d="M426.1,55.5c0.2-0.7,0.5-1.6,0.5-2.1c0,0-0.5-7.3-0.8-7.3l-0.2,0c-0.3,0-0.9,7.3-0.9,7.3
					c0,0.5,0.2,1.4,0.4,2.1c0.2-0.1,0.3-0.1,0.5-0.1C425.8,55.4,425.9,55.4,426.1,55.5z"/>
				<path class="st4" d="M428.9,57.9c-0.3-0.2-1.1-0.5-1.7-0.8c0,0.4-0.3,0.8-0.6,1.1c0.4,0.5,0.9,1.1,1.2,1.3c0,0,6.2,3.9,6.4,3.7
					l0.1-0.2C434.5,62.7,428.9,57.9,428.9,57.9z"/>
				<path class="st4" d="M424,57c-0.6,0.2-1.3,0.4-1.7,0.5c0,0-6.1,4.1-6,4.3l0.1,0.2c0.1,0.3,6.8-2.9,6.8-2.9
					c0.3-0.2,0.8-0.6,1.2-1C424.2,57.8,424,57.4,424,57z"/>
				<path class="st4" d="M426.3,57.4c0.1-0.2,0-0.2,0-0.5c0.2,0.1,0.5,0.1,0.8,0.3c0-0.1,0-0.1,0-0.2c0-0.7-0.5-1.3-1.1-1.5
					c-0.1,0.2-0.1,0.3-0.2,0.5c-0.2-0.1-0.1-0.2-0.3-0.2c-0.2,0-0.2,0.1-0.4,0.2c0-0.1-0.1-0.3-0.2-0.5c-0.6,0.2-1.1,0.8-1.1,1.5
					l0,0c0.4-0.1,0.7-0.2,0.9-0.2c0,0.2-0.1,0.2,0,0.4c0.1,0.2,0.2,0.1,0.3,0.2l0-1h0.6l0.1,2.1c0.2-0.1,0.4-0.2,0.6-0.3
					c-0.2-0.3-0.4-0.6-0.5-0.7C426.2,57.4,426.2,57.5,426.3,57.4z"/>
				<path class="st4" d="M424.5,58.1c0.2,0.2,0.4,0.3,0.6,0.4l0-1.1C425,57.6,424.8,57.9,424.5,58.1z"/>
				<path class="st4" d="M425.2,56.4l0,1c0,0,0,0,0.1,0c0,0,0,0.1-0.1,0.1l0,1.1c0.1,0,0.3,0.1,0.4,0.1c0.1,0,0.3,0,0.4,0l-0.1-2.1
					L425.2,56.4L425.2,56.4z"/>
				<path class="st4" d="M425.6,55.7c0.2,0,0.1,0.1,0.3,0.2c0-0.1,0.1-0.3,0.2-0.5c-0.1,0-0.3-0.1-0.5-0.1c-0.2,0-0.4,0-0.5,0.1
					c0.1,0.2,0.1,0.4,0.2,0.5C425.4,55.8,425.4,55.7,425.6,55.7z"/>
				<path class="st4" d="M427.2,57.2c-0.3-0.1-0.6-0.2-0.8-0.3c0,0.3,0.1,0.3,0,0.5c-0.1,0.2-0.1,0.1-0.3,0.1
					c0.1,0.2,0.3,0.4,0.5,0.7C426.9,58,427.1,57.6,427.2,57.2z"/>
				<path class="st4" d="M425.2,57.4l0-0.1c-0.2-0.1-0.2,0-0.3-0.2c-0.1-0.2,0-0.1,0-0.4c-0.2,0-0.5,0.1-0.9,0.2
					c0,0.5,0.2,0.9,0.5,1.2C424.8,57.9,425,57.6,425.2,57.4z"/>
				<path class="st4" d="M425.2,57.4C425.2,57.4,425.2,57.3,425.2,57.4L425.2,57.4C425.2,57.4,425.2,57.4,425.2,57.4z"/>
				<path class="st4" d="M409,45.7l-2,43.2h5.4l-2-43.2c-0.2,0-0.4,0.1-0.6,0.1C409.4,45.8,409.2,45.8,409,45.7z"/>
				<path class="st4" d="M410.7,39.1c0.2-0.8,0.4-1.6,0.4-2c0,0-0.7-10.8-1.1-10.8l-0.3,0c-0.4,0-1.4,10.7-1.4,10.7
					c0,0.5,0.2,1.3,0.4,2.1c0.3-0.1,0.7-0.2,1.1-0.2C410.1,39,410.4,39,410.7,39.1z"/>
				<path class="st4" d="M422.2,51.4l0.2-0.3c0.3-0.4-7.9-7.4-7.9-7.4c-0.3-0.2-0.9-0.5-1.5-0.7c-0.2,0.8-0.6,1.5-1.2,2
					c0.4,0.4,0.7,0.8,1,1C412.8,46.1,422,51.8,422.2,51.4z"/>
				<path class="st4" d="M406.3,42.7c-0.6,0.2-1.1,0.3-1.4,0.5c0,0-9,6-8.8,6.3l0.2,0.3c0.2,0.4,10-4.2,10-4.2
					c0.3-0.1,0.6-0.4,1-0.8C406.8,44.3,406.4,43.5,406.3,42.7z"/>
				<path class="st4" d="M411.6,42.4C411.6,42.4,411.6,42.5,411.6,42.4c0.4,0.2,1,0.4,1.5,0.7c0-0.2,0.1-0.4,0.1-0.6
					c0-1.5-1-2.9-2.4-3.3c-0.2,0.6-0.3,1.1-0.4,1.5C411,40.9,411.6,41.6,411.6,42.4z"/>
				<path class="st4" d="M408.5,43.8c-0.3,0.4-0.7,0.7-1.1,1.1c0.5,0.4,1,0.8,1.7,0.9l0.1-1.6C408.8,44.1,408.6,43.9,408.5,43.8z"/>
				<path class="st4" d="M410.2,44.2l0.1,1.6c0.6-0.1,1.1-0.3,1.5-0.7c-0.3-0.4-0.7-0.8-1-1.2C410.7,44,410.5,44.1,410.2,44.2z"/>
				<path class="st4" d="M409.1,40.6c-0.1-0.4-0.3-0.9-0.4-1.5c-1.4,0.4-2.4,1.7-2.4,3.2c0,0.1,0,0.2,0,0.3c0.5-0.1,1.1-0.3,1.5-0.4
					C407.9,41.5,408.4,40.9,409.1,40.6z"/>
				<path class="st4" d="M409.7,44.3c-0.2,0-0.4,0-0.6-0.1l-0.1,1.6c0.2,0,0.5,0.1,0.7,0.1c0.2,0,0.4,0,0.6-0.1l-0.1-1.6
					C410.1,44.2,409.9,44.3,409.7,44.3z"/>
				<path class="st4" d="M409.7,40.5c0.2,0,0.4,0,0.6,0.1c0.1-0.4,0.3-0.9,0.4-1.5c-0.3-0.1-0.6-0.1-1-0.2c-0.4,0-0.7,0.1-1.1,0.2
					c0.1,0.6,0.3,1.1,0.4,1.5C409.3,40.6,409.5,40.5,409.7,40.5z"/>
				<path class="st4" d="M413,43.1c-0.5-0.2-1-0.4-1.5-0.6c0,0.5-0.3,1-0.7,1.4c0.3,0.4,0.6,0.8,1,1.2
					C412.5,44.6,412.9,43.9,413,43.1z"/>
				<path class="st4" d="M408.5,43.8c-0.4-0.3-0.6-0.8-0.6-1.4c0,0,0-0.1,0-0.1c-0.5,0.1-1,0.2-1.5,0.4c0.1,0.9,0.4,1.6,1,2.2
					C407.7,44.5,408.1,44.1,408.5,43.8z"/>
				<path class="st4" d="M408.5,43.8c0.2,0.2,0.4,0.3,0.6,0.4l0-1.1C408.9,43.3,408.7,43.5,408.5,43.8z"/>
				<path class="st4" d="M410.3,40.6c0,0.1-0.1,0.2-0.1,0.2c-0.3-0.2-0.1-0.3-0.4-0.3c-0.4,0-0.3,0.1-0.6,0.4c0-0.1-0.1-0.2-0.1-0.3
					c-0.7,0.2-1.2,0.9-1.2,1.6c0.3-0.1,0.6-0.1,0.8-0.2c0,0.3-0.2,0.3,0,0.5c0.2,0.3,0.2,0.2,0.5,0.3l0.1-1.4h0.9l0.1,2.7
					c0.2-0.1,0.4-0.2,0.6-0.3c-0.2-0.3-0.4-0.5-0.5-0.7c0.3-0.1,0.3,0,0.5-0.2c0.2-0.3,0.1-0.3,0-0.7c0.2,0.1,0.4,0.1,0.7,0.2
					c0,0,0-0.1,0-0.1C411.6,41.6,411,40.9,410.3,40.6z"/>
				<path class="st4" d="M409.2,41.5l-0.1,1.4c0,0,0.1,0,0.1,0c0,0-0.1,0.1-0.1,0.1l0,1.1c0.2,0.1,0.4,0.1,0.6,0.1
					c0.2,0,0.4,0,0.6-0.1l-0.1-2.7L409.2,41.5L409.2,41.5z"/>
				<path class="st4" d="M409.8,40.6c0.3,0,0.2,0.1,0.4,0.3c0-0.1,0-0.1,0.1-0.2C410.1,40.6,409.9,40.5,409.8,40.6
					c-0.3,0-0.5,0-0.7,0.1c0,0.1,0.1,0.2,0.1,0.3C409.5,40.7,409.4,40.6,409.8,40.6z"/>
				<path class="st4" d="M410.8,42.9c-0.2,0.2-0.2,0.1-0.5,0.2c0.1,0.2,0.3,0.4,0.5,0.7c0.4-0.3,0.7-0.8,0.7-1.4
					c-0.3-0.1-0.5-0.2-0.7-0.2C410.9,42.6,411,42.7,410.8,42.9z"/>
				<path class="st4" d="M409.1,42.9c-0.3-0.1-0.3,0-0.5-0.3c-0.2-0.3,0-0.2,0-0.5c-0.2,0-0.5,0.1-0.8,0.2c0,0,0,0.1,0,0.1
					c0,0.6,0.2,1,0.6,1.4c0.3-0.3,0.5-0.5,0.7-0.7L409.1,42.9z"/>
				<path class="st4" d="M409.2,43C409.2,42.9,409.1,42.9,409.2,43l-0.1,0.1C409.1,43,409.2,43,409.2,43z"/>
			</g>
			<path class="st4" d="M726.5,60.5c0,0.2,0.2,0.4,0.4,0.4h2.1c0.1,2.9,0.7,5,0.7,5s0.7-1.6,2.3-3.2c0.2,1.3,0.4,1.9,0.4,1.9
				s0.7-1.3,2.2-2.7c0.1,1.3,0.4,1.8,0.4,1.8s0.6-1.1,1.9-2.2c0.1,1,0.3,1.5,0.3,1.5s0.5-1,1.6-1.9c0.1,0.8,0.2,1.2,0.2,1.2
				s0.7-1.3,2-1.9c0,0,0,0,0,0c-1.3-0.6-2-1.9-2-1.9c-0.1,0.4-0.2,0.7-0.2,1.2c-1-0.9-1.6-1.9-1.6-1.9c-0.2,0.5-0.3,0.9-0.3,1.5
				c-1.2-1.1-1.9-2.2-1.9-2.2c-0.2,0.7-0.3,1.1-0.4,1.8c-1.4-1.4-2.2-2.6-2.2-2.6c-0.2,0.7-0.4,1.1-0.5,1.8
				c-0.2-0.2-0.4-0.4-0.5-0.6c-0.2,0.4-0.3,0.6-0.3,0.6s-0.1-0.5-0.3-1.4c-0.7-1-1.1-1.7-1.1-1.7c-0.5,1.7-0.7,3.5-0.7,5H727
				C726.7,60.1,726.5,60.3,726.5,60.5z"/>
			<g>
				<path class="st4" d="M594.4,84c3.2,0,6.4,0,9.6,0v1.1c-2.7,0.3-4.7,2-4.7,3.5h11.4c0-1.5-2-3.2-4.7-3.5V84c3.2,0,6.3,0,9.5,0
					c1.7,0,2.9-2,2.7-3.5c-0.6-4-1.2-8.1-1.8-12.1c-0.2-1.5-1.5-2.7-2.9-2.7c-5.6,0-11.3,0-16.9,0c-1.4,0-2.7,1.2-2.9,2.7
					c-0.6,4-1.2,8.1-1.8,12.1C591.6,82,592.7,84,594.4,84z M593.6,79.4c0.4-3.4,0.9-6.8,1.3-10.2c0.2-1.2,1.3-2.3,2.5-2.3
					c5.1,0,10.1,0,15.2,0c1.2,0,2.4,1,2.6,2.3c0.4,3.4,0.9,6.8,1.3,10.2c0.2,1.2-0.9,2.3-2.4,2.3c-6,0-12.1,0-18.1,0
					C594.5,81.7,593.4,80.7,593.6,79.4z"/>
				<path class="st4" d="M600.9,72.6h-5.4c-0.1,1.1-0.3,2.2-0.4,3.4h5.6L600.9,72.6z"/>
				<path class="st4" d="M607.6,67.9c-1.7,0-3.4,0-5.1,0l-0.1,3.2h5.3L607.6,67.9z"/>
				<polygon class="st4" points="607.8,72.6 602.3,72.6 602.2,76 607.9,76 				"/>
				<path class="st4" d="M609.6,80.8c1.2,0,2.4,0,3.5,0c1.3,0,2.3-0.9,2.2-2c-0.1-0.4-0.1-0.9-0.2-1.3h-5.7L609.6,80.8z"/>
				<path class="st4" d="M608,77.5h-5.9l-0.1,3.3c2.1,0,4.1,0,6.2,0L608,77.5z"/>
				<path class="st4" d="M609.4,76h5.6c-0.1-1.1-0.3-2.2-0.4-3.4h-5.3L609.4,76z"/>
				<path class="st4" d="M601.1,67.9c-1,0-2,0-3,0c-1.1,0-2.1,0.9-2.3,2c0,0.4-0.1,0.8-0.1,1.2h5.3L601.1,67.9z"/>
				<path class="st4" d="M614.3,71.1c0-0.4-0.1-0.8-0.1-1.2c-0.1-1.1-1.2-2-2.3-2c-1,0-1.9,0-2.9,0l0.1,3.2H614.3z"/>
				<path class="st4" d="M597,80.8c1.2,0,2.4,0,3.6,0l0.1-3.3H595c0,0.4-0.1,0.9-0.2,1.3C594.7,79.9,595.6,80.8,597,80.8z"/>
				<path class="st4" d="M623.6,84c3.2,0,6.4,0,9.6,0v1.1c-2.7,0.3-4.7,2-4.7,3.5h11.4c0-1.5-2-3.2-4.7-3.5V84c3.2,0,6.3,0,9.5,0
					c1.7,0,2.9-2,2.7-3.5c-0.6-4-1.2-8.1-1.8-12.1c-0.2-1.5-1.5-2.7-2.9-2.7c-5.6,0-11.3,0-16.9,0c-1.4,0-2.7,1.2-2.9,2.7
					c-0.6,4-1.2,8.1-1.8,12.1C620.8,82,621.8,84,623.6,84z M622.8,79.4c0.4-3.4,0.9-6.8,1.3-10.2c0.2-1.2,1.3-2.3,2.5-2.3
					c5.1,0,10.1,0,15.2,0c1.2,0,2.4,1,2.6,2.3c0.4,3.4,0.9,6.8,1.3,10.2c0.2,1.2-0.9,2.3-2.4,2.3c-6,0-12.1,0-18.1,0
					C623.7,81.7,622.6,80.7,622.8,79.4z"/>
				<path class="st4" d="M630.1,72.6h-5.4c-0.1,1.1-0.3,2.2-0.4,3.4h5.6L630.1,72.6z"/>
				<path class="st4" d="M636.8,67.9c-1.7,0-3.4,0-5.1,0l-0.1,3.2h5.3L636.8,67.9z"/>
				<polygon class="st4" points="637,72.6 631.5,72.6 631.4,76 637.1,76 				"/>
				<path class="st4" d="M638.8,80.8c1.2,0,2.4,0,3.5,0c1.3,0,2.3-0.9,2.2-2c-0.1-0.4-0.1-0.9-0.2-1.3h-5.7L638.8,80.8z"/>
				<path class="st4" d="M637.2,77.5h-5.9l-0.1,3.3c2.1,0,4.1,0,6.2,0L637.2,77.5z"/>
				<path class="st4" d="M638.5,76h5.6c-0.1-1.1-0.3-2.2-0.4-3.4h-5.3L638.5,76z"/>
				<path class="st4" d="M630.3,67.9c-1,0-2,0-3,0c-1.1,0-2.1,0.9-2.3,2c0,0.4-0.1,0.8-0.1,1.2h5.2L630.3,67.9z"/>
				<path class="st4" d="M643.5,71.1c0-0.4-0.1-0.8-0.1-1.2c-0.1-1.1-1.2-2-2.3-2c-1,0-1.9,0-2.9,0l0.1,3.2H643.5z"/>
				<path class="st4" d="M626.2,80.8c1.2,0,2.4,0,3.6,0l0.1-3.3h-5.7c-0.1,0.4-0.1,0.9-0.2,1.3C623.9,79.9,624.8,80.8,626.2,80.8z"
					/>
			</g>
		</g>
		<path class="st5" d="M418.8,179.4l-1.7,0l-3.6,3.6l0.1-8.8l0.1,0c0.4,0,0.6-0.3,0.7-0.6c0-0.4-0.3-0.6-0.6-0.7l-13.6-0.1
			c-0.1,0-0.2,0-0.3,0.1l0.1-8.3c0.6-0.1,1-0.5,1-1.1c0-0.6-0.4-1-1-1.1v0l-0.1,0l-18.4-0.2l-0.2,0c-0.6,0-1.1,0.5-1.1,1.1
			c0,0.6,0.5,1.1,1.1,1.1l0.2,0l-0.7,50.6l1.1,0l0.3-6.6l2.8,0l-0.3,6.6l0.8,0l0.3-6.6l2.8,0l-0.3,6.6l0.8,0l0.3-6.6l2.8,0l-0.3,6.6
			l4.2,0l3.3,0l11.6,0.1l2.2,0l9.4,0.1l0.5-32.2L418.8,179.4z M386.2,203.7l-2.9,0l0-2.6l2.9,0L386.2,203.7z M386.3,199.8l-2.9,0
			l0-2.6l2.9,0L386.3,199.8z M386.3,195.9l-2.9,0l0-2.6l2.9,0L386.3,195.9z M386.3,192l-2.9,0l0-2.6l2.9,0L386.3,192z M386.4,188.2
			l-2.9,0l0-2.6l2.9,0L386.4,188.2z M386.4,184.3l-2.9,0l0-2.6l2.9,0L386.4,184.3z M386.4,180.4l-2.9,0l0-2.6l2.9,0L386.4,180.4z
			 M386.5,176.5l-2.9,0l0-2.6l2.9,0L386.5,176.5z M386.5,172.6l-2.9,0l0-2.6l2.9,0L386.5,172.6z M386.5,168.8l-2.9,0l0-2.6l2.9,0
			L386.5,168.8z M390.3,203.7l-2.9,0l0-2.6l2.9,0L390.3,203.7z M390.3,199.8l-2.9,0l0-2.6l2.9,0L390.3,199.8z M390.3,195.9l-2.9,0
			l0-2.6l2.9,0L390.3,195.9z M390.4,192.1l-2.9,0l0-2.6l2.9,0L390.4,192.1z M390.4,188.2l-2.9,0l0-2.6l2.9,0L390.4,188.2z
			 M390.4,184.3l-2.9,0l0-2.6l2.9,0L390.4,184.3z M390.5,180.4l-2.9,0l0-2.6l2.9,0L390.5,180.4z M390.5,176.6l-2.9,0l0-2.6l2.9,0
			L390.5,176.6z M390.5,172.7l-2.9,0l0-2.6l2.9,0L390.5,172.7z M390.6,168.8l-2.9,0l0-2.6l2.9,0L390.6,168.8z M394.3,203.7l-2.9,0
			l0-2.6l2.9,0L394.3,203.7z M394.3,199.9l-2.9,0l0-2.6l2.9,0L394.3,199.9z M394.3,196l-2.9,0l0-2.6l2.9,0L394.3,196z M394.4,192.1
			l-2.9,0l0-2.6l2.9,0L394.4,192.1z M394.4,188.2l-2.9,0l0-2.6l2.9,0L394.4,188.2z M394.4,184.3l-2.9,0l0-2.6l2.9,0L394.4,184.3z
			 M394.5,180.5l-2.9,0l0-2.6l2.9,0L394.5,180.5z M394.5,176.6l-2.9,0l0-2.6l2.9,0L394.5,176.6z M394.5,172.7l-2.9,0l0-2.6l2.9,0
			L394.5,172.7z M394.6,168.8l-2.9,0l0-2.6l2.9,0L394.6,168.8z M397.4,213.6l-1.7,0l0.3-5.7l1.7,0L397.4,213.6z M397.7,207.5l-1.7,0
			l0-5.2l1.7,0L397.7,207.5z M397.7,202l-1.7,0l0-5.2l1.7,0L397.7,202z M397.8,196.4l-1.7,0l0-5.2l1.7,0L397.8,196.4z M397.8,190.9
			l-1.7,0l0-5.2l1.7,0L397.8,190.9z M397.9,185.4l-1.7,0l0-5.2l1.7,0L397.9,185.4z M397.9,179.9l-1.7,0l0-5.2l1.7,0L397.9,179.9z
			 M399.7,213.6l-1.7,0l0.3-5.7l1.7,0L399.7,213.6z M400,207.5l-1.7,0l0-5.2l1.7,0L400,207.5z M400,202l-1.7,0l0-5.2l1.7,0L400,202z
			 M400.1,196.5l-1.7,0l0-5.2l1.7,0L400.1,196.5z M400.1,190.9l-1.7,0l0-5.2l1.7,0L400.1,190.9z M400.2,185.4l-1.7,0l0-5.2l1.7,0
			L400.2,185.4z M400.2,179.9l-1.7,0l0-5.2l1.7,0L400.2,179.9z M404.6,204.5l-2.9,0l0-2.6l2.9,0L404.6,204.5z M404.6,200.6l-2.9,0
			l0-2.6l2.9,0L404.6,200.6z M404.7,196.7l-2.9,0l0-2.6l2.9,0L404.7,196.7z M404.7,192.8l-2.9,0l0-2.6l2.9,0L404.7,192.8z
			 M404.7,189l-2.9,0l0-2.6l2.9,0L404.7,189z M404.8,185.1l-2.9,0l0-2.6l2.9,0L404.8,185.1z M404.8,181.2l-2.9,0l0-2.6l2.9,0
			L404.8,181.2z M404.8,177.3l-2.9,0l0-2.6l2.9,0L404.8,177.3z M408.6,204.5l-2.9,0l0-2.6l2.9,0L408.6,204.5z M408.7,200.6l-2.9,0
			l0-2.6l2.9,0L408.7,200.6z M408.7,196.7l-2.9,0l0-2.6l2.9,0L408.7,196.7z M408.7,192.9l-2.9,0l0-2.6l2.9,0L408.7,192.9z
			 M408.8,189l-2.9,0l0-2.6l2.9,0L408.8,189z M408.8,185.1l-2.9,0l0-2.6l2.9,0L408.8,185.1z M408.8,181.2l-2.9,0l0-2.6l2.9,0
			L408.8,181.2z M408.9,177.4l-2.9,0l0-2.6l2.9,0L408.9,177.4z M412.6,204.5l-2.9,0l0-2.6l2.9,0L412.6,204.5z M412.7,200.7l-2.9,0
			l0-2.6l2.9,0L412.7,200.7z M412.7,196.8l-2.9,0l0-2.6l2.9,0L412.7,196.8z M412.8,192.9l-2.9,0l0-2.6l2.9,0L412.8,192.9z
			 M412.8,189l-2.9,0l0-2.6l2.9,0L412.8,189z M412.8,185.1l-2.9,0l0-2.6l2.9,0L412.8,185.1z M412.8,181.3l-2.9,0l0-2.6l2.9,0
			L412.8,181.3z M412.9,177.4l-2.9,0l0-2.6l2.9,0L412.9,177.4z M421.5,201.6l-6.2-0.1l0-0.6l6.2,0.1L421.5,201.6z M421.5,199.1
			l-6.2-0.1l0-0.6l6.2,0.1L421.5,199.1z M421.6,197.9l-6.2-0.1l0-0.6l6.2,0.1L421.6,197.9z M421.6,196.7l-6.2-0.1l0-0.6l6.2,0.1
			L421.6,196.7z M421.6,195.4l-6.2-0.1l0-0.6l6.2,0.1L421.6,195.4z M421.6,192.9l-6.2-0.1l0-0.6l6.2,0.1L421.6,192.9z M421.6,191.7
			l-6.2-0.1l0-0.6l6.2,0.1L421.6,191.7z M421.6,190.4l-6.2-0.1l0-0.6l6.2,0.1L421.6,190.4z M421.6,188l-6.2-0.1l0-0.6l6.2,0.1
			L421.6,188z M421.7,186.7l-6.2-0.1l0-0.6l6.2,0.1L421.7,186.7z M421.7,185.5l-6.2-0.1l0-0.6l6.2,0.1L421.7,185.5z M421.7,184.2
			l-6.2-0.1l0-0.6l6.2,0.1L421.7,184.2z"/>
		<g class="st3">
			<path class="st4" d="M65.2,199.3l-1.8,0l-3.6,2.6l0.1-6.3l0.1,0c0.4,0,0.7-0.2,0.7-0.5c0-0.3-0.3-0.5-0.7-0.5l-13.8-0.1
				c-0.1,0-0.2,0-0.3,0l0.1-5.9c0.6,0,1-0.4,1-0.8c0-0.4-0.4-0.7-1-0.8v0h-0.1l-18.7-0.2l-0.2,0c-0.6,0-1.1,0.3-1.1,0.8
				c0,0.4,0.5,0.8,1.1,0.8l0.2,0l-0.5,36.3l1.2,0l0.3-4.7l2.8,0l-0.3,4.7l0.8,0l0.3-4.7l2.8,0l-0.3,4.7l0.8,0l0.3-4.7l2.8,0
				l-0.3,4.7l4.3,0l3.4,0l11.8,0.1l2.2,0l9.5,0.1l0.4-23.1L65.2,199.3z M32.2,216.6l-2.9,0l0-1.9l2.9,0L32.2,216.6z M32.3,213.9
				l-2.9,0l0-1.9l2.9,0L32.3,213.9z M32.3,211.1l-2.9,0l0-1.9l2.9,0L32.3,211.1z M32.3,208.3l-2.9,0l0-1.9l2.9,0L32.3,208.3z
				 M32.3,205.5l-2.9,0l0-1.9l2.9,0L32.3,205.5z M32.4,202.7l-2.9,0l0-1.9l2.9,0L32.4,202.7z M32.4,199.9l-2.9,0l0-1.9l2.9,0
				L32.4,199.9z M32.4,197.2l-2.9,0l0-1.9l2.9,0L32.4,197.2z M32.4,194.4l-2.9,0l0-1.9l2.9,0L32.4,194.4z M32.5,191.6l-2.9,0l0-1.9
				l2.9,0L32.5,191.6z M36.3,216.7l-2.9,0l0-1.9l2.9,0L36.3,216.7z M36.3,213.9l-2.9,0l0-1.9l2.9,0L36.3,213.9z M36.4,211.1l-2.9,0
				l0-1.9l2.9,0L36.4,211.1z M36.4,208.3l-2.9,0l0-1.9l2.9,0L36.4,208.3z M36.4,205.5l-2.9,0l0-1.9l2.9,0L36.4,205.5z M36.4,202.8
				l-2.9,0l0-1.9l2.9,0L36.4,202.8z M36.5,200l-2.9,0l0-1.9l2.9,0L36.5,200z M36.5,197.2l-2.9,0l0-1.9l2.9,0L36.5,197.2z
				 M36.5,194.4l-2.9,0l0-1.9l2.9,0L36.5,194.4z M36.5,191.6l-2.9,0l0-1.9l2.9,0L36.5,191.6z M40.4,216.7l-2.9,0l0-1.9l2.9,0
				L40.4,216.7z M40.4,213.9l-2.9,0l0-1.9l2.9,0L40.4,213.9z M40.4,211.1l-2.9,0l0-1.9l2.9,0L40.4,211.1z M40.5,208.4l-2.9,0l0-1.9
				l2.9,0L40.5,208.4z M40.5,205.6l-2.9,0l0-1.9l2.9,0L40.5,205.6z M40.5,202.8l-2.9,0l0-1.9l2.9,0L40.5,202.8z M40.5,200l-2.9,0
				l0-1.9l2.9,0L40.5,200z M40.6,197.2l-2.9,0l0-1.9l2.9,0L40.6,197.2z M40.6,194.4l-2.9,0l0-1.9l2.9,0L40.6,194.4z M40.6,191.7
				l-2.9,0l0-1.9l2.9,0L40.6,191.7z M43.6,223.8l-1.8,0l0.3-4.1l1.7,0L43.6,223.8z M43.9,219.4l-1.7,0l0-3.7l1.7,0L43.9,219.4z
				 M43.9,215.5l-1.7,0l0-3.7l1.7,0L43.9,215.5z M43.9,211.5l-1.8,0l0-3.7l1.7,0L43.9,211.5z M44,207.5l-1.7,0l0-3.7l1.7,0L44,207.5
				z M44,203.5l-1.7,0l0-3.7l1.7,0L44,203.5z M44,199.6l-1.8,0l0-3.7l1.7,0L44,199.6z M45.9,223.8l-1.8,0l0.3-4.1l1.7,0L45.9,223.8z
				 M46.2,219.4l-1.7,0l0-3.7l1.8,0L46.2,219.4z M46.2,215.5l-1.8,0l0-3.7l1.7,0L46.2,215.5z M46.3,211.5l-1.8,0l0-3.7l1.8,0
				L46.3,211.5z M46.3,207.5l-1.8,0l0-3.7l1.8,0L46.3,207.5z M46.3,203.6l-1.7,0l0-3.7l1.8,0L46.3,203.6z M46.4,199.6l-1.7,0l0-3.7
				l1.7,0L46.4,199.6z M50.9,217.3l-2.9,0l0-1.9l2.9,0L50.9,217.3z M50.9,214.5l-2.9,0l0-1.9l2.9,0L50.9,214.5z M50.9,211.7l-2.9,0
				l0-1.9l2.9,0L50.9,211.7z M51,208.9l-2.9,0l0-1.9l2.9,0L51,208.9z M51,206.1l-2.9,0l0-1.9l2.9,0L51,206.1z M51,203.3l-2.9,0
				l0-1.9l2.9,0L51,203.3z M51,200.6l-2.9,0l0-1.9l2.9,0L51,200.6z M51,197.8l-2.9,0l0-1.9l2.9,0L51,197.8z M55,217.3l-2.9,0l0-1.9
				l2.9,0L55,217.3z M55,214.5l-2.9,0l0-1.9l2.9,0L55,214.5z M55,211.7l-2.9,0l0-1.9l2.9,0L55,211.7z M55,209l-2.9,0l0-1.9l2.9,0
				L55,209z M55.1,206.2l-2.9,0l0-1.9l2.9,0L55.1,206.2z M55.1,203.4l-2.9,0l0-1.9l2.9,0L55.1,203.4z M55.1,200.6l-2.9,0l0-1.9
				l2.9,0L55.1,200.6z M55.1,197.8l-2.9,0l0-1.9l2.9,0L55.1,197.8z M59,217.3l-2.9,0l0-1.9l2.9,0L59,217.3z M59.1,214.6l-2.9,0
				l0-1.9l2.9,0L59.1,214.6z M59.1,211.8l-2.9,0l0-1.9l2.9,0L59.1,211.8z M59.1,209l-2.9,0l0-1.9l2.9,0L59.1,209z M59.1,206.2
				l-2.9,0l0-1.9l2.9,0L59.1,206.2z M59.2,203.4l-2.9,0l0-1.9l2.9,0L59.2,203.4z M59.2,200.6l-2.9,0l0-1.9l2.9,0L59.2,200.6z
				 M59.2,197.8l-2.9,0l0-1.9l2.9,0L59.2,197.8z M68,215.3l-6.3-0.1l0-0.4l6.3,0.1L68,215.3z M68.1,213.5l-6.3-0.1l0-0.4l6.3,0.1
				L68.1,213.5z M68.1,212.6l-6.3-0.1l0-0.4l6.3,0.1L68.1,212.6z M68.1,211.7l-6.3-0.1l0-0.4l6.3,0.1L68.1,211.7z M68.1,210.8
				l-6.3-0.1l0-0.4l6.3,0.1L68.1,210.8z M68.1,209l-6.3-0.1l0-0.4l6.3,0.1L68.1,209z M68.1,208.1l-6.3-0.1l0-0.4l6.3,0.1L68.1,208.1
				z M68.1,207.2l-6.3-0.1l0-0.4l6.3,0.1L68.1,207.2z M68.1,205.5l-6.3-0.1l0-0.4l6.3,0.1L68.1,205.5z M68.1,204.6l-6.3-0.1l0-0.4
				l6.3,0.1L68.1,204.6z M68.1,203.7l-6.3-0.1l0-0.4l6.3,0.1L68.1,203.7z M68.2,202.8l-6.3-0.1l0-0.4l6.3,0.1L68.2,202.8z"/>
		</g>
		<g class="st3">
			<path class="st4" d="M315.8,182l-1.3,28h3.4l-1.3-28c-0.1,0-0.2,0-0.4,0C316,182.1,315.9,182,315.8,182z"/>
			<path class="st4" d="M316.6,179.2c0.2-0.6,0.4-1.5,0.4-1.9c0,0-0.4-6.8-0.7-6.8l-0.2,0c-0.3,0-0.9,6.8-0.9,6.8
				c0,0.4,0.2,1.3,0.4,2c0.2-0.1,0.3-0.1,0.5-0.1C316.4,179.1,316.5,179.1,316.6,179.2z"/>
			<path class="st4" d="M319.2,181.5c-0.3-0.2-1-0.5-1.6-0.7c0,0.4-0.3,0.7-0.5,1c0.4,0.5,0.8,1,1.1,1.2c0,0,5.8,3.6,5.9,3.4
				l0.1-0.2C324.4,185.9,319.2,181.5,319.2,181.5z"/>
			<path class="st4" d="M314.7,180.6c-0.6,0.1-1.2,0.3-1.5,0.5c0,0-5.7,3.8-5.5,4l0.1,0.2c0.1,0.2,6.3-2.6,6.3-2.6
				c0.3-0.2,0.7-0.6,1.1-1C314.9,181.4,314.7,181,314.7,180.6z"/>
			<path class="st4" d="M316.9,180.9c0.1-0.2,0-0.2,0-0.4c0.2,0,0.4,0.1,0.7,0.2c0,0,0-0.1,0-0.2c0-0.7-0.4-1.2-1-1.4
				c-0.1,0.2-0.1,0.3-0.1,0.4c-0.2-0.1-0.1-0.2-0.3-0.2c-0.2,0-0.2,0.1-0.4,0.2c0-0.1-0.1-0.3-0.1-0.5c-0.6,0.2-1,0.7-1,1.4l0,0
				c0.3-0.1,0.6-0.1,0.8-0.2c0,0.2-0.1,0.2,0,0.3c0.1,0.2,0.1,0.1,0.3,0.2l0-0.9h0.6l0.1,2c0.2-0.1,0.4-0.1,0.6-0.3
				c-0.2-0.3-0.4-0.5-0.5-0.7C316.8,181,316.8,181.1,316.9,180.9z"/>
			<path class="st4" d="M315.2,181.7c0.2,0.2,0.4,0.3,0.6,0.3l0-1C315.7,181.2,315.4,181.4,315.2,181.7z"/>
			<path class="st4" d="M315.9,180l0,0.9c0,0,0,0,0.1,0c0,0,0,0-0.1,0.1l0,1c0.1,0,0.3,0.1,0.4,0.1c0.1,0,0.2,0,0.4,0l-0.1-2
				L315.9,180L315.9,180z"/>
			<path class="st4" d="M316.2,179.4c0.2,0,0.1,0.1,0.3,0.2c0-0.1,0.1-0.3,0.1-0.4c-0.1,0-0.3-0.1-0.4-0.1c-0.2,0-0.3,0-0.5,0.1
				c0.1,0.2,0.1,0.4,0.1,0.5C316,179.5,316,179.4,316.2,179.4z"/>
			<path class="st4" d="M317.6,180.8c-0.3-0.1-0.6-0.2-0.7-0.2c0,0.2,0.1,0.2,0,0.4c-0.1,0.2-0.1,0.1-0.3,0.1
				c0.1,0.2,0.3,0.4,0.5,0.7C317.4,181.5,317.6,181.2,317.6,180.8z"/>
			<path class="st4" d="M315.8,181l0-0.1c-0.2-0.1-0.2,0-0.3-0.2c-0.1-0.2,0-0.1,0-0.3c-0.2,0-0.5,0.1-0.8,0.2
				c0,0.4,0.2,0.8,0.5,1.1C315.4,181.4,315.7,181.2,315.8,181z"/>
			<path class="st4" d="M315.9,180.9C315.9,180.9,315.8,180.9,315.9,180.9L315.9,180.9C315.8,181,315.9,181,315.9,180.9z"/>
			<path class="st4" d="M300.8,171l-1.9,40h5l-1.9-40c-0.2,0-0.4,0.1-0.6,0.1C301.3,171.1,301,171.1,300.8,171z"/>
			<path class="st4" d="M302.4,164.9c0.2-0.7,0.4-1.5,0.4-1.9c0,0-0.6-10-1-10l-0.3,0c-0.4,0-1.2,9.9-1.2,9.9c0,0.4,0.1,1.2,0.3,1.9
				c0.3-0.1,0.7-0.2,1-0.2C301.9,164.8,302.2,164.8,302.4,164.9z"/>
			<path class="st4" d="M313.1,176.3l0.2-0.2c0.2-0.3-7.3-6.8-7.3-6.8c-0.3-0.2-0.8-0.4-1.4-0.7c-0.1,0.7-0.6,1.4-1.1,1.8
				c0.4,0.4,0.7,0.8,0.9,0.9C304.4,171.3,312.9,176.6,313.1,176.3z"/>
			<path class="st4" d="M298.4,168.2c-0.5,0.2-1,0.3-1.3,0.5c0,0-8.3,5.5-8.1,5.9l0.1,0.3c0.2,0.4,9.2-3.9,9.2-3.9
				c0.2-0.1,0.6-0.4,0.9-0.7C298.8,169.7,298.4,169,298.4,168.2z"/>
			<path class="st4" d="M303.2,167.9C303.2,168,303.2,168,303.2,167.9c0.4,0.2,0.9,0.4,1.4,0.6c0-0.2,0.1-0.4,0.1-0.6
				c0-1.4-0.9-2.6-2.2-3c-0.1,0.5-0.3,1-0.4,1.4C302.7,166.5,303.2,167.2,303.2,167.9z"/>
			<path class="st4" d="M300.3,169.2c-0.3,0.3-0.7,0.7-1,1c0.4,0.4,0.9,0.7,1.5,0.8l0.1-1.5C300.7,169.5,300.5,169.3,300.3,169.2z"
				/>
			<path class="st4" d="M302,169.6l0.1,1.5c0.5-0.1,1-0.3,1.4-0.6c-0.3-0.4-0.6-0.8-0.9-1.1C302.4,169.4,302.2,169.5,302,169.6z"/>
			<path class="st4" d="M300.9,166.3c-0.1-0.4-0.3-0.9-0.4-1.4c-1.3,0.4-2.2,1.6-2.2,3c0,0.1,0,0.2,0,0.3c0.5-0.1,1-0.3,1.4-0.4
				C299.8,167.1,300.3,166.5,300.9,166.3z"/>
			<path class="st4" d="M301.5,169.6c-0.2,0-0.4,0-0.6-0.1l-0.1,1.5c0.2,0,0.4,0.1,0.6,0.1c0.2,0,0.4,0,0.6-0.1l-0.1-1.5
				C301.8,169.6,301.7,169.6,301.5,169.6z"/>
			<path class="st4" d="M301.5,166.2c0.2,0,0.4,0,0.5,0.1c0.1-0.3,0.3-0.9,0.4-1.4c-0.3-0.1-0.6-0.1-0.9-0.1c-0.3,0-0.7,0.1-1,0.2
				c0.1,0.5,0.3,1,0.4,1.4C301.1,166.2,301.3,166.2,301.5,166.2z"/>
			<path class="st4" d="M304.6,168.5c-0.5-0.2-1-0.4-1.4-0.5c0,0.5-0.3,1-0.6,1.3c0.3,0.3,0.6,0.8,0.9,1.1
				C304,169.9,304.5,169.3,304.6,168.5z"/>
			<path class="st4" d="M300.3,169.2c-0.4-0.3-0.6-0.8-0.6-1.3c0,0,0-0.1,0-0.1c-0.4,0.1-1,0.2-1.4,0.4c0.1,0.8,0.4,1.5,1,2
				C299.7,169.9,300,169.5,300.3,169.2z"/>
			<path class="st4" d="M300.3,169.2c0.2,0.1,0.4,0.3,0.6,0.3l0-1C300.8,168.7,300.6,168.9,300.3,169.2z"/>
			<path class="st4" d="M302,166.3c0,0.1-0.1,0.2-0.1,0.2c-0.2-0.2-0.1-0.3-0.4-0.3c-0.3,0-0.3,0.1-0.5,0.3c0-0.1-0.1-0.2-0.1-0.3
				c-0.6,0.2-1.1,0.8-1.1,1.5c0.3-0.1,0.6-0.1,0.7-0.2c0,0.3-0.2,0.2,0,0.5c0.1,0.3,0.2,0.2,0.5,0.3l0.1-1.3h0.9l0.1,2.5
				c0.2-0.1,0.4-0.2,0.6-0.3c-0.2-0.3-0.4-0.5-0.5-0.6c0.3-0.1,0.3,0,0.4-0.2c0.2-0.3,0.1-0.3,0-0.6c0.2,0,0.4,0.1,0.6,0.2
				c0,0,0,0,0-0.1C303.2,167.2,302.7,166.5,302,166.3z"/>
			<path class="st4" d="M301,167.1l-0.1,1.3c0,0,0.1,0,0.1,0c0,0-0.1,0.1-0.1,0.1l0,1c0.2,0.1,0.4,0.1,0.6,0.1c0.2,0,0.4,0,0.5-0.1
				l-0.1-2.5L301,167.1L301,167.1z"/>
			<path class="st4" d="M301.5,166.2c0.3,0,0.2,0.1,0.4,0.3c0-0.1,0-0.1,0.1-0.2C301.9,166.2,301.7,166.2,301.5,166.2
				c-0.2,0-0.4,0-0.6,0.1c0,0.1,0.1,0.2,0.1,0.3C301.3,166.4,301.2,166.2,301.5,166.2z"/>
			<path class="st4" d="M302.5,168.4c-0.2,0.2-0.2,0.1-0.4,0.2c0.1,0.2,0.3,0.4,0.5,0.6c0.4-0.3,0.6-0.7,0.6-1.3
				c-0.3-0.1-0.5-0.2-0.6-0.2C302.6,168.1,302.7,168.2,302.5,168.4z"/>
			<path class="st4" d="M301,168.4c-0.2-0.1-0.3,0-0.5-0.3c-0.1-0.2,0-0.2,0-0.5c-0.2,0-0.4,0.1-0.7,0.2c0,0,0,0.1,0,0.1
				c0,0.5,0.2,1,0.6,1.3c0.2-0.2,0.5-0.5,0.6-0.6L301,168.4z"/>
			<path class="st4" d="M301,168.4C301,168.4,301,168.4,301,168.4l-0.1,0.1C301,168.5,301,168.5,301,168.4z"/>
		</g>
		<path class="st5" d="M144,211.7c-0.5,0-0.8-0.1-1.3-0.2c0.3,0.3,0.6,0.5,0.8,0.7C143.7,212,143.9,211.8,144,211.7z"/>
		<path class="st5" d="M143.5,214.6c-0.1,0-0.3,0-0.4,0c0.1,0.1,0.2,0.1,0.2,0.2C143.4,214.7,143.5,214.7,143.5,214.6z"/>
		<path class="st5" d="M142,213.5c0.2-0.1,0.4-0.3,0.6-0.5c-0.3,0-0.6,0.1-1,0.1C141.8,213.3,141.9,213.4,142,213.5z"/>
		<path class="st5" d="M124.1,219.9c1.2-0.2,1.7-0.4,1.7-0.4s-1.2-0.7-2.5-2.1c1.2-0.1,1.7-0.4,1.7-0.4s-1-0.6-2-1.8
			c0.9-0.1,1.4-0.3,1.4-0.3s-0.9-0.5-1.8-1.5c0.7-0.1,1.1-0.2,1.1-0.2s-1.2-0.6-1.7-1.9c0,0,0,0,0,0c-0.5,1.2-1.7,1.9-1.7,1.9
			c0.4,0.1,0.7,0.2,1.1,0.2c-0.8,0.9-1.7,1.4-1.7,1.4c0.5,0.1,0.9,0.2,1.3,0.3c-1,1.1-2,1.8-2,1.8c0.6,0.2,1,0.3,1.6,0.4
			c-1.3,1.3-2.4,2-2.4,2c0.7,0.2,1,0.3,1.6,0.4c-1.4,1.3-2.9,2-2.9,2c1.6,0.5,3.2,0.7,4.6,0.7v1.9c0,0.2,0.2,0.4,0.4,0.4
			c0.2,0,0.4-0.2,0.4-0.4v-1.9c1.6,0,2.9-0.3,3.7-0.4c0.2-0.1,0.3-0.2,0.5-0.4C126.2,221.5,125.1,220.8,124.1,219.9z"/>
		<path class="st5" d="M142.5,218c-0.9-0.1-1.3-0.3-2.2-0.6c0,0,1.4-0.9,3.1-2.6c-0.1-0.1-0.2-0.1-0.2-0.2c-0.6-0.1-1.1-0.2-1.9-0.5
			c0,0,0.3-0.2,0.8-0.6c-0.1-0.1-0.2-0.2-0.4-0.4c0.4,0,0.7-0.1,1-0.1c0.3-0.3,0.6-0.6,1-0.9c-0.2-0.2-0.5-0.4-0.8-0.7
			c-0.2,0-0.4-0.1-0.6-0.2c0,0,0.1,0,0.2-0.1c-0.4-0.4-0.9-0.8-1.3-1.3c1.4-0.2,2.2-0.4,2.2-0.4s-1.5-0.8-2.8-2.3
			c1.2-0.1,1.7-0.3,1.7-0.3s-1.9-1-2.7-3c0,0,0,0,0,0c-0.8,1.9-2.7,3-2.7,3c0.6,0.2,1.1,0.3,1.7,0.4c-1.3,1.5-2.7,2.3-2.7,2.3
			c0.8,0.2,1.3,0.4,2.1,0.4c-1.6,1.8-3.2,2.8-3.2,2.8c1,0.3,1.6,0.5,2.6,0.6c-2,2.1-3.7,3.2-3.7,3.2c1,0.3,1.5,0.5,2.6,0.7
			c-2.2,2.1-4.5,3.2-4.5,3.2c2.5,0.8,5,1,7.3,1v3c0,0.4,0.3,0.6,0.6,0.6c0.4,0,0.6-0.3,0.6-0.6v-3c0.1,0,0.1,0,0.2,0
			c-0.6-0.1-1.2-0.3-1.8-0.5C138.5,220.8,140.5,219.8,142.5,218z"/>
		<path class="st5" d="M145.4,224.9c0.3,0,0.6-0.3,0.6-0.6v-2.6c3.7-0.1,6.4-0.9,6.4-0.9s-2-0.9-4-2.9c1.7-0.2,2.4-0.5,2.4-0.5
			s-1.7-0.9-3.4-2.8c1.6-0.2,2.3-0.5,2.3-0.5s-1.4-0.8-2.8-2.5c1.2-0.1,1.9-0.4,1.9-0.4s-1.3-0.7-2.4-2c1-0.1,1.5-0.3,1.5-0.3
			s-1.6-0.9-2.4-2.6c0,0,0,0,0,0c-0.7,1.7-2.4,2.6-2.4,2.6c0.6,0.2,0.9,0.3,1.5,0.3c-0.8,1-1.7,1.6-2.1,1.9c0.1,0.1,0.2,0.2,0.3,0.3
			c0.4,0.1,0.8,0.2,1.3,0.2c-0.1,0.2-0.3,0.3-0.4,0.4c0.4,0.3,0.7,0.5,0.7,0.5s-0.5,0.2-1.7,0.4c-0.2,0.2-0.4,0.4-0.6,0.5
			c0.4,0.4,0.7,0.7,1.1,1c0.1,0,0.3,0,0.4,0c-0.1,0.1-0.1,0.1-0.2,0.2c1.3,1.1,2.2,1.6,2.2,1.6s-0.8,0.4-2.8,0.6
			c2.3,2.2,4.6,3.3,4.6,3.3s-3,0.9-7.1,1c1.6,0.3,3.1,0.5,4.6,0.5v2.6C144.9,224.7,145.1,224.9,145.4,224.9z"/>
		<path class="st5" d="M143.1,214.6c-0.3-0.3-0.7-0.7-1.1-1c-0.5,0.4-0.8,0.6-0.8,0.6C142,214.3,142.5,214.5,143.1,214.6z"/>
		<path class="st5" d="M142.6,213c1.1-0.2,1.7-0.4,1.7-0.4s-0.3-0.2-0.7-0.5C143.3,212.4,142.9,212.8,142.6,213z"/>
		<path class="st5" d="M142.7,211.4c-0.1-0.1-0.2-0.2-0.3-0.3c-0.1,0.1-0.2,0.1-0.2,0.1C142.4,211.3,142.6,211.4,142.7,211.4z"/>
		<path class="st5" d="M17.3,160.4H4c-1.9,0-3.4,1.5-3.4,3.4v61h20.1v-61C20.7,161.9,19.2,160.4,17.3,160.4z M5.9,219.3H4.7V167h1.2
			V219.3z M8.5,219.3H7.3V167h1.2V219.3z M11.1,219.3H9.9V167h1.2V219.3z M13.7,219.3h-1.2V167h1.2V219.3z M16.4,219.3h-1.2V167h1.2
			V219.3z"/>
		<path class="st5" d="M130.2,224.9c0.2,0,0.3-0.1,0.3-0.3v-1.3c1.8-0.1,3.2-0.5,3.2-0.5s-1-0.5-2-1.4c0.8-0.1,1.2-0.3,1.2-0.3
			s-0.8-0.5-1.7-1.4c0.8-0.1,1.2-0.2,1.2-0.2s-0.7-0.4-1.4-1.2c0.6-0.1,1-0.2,1-0.2s-0.7-0.3-1.2-1c0.5,0,0.7-0.1,0.7-0.1
			s-0.8-0.4-1.2-1.3c0,0,0,0,0,0c-0.4,0.8-1.2,1.3-1.2,1.3c0.3,0.1,0.5,0.1,0.8,0.2c-0.6,0.6-1.2,1-1.2,1c0.3,0.1,0.6,0.2,0.9,0.2
			c-0.7,0.8-1.4,1.2-1.4,1.2c0.4,0.1,0.7,0.2,1.1,0.3c-0.9,0.9-1.6,1.4-1.6,1.4c0.5,0.1,0.7,0.2,1.1,0.3c-0.1,0.1-0.2,0.2-0.4,0.3
			c0.2,0.1,0.4,0.2,0.4,0.2s-0.3,0.1-0.9,0.2c-0.6,0.5-1.1,0.7-1.1,0.7c1.1,0.3,2.2,0.5,3.2,0.5v1.3
			C129.9,224.8,130.1,224.9,130.2,224.9z"/>
		<path class="st5" d="M126.7,221.8c-0.2,0.1-0.3,0.3-0.5,0.4c0.6-0.1,0.9-0.2,0.9-0.2S126.9,221.9,126.7,221.8z"/>
		<path class="st5" d="M142.8,217c1.9-0.3,2.8-0.6,2.8-0.6s-0.9-0.5-2.2-1.6c-1.7,1.7-3.1,2.6-3.1,2.6c0.9,0.3,1.3,0.5,2.2,0.6
			c-2,1.8-3.9,2.8-3.9,2.8c0.6,0.2,1.2,0.3,1.8,0.5c4.1-0.1,7.1-1,7.1-1S145.1,219.2,142.8,217z"/>
	</g>
</g>
</svg>
