<?xml version="1.0" standalone="no"?>
<!DOCTYPE svg PUBLIC "-//W3C//DTD SVG 20010904//EN"
 "http://www.w3.org/TR/2001/REC-SVG-20010904/DTD/svg10.dtd">
<svg version="1.0" xmlns="http://www.w3.org/2000/svg"
 width="563.000000pt" height="114.000000pt" viewBox="0 0 563.000000 114.000000"
 preserveAspectRatio="xMidYMid meet">

<g transform="translate(0.000000,114.000000) scale(0.100000,-0.100000)"
fill="#000000" stroke="none">
<path d="M430 1036 c-25 -7 -60 -20 -78 -30 -44 -23 -122 -99 -122 -119 0 -13
109 -219 124 -234 1 -1 2 22 2 51 0 40 6 62 24 89 45 66 64 71 265 77 l180 5
-65 65 c-47 48 -79 70 -117 84 -68 23 -157 29 -213 12z"/>
<path d="M1936 1032 c-6 -10 30 -9 40 1 4 4 -2 7 -14 7 -11 0 -23 -4 -26 -8z"/>
<path d="M2060 1033 c0 -5 12 -9 27 -10 19 -1 22 1 12 8 -17 11 -39 12 -39 2z"/>
<path d="M1885 1016 c-19 -8 -25 -15 -17 -20 7 -4 12 -2 12 3 0 6 6 11 14 11
8 0 18 5 21 10 8 12 7 12 -30 -4z"/>
<path d="M2127 1019 c7 -7 15 -10 18 -7 3 3 -2 9 -12 12 -14 6 -15 5 -6 -5z"/>
<path d="M2155 1000 c-3 -6 1 -7 9 -4 11 4 16 0 16 -11 0 -9 5 -13 10 -10 11
7 40 -17 40 -33 0 -9 -67 -61 -173 -132 -36 -25 -66 -47 -66 -50 0 -9 68 -85
71 -80 56 77 164 200 173 196 7 -2 12 3 11 12 0 9 8 18 18 20 14 3 17 0 13
-13 -5 -10 -3 -14 5 -9 7 5 9 0 6 -14 -4 -15 -2 -19 8 -15 11 4 11 10 2 26
-22 45 -29 49 -49 31 -25 -22 -37 -10 -15 15 16 18 15 20 -21 50 -41 33 -49
36 -58 21z"/>
<path d="M1820 980 c-12 -7 -12 -12 -2 -22 9 -9 12 -9 12 4 0 9 6 19 13 21 6
3 8 6 2 6 -5 0 -17 -4 -25 -9z"/>
<path d="M1759 918 c-47 -65 -61 -106 -62 -183 l-2 -70 28 3 c15 2 27 -1 27
-7 0 -5 10 -11 23 -14 20 -3 18 -5 -13 -20 -35 -15 -58 -4 -29 14 10 6 8 9 -8
9 -29 0 -29 -9 4 -76 75 -153 272 -224 423 -153 104 49 174 142 187 247 5 47
4 50 -15 46 -11 -3 -23 -1 -26 5 -5 7 3 11 18 11 14 0 26 4 26 8 0 15 -72 -2
-80 -18 -54 -115 -89 -154 -159 -178 -43 -15 -118 -15 -160 -1 l-33 11 34 36
33 36 -32 -20 c-71 -43 -121 -83 -120 -96 1 -7 -2 -13 -8 -13 -5 0 -9 3 -8 7
2 4 -4 5 -12 2 -27 -11 -16 18 20 53 l34 33 -29 46 c-16 25 -32 59 -35 75 -6
25 -11 29 -40 29 -19 0 -37 5 -40 10 -3 6 -2 10 4 10 6 0 8 7 5 15 -4 10 0 15
15 15 23 0 29 -15 9 -23 -7 -3 -1 -6 15 -6 38 -1 34 22 -7 37 l-33 12 15 35
c9 19 22 35 29 35 7 0 10 7 7 15 -4 9 0 15 10 15 10 0 13 5 9 17 -5 12 -2 15
10 10 11 -4 14 -2 10 9 -7 20 -9 19 -44 -28z m-19 -198 c0 -5 -9 -10 -20 -10
-11 0 -20 5 -20 10 0 6 9 10 20 10 11 0 20 -4 20 -10z m33 -25 c1 -6 -15 -11
-35 -13 -43 -4 -52 15 -10 21 35 5 43 4 45 -8z m557 -6 c0 -5 -16 -9 -35 -9
-32 0 -43 8 -30 22 8 8 65 -3 65 -13z m-5 -29 c3 -5 -3 -10 -14 -10 -12 0 -21
5 -21 10 0 6 6 10 14 10 8 0 18 -4 21 -10z m-27 -16 c27 -8 29 -24 3 -24 -26
0 -51 10 -51 21 0 10 16 11 48 3z m-533 -44 c-3 -5 -13 -10 -21 -10 -8 0 -14
5 -14 10 0 6 9 10 21 10 11 0 17 -4 14 -10z m540 0 c3 -5 -1 -10 -9 -10 -10 0
-13 -6 -10 -15 7 -18 3 -19 -31 -3 -30 13 -34 33 -5 25 11 -3 20 -1 20 4 0 12
27 11 35 -1z m-514 -20 c-13 -11 -31 -20 -40 -20 -12 1 -11 5 8 20 13 11 31
20 40 20 12 -1 11 -5 -8 -20z m-1 -29 c0 -12 -20 -25 -27 -18 -7 7 6 27 18 27
5 0 9 -4 9 -9z m450 -16 c15 -16 19 -25 10 -25 -15 0 -50 29 -50 42 0 15 16 8
40 -17z m35 14 c4 -6 5 -12 2 -15 -7 -7 -37 7 -37 17 0 13 27 11 35 -2z m-65
-80 c0 -17 -18 -9 -34 16 -25 38 -18 53 9 22 14 -15 25 -32 25 -38z m-339 33
c-14 -26 -41 -48 -41 -33 0 19 24 51 38 51 9 0 10 -5 3 -18z m358 -8 c3 -16 1
-17 -13 -5 -19 16 -21 34 -3 29 6 -3 14 -13 16 -24z m-319 -43 c-15 -28 -33
-27 -24 2 3 12 12 28 18 36 9 12 11 12 14 -2 2 -9 -2 -25 -8 -36z m230 23 c6
-14 10 -30 10 -37 0 -17 -27 14 -35 41 -9 31 13 28 25 -4z m-260 -9 c0 -8 -7
-15 -15 -15 -9 0 -12 6 -9 15 4 8 10 15 15 15 5 0 9 -7 9 -15z m86 -31 c-4
-14 -11 -22 -16 -19 -9 5 -8 13 6 53 9 25 17 -3 10 -34z m64 6 c0 -16 -4 -32
-10 -35 -6 -4 -10 10 -10 35 0 25 4 39 10 35 6 -3 10 -19 10 -35z m54 24 c9
-23 7 -54 -3 -54 -9 0 -21 33 -21 58 0 17 17 15 24 -4z m94 -3 c3 -8 -1 -12
-9 -9 -7 2 -15 10 -17 17 -3 8 1 12 9 9 7 -2 15 -10 17 -17z m-238 -15 c0 -15
-18 -31 -26 -23 -7 7 7 37 17 37 5 0 9 -6 9 -14z m180 -12 c0 -8 -4 -14 -10
-14 -5 0 -10 9 -10 21 0 11 5 17 10 14 6 -3 10 -13 10 -21z m-120 -9 c0 -8 -4
-15 -10 -15 -5 0 -10 7 -10 15 0 8 5 15 10 15 6 0 10 -7 10 -15z m60 0 c0 -8
-4 -15 -10 -15 -5 0 -10 7 -10 15 0 8 5 15 10 15 6 0 10 -7 10 -15z"/>
<path d="M4885 931 c-47 -12 -87 -36 -125 -76 -35 -36 -35 -37 -35 -128 0 -81
3 -99 29 -151 39 -79 102 -140 183 -179 60 -28 78 -31 158 -32 80 0 97 3 155
31 37 18 85 52 113 80 48 49 62 82 30 69 -81 -33 -202 -32 -268 3 -80 41 -125
107 -125 182 0 87 50 126 126 98 41 -14 43 -14 34 2 -41 76 -174 125 -275 101z"/>
<path d="M3435 887 c-61 -19 -53 -36 41 -93 18 -11 18 -12 1 -31 -11 -13 -35
-22 -63 -26 -77 -8 -100 -45 -69 -110 l15 -32 -22 30 c-25 31 -43 50 -130 132
l-55 53 -11 -55 c-28 -140 58 -296 201 -361 53 -24 75 -28 147 -28 71 -1 94 4
141 26 65 30 139 98 139 128 0 24 -22 26 -40 5 -7 -8 -19 -15 -26 -15 -24 0
-94 42 -94 56 0 8 -4 14 -10 14 -5 0 -1 15 10 33 22 36 27 115 9 150 -6 12
-23 32 -37 45 l-27 24 37 -4 c36 -4 37 -3 20 15 -40 45 -114 63 -177 44z"/>
<path d="M1790 880 c-9 -6 -10 -10 -3 -10 6 0 15 5 18 10 8 12 4 12 -15 0z"/>
<path d="M2255 839 c-9 -14 0 -22 18 -17 13 2 13 5 2 15 -10 9 -16 9 -20 2z"/>
<path d="M2306 841 c-4 -6 -2 -11 3 -11 23 0 10 -22 -19 -33 -44 -17 -38 -37
11 -37 41 0 41 0 34 33 -10 45 -20 62 -29 48z m19 -61 c-3 -5 -13 -10 -21 -10
-8 0 -14 5 -14 10 0 6 9 10 21 10 11 0 17 -4 14 -10z"/>
<path d="M1755 830 c-19 -8 -19 -9 3 -9 12 -1 22 4 22 9 0 6 -1 10 -2 9 -2 0
-12 -4 -23 -9z"/>
<path d="M210 585 c0 -30 39 -91 81 -129 44 -40 122 -80 176 -89 31 -6 32 -5
87 93 31 55 56 103 56 105 0 3 -13 -1 -30 -10 -16 -8 -47 -15 -68 -15 -42 0
-112 24 -112 39 0 15 -61 25 -70 11 -4 -6 -26 -14 -48 -17 -33 -4 -43 -2 -48
11 -8 20 -24 21 -24 1z"/>
<path d="M380 135 c0 -37 4 -65 10 -65 6 0 10 28 10 65 0 37 -4 65 -10 65 -6
0 -10 -28 -10 -65z"/>
<path d="M559 179 c-35 -35 -18 -109 25 -109 13 0 29 7 36 15 16 19 5 34 -12
17 -24 -24 -38 -13 -38 28 0 41 14 52 38 28 15 -15 24 -6 17 15 -10 24 -44 28
-66 6z"/>
<path d="M640 135 c0 -49 3 -66 13 -63 6 3 13 17 15 32 4 34 26 29 30 -7 5
-39 24 -33 20 6 -2 22 -10 35 -25 42 -12 5 -23 18 -25 29 -2 11 -9 21 -15 24
-10 3 -13 -14 -13 -63z"/>
<path d="M1890 136 c0 -37 4 -66 10 -66 6 0 10 26 10 59 0 33 -4 63 -10 66 -6
4 -10 -18 -10 -59z"/>
<path d="M2242 188 c-14 -14 -16 -118 -2 -118 6 0 10 12 10 26 0 15 8 33 18
40 16 13 16 13 0 14 -20 0 -24 15 -8 25 12 7 13 25 2 25 -4 0 -13 -5 -20 -12z"/>
<path d="M3310 135 c0 -37 4 -65 10 -65 6 0 10 28 10 65 0 37 -4 65 -10 65 -6
0 -10 -28 -10 -65z"/>
<path d="M3354 187 c-9 -25 0 -110 14 -115 9 -3 12 13 12 57 0 57 -14 89 -26
58z"/>
<path d="M3527 194 c-11 -11 -8 -124 3 -124 6 0 10 9 10 20 0 12 9 24 22 29
l22 8 -22 12 c-30 16 -28 29 6 33 15 2 27 8 27 13 0 12 -57 19 -68 9z"/>
<path d="M3812 188 c-14 -14 -16 -118 -2 -118 6 0 10 14 10 30 0 20 5 30 15
30 21 0 19 16 -2 25 -17 6 -17 7 0 19 9 7 17 16 17 20 0 10 -25 7 -38 -6z"/>
<path d="M5130 181 c-16 -31 -13 -111 5 -111 10 0 15 10 15 29 0 16 6 32 13
35 10 5 10 7 0 12 -15 7 -17 34 -3 34 6 0 10 5 10 10 0 18 -29 11 -40 -9z"/>
<path d="M5297 194 c-4 -4 -7 -34 -7 -66 l0 -58 41 0 c24 0 38 4 34 10 -3 6
-17 10 -31 10 -15 0 -24 6 -24 15 0 8 7 15 15 15 8 0 15 5 15 10 0 6 -7 10
-15 10 -27 0 -16 29 13 32 15 2 27 8 27 13 0 12 -57 19 -68 9z"/>
<path d="M5437 193 c-4 -3 -7 -14 -7 -24 0 -11 -9 -19 -22 -21 -17 -2 -24 -11
-26 -34 -4 -36 15 -55 46 -47 20 5 22 12 22 69 0 64 -1 69 -13 57z m-12 -86
c0 -26 -20 -25 -23 2 -3 16 1 22 10 19 7 -3 13 -12 13 -21z"/>
<path d="M14 166 c-3 -13 -4 -38 -2 -57 3 -32 6 -34 38 -34 31 0 35 3 38 28 3
22 -1 27 -19 27 -18 0 -19 -2 -9 -15 15 -18 7 -30 -15 -22 -21 8 -20 66 1 74
9 3 20 0 24 -8 11 -17 24 -5 17 16 -4 9 -19 15 -36 15 -24 0 -32 -5 -37 -24z"/>
<path d="M1604 135 c-10 -30 -14 -58 -9 -62 4 -5 10 -2 12 5 3 6 15 12 28 12
13 0 25 -6 28 -12 2 -7 8 -10 12 -6 12 11 -24 118 -40 118 -8 0 -21 -22 -31
-55z m46 -17 c0 -5 -7 -8 -15 -8 -17 0 -18 2 -9 25 5 13 8 14 15 3 5 -7 9 -16
9 -20z"/>
<path d="M2057 183 c-15 -14 -6 -42 20 -61 30 -22 24 -49 -8 -32 -15 8 -19 7
-19 -4 0 -20 35 -30 60 -16 30 16 25 48 -10 68 -36 21 -38 32 -5 32 14 0 25 5
25 10 0 11 -53 14 -63 3z"/>
<path d="M2445 180 c-3 -5 1 -10 10 -10 9 0 13 5 10 10 -3 6 -8 10 -10 10 -2
0 -7 -4 -10 -10z"/>
<path d="M2980 130 c0 -33 4 -60 10 -60 6 0 10 14 10 30 0 30 14 41 24 18 3
-9 9 -7 20 6 15 19 16 18 16 -17 0 -20 5 -37 10 -37 6 0 10 27 10 60 0 45 -3
60 -14 60 -8 0 -18 -9 -21 -20 -3 -11 -10 -20 -15 -20 -5 0 -12 9 -15 20 -3
11 -13 20 -21 20 -11 0 -14 -15 -14 -60z"/>
<path d="M3270 180 c0 -5 5 -10 10 -10 6 0 10 5 10 10 0 6 -4 10 -10 10 -5 0
-10 -4 -10 -10z"/>
<path d="M3610 180 c0 -5 5 -10 10 -10 6 0 10 5 10 10 0 6 -4 10 -10 10 -5 0
-10 -4 -10 -10z"/>
<path d="M4560 130 c0 -33 4 -60 10 -60 6 0 10 14 10 30 0 30 15 41 23 18 3
-10 7 -10 20 1 15 12 17 10 17 -18 0 -17 5 -31 10 -31 6 0 10 27 10 60 0 63
-9 74 -34 39 l-14 -21 -14 21 c-24 39 -38 25 -38 -39z"/>
<path d="M4690 180 c0 -5 5 -10 11 -10 5 0 7 5 4 10 -3 6 -8 10 -11 10 -2 0
-4 -4 -4 -10z"/>
<path d="M5190 125 c0 -50 2 -55 22 -55 17 0 19 3 10 12 -16 16 -15 45 1 52
10 5 10 7 0 12 -7 3 -13 12 -13 20 0 8 -4 14 -10 14 -5 0 -10 -25 -10 -55z"/>
<path d="M325 151 c-29 -6 -30 -9 -33 -64 l-2 -57 35 0 c29 0 35 4 35 21 0 13
-8 23 -22 27 l-22 5 22 8 c16 6 22 17 22 39 0 16 -1 29 -2 29 -2 -1 -16 -4
-33 -8z m13 -32 c-2 -6 -8 -10 -13 -10 -5 0 -11 4 -13 10 -2 6 4 11 13 11 9 0
15 -5 13 -11z m2 -69 c0 -5 -7 -10 -15 -10 -8 0 -15 5 -15 10 0 6 7 10 15 10
8 0 15 -4 15 -10z"/>
<path d="M5515 153 c-35 -9 -44 -23 -42 -71 2 -45 3 -47 35 -50 27 -3 32 0 32
18 0 14 -8 24 -22 28 l-22 5 22 8 c16 6 22 17 22 39 0 16 -1 29 -2 29 -2 -1
-12 -4 -23 -6z m3 -34 c-2 -6 -8 -10 -13 -10 -5 0 -11 4 -13 10 -2 6 4 11 13
11 9 0 15 -5 13 -11z m2 -69 c0 -5 -7 -10 -15 -10 -8 0 -15 5 -15 10 0 6 7 10
15 10 8 0 15 -4 15 -10z"/>
<path d="M122 138 c-18 -18 -14 -56 7 -68 26 -14 50 -3 57 26 11 42 -34 72
-64 42z m38 -27 c0 -23 -16 -36 -25 -21 -9 14 1 40 15 40 5 0 10 -9 10 -19z"/>
<path d="M212 138 c-18 -18 -14 -56 7 -68 39 -21 73 19 51 60 -12 22 -40 26
-58 8z m38 -27 c0 -23 -16 -36 -25 -21 -9 14 1 40 15 40 5 0 10 -9 10 -19z"/>
<path d="M432 138 c-30 -30 5 -89 44 -74 22 8 17 28 -5 21 -11 -3 -22 -1 -26
5 -4 6 4 10 18 10 31 0 38 9 26 31 -11 22 -39 25 -57 7z m38 -12 c0 -11 -19
-15 -25 -6 -3 5 1 10 9 10 9 0 16 -2 16 -4z"/>
<path d="M740 109 c0 -22 5 -39 10 -39 6 0 10 11 10 25 0 14 7 28 15 31 23 9
18 22 -10 22 -22 0 -25 -5 -25 -39z"/>
<path d="M812 138 c-18 -18 -14 -56 7 -68 26 -14 50 -3 57 26 11 42 -34 72
-64 42z m41 -22 c7 -19 -18 -42 -28 -26 -8 13 1 40 14 40 5 0 11 -6 14 -14z"/>
<path d="M890 110 c0 -29 4 -40 15 -40 10 0 15 10 15 30 0 17 5 30 10 30 6 0
13 -13 17 -30 7 -39 23 -39 23 1 0 38 24 35 28 -4 4 -36 22 -34 22 2 0 38 -15
47 -77 49 l-53 2 0 -40z"/>
<path d="M1040 130 c-14 -26 -5 -57 19 -65 22 -7 53 4 46 16 -3 4 -12 6 -19 3
-8 -3 -17 -1 -21 5 -3 7 2 11 14 11 26 0 36 17 21 35 -18 21 -47 18 -60 -5z
m40 -10 c0 -5 -2 -10 -4 -10 -3 0 -8 5 -11 10 -3 6 -1 10 4 10 6 0 11 -4 11
-10z"/>
<path d="M1700 91 c0 -34 4 -61 10 -61 6 0 10 9 10 20 0 12 5 17 13 14 20 -7
39 21 35 53 -2 23 -8 29 -35 31 l-33 3 0 -60z m45 16 c0 -26 -20 -25 -23 2 -3
16 1 22 10 19 7 -3 13 -12 13 -21z"/>
<path d="M1790 89 c0 -33 4 -59 10 -59 6 0 10 9 10 21 0 16 4 19 20 14 15 -5
23 0 32 20 16 36 0 60 -41 62 l-31 1 0 -59z m50 22 c0 -23 -16 -36 -25 -21 -9
14 1 40 15 40 5 0 10 -9 10 -19z"/>
<path d="M1930 129 c-9 -16 -8 -26 5 -45 8 -13 19 -24 24 -24 19 0 41 12 36
21 -3 4 -12 6 -19 3 -8 -3 -17 -1 -21 5 -4 7 4 11 19 11 28 0 34 18 14 38 -18
18 -46 14 -58 -9z m50 -3 c0 -11 -19 -15 -25 -6 -3 5 1 10 9 10 9 0 16 -2 16
-4z"/>
<path d="M2150 140 c0 -5 7 -10 15 -10 22 0 18 -17 -5 -23 -11 -3 -20 -12 -20
-21 0 -12 10 -16 35 -16 32 0 35 3 35 28 0 15 -5 33 -12 40 -15 15 -48 16 -48
2z m30 -50 c0 -5 -2 -10 -4 -10 -3 0 -8 5 -11 10 -3 6 -1 10 4 10 6 0 11 -4
11 -10z"/>
<path d="M2295 140 c-3 -5 3 -10 14 -10 12 0 21 -4 21 -10 0 -5 -9 -10 -20
-10 -13 0 -20 -7 -20 -20 0 -16 7 -20 35 -20 32 0 35 3 35 28 0 15 -5 33 -12
40 -15 15 -45 16 -53 2z m35 -50 c0 -5 -4 -10 -10 -10 -5 0 -10 5 -10 10 0 6
5 10 10 10 6 0 10 -4 10 -10z"/>
<path d="M2380 109 c0 -22 5 -39 10 -39 6 0 10 11 10 25 0 14 7 28 15 31 23 9
18 22 -10 22 -22 0 -25 -5 -25 -39z"/>
<path d="M2440 111 c0 -30 4 -41 16 -41 11 0 14 9 12 37 -4 52 -28 56 -28 4z"/>
<path d="M3112 138 c-18 -18 -14 -56 7 -68 39 -21 73 19 51 60 -12 22 -40 26
-58 8z m38 -27 c0 -23 -16 -36 -25 -21 -9 14 1 40 15 40 5 0 10 -9 10 -19z"/>
<path d="M3190 140 c0 -5 7 -10 16 -10 15 0 15 -2 0 -25 -22 -34 -21 -35 22
-34 34 0 35 1 13 10 -22 9 -23 11 -7 27 24 28 19 42 -14 42 -16 0 -30 -4 -30
-10z"/>
<path d="M3270 110 c0 -22 5 -40 10 -40 6 0 10 18 10 40 0 22 -4 40 -10 40 -5
0 -10 -18 -10 -40z"/>
<path d="M3405 140 c-3 -5 3 -10 14 -10 28 0 27 -18 -1 -22 -36 -5 -28 -32 10
-36 38 -4 51 16 34 54 -12 24 -45 33 -57 14z m35 -44 c0 -3 -4 -8 -10 -11 -5
-3 -10 -1 -10 4 0 6 5 11 10 11 6 0 10 -2 10 -4z"/>
<path d="M3610 110 c0 -22 5 -40 10 -40 6 0 10 18 10 40 0 22 -4 40 -10 40 -5
0 -10 -18 -10 -40z"/>
<path d="M3650 109 c0 -22 5 -39 10 -39 6 0 10 11 10 25 0 14 7 28 15 31 23 9
18 22 -10 22 -22 0 -25 -5 -25 -39z"/>
<path d="M3720 130 c-14 -26 -5 -57 19 -65 22 -7 53 4 46 16 -3 4 -12 6 -19 3
-8 -3 -17 -1 -21 5 -3 7 2 11 14 11 26 0 36 17 21 35 -18 21 -47 18 -60 -5z
m40 -10 c0 -5 -2 -10 -4 -10 -3 0 -8 5 -11 10 -3 6 -1 10 4 10 6 0 11 -4 11
-10z"/>
<path d="M3873 144 c-18 -8 -16 -59 3 -75 24 -20 49 1 49 42 0 27 -4 34 -20
36 -11 1 -26 -1 -32 -3z m33 -50 c-5 -13 -10 -14 -18 -6 -6 6 -8 18 -4 28 5
13 10 14 18 6 6 -6 8 -18 4 -28z"/>
<path d="M3955 110 c0 -39 7 -50 20 -30 5 8 11 7 21 -1 19 -16 30 -4 14 16 -9
11 -10 18 -1 28 15 19 1 30 -17 14 -12 -9 -16 -9 -19 1 -9 25 -18 11 -18 -28z"/>
<path d="M4686 143 c-3 -3 -6 -21 -6 -40 0 -23 5 -33 15 -33 10 0 15 10 15 34
0 34 -11 52 -24 39z"/>
<path d="M4732 138 c-28 -28 -3 -84 33 -76 19 4 21 23 3 23 -7 0 -14 10 -16
23 -3 17 2 22 18 22 12 0 18 5 15 10 -8 14 -38 13 -53 -2z"/>
<path d="M4800 108 c0 -21 5 -38 10 -38 6 0 10 9 10 20 0 10 10 28 21 39 l21
20 -31 -1 c-29 -1 -31 -3 -31 -40z"/>
<path d="M4870 129 c-9 -16 -8 -26 5 -45 18 -27 19 -28 46 -14 21 12 25 50 7
68 -18 18 -46 14 -58 -9z m45 -22 c0 -26 -20 -25 -23 2 -3 16 1 22 10 19 7 -3
13 -12 13 -21z"/>
<path d="M4963 134 c-4 -10 1 -22 10 -29 21 -15 22 -29 2 -22 -8 4 -17 2 -20
-3 -11 -17 37 -22 54 -6 15 16 14 18 -9 36 -20 16 -22 20 -7 20 9 0 17 5 17
10 0 17 -40 11 -47 -6z"/>
<path d="M5042 138 c-18 -18 -14 -56 7 -68 26 -14 50 -3 57 26 11 42 -34 72
-64 42z m44 -19 c10 -17 -13 -36 -27 -22 -12 12 -4 33 11 33 5 0 12 -5 16 -11z"/>
<path d="M5560 129 c-9 -16 -8 -26 5 -45 8 -13 19 -24 24 -24 19 0 41 12 36
21 -3 4 -12 6 -19 3 -8 -3 -17 -1 -21 5 -3 7 2 11 14 11 26 0 36 17 21 35 -18
21 -47 18 -60 -6z m50 -3 c0 -11 -19 -15 -25 -6 -3 5 1 10 9 10 9 0 16 -2 16
-4z"/>
</g>
</svg>
