<svg xmlns="http://www.w3.org/2000/svg"  viewBox="0 0 48 48" width="48px" height="48px"><linearGradient id="SVGID_1_" x1="39.096" x2="8.903" y1="8.903" y2="39.096" gradientUnits="userSpaceOnUse"><stop offset="0" stop-color="#60affe"/><stop offset=".033" stop-color="#6ab4fe"/><stop offset=".197" stop-color="#97cbfe"/><stop offset=".362" stop-color="#bddeff"/><stop offset=".525" stop-color="#daecff"/><stop offset=".687" stop-color="#eef7ff"/><stop offset=".846" stop-color="#fbfdff"/><stop offset="1" stop-color="#fff"/></linearGradient><path fill="url(#SVGID_1_)" d="M36.5,40h-25c-2.209,0-4-1.737-4-3.879V11.879C7.5,9.737,9.291,8,11.5,8h25c2.209,0,4,1.737,4,3.879v24.242	C40.5,38.263,38.709,40,36.5,40z"/><path fill="#2e9bfe" d="M20,29h4v12.235c0.979,0.16,1.976,0.265,3,0.265s2.021-0.105,3-0.265V29h3.625c0.504,0,0.93-0.376,0.992-0.876	l0.375-3c0.036-0.284-0.053-0.57-0.243-0.786C34.56,24.123,34.287,24,34,24h-4v-3.5c0-1.103,0.897-2,2-2h2c0.552,0,1-0.447,1-1	v-3.375c0-0.518-0.396-0.95-0.911-0.996C34.03,13.124,32.62,13,30.834,13C26.427,13,24,15.617,24,20.368V24h-4c-0.552,0-1,0.447-1,1	v3C19,28.553,19.448,29,20,29z"/><path fill="none" stroke="#2e9bfe" stroke-linecap="round" stroke-linejoin="round" stroke-width="3" d="M40.5,31.596V36.5c0,2.209-1.791,4-4,4h-25c-2.209,0-4-1.791-4-4V20.83"/><path fill="none" stroke="#2e9bfe" stroke-linecap="round" stroke-linejoin="round" stroke-width="3" d="M7.5,14.064V11.5c0-2.209,1.791-4,4-4h25c2.209,0,4,1.791,4,4v14.479"/></svg>