<?xml version="1.0" encoding="utf-8"?>
<!-- Generator: Adobe Illustrator 22.1.0, SVG Export Plug-In . SVG Version: 6.00 Build 0)  -->
<svg version="1.1" id="圖層_1" xmlns="http://www.w3.org/2000/svg" xmlns:xlink="http://www.w3.org/1999/xlink" x="0px" y="0px"
	 viewBox="0 0 47.5 47.5" style="enable-background:new 0 0 47.5 47.5;" xml:space="preserve">
<style type="text/css">
	.st0{fill-rule:evenodd;clip-rule:evenodd;fill:#0063DB;}
	.st1{fill:#FFFFFF;}
	.st2{fill:#FF0084;}
</style>
<g>
	<g>
		<path class="st0" d="M47.5,23.7c0,13.1-10.6,23.7-23.7,23.7C10.6,47.5,0,36.8,0,23.7C0,10.6,10.6,0,23.7,0
			C36.8,0,47.5,10.6,47.5,23.7"/>
	</g>
	<path class="st1" d="M12.2,23.2H8.5v-4.6h3.9v-1.2c0-5.7,2.6-7.7,7.7-7.7c1.4,0,2.4,0.2,3.3,0.4l-0.4,4.6c-0.5-0.2-1.1-0.3-2-0.3
		c-1.6,0-2.3,1.2-2.3,3v1.2h4.5v4.6h-4.5v14.5h-6.4V23.2z"/>
	<path class="st2" d="M39,23.9c-0.7-0.2-1.4-0.2-2.2-0.2c-3,0-4.6,2.2-4.6,6v8.1h-6.4V18.6h5.8v3.5h0.1c1.1-2.4,2.7-4,5.5-4
		c0.7,0,1.5,0.1,2.2,0.2L39,23.9z"/>
</g>
</svg>
