<svg xmlns="http://www.w3.org/2000/svg" enable-background="new 0 0 28 28" viewBox="0 0 28 28" id="line">
  <path fill="#deff8f" d="m5.202 16.573c-2.635-6.215-2.65-10.502 4.415-13.497s12.856-.688 15.491 5.527.302 10.544-6.763 13.538-10.509.648-13.143-5.568z"></path>
  <path d="m13.38 26c-.193 0-.392-.045-.562-.176-.436-.333-.348-.924-.31-1.176l.179-1.187c.028-.209.067-.495.01-.622-.112-.25-.233-.286-.565-.354l-.122-.025c-5.784-.806-10.01-5.08-10.01-10.157 0-5.681 5.383-10.303 12-10.303s12 4.622 12 10.303c0 2.276-.839 4.347-2.563 6.333-2.451 2.958-7.889 6.565-9.22 7.149-.147.065-.486.215-.837.215zm.62-23c-6.065 0-11 4.173-11 9.303 0 4.573 3.863 8.431 9.187 9.173l.145.029c.378.077.95.193 1.278.923.175.388.116.819.069 1.166l-.175 1.159c-.01.066-.023.158-.028.233.071-.015.181-.047.339-.117 1.237-.542 6.535-4.075 8.859-6.88 1.567-1.804 2.326-3.661 2.326-5.686 0-5.13-4.935-9.303-11-9.303z"></path>
  <path d="M9.5 15h-2c-.276 0-.5-.224-.5-.5v-5c0-.276.224-.5.5-.5s.5.224.5.5v4.5h1.5c.276 0 .5.224.5.5s-.224.5-.5.5zM11.5 15c-.276 0-.5-.224-.5-.5v-5c0-.276.224-.5.5-.5s.5.224.5.5v5c0 .276-.224.5-.5.5zM18.5 15c-.276 0-.5-.224-.5-.5v-5c0-.276.224-.5.5-.5h2c.276 0 .5.224.5.5s-.224.5-.5.5h-1.5v4.5c0 .276-.224.5-.5.5zM16.5 15c-.173 0-.337-.089-.429-.243l-2.071-3.452v3.195c0 .276-.224.5-.5.5s-.5-.224-.5-.5v-5c0-.225.15-.422.366-.482.223-.061.447.032.562.225l2.072 3.452v-3.195c0-.276.224-.5.5-.5s.5.224.5.5v5c0 .225-.15.422-.366.482-.045.012-.09.018-.134.018z"></path>
  <path d="M20.5 12.5h-2c-.276 0-.5-.224-.5-.5s.224-.5.5-.5h2c.276 0 .5.224.5.5s-.224.5-.5.5zM20.5 15h-2c-.276 0-.5-.224-.5-.5s.224-.5.5-.5h2c.276 0 .5.224.5.5s-.224.5-.5.5z"></path>
</svg>
