<svg xmlns="http://www.w3.org/2000/svg"  viewBox="0 0 48 48" width="48px" height="48px"><path fill="#a5d6a7" d="M45.979,26.312C45.979,17.869,37.467,11,27.007,11S8.032,17.869,8.032,26.312	c0,7.569,6.75,13.908,15.867,15.107c0.618,0.132,1.459,0.406,1.672,0.93c0.191,0.477,0.125,1.224,0.06,1.706	c0,0-0.222,1.331-0.27,1.615c-0.083,0.477-0.163,2.023,1.746,0.973C35.922,41.796,45.979,35.793,45.979,26.312z"/><path fill="none" stroke="#18193f" stroke-linecap="round" stroke-linejoin="round" stroke-width="3" d="M7.199,13.032	c-2.323,2.59-3.694,5.771-3.694,9.205c0,7.779,6.937,14.294,16.308,15.527c0.635,0.136,1.5,0.417,1.718,0.956	c0.196,0.49,0.128,1.258,0.062,1.753c0,0-0.228,1.368-0.278,1.66c-0.085,0.49-0.168,2.079,1.795,1	c2.843-1.564,5.812-3.244,8.548-5.115"/><path fill="none" stroke="#18193f" stroke-linecap="round" stroke-linejoin="round" stroke-width="3" d="M37.702,33.008	c2.896-3.057,4.804-6.584,4.804-10.771c0-8.677-8.748-15.737-19.499-15.737c-2.429,0-4.756,0.36-6.903,1.019"/><path fill="#18193f" d="M15.345,26.863h-3.879c-0.565,0-1.023-0.455-1.023-1.016v-7.694c0-0.56,0.459-1.015,1.023-1.015	c0.565,0,1.023,0.455,1.023,1.015v6.678h2.856c0.565,0,1.023,0.455,1.023,1.015C16.369,26.406,15.91,26.863,15.345,26.863z"/><path fill="#18193f" d="M19.357,25.846c0,0.56-0.459,1.016-1.023,1.016c-0.565,0-1.023-0.455-1.023-1.016v-7.694	c0-0.56,0.459-1.015,1.023-1.015c0.565,0,1.023,0.455,1.023,1.015V25.846z"/><path fill="#18193f" d="M28.697,25.846c0,0.439-0.28,0.826-0.7,0.963c-0.106,0.035-0.216,0.053-0.325,0.053	c-0.32,0-0.626-0.152-0.818-0.406l-3.976-5.369v4.759c0,0.56-0.459,1.016-1.025,1.016c-0.565,0-1.025-0.455-1.025-1.016v-7.694	c0-0.437,0.282-0.824,0.7-0.963c0.106-0.035,0.215-0.052,0.325-0.052c0.319,0,0.626,0.152,0.818,0.406l3.978,5.369v-4.761	c0-0.56,0.46-1.015,1.025-1.015s1.023,0.455,1.023,1.015L28.697,25.846z"/><path fill="#18193f" d="M34.975,20.983c0.565,0,1.025,0.455,1.025,1.016c0,0.56-0.459,1.015-1.025,1.015h-2.856v1.817h2.856	c0.565,0,1.025,0.455,1.025,1.015s-0.46,1.016-1.025,1.016h-3.879c-0.563,0-1.023-0.455-1.023-1.016v-3.845c0-0.001,0-0.001,0-0.001	v-0.001v-3.842c0-0.001,0-0.001,0-0.003c0-0.56,0.459-1.015,1.023-1.015h3.879c0.565,0,1.025,0.455,1.025,1.015	s-0.459,1.015-1.025,1.015h-2.856v1.817h2.856V20.983z"/></svg>