<svg xmlns="http://www.w3.org/2000/svg" width="48" height="48" fill="none" id="line">
  <path fill="#00B900" d="M0 24C0 10.745 10.745 0 24 0s24 10.745 24 24-10.745 24-24 24S0 37.255 0 24Z"></path>
  <path fill="#fff" d="M24.4 11.2c-8.16 0-14.8 5.349-14.8 11.924 0 5.894 5.265 10.83 12.377 11.764.482.103 1.139.315 1.304.724.15.372.098.954.048 1.329l-.211 1.258c-.064.371-.297 1.452 1.282.792 1.58-.661 8.523-4.983 11.628-8.531 2.145-2.335 3.172-4.705 3.172-7.336 0-6.575-6.639-11.924-14.8-11.924Z"></path>
  <path fill="#00B900" d="M20.286 20a.29.29 0 0 0-.286.295v6.61a.29.29 0 0 0 .286.295h1.028a.29.29 0 0 0 .286-.295v-6.61a.29.29 0 0 0-.286-.295h-1.028zm8.213 0h-1.082c-.166 0-.301.132-.301.295v3.927l-3.082-4.09a.339.339 0 0 0-.024-.03l-.002-.003a.287.287 0 0 0-.04-.036l-.007-.006-.016-.01a.215.215 0 0 0-.025-.014l-.01-.005-.017-.007-.01-.004a.173.173 0 0 0-.017-.005l-.01-.003-.018-.004-.013-.002-.016-.002h-.015l-.01-.001H22.7c-.166 0-.301.132-.301.295v6.61c0 .163.135.295.3.295h1.083c.167 0 .301-.132.301-.295V22.98l3.086 4.096a.295.295 0 0 0 .08.076l.018.01.009.005.014.007.015.006.009.003a.32.32 0 0 0 .02.007h.005c.024.007.05.011.077.011h1.082c.167 0 .301-.132.301-.295v-6.61a.298.298 0 0 0-.3-.295zm-9.591 5.545H16.04v-5.25a.294.294 0 0 0-.293-.295h-1.055a.294.294 0 0 0-.293.296v6.608a.295.295 0 0 0 .086.21l.004.003a.29.29 0 0 0 .203.083h4.215a.294.294 0 0 0 .292-.296V25.84a.294.294 0 0 0-.292-.295zm15.2-3.89a.294.294 0 0 0 .292-.295v-1.064a.294.294 0 0 0-.292-.296h-4.215a.29.29 0 0 0-.204.084l-.003.003-.005.005a.295.295 0 0 0-.081.204v6.608a.295.295 0 0 0 .292.296h4.216a.294.294 0 0 0 .292-.296V25.84a.294.294 0 0 0-.292-.295H31.24v-1.118h2.867a.294.294 0 0 0 .292-.295v-1.064a.294.294 0 0 0-.292-.296H31.24v-1.117h2.867z"></path>
</svg>
