<svg xmlns="http://www.w3.org/2000/svg"  viewBox="0 0 48 48" width="48px" height="48px"><linearGradient id="SVGID_1_" x1="36.303" x2="11.306" y1="9.042" y2="34.039" gradientUnits="userSpaceOnUse"><stop offset="0" stop-color="#60fea4"/><stop offset=".033" stop-color="#6afeaa"/><stop offset=".197" stop-color="#97fec4"/><stop offset=".362" stop-color="#bdffd9"/><stop offset=".525" stop-color="#daffea"/><stop offset=".687" stop-color="#eefff5"/><stop offset=".846" stop-color="#fbfffd"/><stop offset="1" stop-color="#fff"/></linearGradient><path fill="url(#SVGID_1_)" d="M43.152,21.422c0-8.653-8.723-15.693-19.444-15.693S4.261,12.77,4.261,21.422	c0,7.757,6.917,14.254,16.262,15.483c0.633,0.136,1.496,0.416,1.713,0.953c0.195,0.489,0.128,1.254,0.062,1.748	c0,0-0.227,1.364-0.277,1.655c-0.085,0.489-0.168,2.073,1.79,0.997C32.845,37.292,43.152,31.14,43.152,21.422z"/><path fill="none" stroke="#10e36c" stroke-linecap="round" stroke-linejoin="round" stroke-width="3" d="M7.199,13.032c-2.323,2.59-3.694,5.771-3.694,9.205c0,7.779,6.937,14.294,16.308,15.527	c0.635,0.136,1.5,0.417,1.718,0.956c0.196,0.49,0.128,1.258,0.062,1.753c0,0-0.228,1.368-0.278,1.66	c-0.085,0.49-0.168,2.079,1.795,1c2.843-1.564,5.812-3.244,8.548-5.115"/><path fill="none" stroke="#10e36c" stroke-linecap="round" stroke-linejoin="round" stroke-width="3" d="M37.702,33.008c2.896-3.057,4.804-6.584,4.804-10.771c0-8.677-8.748-15.737-19.499-15.737	c-2.429,0-4.756,0.36-6.903,1.019"/><path fill="#10e36c" d="M15.345,26.863h-3.879c-0.565,0-1.023-0.455-1.023-1.016v-7.694c0-0.56,0.459-1.015,1.023-1.015	c0.565,0,1.023,0.455,1.023,1.015v6.678h2.856c0.565,0,1.023,0.455,1.023,1.015C16.369,26.406,15.91,26.863,15.345,26.863z"/><path fill="#10e36c" d="M19.357,25.846c0,0.56-0.459,1.016-1.023,1.016c-0.565,0-1.023-0.455-1.023-1.016v-7.694	c0-0.56,0.459-1.015,1.023-1.015c0.565,0,1.023,0.455,1.023,1.015V25.846z"/><path fill="#10e36c" d="M28.697,25.846c0,0.439-0.28,0.826-0.7,0.963c-0.106,0.035-0.216,0.053-0.325,0.053	c-0.32,0-0.626-0.152-0.818-0.406l-3.976-5.369v4.759c0,0.56-0.459,1.016-1.025,1.016c-0.565,0-1.025-0.455-1.025-1.016v-7.694	c0-0.437,0.282-0.824,0.7-0.963c0.106-0.035,0.215-0.052,0.325-0.052c0.319,0,0.626,0.152,0.818,0.406l3.978,5.369v-4.761	c0-0.56,0.46-1.015,1.025-1.015s1.023,0.455,1.023,1.015L28.697,25.846z"/><path fill="#10e36c" d="M34.975,20.983c0.565,0,1.025,0.455,1.025,1.016c0,0.56-0.459,1.015-1.025,1.015h-2.856v1.817h2.856	c0.565,0,1.025,0.455,1.025,1.015s-0.46,1.016-1.025,1.016h-3.879c-0.563,0-1.023-0.455-1.023-1.016v-3.845c0-0.001,0-0.001,0-0.001	v-0.001v-3.842c0-0.001,0-0.001,0-0.003c0-0.56,0.459-1.015,1.023-1.015h3.879c0.565,0,1.025,0.455,1.025,1.015	s-0.459,1.015-1.025,1.015h-2.856v1.817h2.856V20.983z"/></svg>