<svg xmlns="http://www.w3.org/2000/svg" width="144.083" height="144" id="line">
  <path d="M62.375 61.581c-.496 0-.902.171-1.215.516-.313.344-.469.859-.469 1.546v13.23c0 .688.158 1.205.475 1.552.316.349.719.521 1.209.521.512 0 .926-.171 1.242-.516.316-.344.475-.862.475-1.558v-13.23c0-.695-.158-1.212-.475-1.553-.316-.338-.73-.508-1.242-.508zm18.04 0c-.473 0-.85.163-1.127.487-.279.325-.418.812-.418 1.46v9.989l-6.541-9.897-.533-.836a4.07 4.07 0 0 0-.504-.652 1.908 1.908 0 0 0-.572-.402 1.886 1.886 0 0 0-.785-.148c-.391 0-.752.109-1.088.327a1.848 1.848 0 0 0-.723.841c-.121.313-.182.745-.182 1.294v12.955c0 .634.145 1.116.436 1.448.289.332.674.499 1.156.499.465 0 .848-.165 1.145-.493.299-.328.447-.813.447-1.454V67.16l6.381 9.782c.182.268.365.529.549.785s.383.479.596.67c.215.191.443.33.688.418s.52.132.824.132c1.223 0 1.834-.737 1.834-2.21V63.528c0-.649-.143-1.136-.424-1.46-.284-.324-.671-.487-1.159-.487zM56.614 75.865h-6.896V63.643c0-.695-.158-1.212-.477-1.553-.316-.339-.73-.509-1.242-.509-.504 0-.91.171-1.219.516-.311.344-.465.859-.465 1.546v12.932c0 .733.162 1.265.486 1.593.326.328.857.492 1.6.492h8.213c.557 0 .98-.127 1.271-.384a1.28 1.28 0 0 0 .436-1.003c0-.404-.148-.74-.443-1.008-.294-.266-.715-.4-1.264-.4z"></path>
  <path d="M72.042 14.166C40.1 14.166 14.208 40.059 14.208 72c0 31.94 25.893 57.834 57.834 57.834 31.939 0 57.834-25.895 57.834-57.834-.001-31.941-25.895-57.834-57.834-57.834zm34.861 61.588c-1.801 4.969-5.074 9.4-9.396 12.938-6.25 5.858-13.463 10.465-17.98 13.685-8.441 6.016-10.236 5.547-10.98 4.791-.811-.824 1.496-4.354 1.697-7.586.107-1.762-1.668-2.287-2.176-2.377-18.252-1.656-32.461-14.596-32.461-30.313 0-16.842 16.311-30.495 36.432-30.495 20.119 0 36.432 13.653 36.432 30.495.096 3.161-.49 6.11-1.568 8.862z"></path>
  <path d="M97.047 75.957h-7.926V71.18h7.057c.525 0 .916-.121 1.166-.361.254-.24.379-.551.379-.933s-.127-.689-.383-.922c-.256-.232-.645-.349-1.162-.349h-7.057v-4.124h7.662c.543 0 .945-.121 1.209-.361.264-.24.395-.559.395-.956 0-.39-.131-.705-.395-.945s-.666-.361-1.209-.361h-8.98c-.48 0-.875.071-1.186.212a1.36 1.36 0 0 0-.682.676c-.145.31-.217.708-.217 1.197v12.623c0 .733.162 1.265.486 1.593s.857.492 1.598.492h9.244c.535 0 .938-.125 1.209-.373.27-.247.406-.57.406-.967 0-.413-.137-.743-.406-.991-.27-.25-.672-.373-1.208-.373z"></path>
</svg>
