<?xml version="1.0" encoding="UTF-8"?>
<svg id="_圖層_2" data-name="圖層 2" xmlns="http://www.w3.org/2000/svg" width="349.43" height="107.16" viewBox="0 0 349.43 107.16">
  <defs>
    <style>
      .cls-1 {
        fill: #fff;
      }

      .cls-1, .cls-2, .cls-3 {
        fill-rule: evenodd;
      }

      .cls-2 {
        fill: #2878b9;
      }

      .cls-3 {
        fill: #9ec317;
      }

      .cls-4 {
        fill: #231815;
      }
    </style>
  </defs>
  <g id="_圖層_1-2" data-name="圖層 1">
    <g>
      <g>
        <path class="cls-2" d="m53.55,53.55L4.18,74.25C1.77,68.49.34,62.24.05,55.92c-.04-.79-.05-1.58-.05-2.38C0,24.05,24.05,0,53.55,0s53.54,24.05,53.54,53.55c0,3.97-.63,8.36-1.47,12.13l-52.06-12.13Z"/>
        <path class="cls-3" d="m61.88,45.91l19.06,24.71,24.7-5.21c-5.44,24.22-27.43,41.76-52.33,41.76-23.45,0-44.59-15.66-51.29-37.99l43.4,1.2,16.45-24.46Z"/>
        <path class="cls-1" d="m.05,56.23l18.25-.09c7.06-10.57,14.11-21.15,21.15-31.72,1.22-1.28,2.16-1.44,3.26-1.05l5.55,5.91-22.03,30.85-26.03-.07-.15-3.81Z"/>
        <polygon class="cls-3" points="1.4 66.77 36.72 66.77 62.99 27.75 90.08 66.77 104.94 66.77 104.15 68.89 86.88 68.89 63 34.38 38.9 69.43 2.06 69.17 1.4 66.77"/>
        <polygon class="cls-1" points="2.57 70.84 2.02 69.17 38.82 68.99 63.06 34.28 87.04 68.93 104.74 68.93 103.24 72.98 78.94 72.98 62.1 49.18 47.3 72.45 3.1 72.47 2.57 70.84"/>
        <path class="cls-1" d="m1.4,66.77l-.36-1.93-.23-2.21,27.63.12L60.16,15.16c.78-.65,1.24-1.1,2.74-.98.76.13,1.44.27,2.55,1.42l32.93,47.6h7.86l-.85,3.58-15.27-.05-27.32-38.52-25.9,38.78-35.5-.21Z"/>
      </g>
      <g>
        <g>
          <path class="cls-4" d="m142.24,76.88h-1.92v-13.03l-4.37,13.03h-1.82l-4.37-13.03v13.03h-1.92v-15.32h3.04l4.15,12.77,4.17-12.77h3.04v15.32Z"/>
          <path class="cls-4" d="m147.38,63.69h-1.98v-2.13h1.98v2.13Zm0,13.19h-1.98v-11.09h1.98v11.09Z"/>
          <path class="cls-4" d="m152.26,67.2c.98-1.11,2.09-1.66,3.31-1.66,2.5,0,3.75,1.36,3.75,4.09v7.25h-1.98v-7.17c0-.91-.16-1.56-.49-1.95s-.86-.6-1.59-.6c-1,0-2.01.59-3.01,1.78v7.94h-1.98v-11.09h1.98v1.41Z"/>
          <path class="cls-4" d="m164.17,63.69h-1.98v-2.13h1.98v2.13Zm0,13.19h-1.98v-11.09h1.98v11.09Z"/>
          <path class="cls-4" d="m171.04,77.14c-3.03,0-4.62-1.19-4.76-3.57h1.98c.01,1.35.93,2.03,2.76,2.03.82,0,1.44-.17,1.87-.51s.64-.76.64-1.27-.21-.86-.63-1.06-1.28-.47-2.59-.8-2.26-.69-2.86-1.1-.9-1.11-.9-2.13c0-.92.37-1.68,1.12-2.28s1.75-.9,3.01-.9c2.91,0,4.39,1.03,4.45,3.1h-1.97c-.07-1.05-.85-1.57-2.35-1.57-.66,0-1.21.13-1.65.38s-.65.62-.65,1.1c0,.43.17.74.5.94s1.17.45,2.51.77c1.34.32,2.34.7,2.99,1.13s.98,1.18.98,2.24-.4,1.85-1.21,2.51c-.8.67-1.89,1-3.25,1Z"/>
          <path class="cls-4" d="m182.08,76.9c-.43.08-.9.13-1.41.13-.81,0-1.4-.14-1.78-.43s-.61-.66-.7-1.11-.14-1.07-.14-1.85v-6.29h-1.37v-1.55h1.37v-2.76h1.97v2.76h1.8v1.55h-1.8v6.4c0,.76.1,1.24.29,1.45s.45.31.79.31.67-.03.98-.08v1.49Z"/>
          <path class="cls-4" d="m189.48,67.59c-.28-.08-.68-.13-1.2-.13-1,0-1.86.53-2.58,1.58v7.84h-1.98v-11.09h1.98v1.55c.83-1.2,1.79-1.8,2.88-1.8.28,0,.58.03.9.08v1.97Z"/>
          <path class="cls-4" d="m191.48,79.55c.98,0,1.77-.89,2.39-2.68l-4.19-11.09h2.13l2.94,8.68,2.94-8.68h2.13l-4.19,11.09c-.4,1.06-.75,1.88-1.03,2.45s-.65,1.06-1.11,1.45-1.02.59-1.68.59c-.49,0-.92-.05-1.28-.15v-1.82c.31.1.62.15.94.15Z"/>
          <path class="cls-4" d="m211.74,65.54c1.58,0,2.84.51,3.79,1.52s1.42,2.44,1.42,4.29-.47,3.27-1.42,4.28c-.94,1.01-2.21,1.52-3.79,1.52s-2.83-.51-3.78-1.52-1.42-2.44-1.42-4.28.47-3.28,1.42-4.29,2.2-1.52,3.78-1.52Zm0,10.06c.94,0,1.7-.36,2.29-1.07.59-.71.88-1.78.88-3.18s-.29-2.48-.88-3.19c-.59-.71-1.35-1.07-2.29-1.07s-1.7.36-2.29,1.07-.88,1.78-.88,3.19.29,2.47.88,3.18,1.35,1.07,2.29,1.07Z"/>
          <path class="cls-4" d="m221.46,67.34v9.54h-1.97v-9.54h-1.63v-1.55h1.63v-.98c0-2.34,1.03-3.51,3.1-3.51.63,0,1.13.04,1.47.13v1.71c-.39-.07-.79-.1-1.19-.1-.48,0-.84.13-1.07.4s-.35.73-.35,1.4v.96h2.1v1.55h-2.1Z"/>
          <path class="cls-4" d="m242.47,76.88h-11.42v-15.32h11.07v1.82h-9.04v4.68h8.46v1.82h-8.46v5.18h9.4v1.82Z"/>
          <path class="cls-4" d="m247.03,67.2c.98-1.11,2.09-1.66,3.31-1.66,2.5,0,3.75,1.36,3.75,4.09v7.25h-1.98v-7.17c0-.91-.16-1.56-.49-1.95s-.86-.6-1.59-.6c-1,0-2.01.59-3.01,1.78v7.94h-1.98v-11.09h1.98v1.41Z"/>
          <path class="cls-4" d="m265.93,65.79l-4.19,11.09h-1.76l-4.19-11.09h2.13l2.94,8.68,2.94-8.68h2.13Z"/>
          <path class="cls-4" d="m269.64,63.69h-1.98v-2.13h1.98v2.13Zm0,13.19h-1.98v-11.09h1.98v11.09Z"/>
          <path class="cls-4" d="m278.31,67.59c-.28-.08-.68-.13-1.2-.13-1,0-1.86.53-2.58,1.58v7.84h-1.98v-11.09h1.98v1.55c.83-1.2,1.79-1.8,2.88-1.8.28,0,.58.03.9.08v1.97Z"/>
          <path class="cls-4" d="m284.17,65.54c1.58,0,2.84.51,3.79,1.52.94,1.01,1.42,2.44,1.42,4.29s-.47,3.27-1.42,4.28-2.21,1.52-3.79,1.52-2.83-.51-3.78-1.52-1.42-2.44-1.42-4.28.47-3.28,1.42-4.29,2.2-1.52,3.78-1.52Zm0,10.06c.94,0,1.7-.36,2.29-1.07s.88-1.78.88-3.18-.29-2.48-.88-3.19-1.35-1.07-2.29-1.07-1.7.36-2.29,1.07-.88,1.78-.88,3.19.29,2.47.88,3.18,1.35,1.07,2.29,1.07Z"/>
          <path class="cls-4" d="m293.56,67.2c.98-1.11,2.09-1.66,3.31-1.66,2.5,0,3.75,1.36,3.75,4.09v7.25h-1.98v-7.17c0-.91-.16-1.56-.49-1.95s-.86-.6-1.59-.6c-1,0-2.01.59-3.01,1.78v7.94h-1.98v-11.09h1.98v1.41Z"/>
          <path class="cls-4" d="m318.47,76.88h-1.98v-7.17c0-.92-.13-1.57-.4-1.97s-.71-.59-1.33-.59c-.95,0-1.89.59-2.81,1.78v7.94h-1.97v-7.17c0-.92-.13-1.57-.4-1.97s-.71-.59-1.34-.59c-.95,0-1.89.59-2.8,1.78v7.94h-1.98v-11.09h1.98v1.41c.93-1.11,1.97-1.66,3.1-1.66,1.62,0,2.66.67,3.1,2.01.74-.87,1.37-1.42,1.88-1.66s1.02-.35,1.52-.35c2.27,0,3.41,1.36,3.41,4.09v7.25Z"/>
          <path class="cls-4" d="m326.03,77.14c-1.63,0-2.94-.51-3.93-1.53-.99-1.02-1.48-2.44-1.48-4.27s.48-3.23,1.44-4.26,2.21-1.54,3.76-1.54,2.84.51,3.79,1.52c.94,1.01,1.42,2.44,1.42,4.29v.47h-8.35c.08,1.28.44,2.23,1.06,2.85.62.62,1.39.93,2.3.93.69,0,1.31-.18,1.87-.53s.84-.85.87-1.5h2.04c-.15,1.14-.67,2.02-1.55,2.64s-1.96.93-3.22.93Zm2.91-6.88c-.16-1.07-.52-1.86-1.08-2.39s-1.24-.79-2.05-.79-1.46.26-2.03.79-.92,1.33-1.08,2.4h6.23Z"/>
          <path class="cls-4" d="m335.2,67.2c.98-1.11,2.09-1.66,3.31-1.66,2.5,0,3.75,1.36,3.75,4.09v7.25h-1.98v-7.17c0-.91-.16-1.56-.49-1.95s-.86-.6-1.59-.6c-1,0-2.01.59-3.01,1.78v7.94h-1.98v-11.09h1.98v1.41Z"/>
          <path class="cls-4" d="m349.43,76.9c-.43.08-.9.13-1.41.13-.81,0-1.4-.14-1.78-.43s-.61-.66-.7-1.11-.14-1.07-.14-1.85v-6.29h-1.37v-1.55h1.37v-2.76h1.97v2.76h1.8v1.55h-1.8v6.4c0,.76.1,1.24.29,1.45s.45.31.79.31.67-.03.98-.08v1.49Z"/>
        </g>
        <g>
          <path class="cls-4" d="m135.16,32.9v.33c0,.12-.01.45-.04.99-.01.51-.04,1.5-.08,2.97.17-.01.43-.05.81-.1.16-.01.34-.03.52-.06.37-.04.6-.07.68-.08.41-.06.69-.08.84-.08.72,0,1.07.23,1.07.68,0,.66-.34.99-1.01.99-.08,0-.2,0-.35-.02-.6.11-1.47.22-2.6.33v4.78c1.08-.12,2.03-.27,2.82-.45.34-.08.69-.12,1.03-.12.66,0,.98.14.97.41,0,.73-.69,1.29-2.08,1.67-2.16.6-3.96.98-5.4,1.13-.85.1-1.59.25-2.21.45-.55.38-.94.58-1.17.58-.01,0-.06-.01-.14-.04-.65-.03-.97-.43-.97-1.22,0-.11,0-.25.02-.43.62-.99,1.51-1.49,2.68-1.49.48,0,1.33-.05,2.56-.16,0-.05,0-.15-.02-.29,0-.04,0-.15-.02-.33v-.76c0-.66,0-1.44-.02-2.35l-.02-.74v-.47l-.35.06c-.47.1-.94.19-1.42.29-.29.04-.49.08-.62.1-.4.23-.74.36-1.03.37-.1.04-.18.06-.27.06-.22,0-.46-.09-.72-.27-.11-.25-.16-.52-.16-.8,0-.33.16-.67.49-1.01.51-.19.99-.3,1.44-.33.01,0,.2-.02.56-.06.44-.05,1.11-.09,2-.1-.01-.73-.04-1.35-.08-1.86-.03-.36-.04-.69-.04-1.01,0-.36-.03-.76-.08-1.22-.81.11-1.5.22-2.06.33-.43.19-.77.29-1.03.29-.1.03-.18.04-.25.04-.22,0-.48-.11-.78-.33-.14-.23-.21-.51-.21-.82,0-.37.18-.7.54-.99.58-.19,1.1-.3,1.57-.33.18-.01.65-.07,1.42-.16.47-.06,1.04-.11,1.71-.17,1.07-.1,1.75-.16,2.02-.19,1.1-.12,1.89-.19,2.37-.19.78,0,1.17.3,1.17.91s-.35.95-1.05.95c-.1,0-.24-.01-.43-.04-.59.14-1.44.26-2.56.37Zm19.01,9.86c-.3-.01-.67-.07-1.11-.17h-3.3c-.4.11-.8.17-1.2.17.11.3.16.56.16.78,0,.19-.23.48-.7.87l-.21.16-.21.17c.14.25.21.44.21.58,0,.26-.07.67-.21,1.24-.01.07-.05.25-.1.54-.04.19-.12.53-.23,1.01-.05.3-.1.53-.12.68-.03.1-.04.15-.04.17,0,.3.15.45.45.45.92,0,2.23-.19,3.92-.56.45-.1.71-.14.78-.14.23,0,.35.12.35.37,0,.37-.18.74-.55,1.11-.34.34-.7.52-1.07.54-.56.01-2.08.18-4.54.49-.29.12-.57.26-.83.39-.29.15-.61.23-.97.23-.88,0-1.48-.43-1.8-1.28v-.12c0-.22.12-.38.37-.49.11-.04.35-.15.72-.33l.06-.04c.4-.14.76-.65,1.07-1.53.21-.56.32-1.05.33-1.44v-.21c-.92.6-2.08,1.16-3.47,1.65-1.4.58-2.45.87-3.16.87-1.22,0-1.83-.42-1.83-1.26,0-.16.04-.41.12-.72.25-.43.6-.81,1.07-1.15.44-.32.8-.48,1.07-.49.51.33,1.04.49,1.59.49.43,0,1.21-.22,2.36-.65,1.15-.43,2.11-.88,2.9-1.33.28-.3.54-.54.78-.7h-.16c-.28.17-.49.29-.66.37-.14,0-.29.06-.45.16-.15.06-.3.08-.43.08-.51,0-.83-.26-.97-.78.01-.07.03-.19.04-.35.03-.11.05-.25.06-.41.01-.1.04-.25.08-.45.03-.1.04-.25.04-.47,0-1.04-.2-1.75-.6-2.1-.18-.16-.29-.37-.33-.62.04-.47.25-.87.62-1.2.15-.04.32-.06.49-.06.15,0,.36.02.62.06h1.98c.23,0,.54-.01.93-.04.51-.05,1.05-.08,1.63-.08h.33c1.51,0,2.44-.05,2.8-.16h.91c.11-.04.27-.1.47-.17l.25-.08c.34-.11.54-.16.58-.16.43,0,.95.26,1.57.78.26.23.39.49.39.78,0,.4-.25.88-.74,1.44-.25.62-.39,1.24-.43,1.86-.06.83-.47,1.25-1.26,1.28.13.11.28.16.45.16.44.26.66.62.66,1.07,0,.59-.19,1.07-.58,1.44.03.03.11.08.25.17l.12.06c.12.08.26.16.41.23.51.21,1.11.54,1.79.99,1.17.77,2.63,1.16,4.37,1.16,1.11,0,1.89-.03,2.33-.08.15-.03.25-.04.29-.04.43,0,.64.12.64.35,0,.03,0,.06-.02.1.01.06.02.09.02.1,0,.26-.36.72-1.09,1.38-1.18,1.07-2.24,1.62-3.18,1.65-.1.03-.19.04-.27.04-.47,0-.92-.18-1.36-.54-.5-.41-.91-.78-1.24-1.09-.64-.59-1.63-1.31-2.95-2.17-.88-.56-1.55-.91-2.02-1.03-.08.1-.17.16-.27.21l-.04.02-.02-.02h-.04c-.85.22-1.57.33-2.17.33-.54,0-.8-.18-.8-.54,0-.22.28-.41.84-.58.52-.15,1.13-.57,1.81-1.26.38-.37.62-.85.72-1.42.06-.11.19-.29.41-.54.18,0,.33-.05.45-.16Zm3.59-8.74c1.7.03,2.56.39,2.56,1.09,0,.36-.19.58-.58.66-.18.04-.64.06-1.38.06h-1.78c-.64,0-1.44.03-2.37.08-.33.03-.87.06-1.61.08-.5.03-.94.05-1.32.06-.7.04-1.17.06-1.4.06-2.39.1-5.09.34-8.08.74-.1.01-.19.02-.29.02-.62,0-.99-.41-1.11-1.22.15-.41.48-.73.99-.95.64-.08,1.29-.14,1.92-.16h.21s.21.01.49.04h.35c1.25,0,2.67-.1,4.25-.29,1.43-.18,4.48-.27,9.16-.29Zm-2.85-1.65c-1.47.01-3.13.1-4.97.27-.48.04-.83.08-1.05.1-.52.04-.85.07-.99.08-.52.05-1.01.09-1.46.1-.59,0-1.14.08-1.65.23-.15.04-.32.09-.52.14-.23.07-.4.12-.49.14-.21.07-.49.15-.87.25-.21.05-.36.08-.45.08-.16,0-.34-.03-.54-.08-.23-.19-.4-.45-.5-.78.03-.23.05-.43.06-.6.01-.08.03-.21.06-.39.07-.22.1-.45.1-.7,0-1.1-.24-1.81-.72-2.15-.21-.22-.33-.44-.37-.66.04-.3.16-.58.35-.85.29-.36.67-.54,1.13-.54.1,0,.25.02.45.06h2.47c.18,0,.43-.01.76-.04.87-.07,2.43-.11,4.68-.12,3.12-.01,5-.07,5.65-.17h.87l.13-.04c.63-.19,1.05-.29,1.26-.29.54,0,1.05.28,1.53.84.26.3.39.58.39.85,0,.41-.25.91-.74,1.48-.24.52-.38,1.14-.43,1.86-.07.85-.54,1.28-1.4,1.28-.25,0-.71-.07-1.38-.21-.48,0-.93-.05-1.36-.16Zm-7.38-1.28c-.22-.49-.37-1.17-.45-2.02.03-.22.08-.38.16-.49-1.18.11-2.22.16-3.09.16-.34.12-.54.41-.58.87.03.15.06.31.08.47.03.15.06.34.08.58.04.21.07.35.08.43.01.11.11.22.29.33.26,0,.65-.05,1.16-.16.6,0,1.36-.06,2.27-.17Zm5.65,9.86c.34-.01.58-.23.7-.64.19-.65.29-1.05.29-1.2,0-.29-.26-.49-.78-.6h-2.35c-.98,0-2.43.11-4.37.33-.36.12-.54.34-.54.64,0,.36.07.9.2,1.63,0,.11.08.22.25.33.26,0,.56-.04.91-.12.14-.03.3-.06.47-.08.1,0,.28-.02.54-.06,1.27-.15,2.26-.23,2.97-.23h1.71Zm-1.36-10.06v-.64c0-.73-.08-1.34-.25-1.83h-.83c-.49,0-.98.05-1.44.16v.02s.04.08.04.14c0,.11-.08.22-.25.33-.11.48-.16,1.15-.16,2.02.51,0,.9-.01,1.18-.04.29-.04.44-.06.45-.06.26,0,.43-.01.5-.04.12-.05.19-.08.21-.08.13.01.21.02.27.02h.29Zm2.19-2.47c-.07.16-.14.45-.2.87-.13.55-.21,1.09-.25,1.61h2.06c.58,0,.93-.02,1.04-.05.12-.03.22-.14.3-.32.26-.58.39-1.06.39-1.46,0-.32-.25-.53-.74-.64h-2.6Z"/>
          <path class="cls-4" d="m175.66,33.85v-.23c-.03-.43-.04-.91-.04-1.46-.01-.89-.1-1.52-.25-1.88-.08-.19-.12-.36-.12-.52,0-.54.41-.88,1.24-1.03,1.25.12,1.88.56,1.88,1.3,0,.06-.02.21-.06.47-.15.95-.23,1.8-.25,2.56,0,.11-.01.37-.04.78.69-.11,1.29-.16,1.79-.16.6,0,1.17.05,1.71.16.37.22.6.56.7,1.03-.06.32-.26.54-.62.66-.23.08-.76.12-1.59.12h-2.04l-.02.64c-.04,1.81-.06,3.36-.06,4.64,1.17-.08,2.21-.29,3.14-.62.45-.18.93-.27,1.42-.27.41,0,.62.12.62.35,0,.01,0,.04-.02.08,0,.51-.39.92-1.17,1.24-1.59.66-3.83,1.27-6.7,1.81-.87.17-1.65.36-2.35.58-.59.44-1,.66-1.24.66-.03,0-.07-.01-.12-.04-.11.01-.2.02-.27.02-.49,0-.74-.35-.74-1.05,0-.11,0-.25.02-.41.54-.96,1.34-1.51,2.39-1.65.22.03.4.04.54.04.6,0,1.37-.14,2.31-.41-.01-.04-.02-.1-.02-.17-.01-.05-.02-.1-.02-.12v-.66c.01-.45.02-1.11.02-1.98,0-.73,0-1.57-.02-2.52-.93.1-1.83.21-2.68.33-.15.07-.28.1-.37.1-.11,0-.22-.03-.33-.1-.71-.01-1.13-.23-1.24-.66.12-.41.4-.8.83-1.15,1.02-.22,1.79-.33,2.31-.33.43,0,.92-.05,1.49-.16Zm16.09,9.44c-.21.95-.69,1.77-1.44,2.47-1.15,1.43-2.71,2.69-4.66,3.79-.84.52-1.59.91-2.27,1.15-.51.19-.88.29-1.11.29-.98,0-1.64-.7-1.98-2.1.03-.54.13-.9.31-1.09.16-.19.46-.29.89-.29.27,0,.69.05,1.24.14.19.04.42.06.68.06,1.58,0,3.05-.66,4.39-1.98.87-.85,1.49-1.62,1.86-2.29-.78.14-1.31.26-1.59.37-.03.01-.14.05-.33.12l-.21.08c-.3.11-.51.17-.62.17-.1,0-.2-.03-.31-.08-.32-.01-.59-.14-.82-.39-.39-.44-.58-.79-.58-1.05,0-.22.08-.4.25-.54.15-.21.32-.37.5-.49.47-.47.74-1.25.82-2.35.01-.26.02-.41.02-.45,0-.69-.12-1.18-.35-1.46-.18-.21-.32-.49-.41-.84.12-.69.65-1.03,1.57-1.03.18,0,.39.05.64.14.06.01.13.03.21.06.37.12.72.22,1.05.29.74-.04,1.61-.1,2.6-.17,1.64-.11,2.65-.16,3.03-.16h1.55c1.27,0,2.19-.18,2.76-.54.16-.1.33-.14.5-.14.05,0,.14.02.25.06.43.11.81.37,1.15.78.03.14.04.23.04.29,0,.22-.11.47-.33.74-.44.56-.66,1.66-.66,3.3,0,.36.06.78.16,1.28-.01.55-.19,1.01-.53,1.37-.34.36-.74.53-1.21.51-.6-.03-1.1-.1-1.48-.23h-1.11c-.41,1.86-.62,3.19-.62,4,0,.36.21.58.62.66.41.1.98.17,1.69.23.47.04,1,.11,1.61.21.59.1,1.32.16,2.19.19.54.06.84.08.93.08,1.27,0,2.67-.51,4.23-1.53.3.01.45.14.45.37,0,.56-.47,1.41-1.42,2.54-.85,1-1.36,1.56-1.53,1.67-.36.22-.73.33-1.13.33-.37,0-1.15-.21-2.35-.62-.95-.33-2.38-.73-4.29-1.2h-.85c-.99,0-1.63-.17-1.92-.52-.5-.56-.74-1.09-.74-1.59,0-.22.11-.55.33-.99.19-.37.29-.81.29-1.32.15-.62.29-1.46.41-2.52-.7,0-1.49.07-2.35.21Zm-3.51-12.58h-.74c-.55.11-.97.17-1.26.17-.67,0-1.05-.22-1.13-.66.12-.41.38-.8.78-1.15.44-.1,1.1-.15,1.98-.16l2.31-.17,2.31-.16c-.03-.29-.24-.52-.64-.7-.47-.19-.71-.51-.72-.95.08-.28.21-.49.37-.66.36-.32.76-.47,1.22-.47.76,0,1.49.25,2.19.74.44.32.65.63.64.93.01.32-.25.59-.78.82-.1.04-.24.12-.43.25l-.06.04c2.13-.01,3.67-.05,4.6-.12.34-.03.56-.04.66-.04.52,0,1.04.05,1.55.16.34.22.57.51.66.87-.06.52-.52.78-1.4.78h-2.14c-.03.11-.06.3-.1.56-.07.38-.14.86-.23,1.42h3.26c1.98,0,2.97.36,2.97,1.09,0,.36-.19.58-.58.66-.18.04-.63.06-1.36.06h-1.77c-.65,0-1.47.03-2.48.08-1.28.07-2.84.14-4.68.21-.71.03-2.03.12-3.94.27-2.21.18-3.6.31-4.16.39-.34.06-.58.08-.7.08-.77,0-1.21-.4-1.32-1.2.15-.4.47-.72.95-.95.74-.11,1.46-.16,2.14-.16h2.8c-.06-.88-.22-1.5-.5-1.86-.03-.05-.07-.1-.12-.14-.03-.01-.05-.02-.06-.02h-.06Zm10.02,9.44c-.74-.05-1.4-.08-1.98-.08-1.68,0-4.26.19-7.75.58-.01.03-.04.1-.06.21l-.04.14-.02.14c-.04.14-.07.23-.08.29-.01.43.1.64.33.64.08,0,.19-.03.33-.1,2.95-.22,5.25-.33,6.89-.33h1.73c.41,0,.62-.18.62-.54v-.1c0-.15,0-.33.02-.54.01-.14.02-.24.02-.31Zm-9.57-1.15c.43-.04.95-.1,1.57-.17l.64-.06c.74-.07,1.32-.1,1.73-.1.23,0,.91-.03,2.02-.08.6-.03,1.08-.06,1.44-.1.85-.1,1.35-.14,1.51-.14h.74c0-.15,0-.31.02-.47.01-.11.02-.19.02-.23,0-.03,0-.05.02-.06v-.04c0-.21-.32-.32-.97-.35-.91-.05-1.58-.08-2-.08-.4,0-1.04.03-1.92.08-1.68.03-2.98.12-3.92.29-.6.01-.91.25-.91.7v.83Zm2.06-6.48h1.49c.29,0,.7-.03,1.23-.08.58-.05,1.31-.08,2.19-.08,0-.08.02-.28.06-.6l.04-.41c.07-.54.13-.91.18-1.13-.88.11-1.72.17-2.51.17-.99.01-1.88.07-2.68.16v.16s-.01.16-.04.35c0,.01.02.1.06.25.03.08.04.16.04.23,0,.3-.02.63-.06.99Z"/>
          <path class="cls-4" d="m223.23,29.6c.01-.07.03-.15.04-.25v-.08c.03-.33-.27-.62-.91-.87-.37-.15-.56-.41-.58-.78.19-.88.78-1.32,1.77-1.32.57,0,1.22.15,1.98.45.76.56,1.13,1.02,1.11,1.36.01.32-.32.58-.99.78-.26.26-.54.49-.83.7,1.47-.11,2.89-.16,4.25-.16,1.81,0,2.72.34,2.72,1.01s-.38.97-1.15.97h-1.69c-.34,1.06-.58,2.42-.7,4.08h2.64c1.9,0,2.85.36,2.85,1.07,0,.4-.19.67-.56.8-.18.07-.73.1-1.65.1h-1.94c-.69,0-1.52.03-2.5.08-.3.03-1.46.08-3.47.16-1.44.07-2.85.18-4.23.33-2.8.32-4.61.47-5.42.47-.67,0-1.07-.41-1.2-1.22.37-.88,1.51-1.32,3.4-1.32.03,0,.14.01.33.04.26.03.62.04,1.07.04.48,0,1.11-.03,1.88-.08-.01-1.95-.27-3.22-.78-3.79-.07-.11-.19-.17-.35-.17-.52,0-1.09.06-1.71.17-.09.01-.19.02-.29.02-.63,0-1-.38-1.11-1.13.18-.45.51-.78.99-.99.76-.1,1.61-.15,2.56-.16.6,0,1.76-.04,3.48-.12l.76-.04c.06-.11.12-.17.21-.17Zm2.35,18.15h-1.53c-.4-.01-.8.01-1.22.08-.16.03-.36.05-.6.06-.26.04-.44.07-.54.08-.29.04-.57.07-.83.08-.34.01-.7.12-1.07.33l-.13.06c-.08.05-.15.1-.21.12-.15.11-.32.16-.5.16-.3.11-.66.16-1.07.16-.25-.23-.41-.52-.5-.87.01-.08.03-.21.04-.37.03-.21.05-.45.08-.74.08-.36.13-.69.13-1.01,0-1.7-.25-2.81-.74-3.32-.25-.34-.37-.67-.37-.97,0-.43.25-.86.74-1.3.19-.06.38-.08.56-.08s.41.03.68.08h.99c.4,0,.81-.03,1.24-.08.33-.05.69-.08,1.07-.08.36-.01.79-.04,1.3-.08.52-.05,1.09-.08,1.71-.08h1.18c.8,0,1.37-.07,1.71-.21.1-.05.4-.16.91-.33.41.01.87.14,1.36.37.62.54.92,1.02.91,1.44,0,.56-.08,1.01-.25,1.34-.03.06-.1.22-.21.49-.05.12-.1.23-.14.33-.29.65-.47,1.57-.56,2.78-.08,1.21-.58,1.81-1.48,1.81-.26,0-.72-.1-1.36-.29h-1.32Zm1.44-1.98c.29-.01.49-.27.62-.76.25-.93.37-1.83.37-2.7,0-.32-.26-.54-.78-.66h-3.18c-.56,0-1.86.11-3.88.33-.36.12-.54.42-.54.89,0,.15.01.41.04.76.01.15.04.42.06.8.01.29.03.52.04.7.04.4.06.61.06.64.01.3.11.51.29.62.23,0,.74-.08,1.52-.23,1.27-.26,2.46-.39,3.59-.39h1.77Zm-5.86-14.02c.04.32.08.76.12,1.32.04.63.06,1.06.06,1.28,0,.37-.02.87-.06,1.48h.93c.12,0,.88-.05,2.27-.16l.76-.06.74-.06.49-.04v-2.1c0-.78.03-1.44.08-1.98-1.37.11-2.9.16-4.58.16-.3.11-.58.17-.83.17Zm16.66,11.01c.22,4.03.33,6.74.33,8.15,0,.95-.37,1.49-1.11,1.63-.85-.15-1.28-.75-1.28-1.79,0-.18.01-.53.04-1.05.03-.48.04-1.55.04-3.22,0-1.26-.06-3.15-.17-5.65-.04-3.08-.1-5-.18-5.75-.14-1.36-.4-2.45-.78-3.26-.25-.48-.39-.9-.43-1.26.26-1.1.78-1.65,1.55-1.65.59,0,1.05.29,1.38.87,1.61-.36,3.23-.54,4.87-.54,2.42,0,4.05.27,4.91.8.63.38.95,1.03.95,1.94,0,.6-.49,1.31-1.46,2.12-.59.49-1.12.84-1.57,1.05-.07.03-.26.12-.58.29-.08.04-.18.09-.31.14-.06.03-.11.05-.16.08-.01.33.4.73,1.24,1.2.78.81,1.18,1.53,1.18,2.17,0,.05,0,.14-.02.27.01.18.02.32.02.41,0,.91-.45,1.66-1.34,2.27-1.1.76-2.59,1.13-4.45,1.13-.59,0-1.47-.12-2.64-.35Zm-.25-11.18c.06,1.73.08,3.33.08,4.78.22-.25.59-.37,1.09-.37,1.55-.03,2.72-.33,3.5-.91,1.65-1.24,2.47-2.15,2.46-2.72.03-.19.04-.34.04-.43,0-.45-.19-.76-.58-.93-.25-.11-.96-.16-2.14-.16s-2.53.14-3.92.41c-.12.08-.24.16-.35.23-.08.06-.14.09-.19.1Zm.12,6.43v1.24c0,.81.01,1.4.04,1.75l.02.23c.01.19.02.33.02.41.55.03.94.04,1.18.04,1.43,0,2.56-.19,3.4-.58,1.13-.22,1.69-.81,1.69-1.77,0-.47-.26-.98-.78-1.53-.7-.33-1.34-.49-1.92-.49-1,0-1.84.11-2.5.33-.44.23-.83.36-1.16.37Z"/>
        </g>
      </g>
    </g>
  </g>
</svg>