<svg id="logo-footer-accessibility" xmlns="http://www.w3.org/2000/svg" width="148.208" height="52.216" viewBox="0 0 148.208 52.216">
  <path id="Path_102" data-name="Path 102" d="M0,1.651C0,.556.421,0,1.246,0H146.962c.842,0,1.246.556,1.246,1.651V50.6c0,1.078-.421,1.617-1.246,1.617H1.246C.4,52.216,0,51.677,0,50.6Z" fill="#4a8504" fill-rule="evenodd"/>
  <g id="Group_64" data-name="Group 64" transform="translate(107.767 9.07)">
    <path id="Path_103" data-name="Path 103" d="M66.479,12.131l-1.5-.472a2.594,2.594,0,0,1,.842-2.089A2.784,2.784,0,0,1,67.2,9.015L95.6,5.444c2.375-.32,3.588.657,3.621,2.914l.556,25.333c.051,2.257-1.162,3.3-3.588,3.133l-27.3-2.156c0-.438,0-.859.034-1.246l25.215,2c2.173.152,3.234-.792,3.183-2.813L96.882,9.908c-.067-2.038-1.145-2.914-3.251-2.594L68.416,10.5a1.991,1.991,0,0,0-1.937,1.651Z" transform="translate(-63.296 -5.385)" fill="#274602" fill-rule="evenodd"/>
    <path id="Path_104" data-name="Path 104" d="M95.242,5.8c1.617-.084,2.611.522,2.965,1.819a4.717,4.717,0,0,1,.286,1.465l.539,24.642v.724c.051,2.122-1.078,3.133-3.352,3.032a.853.853,0,0,0-.219-.034L68.528,35.415V33.04l24.777,1.9a.344.344,0,0,1,.152.034,3.449,3.449,0,0,0,2.089-.438,3.045,3.045,0,0,0,.472-1.9l-.438-22.082a3.4,3.4,0,0,0-.286-1.348c-.051-.034-.1-.084-.152-.118a2.854,2.854,0,0,0-1.785-.371,1.921,1.921,0,0,0-.438.034l-25.03,3.1A2,2,0,0,0,66.1,13.13L63.98,11.783a2.247,2.247,0,0,1,.842-1.566,2.442,2.442,0,0,1,1.752-.91l28.112-3.47c.185-.017.371-.034.539-.034Z" transform="translate(-63.98 -5.104)" fill="#fc0" fill-rule="evenodd"/>
    <g id="Group_63" data-name="Group 63" transform="translate(4.565 6.056)">
      <path id="Path_105" data-name="Path 105" d="M83.561,10.756a1.635,1.635,0,0,1,.556,1.213,1.705,1.705,0,0,1-.556,1.246,1.589,1.589,0,0,1-1.2.539,1.633,1.633,0,0,1-1.28-.539,1.724,1.724,0,0,1-.539-1.246,1.591,1.591,0,0,1,.539-1.213,1.647,1.647,0,0,1,1.28-.556A1.574,1.574,0,0,1,83.561,10.756ZM76.015,10.2a1.558,1.558,0,0,1,1.213.556,1.635,1.635,0,0,1,.556,1.213,1.705,1.705,0,0,1-.556,1.246,1.672,1.672,0,0,1-2.459,0,1.724,1.724,0,0,1-.539-1.246,1.651,1.651,0,0,1,.539-1.213A1.626,1.626,0,0,1,76.015,10.2Zm0,6.569a1.558,1.558,0,0,1,1.213.556,1.583,1.583,0,0,1,.556,1.213,1.705,1.705,0,0,1-.556,1.246,1.672,1.672,0,0,1-2.459,0,1.782,1.782,0,0,1-.539-1.246,1.878,1.878,0,0,1,1.785-1.769Zm6.35,0a1.574,1.574,0,0,1,1.2.556,1.583,1.583,0,0,1,.556,1.213,1.705,1.705,0,0,1-.556,1.246,1.589,1.589,0,0,1-1.2.539,1.633,1.633,0,0,1-1.28-.539,1.782,1.782,0,0,1-.539-1.246,1.566,1.566,0,0,1,.539-1.213,1.647,1.647,0,0,1,1.28-.556ZM69.7,10.2a1.635,1.635,0,0,1,1.213.556,1.679,1.679,0,0,1,.539,1.213,1.753,1.753,0,0,1-.539,1.246,1.71,1.71,0,0,1-2.493,0,1.724,1.724,0,0,1-.539-1.246,1.651,1.651,0,0,1,.539-1.213A1.7,1.7,0,0,1,69.7,10.2Zm-1.28,7.125a1.7,1.7,0,0,1,1.28-.556,1.882,1.882,0,0,1,1.752,1.769,1.753,1.753,0,0,1-.539,1.246,1.71,1.71,0,0,1-2.493,0,1.782,1.782,0,0,1-.539-1.246,1.624,1.624,0,0,1,.539-1.213ZM69.445,24a1.558,1.558,0,0,1,1.213.556,1.627,1.627,0,0,1,.556,1.2,1.652,1.652,0,0,1-.556,1.246,1.583,1.583,0,0,1-1.213.556,1.652,1.652,0,0,1-1.246-.556,1.724,1.724,0,0,1-.539-1.246,1.671,1.671,0,0,1,.539-1.2A1.626,1.626,0,0,1,69.445,24Zm13.9.556a1.671,1.671,0,0,1,.539,1.2,1.752,1.752,0,0,1-3.032,1.246,1.724,1.724,0,0,1-.539-1.246,1.607,1.607,0,0,1,.539-1.2,1.675,1.675,0,0,1,2.493,0Zm-5.794,1.2a1.652,1.652,0,0,1-.556,1.246,1.549,1.549,0,0,1-1.2.556,1.647,1.647,0,0,1-1.28-.556,1.724,1.724,0,0,1-.539-1.246,1.671,1.671,0,0,1,.539-1.2A1.647,1.647,0,0,1,75.8,24a1.574,1.574,0,0,1,1.2.556A1.627,1.627,0,0,1,77.547,25.747ZM90.534,10.756a1.679,1.679,0,0,1,.539,1.213,1.752,1.752,0,0,1-.539,1.246,1.679,1.679,0,0,1-1.213.539,1.633,1.633,0,0,1-1.28-.539,1.724,1.724,0,0,1-.539-1.246,1.651,1.651,0,0,1,.539-1.213,1.675,1.675,0,0,1,2.493,0ZM89.3,16.769a1.882,1.882,0,0,1,1.752,1.769,1.753,1.753,0,0,1-.539,1.246,1.679,1.679,0,0,1-1.213.539,1.633,1.633,0,0,1-1.28-.539,1.782,1.782,0,0,1-.539-1.246,1.624,1.624,0,0,1,.539-1.213,1.647,1.647,0,0,1,1.28-.556ZM89.068,24a1.558,1.558,0,0,1,1.213.556,1.627,1.627,0,0,1,.556,1.2,1.652,1.652,0,0,1-.556,1.246,1.583,1.583,0,0,1-1.213.556,1.652,1.652,0,0,1-1.246-.556,1.724,1.724,0,0,1-.539-1.246,1.671,1.671,0,0,1,.539-1.2A1.626,1.626,0,0,1,89.068,24Z" transform="translate(-66.026 -8.145)" fill="#fc0" fill-rule="evenodd"/>
      <path id="Path_106" data-name="Path 106" d="M75.533,9.974a3.012,3.012,0,0,1,2.308-.994,2.875,2.875,0,0,1,2.19.994,2.946,2.946,0,0,1,.994,2.19,3.2,3.2,0,0,1-.994,2.291,2.916,2.916,0,0,1-2.19.977,3.055,3.055,0,0,1-2.308-.977,3.283,3.283,0,0,1-.943-2.291A3,3,0,0,1,75.533,9.974Z" transform="translate(-61.283 -8.98)" fill="#274602" fill-rule="evenodd"/>
      <path id="Path_107" data-name="Path 107" d="M73.124,16.783a3.2,3.2,0,0,1-.994,2.291,2.9,2.9,0,0,1-2.156.977,2.956,2.956,0,0,1-2.308-.977,3.248,3.248,0,0,1-.977-2.291,2.883,2.883,0,0,1,.977-2.19,2.963,2.963,0,0,1,2.308-.994,2.831,2.831,0,0,1,2.156.994,2.868,2.868,0,0,1,.994,2.19Z" transform="translate(-66.69 -5.818)" fill="#274602" fill-rule="evenodd"/>
      <path id="Path_108" data-name="Path 108" d="M75.437,18.774a2.963,2.963,0,0,1,2.308-.994,2.831,2.831,0,0,1,2.156.994,2.925,2.925,0,0,1,1.027,2.19A3.088,3.088,0,0,1,79.9,23.271a2.9,2.9,0,0,1-2.156.977,2.956,2.956,0,0,1-2.308-.977,3.257,3.257,0,0,1-.977-2.308A2.989,2.989,0,0,1,75.437,18.774Z" transform="translate(-61.372 -2.957)" fill="#274602" fill-rule="evenodd"/>
    </g>
  </g>
  <path id="Path_109" data-name="Path 109" d="M9.675,19.39a2.528,2.528,0,0,0-.556.438,1.914,1.914,0,0,0-.4.691,1.8,1.8,0,0,0-.152.724A2.258,2.258,0,0,0,9.1,22.709a1.56,1.56,0,0,0,1.213.59,1.459,1.459,0,0,0,.539-.1,4.154,4.154,0,0,0,.691-.59,1.784,1.784,0,0,0,.438-1.246,2.164,2.164,0,0,0-.539-1.432,1.471,1.471,0,0,0-1.2-.623,1.617,1.617,0,0,0-.556.1Zm5.087-.152a12.652,12.652,0,0,1,1.853,6.636,10.305,10.305,0,0,1-.4,2.948,5.291,5.291,0,0,1-1.348,2.19H13.7c.084-.253.152-.488.219-.724.017-.27.034-.556.034-.842a5.27,5.27,0,0,0-1.061-3.217,3.115,3.115,0,0,0-2.51-1.432,3.2,3.2,0,0,0-2.56,1.432,5.305,5.305,0,0,0-1.061,3.217,4.671,4.671,0,0,0,.286,1.566H5.885a5.063,5.063,0,0,1-1.314-2.19A8.757,8.757,0,0,1,4.1,25.858a12.626,12.626,0,0,1,1.853-6.636Q7.8,16.19,10.4,16.19c1.735,0,3.15,1.027,4.379,3.066Z" transform="translate(2.806 11.08)" fill="#fc0" fill-rule="evenodd"/>
  <g id="Group_65" data-name="Group 65" transform="translate(29.797 33.688)">
    <path id="Path_110" data-name="Path 110" d="M20.857,26.31A2.985,2.985,0,0,1,18.5,25.3a3.215,3.215,0,0,1-.809-2.207,3,3,0,0,1,.775-2.122,3.084,3.084,0,0,1,2.392-.96h3.554V21.1H20.857a1.994,1.994,0,0,0-1.533.623,2.165,2.165,0,0,0-.556,1.364,2.047,2.047,0,0,0,.488,1.449,2.021,2.021,0,0,0,1.6.674h3.554V26.31H20.857Z" transform="translate(-17.69 -19.993)" fill="#fff"/>
    <path id="Path_111" data-name="Path 111" d="M25.387,26.31A2.985,2.985,0,0,1,23.029,25.3a3.215,3.215,0,0,1-.809-2.207,3,3,0,0,1,.775-2.122,3.084,3.084,0,0,1,2.392-.96h3.554V21.1H25.387a1.994,1.994,0,0,0-1.533.623,2.165,2.165,0,0,0-.556,1.364,2.047,2.047,0,0,0,.488,1.449,2.021,2.021,0,0,0,1.6.674h3.554V26.31Z" transform="translate(-14.59 -19.993)" fill="#fff"/>
    <path id="Path_112" data-name="Path 112" d="M27.925,25.225h4.346V26.32H26.83v-6.3h5.441v1.095H27.925Zm4.059-2.661v1.095h-3.6V22.563Z" transform="translate(-11.435 -19.986)" fill="#fff"/>
    <path id="Path_113" data-name="Path 113" d="M35.515,26.31h-4.8V25.215h4.8a1.252,1.252,0,0,0,.859-.27.754.754,0,0,0,.017-1.2,1.392,1.392,0,0,0-.876-.27H32.534a1.985,1.985,0,0,1-1.465-.539,1.639,1.639,0,0,1-.488-1.2,1.667,1.667,0,0,1,.488-1.2,2.039,2.039,0,0,1,1.465-.539h4.75V21.1h-4.75a.818.818,0,0,0-.556.185.628.628,0,0,0-.2.455.612.612,0,0,0,.185.438.792.792,0,0,0,.573.2h2.981a2.185,2.185,0,0,1,1.617.606,1.908,1.908,0,0,1,.539,1.364,1.869,1.869,0,0,1-.539,1.348,2.185,2.185,0,0,1-1.617.606Z" transform="translate(-8.868 -19.993)" fill="#fff"/>
    <path id="Path_114" data-name="Path 114" d="M40.075,26.31h-4.8V25.215h4.8a1.252,1.252,0,0,0,.859-.27.754.754,0,0,0,.017-1.2,1.392,1.392,0,0,0-.876-.27H37.094a1.985,1.985,0,0,1-1.465-.539,1.639,1.639,0,0,1-.488-1.2,1.667,1.667,0,0,1,.488-1.2,2.012,2.012,0,0,1,1.465-.539h4.75V21.1h-4.75a.818.818,0,0,0-.556.185.628.628,0,0,0-.2.455.612.612,0,0,0,.185.438.792.792,0,0,0,.573.2h2.981a2.185,2.185,0,0,1,1.617.606,1.908,1.908,0,0,1,.539,1.364,1.869,1.869,0,0,1-.539,1.348,2.185,2.185,0,0,1-1.617.606Z" transform="translate(-5.748 -19.993)" fill="#fff"/>
    <path id="Path_115" data-name="Path 115" d="M40.02,26.31v-6.3h1.095v6.3Z" transform="translate(-2.408 -19.993)" fill="#fff"/>
    <path id="Path_116" data-name="Path 116" d="M47.92,23.2a1.583,1.583,0,0,1,.674,1.28,1.516,1.516,0,0,1-.623,1.246,2.836,2.836,0,0,1-1.887.573H41.57V20h4.514a2.873,2.873,0,0,1,1.887.59,1.6,1.6,0,0,1,.623,1.28,1.621,1.621,0,0,1-.674,1.314Zm-1.668,2.021a1.624,1.624,0,0,0,.96-.236.613.613,0,0,0,.32-.505.578.578,0,0,0-.32-.505,1.758,1.758,0,0,0-.96-.236H43.3V22.644h2.948a1.623,1.623,0,0,0,.96-.253.614.614,0,0,0,0-1.078,1.758,1.758,0,0,0-.96-.236H42.665v4.11h3.588Z" transform="translate(-1.347 -20)" fill="#fff"/>
    <path id="Path_117" data-name="Path 117" d="M46.52,26.31v-6.3h1.095v6.3Z" transform="translate(2.041 -19.993)" fill="#fff"/>
    <path id="Path_118" data-name="Path 118" d="M47.89,26.31v-6.3h1.095v5.2h4.329V26.31Z" transform="translate(2.978 -19.993)" fill="#fff"/>
    <path id="Path_119" data-name="Path 119" d="M51.7,26.31v-6.3h1.095v6.3Z" transform="translate(5.586 -19.993)" fill="#fff"/>
    <path id="Path_120" data-name="Path 120" d="M56.588,21.115v5.2H55.493v-5.2H53V20.02h6.064v1.095H56.588Z" transform="translate(6.475 -19.986)" fill="#fff"/>
    <path id="Path_121" data-name="Path 121" d="M61.015,26.31H59.92V24.2l-3.2-4.194h1.415l2.375,3.116,2.223-3.116h1.4l-3.116,4.211Z" transform="translate(9.021 -19.993)" fill="#fff"/>
  </g>
  <path id="Path_122" data-name="Path 122" d="M10.04,25.848a12.783,12.783,0,0,1,1.853-6.636q1.844-3.032,4.447-3.032c1.735,0,3.15,1.027,4.379,3.066a12.652,12.652,0,0,1,1.853,6.636,10.305,10.305,0,0,1-.4,2.948,5.291,5.291,0,0,1-1.348,2.19H19.658c.084-.253.152-.488.219-.724.017-.27.034-.556.034-.842a5.27,5.27,0,0,0-1.061-3.217A3.115,3.115,0,0,0,16.34,24.8a3.2,3.2,0,0,0-2.56,1.432,5.305,5.305,0,0,0-1.061,3.217A4.671,4.671,0,0,0,13,31.019H11.842a5.063,5.063,0,0,1-1.314-2.19,8.757,8.757,0,0,1-.472-2.965Zm6.131-6.535a1.617,1.617,0,0,0-.556.1,2.528,2.528,0,0,0-.556.438,1.914,1.914,0,0,0-.4.691,1.8,1.8,0,0,0-.152.724,2.353,2.353,0,0,0,.539,1.465,1.56,1.56,0,0,0,1.213.59,1.459,1.459,0,0,0,.539-.1,4.98,4.98,0,0,0,.691-.59,1.784,1.784,0,0,0,.438-1.246,2.164,2.164,0,0,0-.539-1.432,1.471,1.471,0,0,0-1.2-.623Z" transform="translate(6.871 11.073)" fill="#fc0" fill-rule="evenodd"/>
  <g id="Group_71" data-name="Group 71" transform="translate(6.451 10.932)">
    <path id="Path_152" data-name="Path 152" d="M6.171,17.169l.859.64s.118.152.118.2c0,.034-.034.067-.1.084a.334.334,0,0,0-.219.1,11.8,11.8,0,0,1-.809,1.011,8.709,8.709,0,0,1-1.28,1.027.266.266,0,0,1-.253-.118c-.219-.168-.387-.32-.539-.455-.084-.034-.118-.067-.118-.1s0-.051.051-.084a2.056,2.056,0,0,0,.606-.354,6.113,6.113,0,0,0,.893-.842,11.531,11.531,0,0,0,.707-.977c.017-.067.051-.1.067-.1ZM17.1,11.9c.118,0,.168.067.168.2v.539c0,.135-.067.2-.168.2H4.083c-.118,0-.168-.067-.168-.2V12.1c0-.135.051-.2.168-.2ZM7,6.507a4.792,4.792,0,0,1,1.23.707c0,.1-.034.135-.118.135a.4.4,0,0,0-.337.152,9.078,9.078,0,0,1-1.5,2.173,16.432,16.432,0,0,1-1.415,1.263.415.415,0,0,1-.286-.135c-.152-.118-.286-.236-.455-.371a.23.23,0,0,1-.1-.168c.354-.286.691-.59,1.044-.91A7.642,7.642,0,0,0,6.239,7.972a7.735,7.735,0,0,0,.674-1.348c.017-.084.051-.135.084-.135Zm9.685,9.2c.118,0,.168.067.168.2v.556c0,.135-.051.2-.168.2H4.6c-.118,0-.168-.067-.168-.2v-.556c0-.135.051-.2.168-.2ZM6.121,8.68H7.182v7.31c0,.135-.084.2-.236.2H6.34c-.152,0-.219-.067-.219-.2Zm10.325-.472c.118,0,.168.067.168.2v.539c0,.135-.051.2-.168.2H6.778c-.118,0-.168-.067-.168-.2V8.41c0-.135.051-.2.168-.2h9.668ZM9.422,17.321a19.709,19.709,0,0,1,1.162,2.223q0,.227-.1.253a1.71,1.71,0,0,1-.876.371,24.3,24.3,0,0,0-1.061-2.442c0-.118.236-.27.707-.505A.169.169,0,0,1,9.422,17.321ZM8.765,8.68H9.826v7.31c0,.135-.084.2-.236.2H8.984c-.152,0-.219-.067-.219-.2Zm2.7,0h1.061v7.31c0,.135-.084.2-.236.2h-.606c-.135,0-.219-.067-.219-.2Zm.893,8.641a21.918,21.918,0,0,1,1.465,2.274q0,.227-.1.253a1.71,1.71,0,0,1-.876.371,22.983,22.983,0,0,0-1.348-2.493c0-.118.236-.27.707-.505a.169.169,0,0,1,.168.1ZM14.172,8.68h1.061v7.31c0,.135-.084.2-.236.2h-.606c-.135,0-.219-.067-.219-.2Zm2.24,9.618c.4.421.758.809,1.044,1.162a.471.471,0,0,1-.084.135,6.03,6.03,0,0,1-.488.64,15.07,15.07,0,0,0-1.415-1.516,6.479,6.479,0,0,0-1.027-.775,3.053,3.053,0,0,1,.505-.657.251.251,0,0,1,.118-.1A13.6,13.6,0,0,1,16.429,18.3Z" transform="translate(-3.83 -6.49)" fill="#fff"/>
    <path id="Path_153" data-name="Path 153" d="M13.509,7.058h.606c.152,0,.236.067.236.185V20.028c0,.135-.084.2-.236.2h-.606c-.152,0-.219-.067-.219-.2V7.244C13.29,7.126,13.357,7.058,13.509,7.058Zm3.3,0v.876H14.031c-.135,0-.2-.051-.2-.168V7.227c0-.118.067-.168.2-.168Zm0,0a.762.762,0,0,1,.522.118c.236.236.354.421.354.573l-1.533,3.807s-.017.118-.017.168a.146.146,0,0,0,.067.118,7.191,7.191,0,0,1,1.23,1.7,4.154,4.154,0,0,1,.337,1.55,3.544,3.544,0,0,1-.421,1.954,1.73,1.73,0,0,1-1.583.792c-.472,0-.707-.1-.724-.286a4.561,4.561,0,0,0-.2-.792c0-.152.034-.236.118-.236l.809.1a.639.639,0,0,0,.674-.438,4.63,4.63,0,0,0,.118-1.23,2.95,2.95,0,0,0-.387-1.348,5.048,5.048,0,0,0-1.23-1.583c-.067-.051-.1-.084-.1-.118a.579.579,0,0,1,.067-.219l1.92-4.615Zm9.4,3.352a.164.164,0,0,1,.168.185V11.1c0,.118-.051.185-.168.185H17.383c-.118,0-.168-.067-.168-.185V10.6c0-.118.051-.185.168-.185Zm.118,7.327c.118,0,.168.067.168.185v.505c0,.118-.051.185-.168.185H17.383c-.118,0-.168-.067-.168-.185v-.505c0-.118.051-.185.168-.185Zm-.472-9.9c.118,0,.168.067.168.185v.505c0,.118-.051.185-.168.185H18.04a.164.164,0,0,1-.168-.185V8.019c0-.118.051-.185.168-.185Zm-7.26,4.48h6.67l-.842.825H19.505V15.9l-.842.825c-.152,0-.219-.067-.219-.2V12.516q0-.2.152-.2Zm5.845.825.842-.825c.152,0,.219.067.219.2v4.009q0,.2-.152.2H18.68l.842-.825h4.918V13.139Zm.371.926c.1,0,.152.051.152.168v.472c0,.118-.051.168-.152.168H19.135c-.1,0-.152-.051-.152-.168v-.472c0-.118.051-.168.152-.168ZM20.533,9.838a5.338,5.338,0,0,1,.387.825,3.688,3.688,0,0,1-.926.3,2.778,2.778,0,0,0-.27-.674,5.549,5.549,0,0,0-.59-.91c0-.067.253-.219.775-.472A9.944,9.944,0,0,1,20.533,9.838Zm2.223-3.082c0,.135-.051.2-.152.219-.1,0-.152.118-.152.3v.792c0,.135-.084.2-.236.2h-.606c-.152,0-.219-.067-.219-.2V6.755c0-.118.067-.185.219-.185.775,0,1.145.067,1.145.2Zm-1.381,9.55h1.061V20.1c0,.135-.084.2-.236.2h-.606c-.152,0-.219-.067-.219-.2Zm2.308-7.394.859.354c.135.051.2.135.2.2,0,.051-.034.084-.1.118-.1,0-.152.034-.168.118a5.886,5.886,0,0,1-.741,1.3.251.251,0,0,1-.118.1.664.664,0,0,1-.236-.084,5.055,5.055,0,0,0-.539-.253c-.084-.034-.118-.051-.118-.067a.1.1,0,0,1,.034-.067,6.835,6.835,0,0,0,.488-.741,3.41,3.41,0,0,0,.337-.825c.034-.084.051-.135.084-.135Z" transform="translate(2.644 -6.435)" fill="#fff"/>
    <path id="Path_154" data-name="Path 154" d="M24.353,8.059l.893.337c-.168.96-.354,1.836-.539,2.611a18.887,18.887,0,0,1-.691,2.139,13.139,13.139,0,0,1-.825,1.836.349.349,0,0,1-.253-.084c-.2-.1-.421-.2-.623-.3-.084,0-.135-.034-.135-.084A12.855,12.855,0,0,0,23.224,12.4a13.224,13.224,0,0,0,.606-1.92A20.659,20.659,0,0,0,24.3,8.16c0-.067.017-.084.051-.084Zm2.308-.371c.118,0,.168.067.168.185v.505c0,.118-.051.185-.168.185H22.887c-.118,0-.168-.067-.168-.185V7.873c0-.118.051-.185.168-.185ZM23.848,12.2h.539c.135,0,.2.067.2.185v7.6c0,.118-.067.168-.2.168h-.539c-.135,0-.185-.051-.185-.168v-7.6A.169.169,0,0,1,23.848,12.2Zm2.611,0c.135,0,.185.051.185.168v6.182c0,.118-.067.168-.2.168H25.9c-.135,0-.185-.067-.185-.168V13.061H24.3a.151.151,0,0,1-.168-.168v-.522c0-.118.051-.168.168-.168h2.173Zm-.387,4.986c.118,0,.168.067.168.185v.505c0,.118-.051.185-.168.185H24.285a.164.164,0,0,1-.168-.185v-.505c0-.118.051-.185.168-.185Zm3.941-4.329c.118.034.168.084.168.135a.178.178,0,0,1-.1.185.272.272,0,0,0-.219.286,18.689,18.689,0,0,1-.236,3.453,6.4,6.4,0,0,1-.926,2.089,5.01,5.01,0,0,1-1.162,1.145h-.152c-.27-.084-.539-.168-.792-.27-.051-.017-.067-.067-.067-.152a5.3,5.3,0,0,0,1.348-1.095,4.009,4.009,0,0,0,.758-1.516,11.292,11.292,0,0,0,.337-3.285c0-.168,0-.488-.034-.943,0-.084.051-.135.168-.135l.926.1ZM28.16,11.225l.809.337c.118.051.185.118.185.185a.228.228,0,0,1-.118.219c-.118,0-.185.067-.219.219a15.1,15.1,0,0,1-.943,2.543c-.067.118-.118.185-.152.185a.517.517,0,0,1-.219-.084c-.185-.084-.354-.168-.505-.236-.067-.034-.1-.051-.1-.067a.293.293,0,0,1,.051-.118,10.459,10.459,0,0,0,.64-1.4,7.7,7.7,0,0,0,.455-1.55c.034-.152.067-.236.118-.236Zm2.847,4.11c.1,0,.152.051.152.168v.472c0,.118-.051.168-.152.168H27.385c-.1,0-.152-.051-.152-.168V15.5c0-.118.051-.168.152-.168ZM28.5,6.812a.529.529,0,0,1-.168.219V9.844a.169.169,0,0,0,.185.185h1.651q.3,0,.556-.96l.809.505c-.286.876-.674,1.314-1.112,1.314h-2.24q-.707,0-.707-.606v-3.5c0-.1.034-.168.118-.168.623.051.926.135.926.219Zm2.072.421a.311.311,0,0,1,.152.118,6.644,6.644,0,0,1,.556.775c0,.084-.034.135-.1.135l-.32-.051h-.034c-.2.135-.438.27-.674.421A7.623,7.623,0,0,1,29.153,9a5.84,5.84,0,0,1-1.112.286l-.27-.792A7.6,7.6,0,0,0,29,8.143a4.438,4.438,0,0,0,.943-.455,2.513,2.513,0,0,0,.59-.455Zm.387,5.339c.1,0,.152.051.152.168v.472c0,.118-.051.168-.152.168H28.21c-.1,0-.152-.051-.152-.168v-.472c0-.118.051-.168.152-.168ZM30.164,16.9a4.94,4.94,0,0,0,.707,1.112c.034.034.067.067.067.1s-.034.067-.1.118a3.325,3.325,0,0,1-.421.438c-.067.067-.118.118-.168.118a.146.146,0,0,1-.1-.051,5.863,5.863,0,0,1-.606-1.112c-.168-.438-.337-.943-.505-1.55l.691-.4a11.778,11.778,0,0,0,.438,1.23ZM31.7,13.684l1.263.135a.347.347,0,0,1-.084.152c-.135.067-.185.152-.185.236,0,.809-.034,1.415-.067,1.836a10.825,10.825,0,0,1-.135,1.246,6.938,6.938,0,0,1-.27,1.095,4.661,4.661,0,0,1-.354.91,6.338,6.338,0,0,1-.808,1.061c-.067,0-.118-.051-.152-.135a3.921,3.921,0,0,0-.472-.438c-.084-.067-.118-.118-.118-.185a2.211,2.211,0,0,0,.3-.286,4.163,4.163,0,0,0,.354-.455,2.048,2.048,0,0,0,.3-.606,7.444,7.444,0,0,0,.27-.859c.067-.286.135-.606.185-.943.051-.371.084-.758.1-1.112a8.621,8.621,0,0,0-.1-1.668Zm4.329-2.072-.236.876H31.562a.164.164,0,0,1-.168-.185v-.522c0-.118.051-.185.168-.185h4.464Zm-3.739,4.245c.135,0,.2.051.219.168a8.45,8.45,0,0,0,.152,1.381,4.624,4.624,0,0,0,.2.859,1.8,1.8,0,0,0,.219.505.79.79,0,0,0,.32.3.767.767,0,0,0,.32.135,9.6,9.6,0,0,0,1.129.051,7.88,7.88,0,0,0,1.449-.236.485.485,0,0,1-.067.185,5.258,5.258,0,0,0-.253.724.185.185,0,0,1-.2.135,3.5,3.5,0,0,1-.926.067A8.642,8.642,0,0,1,33.112,20a1.123,1.123,0,0,1-.472-.32,2.019,2.019,0,0,1-.421-.707,6.08,6.08,0,0,1-.286-.96,11.36,11.36,0,0,1-.253-1.988c0-.118.051-.168.168-.168H32.3ZM33.6,9.608a8,8,0,0,1,1.3.775,4.56,4.56,0,0,1,.741.59c.017.017.034.034.034.051,0,.067-.219.219-.64.488a.124.124,0,0,1-.1-.034,6.236,6.236,0,0,0-1.095-.792,8.011,8.011,0,0,0-.758-.4q-.505-.227-1.112-.455a.062.062,0,0,1-.051-.034,2.962,2.962,0,0,1,.472-.556.253.253,0,0,1,.185-.067,9.846,9.846,0,0,1,1.027.438Zm1.8-2.543a.34.34,0,0,1,.3.152l-.152.674H32.438c-.118,0-.168-.051-.168-.168V7.233a.151.151,0,0,1,.168-.168H35.4Zm-2.072,4.986h.943V19.5c0,.118-.067.168-.2.168h-.539c-.135,0-.185-.067-.185-.168V12.051Zm2.375-4.834a2.564,2.564,0,0,1,.505.674c-.893,1.331-1.465,2.19-1.684,2.577-.034.084-.067.118-.118.118a.4.4,0,0,1-.236-.1c-.168-.135-.337-.286-.505-.438a.18.18,0,0,1-.118-.152l2.139-2.678Zm-.084,8.051c.118,0,.168.067.168.2v.556c0,.135-.067.2-.168.2H33.971c-.118,0-.168-.067-.168-.2V15.47c0-.135.067-.2.168-.2Zm.168-3.655h.253a.316.316,0,0,1,.219.051c.152.168.236.286.236.371l-.91,2.122s-.051.067-.067.067c-.472-.135-.707-.253-.707-.337l.994-2.274Z" transform="translate(8.728 -6.408)" fill="#fff"/>
    <path id="Path_155" data-name="Path 155" d="M33.723,10.234l.893.337c-.185.96-.354,1.836-.539,2.611a18.73,18.73,0,0,1-.707,2.139,10.215,10.215,0,0,1-.859,1.836.379.379,0,0,1-.253-.084c-.2-.1-.421-.2-.623-.3-.084,0-.135-.034-.135-.084a12.989,12.989,0,0,0,1.061-2.105,13.362,13.362,0,0,0,.623-1.92,19.782,19.782,0,0,0,.488-2.324c0-.067.017-.084.051-.084Zm2.459-.455c.118,0,.168.067.168.2v.539c0,.135-.051.2-.168.2h-4.16c-.118,0-.168-.067-.168-.2V9.981c0-.135.051-.2.168-.2ZM35.155,6.865c0,.135-.051.2-.152.219-.1,0-.152.118-.152.3v12.7c0,.135-.084.2-.236.2H34.01c-.135,0-.219-.067-.219-.2V6.865c0-.118.067-.185.219-.185.775,0,1.145.067,1.145.2Zm.438,5.424a8.57,8.57,0,0,0,1.044,1.853.187.187,0,0,1,.084.168c0,.034-.034.067-.1.118a3.325,3.325,0,0,1-.421.438c-.067.067-.118.118-.168.118q-.051,0-.152-.1a8.872,8.872,0,0,1-.91-1.785c-.253-.707-.505-1.533-.741-2.476l.691-.4a16.743,16.743,0,0,0,.657,2.055Zm2.661,4.632.809.606s.118.135.118.185c0,.034-.034.051-.1.067a.32.32,0,0,0-.219.084,6.573,6.573,0,0,1-.809.859,7.192,7.192,0,0,1-1.3.876.239.239,0,0,1-.236-.118c-.2-.152-.371-.3-.505-.421-.084-.034-.118-.067-.118-.1a.09.09,0,0,1,.051-.067,3.072,3.072,0,0,0,.623-.3,5.64,5.64,0,0,0,.893-.741,11.193,11.193,0,0,0,.724-.859c.017-.051.051-.084.067-.084Zm6.738-1.6a.164.164,0,0,1,.168.185v.505c0,.118-.051.185-.168.185H36.637c-.118,0-.168-.067-.168-.185v-.505c0-.118.051-.185.168-.185Zm.067-8.1a.164.164,0,0,1,.168.185V7.91c0,.118-.051.185-.168.185H36.772c-.118,0-.168-.067-.168-.185V7.4c0-.118.051-.185.168-.185ZM37.008,9.274h7.6l-.842.876H37.9v1.465l-.842.876c-.152,0-.219-.067-.219-.2V9.459c0-.135.051-.2.168-.2Zm6.754.876.842-.876c.135,0,.219.067.219.2v2.83c0,.135-.067.2-.185.2h-7.58l.842-.876h5.862V10.167Zm.3,3.352a.164.164,0,0,1,.168.185v.505c0,.118-.051.185-.168.185H37.648c-.118,0-.168-.067-.168-.185v-.505c0-.118.051-.185.168-.185ZM40.36,15.759h1.061v3.318c0,.758-.606,1.145-1.819,1.145h-.64a.321.321,0,0,1-.118-.253,2.068,2.068,0,0,0-.286-.792c0-.067,0-.084.051-.084a3.551,3.551,0,0,0,.91.118c.556,0,.842-.185.842-.539v-2.9ZM39.1,7.657h.994v4.211c0,.118-.067.185-.219.185H39.3c-.135,0-.2-.067-.2-.185Zm2.341,0h.994v4.211c0,.118-.067.185-.219.185H41.64c-.135,0-.2-.067-.2-.185Zm2.88,10.258c.371.387.691.724.96,1.027a.471.471,0,0,1-.084.135,4.318,4.318,0,0,1-.472.606,14.041,14.041,0,0,0-1.3-1.348,6.4,6.4,0,0,0-.943-.691,2.441,2.441,0,0,1,.472-.606c.051-.067.084-.1.118-.1a11.085,11.085,0,0,1,1.246.994Z" transform="translate(15.107 -6.36)" fill="#fff"/>
    <path id="Path_156" data-name="Path 156" d="M53.891,17.737a.164.164,0,0,1,.168.185v.505c0,.118-.051.185-.168.185H41.258c-.118,0-.168-.067-.168-.185v-.505c0-.118.051-.185.168-.185Zm0-7.512a.164.164,0,0,1,.168.185v.505c0,.118-.051.185-.168.185H41.326c-.118,0-.168-.067-.168-.185V10.41c0-.118.051-.185.168-.185ZM52.9,7.648a.164.164,0,0,1,.168.185v.505c0,.118-.051.185-.168.185H42.32c-.118,0-.168-.067-.168-.185V7.833c0-.118.051-.185.168-.185Zm-9.955,4.4h9.315l-.842.876h-7.63V15.8l-.842.876c-.152,0-.219-.067-.219-.2V12.23a.179.179,0,0,1,.2-.2Zm8.472.876.842-.876c.135,0,.219.067.219.2v4.245c0,.135-.067.2-.219.2h-9.3l.842-.876h7.63v-2.88Zm.371,1.011a.164.164,0,0,1,.168.185v.505c0,.118-.051.185-.168.185H43.431c-.118,0-.168-.067-.168-.185v-.505c0-.118.051-.185.168-.185ZM45.217,9.282a4.384,4.384,0,0,1,.455.64,4.033,4.033,0,0,1-1.044.354,1.586,1.586,0,0,0-.32-.488,4.4,4.4,0,0,0-.691-.674c0-.067.286-.253.876-.522a7.293,7.293,0,0,1,.724.724Zm1.735,6.956h1.061v3.908c0,.135-.084.2-.236.2h-.606c-.135,0-.219-.067-.219-.2Zm1.432-9.483c0,.135-.051.2-.152.219-.1,0-.152.118-.152.3V7.9c0,.135-.084.2-.236.2h-.606c-.135,0-.219-.067-.219-.2V6.755c0-.118.067-.185.219-.185.775,0,1.145.067,1.145.2Zm2.072,1.752.91.371c.152.067.219.135.219.219,0,.034-.034.067-.118.084-.1,0-.168.034-.185.084a5.088,5.088,0,0,1-.842,1.027.274.274,0,0,1-.152.067.63.63,0,0,1-.253-.084c-.2-.1-.387-.185-.573-.27-.084-.034-.118-.051-.118-.084,0,0,0-.034.051-.051a5.382,5.382,0,0,0,.556-.606,2.385,2.385,0,0,0,.4-.674q.051-.1.1-.1Z" transform="translate(21.67 -6.435)" fill="#fff"/>
    <path id="Path_157" data-name="Path 157" d="M57.168,18.314H50.06a3.564,3.564,0,0,1,1.011-2.341,14.056,14.056,0,0,1,1.988-1.836,15.671,15.671,0,0,0,1.87-1.752,2.9,2.9,0,0,0,.859-1.92,1.761,1.761,0,0,0-.59-1.348,2.029,2.029,0,0,0-1.432-.522,2.34,2.34,0,0,0-1.129.286,1.973,1.973,0,0,0-.977,1.887L50.313,10.6A4.268,4.268,0,0,1,50.6,9.37,3.164,3.164,0,0,1,53.8,7.5a3.375,3.375,0,0,1,2.594.994,2.859,2.859,0,0,1,.741,1.988,3.307,3.307,0,0,1-.488,1.7,11.018,11.018,0,0,1-2.139,2.324l-1.078.91A6.665,6.665,0,0,0,51.9,17.034h5.272v1.28Z" transform="translate(27.809 -5.799)" fill="#fff"/>
    <path id="Path_158" data-name="Path 158" d="M57.286,14.536H55.77V13.02h1.516Z" transform="translate(31.717 -2.021)" fill="#fff"/>
    <path id="Path_159" data-name="Path 159" d="M62.592,18.388H61.261V9.9a6.819,6.819,0,0,1-1.263.91,9.632,9.632,0,0,1-1.4.691v-1.28a8,8,0,0,0,1.954-1.28A4.846,4.846,0,0,0,61.733,7.49h.859v10.9Z" transform="translate(33.653 -5.806)" fill="#fff"/>
  </g>
</svg>
