<?xml version="1.0" encoding="utf-8"?>
<!-- Generator: Adobe Illustrator 16.0.0, SVG Export Plug-In . SVG Version: 6.00 Build 0)  -->
<!DOCTYPE svg PUBLIC "-//W3C//DTD SVG 1.1//EN" "http://www.w3.org/Graphics/SVG/1.1/DTD/svg11.dtd">
<svg version="1.1" id="圖層_1" xmlns="http://www.w3.org/2000/svg" xmlns:xlink="http://www.w3.org/1999/xlink" x="0px" y="0px"
	 width="588.473px" height="150.468px" viewBox="0 0 588.473 150.468" enable-background="new 0 0 588.473 150.468"
	 xml:space="preserve">
<g>
	<path fill="#4981BF" d="M75.188,75.224l-69.315,29.07c-3.383-8.08-5.391-16.867-5.796-25.732C0.025,77.45,0,76.335,0,75.224
		C0,33.807,33.771,0.036,75.188,0.036c41.4,0,75.172,33.771,75.172,75.188c0,5.58-0.879,11.746-2.065,17.033L75.188,75.224z"/>
	<path fill="#9AC352" d="M86.886,64.495l26.758,34.697l34.681-7.322c-7.646,34.004-38.519,58.635-73.477,58.635
		c-32.923,0-62.61-21.996-72.012-53.348l60.945,1.68L86.886,64.495z"/>
	<path fill="#FFFFFF" d="M0.074,78.989l25.62-0.127c9.911-14.845,19.807-29.703,29.702-44.546c1.711-1.803,3.036-2.02,4.578-1.48
		l7.799,8.293L36.838,84.442L0.288,84.34L0.074,78.989z"/>
	<polygon fill="#9AC352" points="1.973,93.797 51.559,93.797 88.443,39 126.484,93.797 147.354,93.797 146.244,96.771 
		121.998,96.771 88.458,48.311 54.625,97.528 2.897,97.157 	"/>
	<polygon fill="#FFFFFF" points="3.606,99.504 2.836,97.157 54.502,96.911 88.551,48.173 122.214,96.819 147.076,96.819 
		144.965,102.506 110.839,102.506 87.194,69.088 66.417,101.765 4.356,101.788 	"/>
	<path fill="#FFFFFF" d="M1.973,93.797l-0.507-2.713L1.145,87.98l38.792,0.175l44.53-66.833c1.094-0.91,1.742-1.542,3.854-1.372
		c1.063,0.185,2.019,0.386,3.576,1.989l46.241,66.833h11.036l-1.188,5.025l-21.439-0.077L88.181,39.634L51.82,94.09L1.973,93.797z"
		/>
</g>
<g>
	<path fill="#040000" d="M176.104,38.121c1.632,0.864,2.496,1.536,2.496,2.016s-0.432,0.72-1.296,0.816
		c-1.008,0-1.584,0.192-1.729,0.48c-1.056,1.536-2.16,2.88-3.264,4.081h0.048c1.008,0.288,1.536,0.576,1.536,0.768
		c0,0.576-0.336,1.008-0.912,1.296c-0.384,0.24-0.576,0.625-0.576,1.152v19.682c0,0.576-0.768,1.056-2.304,1.392
		c-0.672,0.096-1.152,0.144-1.44,0.144c-1.152,0-1.728-0.528-1.728-1.536c0.24-3.408,0.384-6.816,0.384-10.273v-8.064
		c-1.68,1.2-3.696,2.4-6,3.552l-0.384-0.96c2.4-2.304,4.561-4.849,6.433-7.633c2.112-3.264,3.6-6.336,4.464-9.217
		C173.463,36.729,174.855,37.497,176.104,38.121z M173.799,28.567c1.44,0.768,2.16,1.392,2.16,1.776c0,0.432-0.384,0.672-1.104,0.72
		c-0.912,0-1.44,0.144-1.536,0.432c-1.248,1.824-2.592,3.408-3.984,4.848c-1.632,1.729-4.176,3.504-7.633,5.281l-0.384-0.768
		c1.92-1.968,3.6-4.177,5.088-6.577c1.68-2.736,2.88-5.376,3.552-7.873C171.399,27.271,172.647,27.991,173.799,28.567z
		 M184.6,41.816h10.849c0.144-0.048,0.768-0.768,1.824-2.112c1.296-1.584,2.064-2.4,2.304-2.4c0.672,0,1.68,0.768,3.12,2.256
		c1.44,1.536,2.16,2.497,2.16,2.784c0,0.528-0.336,0.768-0.96,0.768h-6.769v20.066c0,2.784-0.912,4.608-2.688,5.424
		c-1.728,0.864-2.976,1.344-3.84,1.344c-0.576,0-1.008-0.624-1.344-1.824c-0.528-1.728-2.641-3.168-6.337-4.368l0.144-0.96
		c2.736,0.384,5.041,0.576,6.96,0.576c0.96,0,1.488-0.48,1.488-1.488v-18.77H184.6c-2.784,0-4.704,0.096-5.809,0.192l-0.768-1.873
		C179.512,41.72,181.72,41.816,184.6,41.816z M186.665,31.111h6.336c0.096-0.048,0.672-0.72,1.68-2.016
		c1.152-1.536,1.872-2.304,2.112-2.304c0.624,0,1.632,0.768,2.976,2.208c1.344,1.44,2.064,2.353,2.064,2.688
		c0,0.48-0.336,0.72-0.912,0.72h-14.257c-2.785,0-4.705,0.096-5.809,0.192l-0.768-1.872
		C181.576,31.015,183.784,31.111,186.665,31.111z"/>
	<path fill="#040000" d="M216.279,30.919h8.977c0.096-0.048,0.624-0.672,1.584-1.92c1.104-1.44,1.776-2.208,2.016-2.208
		c0.576,0,1.536,0.72,2.88,2.112c1.296,1.44,1.968,2.304,1.968,2.592c0,0.479-0.336,0.72-0.912,0.72h-6.96v12.001h0.576
		c0,0,0.336-0.336,0.96-1.008c0.864-0.912,1.392-1.392,1.632-1.392s1.008,0.576,2.256,1.68c0.048,0.048,0.096,0.096,0.096,0.096
		c0.576-1.729,1.104-3.36,1.488-4.896c0.864-3.553,1.584-7.729,2.16-12.625c1.68,0.48,3.312,0.912,4.896,1.344
		c1.488,0.48,2.256,0.96,2.256,1.44c0,0.528-0.432,0.864-1.248,0.96c-0.816,0.192-1.296,0.336-1.392,0.528
		c-0.672,2.497-1.344,4.752-2.112,6.769h5.857c0.048,0,0.576-0.576,1.584-1.728c1.296-1.584,2.16-2.4,2.544-2.4
		c0.384,0,1.584,0.912,3.504,2.641c1.152,1.104,1.776,1.776,1.776,2.064c0,0.48-0.336,0.72-0.96,0.72h-2.4
		c-0.864,4.368-2.064,8.544-3.601,12.481c-1.056,2.688-2.16,4.944-3.312,6.769c0.864,0.96,1.776,1.776,2.784,2.544
		c2.352,1.824,5.041,3.312,8.017,4.464l-0.336,0.768c-1.104,0.096-1.968,0.96-2.592,2.592c-0.576,1.008-0.96,1.536-1.2,1.536
		c-1.056,0-2.88-1.249-5.424-3.697c-1.68-1.488-3.072-3.024-4.176-4.656c-1.344,1.392-2.784,2.64-4.417,3.792
		c-3.072,2.112-6.48,3.744-10.129,4.944l-0.384-0.768c3.312-2.016,6.096-3.984,8.353-6.048c1.632-1.536,3.168-3.313,4.512-5.376
		c-0.48-0.912-0.864-1.824-1.152-2.784c-1.056-3.457-1.728-7.201-2.016-11.185c-1.248,2.16-2.64,4.32-4.272,6.433l-0.768-0.72
		c0.576-1.344,1.056-2.688,1.488-3.937h-4.849v13.537c2.4-0.384,4.752-0.864,6.96-1.344l0.144,0.528
		c-5.856,3.457-12.097,5.953-18.625,7.489c-0.72,0.048-1.056,0.24-1.056,0.576c-0.096,0.192-0.144,0.432-0.192,0.72
		c-0.096,0.384-0.288,0.624-0.528,0.624c-0.672,0-1.44-1.152-2.353-3.456c-0.24-0.624-0.672-1.68-1.248-3.12
		c1.152-0.096,2.256-0.192,3.408-0.288V46.28c0-2.496-0.144-4.705-0.384-6.721c1.248,0.145,2.928,0.384,4.944,0.672
		c1.536,0.288,2.352,0.528,2.352,0.816c0,0.48-0.432,0.864-1.296,1.152c-0.672,0.192-0.96,0.576-0.96,1.104v17.042
		c1.248-0.144,2.544-0.288,3.792-0.48v-27.65h-4.512c-2.784,0-4.705,0.096-5.809,0.192l-0.768-1.873
		C211.19,30.823,213.398,30.919,216.279,30.919z M236.488,46.616c0.72,2.784,1.729,5.232,3.024,7.393
		c0.624-1.344,1.248-3.024,1.92-4.992c1.104-3.168,1.968-6.721,2.64-10.609h-7.201c-0.432,1.056-0.864,2.016-1.296,2.88
		c-0.096,0.144-0.144,0.24-0.192,0.336C235.577,43.064,235.96,44.745,236.488,46.616z"/>
	<path fill="#040000" d="M273.88,28.183c1.2,1.056,1.824,1.776,1.824,2.16c0,0.384-0.48,0.672-1.345,0.864
		c-1.056,0.288-1.68,0.576-1.824,0.864c-1.92,4.225-3.792,7.585-5.616,10.129c2.112,1.824,3.648,3.504,4.608,4.945
		c0.576,0.96,1.104,2.064,1.488,3.312c0.384,1.2,0.624,2.448,0.624,3.745c0,1.728-0.336,2.976-0.96,3.696
		c-0.672,1.056-1.44,1.776-2.257,2.256c-0.863,0.528-1.536,0.768-2.016,0.768c-0.384,0-0.72-0.528-0.912-1.584
		c-0.336-1.056-1.488-2.064-3.408-2.928v12.385c0,0.576-0.816,1.056-2.4,1.392c-0.72,0.048-1.248,0.096-1.536,0.096
		c-1.008,0-1.488-0.528-1.488-1.488c0.096-1.729,0.192-3.36,0.192-5.041V33.559c0-2.4-0.144-4.704-0.384-6.96
		c2.208,0.624,4.464,1.44,6.769,2.448h2.208c0.672-0.816,1.296-1.488,1.824-2.064c0.527-0.48,1.008-0.768,1.392-0.768
		C271.144,26.214,272.247,26.887,273.88,28.183z M264.087,55.065c1.152,0.192,2.064,0.24,2.832,0.24c0.672,0,1.2-0.144,1.536-0.432
		c0.288-0.48,0.48-1.296,0.48-2.4c0-2.112-0.288-3.792-0.769-5.136c-0.672-1.68-1.632-3.408-2.976-5.137
		c1.152-3.456,2.112-7.44,2.833-11.857h-3.937L264.087,55.065L264.087,55.065z M279.448,48.921h13.154
		c0.096-0.048,0.624-0.672,1.536-1.824c1.151-1.392,1.823-2.112,2.016-2.112c0.576,0,1.488,0.72,2.736,2.064
		c1.296,1.344,1.969,2.16,1.969,2.448c0,0.48-0.337,0.72-0.961,0.72h-8.256v12.769c0,0.912,0.191,1.44,0.672,1.536
		c0.384,0.096,1.056,0.144,1.968,0.144c0.721,0,1.248-0.24,1.633-0.72c0.385-0.864,0.961-2.928,1.729-6.192l0.96,0.192l0.192,3.168
		c0,1.152,0.383,2.112,1.151,2.88c0.673,0.72,1.056,1.392,1.056,2.016c0,0.864-0.383,1.488-1.056,1.873
		c-1.151,0.72-3.071,1.104-5.665,1.104h-2.736c-1.008,0-1.92-0.144-2.689-0.384c-1.632-0.336-2.448-1.536-2.448-3.552V50.217h-2.88
		c-0.288,3.552-0.768,6.289-1.536,8.161c-0.672,1.728-1.536,3.216-2.496,4.512c-1.056,1.296-2.448,2.4-4.08,3.36
		c-2.16,1.296-4.561,2.4-7.201,3.313l-0.576-1.152c1.393-0.672,2.784-1.632,4.129-2.832c1.344-1.152,2.448-2.544,3.408-4.128
		c0.864-1.44,1.536-2.977,1.92-4.513c0.528-1.872,0.816-4.128,0.864-6.72c-1.968,0.048-3.408,0.096-4.32,0.192l-0.72-1.872
		C274.407,48.825,276.567,48.921,279.448,48.921z M288.569,27.031c1.152,0.096,1.776,0.384,1.776,0.912
		c0,0.192-0.384,0.48-1.104,0.816c-0.769,0.336-1.153,0.768-1.153,1.248v3.168h4.849c0.624-0.624,1.152-1.152,1.584-1.536
		c0.624-0.72,1.104-1.104,1.44-1.104c0.432,0,1.486,0.72,3.168,2.112c1.488,1.248,2.256,2.112,2.256,2.592
		c0,0.384-0.385,0.672-1.104,0.768c-0.865,0-1.394,0.096-1.488,0.192c-1.394,0.96-3.024,1.92-4.896,2.88
		c0.048,0.096,0.096,0.096,0.096,0.096c1.152,1.248,1.776,1.968,1.776,2.256c0,0.528-0.288,0.768-0.769,0.768h-13.297
		c-2.736,0-4.656,0.048-5.809,0.144l-0.768-1.872c1.536,0.288,3.696,0.384,6.576,0.384h6.385c0.096,0,0.576-0.576,1.489-1.68
		c1.056-1.248,1.68-1.872,1.872-1.872c0.24,0,0.576,0.144,0.96,0.384c0.48-1.056,0.912-2.112,1.296-3.216h-16.226
		c-0.096,1.2-0.191,2.064-0.288,2.64c-0.336,1.248-0.863,2.112-1.584,2.592c-0.479,0.288-0.912,0.432-1.392,0.432
		c-0.96,0-1.729-0.288-2.353-0.864c-0.576-0.432-0.864-1.104-0.864-1.968c0-0.384,0.48-0.912,1.536-1.536
		c1.057-0.576,1.921-1.249,2.593-2.017c0.576-0.672,1.104-1.776,1.536-3.216l0.912,0.192c0,0.96-0.048,1.776-0.048,2.448H283v-2.977
		c0-1.296-0.144-2.64-0.336-3.984C284.681,26.407,286.648,26.695,288.569,27.031z"/>
	<path fill="#040000" d="M311.319,30.199h1.872c0.097-0.048,0.624-0.672,1.585-1.872c1.104-1.392,1.775-2.112,2.016-2.112
		c0.576,0,1.488,0.72,2.736,2.064c0.77,0.864,1.344,1.488,1.633,1.92c0-1.344-0.097-2.688-0.24-3.984
		c1.92,0.528,3.889,1.2,5.81,2.064h13.873c0.479-0.576,0.911-1.056,1.296-1.44s0.721-0.624,1.104-0.624
		c0.528,0,1.44,0.48,2.688,1.44c1.44,1.008,2.208,1.728,2.208,2.16c0,0.288-0.288,0.624-0.814,0.96
		c-0.529,0.288-0.816,0.624-0.865,0.912v6c0,0.432-0.479,0.768-1.344,0.96c0.576,0.384,1.393,1.056,2.448,2.016
		c1.009,0.912,1.536,1.488,1.536,1.68c0,0.528-0.288,0.768-0.77,0.768h-26.834c0.097,0.192,0.191,0.336,0.191,0.384
		c0,0.479-0.238,0.72-0.72,0.72h-5.474v10.177c2.112-0.479,4.08-1.056,6.002-1.728l0.19,0.576
		c-3.696,3.552-7.584,6.097-11.713,7.633c-0.479,0.096-0.672,0.336-0.672,0.624c-0.097,0.192-0.144,0.384-0.144,0.672
		c-0.146,0.432-0.338,0.624-0.576,0.624c-0.674,0-1.44-1.152-2.354-3.456c-0.24-0.624-0.624-1.68-1.199-3.12
		c1.823-0.192,3.553-0.432,5.231-0.72V44.216c-1.776,0.048-3.072,0.096-3.937,0.192l-0.769-1.872c1.2,0.192,2.784,0.336,4.704,0.384
		V31.496c-2.064,0.048-3.553,0.096-4.514,0.192l-0.719-1.872C306.279,30.104,308.439,30.199,311.319,30.199z M327.113,46.28h11.425
		c0.528-0.624,1.008-1.152,1.393-1.584c0.385-0.384,0.816-0.624,1.199-0.624c0.529,0,1.488,0.528,2.881,1.488
		c1.585,1.056,2.4,1.824,2.4,2.256c0,0.336-0.287,0.672-0.816,1.056c-0.527,0.336-0.815,0.672-0.863,1.008v3.553
		c0,0.48-0.672,0.864-1.968,1.056c1.151,0.768,2.256,1.44,3.264,2.064c1.104,0.816,1.681,1.392,1.681,1.728
		c0,0.384-0.191,0.576-0.576,0.576l-2.399-0.192c-1.2,0.768-2.784,1.488-4.752,2.208c0.479,0.384,0.96,0.672,1.438,0.912
		c2.306,1.392,4.896,2.496,7.777,3.264l-0.191,0.96c-1.44,0.528-2.4,1.249-2.784,2.161c-0.528,1.152-0.96,1.776-1.296,1.776
		c-0.434,0-1.2-0.432-2.354-1.248c-1.296-0.816-2.641-1.968-4.08-3.457c-1.152-1.104-2.16-2.592-3.072-4.464
		c-0.769-1.44-1.439-3.408-1.969-5.904c-1.104,0.864-2.207,1.584-3.359,2.256v6.048c1.873-0.288,3.695-0.576,5.425-0.96l0.384,0.768
		c-3.552,2.64-7.248,4.56-11.186,5.712c-0.432,0.048-0.623,0.192-0.623,0.48c-0.096,0.096-0.145,0.288-0.145,0.576
		c-0.097,0.336-0.24,0.528-0.433,0.528c-0.624,0-1.345-1.056-2.208-3.12c-0.24-0.576-0.624-1.536-1.152-2.88
		c1.729-0.096,3.408-0.24,5.04-0.432v-4.224c-3.6,1.536-7.2,2.64-10.849,3.36l-0.191-0.576c3.023-1.056,5.856-2.448,8.448-4.128
		c2.448-1.344,4.513-2.928,6.192-4.656h-1.776c-0.19,0.528-0.912,0.912-2.208,1.152c-0.672,0.096-1.2,0.144-1.488,0.144
		c-1.008,0-1.486-0.432-1.486-1.296c0.096-0.864,0.19-1.872,0.19-3.024v-2.257c0-1.056-0.144-2.4-0.384-3.936
		C323.417,44.888,325.241,45.512,327.113,46.28z M340.938,41.816c0.048,0,0.479-0.48,1.296-1.44c0.528-0.625,0.96-1.104,1.345-1.488
		c-0.433,0.096-0.721,0.096-0.912,0.096c-0.672,0-1.104-0.192-1.248-0.576h-15.266c0,0.624-0.721,1.104-2.16,1.392
		c-0.673,0.096-1.104,0.144-1.393,0.144c-1.057,0-1.536-0.48-1.536-1.536c0.097-1.44,0.192-2.928,0.192-4.464V32.6
		c0-0.432-0.049-0.864-0.049-1.296c-0.145,0.144-0.385,0.192-0.672,0.192h-5.281v11.088c0.192-0.24,0.48-0.576,0.865-1.056
		c0.863-1.056,1.393-1.584,1.584-1.584c0.479,0,1.199,0.528,2.207,1.584c0.098,0.096,0.146,0.192,0.24,0.288H340.938z
		 M328.409,37.111v-7.488h-2.256v7.488H328.409z M339.45,52.281v-4.656h-12.385v4.656H339.45z M334.937,37.111v-7.488h-2.399v7.488
		H334.937z M336.857,57.754c0.576,0.816,1.2,1.536,1.921,2.112c0.385-0.48,0.814-1.056,1.248-1.728
		c0.814-1.056,1.488-2.256,2.064-3.504c-0.576,0.096-1.01,0.096-1.297,0.096c-0.865,0-1.297-0.336-1.297-1.104h-4.463
		c-0.146,0.144-0.289,0.24-0.386,0.288C335.225,55.305,335.946,56.602,336.857,57.754z M341.323,37.111v-7.488h-2.257v7.488H341.323
		z"/>
	<path fill="#040000" d="M357.02,39.752v-6.384c0-2.592-0.144-4.896-0.384-6.96c1.296,0.192,3.024,0.432,5.185,0.816
		c1.633,0.288,2.496,0.576,2.496,0.912c0,0.432-0.479,0.816-1.439,1.152c-0.672,0.192-1.008,0.576-1.008,1.056v8.593
		c0.191-0.288,0.433-0.576,0.672-0.864c0.96-1.249,1.585-1.873,1.775-1.873c0.48,0,1.297,0.624,2.448,1.824
		c0.673,0.768,1.152,1.344,1.44,1.728h5.664c-0.289-0.336-0.479-1.008-0.625-1.968c-0.24-1.536-0.912-3.168-1.967-4.801
		c-1.729,0.048-2.978,0.096-3.744,0.192l-0.77-1.872c1.488,0.288,3.696,0.384,6.578,0.384h4.654v-1.68
		c0-1.2-0.145-2.448-0.385-3.792c1.922,0.192,3.746,0.432,5.473,0.72c1.105,0.096,1.682,0.336,1.682,0.816
		c0,0.192-0.336,0.432-1.008,0.72c-0.721,0.336-1.057,0.72-1.057,1.152v2.064h4.512c0.098-0.048,0.576-0.624,1.439-1.68
		c1.057-1.248,1.73-1.872,1.922-1.872c0.527,0,1.393,0.624,2.543,1.824c1.152,1.248,1.777,2.016,1.777,2.256
		c0,0.528-0.289,0.768-0.77,0.768h-8.834c0.625,0.288,1.201,0.528,1.777,0.768c1.584,0.576,2.4,1.104,2.4,1.68
		c0,0.336-0.385,0.576-1.152,0.72c-0.77,0.096-1.201,0.288-1.297,0.576c-0.959,1.104-2.207,2.112-3.695,3.024h3.695
		c0,0,0.527-0.528,1.488-1.584c1.248-1.44,2.064-2.16,2.447-2.16c0.385,0,1.441,0.816,3.217,2.4
		c1.057,1.008,1.633,1.632,1.633,1.872c0,0.528-0.336,0.768-0.912,0.768h-33.027v12.577c1.97-0.432,3.842-0.912,5.666-1.488
		l0.144,0.528c-3.456,3.456-7.151,5.952-10.993,7.488c-0.432,0.096-0.624,0.288-0.624,0.576c-0.096,0.192-0.144,0.432-0.19,0.672
		c-0.098,0.48-0.289,0.672-0.528,0.672c-0.72,0-1.536-1.152-2.448-3.552c-0.287-0.672-0.72-1.729-1.344-3.216
		c1.92-0.192,3.744-0.48,5.473-0.768V41.048c-2.353,0-4.033,0.096-5.089,0.192l-0.721-1.872
		C352.556,39.608,354.524,39.752,357.02,39.752z M373.438,44.216h12.434c0.623-0.672,1.248-1.296,1.824-1.873
		c0.432-0.48,0.816-0.72,1.199-0.72c0.336,0,1.201,0.432,2.545,1.2c1.535,1.056,2.305,1.776,2.305,2.161
		c0,0.432-0.336,0.864-0.961,1.296c-0.479,0.384-0.721,0.864-0.721,1.344v3.552c0,1.344,0.049,3.168,0.191,5.424
		c0,0.624-0.768,1.104-2.256,1.392c-0.672,0.096-1.199,0.144-1.486,0.144c-0.865,0-1.297-0.432-1.297-1.344v-0.384h-1.152V62.6
		c0,1.056,0.24,1.584,0.721,1.68c0.383,0.144,1.057,0.192,1.969,0.192c0.768,0,1.393-0.24,1.775-0.72
		c0.432-0.864,1.057-2.928,1.92-6.193l1.105,0.192l0.191,2.976c0,1.2,0.336,2.208,1.008,2.976c0.576,0.768,0.863,1.44,0.863,2.112
		c0,0.96-0.383,1.584-1.055,1.968c-1.201,0.768-3.121,1.2-5.811,1.2h-2.688c-1.008,0-1.871-0.144-2.641-0.384
		c-1.633-0.384-2.4-1.632-2.4-3.744v-8.449h-1.584c-0.383,2.496-1.008,4.368-1.871,5.665c-0.816,1.248-1.824,2.352-3.072,3.312
		s-2.928,1.776-4.944,2.497c-2.593,0.96-5.521,1.728-8.784,2.4l-0.576-1.104c1.824-0.528,3.648-1.2,5.424-2.064
		c1.776-0.864,3.313-1.776,4.562-2.928c1.2-1.056,2.063-2.16,2.593-3.313c0.625-1.248,0.961-2.736,1.057-4.464h-0.479
		c0,0.576-0.77,0.96-2.21,1.2c-0.624,0.096-1.104,0.144-1.392,0.144c-1.01,0-1.488-0.432-1.488-1.344
		c0.096-0.816,0.191-1.728,0.191-2.784v-7.489c0-1.056-0.096-2.304-0.191-3.792C369.933,42.824,371.661,43.448,373.438,44.216z
		 M387.215,49.498v-3.937h-13.873v3.937H387.215z M387.215,55.113v-4.32h-13.873v4.32H387.215z M381.454,39.752
		c0.816-2.064,1.393-4.32,1.73-6.769h-9.793c1.438,0.576,2.496,1.104,3.119,1.584c1.104,0.864,1.68,1.584,1.68,2.16
		c0,1.104-0.24,1.968-0.719,2.592c-0.193,0.192-0.385,0.336-0.529,0.432L381.454,39.752L381.454,39.752z"/>
	<path fill="#040000" d="M411.981,28.183c1.439,0.48,2.209,0.96,2.209,1.44s-0.432,0.816-1.248,0.96s-1.297,0.336-1.393,0.528
		c-0.863,2.88-1.824,5.425-2.832,7.633c0.191,0.096,0.385,0.144,0.574,0.192c1.01,0.288,1.537,0.576,1.537,0.816
		c0,0.528-0.336,0.96-0.912,1.249c-0.385,0.24-0.576,0.624-0.576,1.2v26.402c0,0.576-0.768,1.056-2.305,1.392
		c-0.672,0.096-1.199,0.144-1.486,0.144c-1.152,0-1.682-0.528-1.682-1.536c0.24-3.408,0.385-6.864,0.385-10.321V46.28
		c-1.248,1.68-2.594,3.36-4.129,5.088l-0.721-0.768c2.113-3.936,3.793-7.633,4.945-10.993c1.15-3.553,2.111-7.825,2.928-12.817
		C408.909,27.271,410.446,27.704,411.981,28.183z M421.055,29.624h10.416c0.672-0.816,1.344-1.536,2.016-2.208
		c0.48-0.528,0.912-0.816,1.344-0.816c0.387,0,1.346,0.48,2.834,1.392c1.729,1.152,2.592,1.968,2.592,2.352
		c0,0.48-0.336,0.96-0.961,1.392c-0.479,0.432-0.719,0.912-0.719,1.44v3.744c0,1.536,0.047,3.601,0.191,6.192
		c0,0.624-0.865,1.056-2.496,1.344c-0.77,0.096-1.297,0.144-1.633,0.144c-0.863,0-1.295-0.479-1.295-1.488v-0.767h-4.129v6.961
		h5.424c0.096-0.048,0.672-0.72,1.633-2.016c1.152-1.536,1.871-2.304,2.111-2.304c0.625,0,1.633,0.768,3.023,2.208
		c1.344,1.44,2.064,2.352,2.064,2.688c0,0.48-0.336,0.72-0.961,0.72h-12.77c2.064,2.88,4.273,5.041,6.576,6.577
		c2.594,1.632,5.137,2.736,7.682,3.36l-0.191,1.152c-1.439,0.48-2.447,1.44-3.023,2.977c-0.385,1.104-0.77,1.68-1.248,1.68
		c-0.48,0-1.488-0.768-3.072-2.256c-1.682-1.488-3.266-3.457-4.754-5.856c-0.959-1.536-1.822-3.121-2.496-4.752v15.121
		c0,0.576-0.863,1.056-2.543,1.392c-0.77,0.096-1.297,0.144-1.584,0.144c-1.057,0-1.535-0.528-1.535-1.536
		c0.238-1.824,0.383-4.416,0.383-7.873v-5.136c-0.816,1.296-1.535,2.352-2.207,3.12c-1.537,1.776-3.266,3.36-5.232,4.752
		c-1.969,1.392-4.129,2.496-6.434,3.456l-0.383-0.72c2.303-1.729,4.512-3.889,6.574-6.529c1.92-2.592,3.602-5.616,4.992-9.073
		h-4.416c-2.783,0-4.703,0.096-5.809,0.192l-0.77-1.872c1.488,0.288,3.697,0.384,6.578,0.384h7.104v-6.961h-3.744v1.344
		c0,0.624-0.816,1.056-2.4,1.344c-0.719,0.096-1.248,0.144-1.535,0.144c-1.008,0-1.488-0.48-1.488-1.488
		c0.096-1.68,0.191-3.36,0.191-5.088v-4.32c0-2.352-0.145-4.656-0.385-6.913C416.686,27.943,418.846,28.664,421.055,29.624z
		 M433.344,41.048V30.919H420.19v10.129H433.344z"/>
	<path fill="#040000" d="M453.932,34.279h4.705c0.096,0,0.479-0.48,1.199-1.392c0.912-1.056,1.439-1.584,1.633-1.584
		c0.432,0,1.152,0.528,2.209,1.584c1.008,1.104,1.535,1.776,1.535,1.968c0,0.528-0.289,0.768-0.768,0.768h-10.514
		c-2.736,0-4.656,0.096-5.811,0.192l-0.719-1.872C448.893,34.183,451.053,34.279,453.932,34.279z M455.805,29.431h0.574
		c0.098-0.048,0.529-0.576,1.395-1.584c1.008-1.152,1.584-1.776,1.775-1.776c0.479,0,1.297,0.625,2.352,1.776
		c1.057,1.152,1.633,1.872,1.633,2.16c0,0.48-0.287,0.72-0.768,0.72h-6.961c-2.736,0-4.656,0.096-5.809,0.192l-0.721-1.872
		C450.764,29.335,452.924,29.431,455.805,29.431z M455.805,40.28h0.768c0.096,0,0.529-0.528,1.393-1.536
		c1.01-1.2,1.586-1.824,1.775-1.824c0.48,0,1.297,0.624,2.354,1.776c1.057,1.2,1.584,1.92,1.584,2.16
		c0,0.528-0.24,0.768-0.721,0.768h-7.152c-2.734,0-4.656,0.096-5.809,0.192l-0.721-1.872
		C450.764,40.184,452.924,40.28,455.805,40.28z M455.997,46.666h0.576c0.096,0,0.527-0.528,1.391-1.536
		c1.01-1.2,1.586-1.824,1.777-1.824c0.48,0,1.295,0.624,2.354,1.776c1.055,1.2,1.584,1.92,1.584,2.16
		c0,0.528-0.24,0.768-0.721,0.768h-6.961c-2.736,0-4.656,0.096-5.809,0.192l-0.721-1.92
		C450.956,46.568,453.116,46.666,455.997,46.666z M455.372,53.625h0.434c0.672-0.768,1.344-1.488,1.92-2.064
		c0.479-0.48,0.912-0.768,1.297-0.768c0.336,0,1.199,0.432,2.639,1.296c1.586,1.104,2.4,1.872,2.4,2.256
		c0,0.48-0.287,0.912-0.863,1.296c-0.432,0.384-0.625,0.864-0.625,1.344v4.512c0,1.344,0.049,3.12,0.193,5.424
		c0,0.576-0.77,1.056-2.256,1.344c-0.674,0.096-1.201,0.144-1.488,0.144c-0.912,0-1.344-0.432-1.344-1.296v-1.296H454.7v2.4
		c0,0.624-0.719,1.104-2.16,1.392c-0.672,0.096-1.104,0.144-1.393,0.144c-1.055,0-1.535-0.528-1.535-1.536
		c0.096-1.488,0.191-2.928,0.191-4.464v-5.809c0-2.208-0.145-4.32-0.336-6.385C451.389,52.089,453.356,52.761,455.372,53.625z
		 M457.678,64.474v-9.553H454.7v9.553H457.678z M470.829,56.793h9.939c0.576-0.576,1.055-1.008,1.344-1.2
		c0.768-0.672,1.393-1.056,1.824-1.056c0.383,0,1.344,0.672,2.832,1.92c1.486,1.344,2.256,2.208,2.256,2.592
		c0,0.432-0.576,0.72-1.633,0.816c-1.057,0.096-1.68,0.288-1.92,0.48c-0.959,1.248-2.256,2.352-3.889,3.36
		c2.496,0.576,5.762,1.056,9.891,1.344l-0.193,0.96c-1.152,0.288-1.92,1.056-2.305,2.208c-0.287,0.864-0.527,1.344-0.721,1.344
		c-1.246,0-2.977-0.336-5.137-1.008c-2.496-0.72-4.559-1.488-6.096-2.304c-1.008,0.432-2.064,0.816-3.121,1.2
		c-2.975,1.056-7.152,1.968-12.432,2.688l-0.385-0.96c3.936-1.008,7.871-2.544,11.762-4.561c0.336-0.192,0.623-0.336,0.91-0.528
		c-0.672-0.576-1.295-1.2-1.775-1.872c-1.057-1.248-1.92-2.64-2.496-4.081c-1.729,0.048-3.119,0.096-4.271,0.144l-0.768-1.872
		C466.655,56.697,468.815,56.793,470.829,56.793z M473.663,26.695c1.729,0.192,2.592,0.48,2.592,0.864
		c0,0.528-0.432,0.96-1.199,1.248c-0.576,0.24-0.865,0.624-0.865,1.2v4.128c0,0.528-0.719,0.912-2.16,1.152
		c-0.191,0.048-0.287,0.048-0.383,0.048c1.055,0.624,1.631,1.104,1.631,1.392c0,0.432-0.336,0.672-0.959,0.72
		c-0.768,0-1.201,0.144-1.297,0.432c-0.191,0.24-0.336,0.432-0.432,0.624l0.574,0.288h4.082c0.24-0.72,0.432-1.392,0.576-2.064
		c0.143-0.768,0.287-1.68,0.432-2.784c1.057,0.288,2.111,0.576,3.072,0.816c0.096-0.576,0.145-1.056,0.145-1.392v-3.552
		c0-1.44-0.191-2.688-0.576-3.745c1.297,0.144,2.881,0.336,4.705,0.625c1.729,0.192,2.592,0.48,2.592,0.864
		c0,0.528-0.434,0.96-1.201,1.248c-0.574,0.24-0.863,0.624-0.863,1.2v1.104h0.385c0,0,0.432-0.384,1.199-1.248
		c1.01-1.152,1.682-1.728,1.969-1.728c0.289,0,1.199,0.672,2.736,2.016c0.912,0.816,1.393,1.344,1.393,1.536
		c0,0.48-0.24,0.72-0.721,0.72h-6.961v2.256c0,0.576-0.721,0.96-2.158,1.2c-0.098,0-0.146,0.048-0.193,0.048
		c0.049,0.096,0.096,0.192,0.096,0.288c0,0.384-0.336,0.576-0.959,0.672c-0.672,0.144-1.008,0.288-1.104,0.432
		c-0.48,0.528-1.059,0.96-1.682,1.344c-0.145,0.096-0.24,0.144-0.289,0.144h5.186c0,0,0.432-0.432,1.201-1.296
		c0.959-1.248,1.631-1.872,1.967-1.872c0.289,0,1.248,0.72,2.881,2.112c0.961,0.864,1.439,1.44,1.439,1.632
		c0,0.528-0.287,0.768-0.768,0.768h-9.17v3.168h1.105c0.047,0,0.432-0.384,1.15-1.152c0.961-1.104,1.584-1.68,1.873-1.68
		c0.287,0,1.15,0.672,2.592,1.92c0.863,0.768,1.344,1.296,1.344,1.488c0,0.48-0.287,0.72-0.768,0.72h-7.297v3.216h1.295
		c0.049,0,0.434-0.384,1.152-1.2c0.961-1.056,1.584-1.632,1.873-1.632c0.287,0,1.15,0.672,2.592,1.92
		c0.863,0.768,1.344,1.248,1.344,1.44c0,0.528-0.287,0.768-0.768,0.768h-7.488v3.745h3.168c0.049,0,0.432-0.432,1.199-1.296
		c1.01-1.248,1.682-1.872,2.018-1.872c0.287,0,1.248,0.72,2.832,2.112c0.959,0.864,1.488,1.44,1.488,1.632
		c0,0.528-0.289,0.768-0.77,0.768h-19.488v0.336c0,0.576-0.77,0.96-2.209,1.2c-0.623,0.096-1.057,0.144-1.344,0.144
		c-1.057,0-1.537-0.432-1.537-1.344c0.24-2.016,0.385-4.081,0.385-6.193v-5.328c-0.912,0.672-1.969,1.344-3.168,1.968l-0.385-0.768
		c1.152-1.488,2.16-3.121,3.072-4.945c1.057-2.064,1.775-4.032,2.16-5.904c0.48,0.288,0.959,0.576,1.393,0.768
		c0.096-0.576,0.145-1.008,0.145-1.344v-0.384c-2.113,0-3.84,0.096-5.088,0.192l-0.77-1.872c1.633,0.288,3.553,0.384,5.855,0.384
		v-1.296c0-1.44-0.189-2.688-0.576-3.745C470.252,26.214,471.838,26.407,473.663,26.695z M474.766,61.163
		c0.48,0.384,1.057,0.72,1.824,1.008c1.535-1.2,2.93-2.544,4.178-4.032h-9.986C472.077,59.434,473.422,60.442,474.766,61.163z
		 M475.87,40.136h-4.848v3.168h4.848V40.136z M475.87,44.6h-4.848v3.216h4.848V44.6z M475.87,49.112h-4.848v3.745h4.848V49.112z"/>
	<path fill="#040000" d="M506.637,43.112h4.703v-1.104c0-1.248-0.143-2.592-0.383-3.936c2.016,0.192,3.984,0.432,5.904,0.768
		c1.152,0.096,1.775,0.384,1.775,0.912c0,0.192-0.385,0.48-1.104,0.816c-0.768,0.384-1.152,0.768-1.152,1.248v1.296h2.641
		c0.096,0,0.529-0.528,1.393-1.584c0.961-1.152,1.584-1.776,1.775-1.776c0.48,0,1.248,0.625,2.305,1.776
		c0.721,0.816,1.201,1.392,1.488,1.776c1.729-1.344,3.504-2.784,5.232-4.32c1.535,1.152,2.736,2.064,3.695,2.688
		c1.393,1.056,2.113,1.776,2.113,2.208c0,0.384-0.289,0.528-0.77,0.528l-2.447-0.192c-3.361,1.92-6.674,3.648-9.842,5.088h6.863
		c0.098-0.048,0.625-0.672,1.586-1.873c1.104-1.344,1.775-2.064,1.969-2.064c0.574,0,1.535,0.672,2.783,2.016
		c1.248,1.344,1.92,2.208,1.92,2.496c0,0.48-0.336,0.72-0.961,0.72h-16.992c-3.602,1.584-7.057,2.88-10.416,3.938h15.408
		c0.721-0.768,1.393-1.44,2.064-2.016c0.479-0.48,0.912-0.768,1.344-0.768c0.383,0,1.295,0.48,2.736,1.344
		c1.631,1.152,2.496,1.968,2.496,2.4c0,0.48-0.385,0.912-1.105,1.392c-0.527,0.432-0.768,0.912-0.768,1.392v3.792
		c0,1.488,0.047,3.504,0.191,6.145c0,0.624-0.863,1.104-2.496,1.392c-0.77,0.096-1.297,0.144-1.633,0.144
		c-0.912,0-1.344-0.528-1.344-1.536v-0.912h-18.914v0.912c0,0.624-0.863,1.056-2.496,1.344c-0.768,0.096-1.297,0.192-1.633,0.192
		c-1.008,0-1.488-0.528-1.488-1.536l0.193-8.401v-3.264c-2.4,0.576-4.705,0.96-6.961,1.2l-0.385-1.152
		c7.537-1.968,13.441-3.984,17.762-6h-11.186c-2.736,0-4.656,0.096-5.809,0.192l-0.768-1.872c1.535,0.288,3.695,0.384,6.576,0.384
		h8.832v-4.896h-4.703c-2.785,0-4.705,0.096-5.811,0.192l-0.768-1.872C501.596,43.016,503.756,43.112,506.637,43.112z
		 M504.043,28.664h25.301c0.525-0.624,1.008-1.152,1.391-1.584c0.385-0.432,0.816-0.672,1.201-0.672
		c0.527,0,1.488,0.528,2.879,1.536c1.586,1.056,2.4,1.776,2.4,2.256c0,0.336-0.336,0.672-0.912,1.008
		c-0.576,0.384-0.863,0.72-0.959,1.008v5.281c0,0.528-0.816,0.912-2.4,1.152c-0.721,0.096-1.248,0.144-1.537,0.144
		c-0.863,0-1.295-0.336-1.295-1.104h-26.307v0.72c0,0.624-0.816,1.056-2.4,1.344c-0.672,0.144-1.199,0.192-1.535,0.192
		c-1.01,0-1.488-0.48-1.488-1.536c0.096-0.864,0.191-1.824,0.191-2.977v-4.704c0-1.152-0.096-2.496-0.191-4.128
		C500.252,27.127,502.124,27.799,504.043,28.664z M503.805,30.007v6.336h5.279v-6.336H503.805z M527.614,60.202v-4.32H508.51v4.32
		H527.614z M527.614,66.01v-4.512h-19.057l0.096,4.512H527.614z M514.125,30.007v6.336h5.615v-6.336H514.125z M516.573,49.112
		c2.592-1.248,5.186-2.784,7.873-4.704h-8.064v4.8C516.43,49.209,516.479,49.162,516.573,49.112z M530.063,30.007h-5.232v6.336
		h5.232V30.007z"/>
	<g>
		<path fill="#040000" d="M163.76,95.581V80.92h10.601v1.729h-8.662v4.49h8.111v1.721h-8.111v4.99h9v1.729H163.76L163.76,95.581z"/>
		<path fill="#040000" d="M177.561,95.581V84.959h1.619v1.511c0.781-1.167,1.907-1.751,3.381-1.751c0.64,0,1.228,0.116,1.765,0.345
			c0.537,0.23,0.939,0.533,1.207,0.907c0.265,0.372,0.452,0.815,0.56,1.329c0.067,0.334,0.1,0.916,0.1,1.751v6.529h-1.799v-6.459
			c0-0.734-0.07-1.282-0.21-1.646c-0.14-0.365-0.388-0.653-0.745-0.871c-0.357-0.216-0.776-0.324-1.255-0.324
			c-0.767,0-1.429,0.243-1.985,0.73c-0.556,0.486-0.835,1.409-0.835,2.771v5.8H177.561L177.561,95.581z"/>
		<path fill="#040000" d="M192.312,95.581l-4.041-10.621h1.901l2.281,6.362c0.246,0.687,0.474,1.399,0.68,2.139
			c0.16-0.56,0.383-1.234,0.669-2.02l2.36-6.481h1.851l-4.021,10.621H192.312z"/>
		<path fill="#040000" d="M200.021,82.99V80.92h1.8v2.069H200.021z M200.021,95.581V84.959h1.8v10.621H200.021z"/>
		<path fill="#040000" d="M204.952,95.581V84.959h1.619v1.611c0.414-0.754,0.795-1.25,1.146-1.49
			c0.351-0.241,0.735-0.359,1.155-0.359c0.606,0,1.223,0.192,1.85,0.579l-0.62,1.672c-0.44-0.262-0.88-0.392-1.32-0.392
			c-0.394,0-0.746,0.118-1.06,0.354c-0.313,0.238-0.537,0.566-0.669,0.985c-0.201,0.642-0.3,1.341-0.3,2.102v5.56H204.952
			L204.952,95.581z"/>
		<path fill="#040000" d="M211.531,90.27c0-1.967,0.547-3.423,1.64-4.369c0.914-0.786,2.027-1.18,3.34-1.18
			c1.461,0,2.654,0.477,3.581,1.434s1.391,2.279,1.391,3.967c0,1.366-0.206,2.441-0.616,3.225c-0.409,0.784-1.006,1.393-1.79,1.826
			c-0.784,0.433-1.639,0.647-2.566,0.647c-1.486,0-2.688-0.477-3.605-1.429C211.99,93.438,211.531,92.065,211.531,90.27z
			 M213.382,90.27c0,1.359,0.297,2.381,0.891,3.057c0.594,0.677,1.34,1.015,2.24,1.015c0.893,0,1.637-0.339,2.23-1.021
			c0.593-0.68,0.891-1.716,0.891-3.109c0-1.314-0.298-2.309-0.895-2.985c-0.597-0.679-1.338-1.016-2.226-1.016
			c-0.9,0-1.646,0.336-2.24,1.01C213.679,87.895,213.382,88.912,213.382,90.27z"/>
		<path fill="#040000" d="M224.002,95.581V84.959h1.62v1.511c0.78-1.167,1.907-1.751,3.38-1.751c0.64,0,1.228,0.116,1.765,0.345
			c0.537,0.23,0.938,0.533,1.206,0.907c0.267,0.372,0.454,0.815,0.561,1.329c0.066,0.334,0.1,0.916,0.1,1.751v6.529h-1.8v-6.459
			c0-0.734-0.071-1.282-0.211-1.646c-0.139-0.365-0.387-0.653-0.744-0.871c-0.357-0.216-0.775-0.324-1.255-0.324
			c-0.768,0-1.428,0.243-1.985,0.73c-0.557,0.486-0.835,1.409-0.835,2.771v5.8H224.002L224.002,95.581z"/>
		<path fill="#040000" d="M235.803,95.581V84.959h1.61v1.492c0.334-0.521,0.777-0.94,1.33-1.256
			c0.554-0.316,1.184-0.475,1.891-0.475c0.786,0,1.432,0.163,1.935,0.489c0.503,0.327,0.859,0.783,1.065,1.37
			c0.839-1.24,1.933-1.859,3.281-1.859c1.053,0,1.863,0.291,2.43,0.874s0.851,1.482,0.851,2.694v7.291h-1.79v-6.689
			c0-0.721-0.058-1.239-0.175-1.556s-0.329-0.572-0.636-0.765c-0.307-0.193-0.667-0.29-1.08-0.29c-0.746,0-1.367,0.249-1.86,0.745
			s-0.74,1.292-0.74,2.386v6.17h-1.799v-6.9c0-0.799-0.147-1.399-0.44-1.8c-0.293-0.398-0.774-0.6-1.44-0.6
			c-0.506,0-0.975,0.133-1.405,0.4c-0.429,0.266-0.742,0.656-0.936,1.169c-0.193,0.514-0.29,1.254-0.29,2.22v5.51H235.803
			L235.803,95.581z"/>
		<path fill="#040000" d="M260.545,92.161l1.861,0.23c-0.294,1.087-0.836,1.93-1.631,2.53c-0.795,0.601-1.808,0.899-3.041,0.899
			c-1.554,0-2.785-0.479-3.696-1.434c-0.909-0.957-1.365-2.299-1.365-4.025c0-1.786,0.46-3.175,1.381-4.16
			c0.919-0.988,2.113-1.48,3.58-1.48c1.421,0,2.581,0.483,3.48,1.45c0.901,0.967,1.351,2.325,1.351,4.079
			c0,0.106-0.003,0.268-0.01,0.481h-7.921c0.067,1.167,0.396,2.059,0.99,2.681c0.594,0.618,1.334,0.929,2.22,0.929
			c0.66,0,1.223-0.173,1.69-0.521C259.901,93.475,260.272,92.921,260.545,92.161z M254.635,89.252h5.93
			c-0.08-0.895-0.306-1.564-0.68-2.012c-0.574-0.694-1.318-1.039-2.23-1.039c-0.826,0-1.521,0.275-2.084,0.829
			C255.006,87.584,254.695,88.325,254.635,89.252z"/>
		<path fill="#040000" d="M265.076,95.581V84.959h1.62v1.511c0.78-1.167,1.907-1.751,3.38-1.751c0.641,0,1.229,0.116,1.765,0.345
			c0.538,0.23,0.938,0.533,1.206,0.907c0.267,0.372,0.453,0.815,0.56,1.329c0.067,0.334,0.1,0.916,0.1,1.751v6.529h-1.8v-6.459
			c0-0.734-0.07-1.282-0.21-1.646c-0.14-0.365-0.388-0.653-0.744-0.871c-0.357-0.216-0.776-0.324-1.256-0.324
			c-0.767,0-1.428,0.243-1.984,0.73c-0.557,0.486-0.835,1.409-0.835,2.771v5.8H265.076L265.076,95.581z"/>
		<path fill="#040000" d="M280.806,93.971l0.259,1.589c-0.505,0.106-0.96,0.162-1.359,0.162c-0.653,0-1.16-0.104-1.521-0.312
			c-0.359-0.205-0.612-0.479-0.76-0.815c-0.146-0.336-0.219-1.045-0.219-2.126V86.36h-1.319v-1.4h1.319v-2.628l1.79-1.081v3.709
			h1.811v1.4h-1.811v6.212c0,0.514,0.031,0.843,0.095,0.989c0.063,0.146,0.167,0.264,0.31,0.351c0.143,0.087,0.348,0.13,0.615,0.13
			C280.216,94.042,280.48,94.016,280.806,93.971z"/>
		<path fill="#040000" d="M289.907,94.271c-0.667,0.566-1.309,0.968-1.926,1.2c-0.617,0.233-1.279,0.35-1.984,0.35
			c-1.169,0-2.064-0.283-2.691-0.854c-0.625-0.57-0.941-1.3-0.941-2.186c0-0.521,0.119-0.994,0.355-1.426
			c0.237-0.43,0.546-0.774,0.931-1.034c0.384-0.26,0.815-0.457,1.294-0.59c0.352-0.095,0.886-0.186,1.6-0.271
			c1.454-0.173,2.524-0.379,3.21-0.619c0.006-0.248,0.01-0.404,0.01-0.47c0-0.734-0.17-1.251-0.51-1.55
			c-0.46-0.407-1.143-0.61-2.05-0.61c-0.846,0-1.473,0.148-1.875,0.444c-0.404,0.296-0.701,0.822-0.895,1.575l-1.76-0.24
			c0.161-0.753,0.423-1.361,0.79-1.825c0.368-0.464,0.896-0.821,1.589-1.07c0.694-0.249,1.499-0.374,2.41-0.374
			c0.907,0,1.646,0.104,2.211,0.319c0.567,0.214,0.984,0.481,1.25,0.805s0.453,0.732,0.561,1.224
			c0.059,0.309,0.089,0.862,0.089,1.662v2.399c0,1.673,0.038,2.731,0.117,3.175c0.077,0.442,0.229,0.869,0.455,1.275h-1.88
			C290.08,95.208,289.959,94.772,289.907,94.271z M289.757,90.25c-0.654,0.268-1.635,0.495-2.942,0.682
			c-0.738,0.106-1.263,0.226-1.57,0.359c-0.309,0.132-0.543,0.327-0.712,0.585c-0.166,0.257-0.249,0.541-0.249,0.854
			c0,0.48,0.182,0.881,0.544,1.201c0.364,0.32,0.896,0.48,1.595,0.48c0.694,0,1.31-0.152,1.851-0.456
			c0.539-0.303,0.936-0.719,1.19-1.246c0.193-0.405,0.291-1.006,0.291-1.799V90.25H289.757z"/>
		<path fill="#040000" d="M294.734,95.581V80.92h1.801v14.66H294.734z"/>
		<path fill="#040000" d="M306.065,95.581V80.92h5.531c0.975,0,1.717,0.047,2.23,0.14c0.72,0.119,1.323,0.349,1.81,0.685
			c0.487,0.337,0.878,0.81,1.176,1.416c0.294,0.606,0.444,1.272,0.444,2c0,1.247-0.396,2.301-1.19,3.166
			c-0.794,0.862-2.226,1.295-4.301,1.295h-3.759v5.959H306.065z M308.008,87.891h3.79c1.253,0,2.142-0.235,2.669-0.701
			c0.527-0.467,0.79-1.124,0.79-1.971c0-0.612-0.155-1.137-0.465-1.574s-0.719-0.725-1.225-0.865
			c-0.327-0.088-0.932-0.131-1.811-0.131h-3.749V87.891L308.008,87.891z"/>
		<path fill="#040000" d="M319.887,95.581V84.959h1.62v1.611c0.414-0.754,0.795-1.25,1.144-1.49
			c0.353-0.241,0.736-0.359,1.156-0.359c0.606,0,1.223,0.192,1.85,0.579l-0.618,1.672c-0.439-0.262-0.88-0.392-1.32-0.392
			c-0.394,0-0.748,0.118-1.062,0.354c-0.312,0.238-0.535,0.566-0.669,0.985c-0.201,0.642-0.3,1.341-0.3,2.102v5.56H319.887
			L319.887,95.581z"/>
		<path fill="#040000" d="M326.467,90.27c0-1.967,0.544-3.423,1.641-4.369c0.912-0.786,2.025-1.18,3.339-1.18
			c1.462,0,2.653,0.477,3.581,1.434c0.926,0.957,1.39,2.279,1.39,3.967c0,1.366-0.204,2.441-0.614,3.225
			c-0.41,0.784-1.008,1.393-1.79,1.826c-0.783,0.433-1.64,0.647-2.566,0.647c-1.486,0-2.688-0.477-3.604-1.429
			C326.924,93.438,326.467,92.065,326.467,90.27z M328.317,90.27c0,1.359,0.296,2.381,0.889,3.057
			c0.596,0.677,1.343,1.015,2.241,1.015c0.895,0,1.637-0.339,2.231-1.021c0.594-0.68,0.889-1.716,0.889-3.109
			c0-1.314-0.297-2.309-0.895-2.985c-0.597-0.679-1.339-1.016-2.226-1.016c-0.899,0-1.646,0.336-2.241,1.01
			C328.613,87.895,328.317,88.912,328.317,90.27z"/>
		<path fill="#040000" d="M342.869,93.971l0.26,1.589c-0.507,0.106-0.961,0.162-1.36,0.162c-0.653,0-1.16-0.104-1.521-0.312
			c-0.359-0.205-0.613-0.479-0.761-0.815c-0.146-0.336-0.22-1.045-0.22-2.126V86.36h-1.319v-1.4h1.319v-2.628l1.79-1.081v3.709
			h1.812v1.4h-1.812v6.212c0,0.514,0.032,0.843,0.096,0.989c0.063,0.146,0.166,0.264,0.31,0.351s0.35,0.13,0.614,0.13
			C342.278,94.042,342.542,94.016,342.869,93.971z"/>
		<path fill="#040000" d="M352.308,92.161l1.862,0.23c-0.295,1.087-0.837,1.93-1.632,2.53c-0.794,0.601-1.806,0.899-3.04,0.899
			c-1.554,0-2.785-0.479-3.695-1.434c-0.909-0.957-1.365-2.299-1.365-4.025c0-1.786,0.462-3.175,1.381-4.16
			c0.919-0.988,2.113-1.48,3.581-1.48c1.42,0,2.58,0.483,3.479,1.45c0.902,0.967,1.351,2.325,1.351,4.079
			c0,0.106-0.003,0.268-0.009,0.481h-7.921c0.066,1.167,0.396,2.059,0.989,2.681c0.594,0.618,1.334,0.929,2.221,0.929
			c0.66,0,1.224-0.173,1.689-0.521C351.665,93.475,352.036,92.921,352.308,92.161z M346.398,89.252h5.931
			c-0.082-0.895-0.307-1.564-0.681-2.012c-0.575-0.694-1.317-1.039-2.23-1.039c-0.828,0-1.521,0.275-2.085,0.829
			C346.771,87.584,346.458,88.325,346.398,89.252z"/>
		<path fill="#040000" d="M363.77,91.692l1.77,0.229c-0.195,1.221-0.688,2.175-1.484,2.866c-0.798,0.69-1.776,1.034-2.937,1.034
			c-1.455,0-2.622-0.473-3.505-1.424c-0.885-0.951-1.325-2.312-1.325-4.086c0-1.146,0.189-2.149,0.57-3.011
			c0.38-0.858,0.958-1.505,1.733-1.935c0.777-0.432,1.623-0.646,2.537-0.646c1.153,0,2.098,0.293,2.83,0.875
			c0.733,0.583,1.205,1.411,1.411,2.485l-1.751,0.27c-0.167-0.714-0.464-1.249-0.884-1.609c-0.425-0.359-0.938-0.541-1.538-0.541
			c-0.905,0-1.643,0.325-2.209,0.976s-0.851,1.681-0.851,3.086c0,1.429,0.276,2.465,0.821,3.111c0.547,0.645,1.259,0.969,2.14,0.969
			c0.708,0,1.296-0.216,1.77-0.647C363.342,93.258,363.642,92.591,363.77,91.692z"/>
		<path fill="#040000" d="M371.42,93.971l0.261,1.589c-0.509,0.106-0.96,0.162-1.36,0.162c-0.654,0-1.16-0.104-1.521-0.312
			c-0.36-0.205-0.614-0.479-0.759-0.815c-0.148-0.336-0.223-1.045-0.223-2.126V86.36H366.5v-1.4h1.319v-2.628l1.79-1.081v3.709
			h1.812v1.4h-1.812v6.212c0,0.514,0.033,0.843,0.095,0.989c0.063,0.146,0.169,0.264,0.311,0.351c0.145,0.087,0.35,0.13,0.615,0.13
			C370.831,94.042,371.092,94.016,371.42,93.971z"/>
		<path fill="#040000" d="M373.6,82.99V80.92h1.8v2.069H373.6z M373.6,95.581V84.959h1.8v10.621H373.6z"/>
		<path fill="#040000" d="M377.88,90.27c0-1.967,0.546-3.423,1.64-4.369c0.913-0.786,2.027-1.18,3.341-1.18
			c1.459,0,2.652,0.477,3.58,1.434c0.926,0.957,1.39,2.279,1.39,3.967c0,1.366-0.204,2.441-0.613,3.225
			c-0.41,0.784-1.008,1.393-1.79,1.826c-0.785,0.433-1.64,0.647-2.566,0.647c-1.487,0-2.688-0.477-3.605-1.429
			C378.336,93.438,377.88,92.065,377.88,90.27z M379.729,90.27c0,1.359,0.299,2.381,0.892,3.057c0.594,0.677,1.34,1.015,2.24,1.015
			c0.893,0,1.638-0.339,2.23-1.021c0.593-0.68,0.891-1.716,0.891-3.109c0-1.314-0.3-2.309-0.897-2.985
			c-0.596-0.679-1.337-1.016-2.224-1.016c-0.9,0-1.646,0.336-2.24,1.01C380.028,87.895,379.729,88.912,379.729,90.27z"/>
		<path fill="#040000" d="M390.348,95.581V84.959h1.622v1.511c0.777-1.167,1.905-1.751,3.379-1.751c0.64,0,1.228,0.116,1.765,0.345
			c0.537,0.23,0.938,0.533,1.205,0.907c0.266,0.372,0.453,0.815,0.561,1.329c0.066,0.334,0.101,0.916,0.101,1.751v6.529h-1.802
			v-6.459c0-0.734-0.068-1.282-0.207-1.646c-0.14-0.363-0.391-0.653-0.748-0.871c-0.354-0.216-0.771-0.324-1.252-0.324
			c-0.767,0-1.429,0.243-1.985,0.73c-0.557,0.486-0.836,1.409-0.836,2.771v5.8H390.348L390.348,95.581z"/>
		<path fill="#040000" d="M405.742,95.581l5.63-14.66h2.09l6.001,14.66h-2.21l-1.71-4.439h-6.131l-1.612,4.439H405.742z
			 M409.971,89.561h4.971l-1.531-4.062c-0.466-1.233-0.812-2.245-1.039-3.039c-0.187,0.94-0.452,1.873-0.792,2.8L409.971,89.561z"/>
		<path fill="#040000" d="M428.082,95.581v-1.338c-0.673,1.053-1.662,1.577-2.97,1.577c-0.846,0-1.625-0.233-2.335-0.699
			c-0.709-0.465-1.26-1.117-1.651-1.954c-0.39-0.836-0.583-1.799-0.583-2.886c0-1.06,0.174-2.022,0.529-2.885
			c0.354-0.862,0.883-1.525,1.591-1.985c0.706-0.461,1.496-0.689,2.369-0.689c0.64,0,1.209,0.134,1.712,0.405
			c0.497,0.27,0.905,0.621,1.219,1.056V80.92h1.79v14.66H428.082z M422.391,90.281c0,1.36,0.286,2.377,0.86,3.051
			c0.575,0.673,1.25,1.01,2.028,1.01c0.79,0,1.457-0.32,2.008-0.965c0.548-0.644,0.824-1.626,0.824-2.945
			c0-1.455-0.279-2.521-0.84-3.2c-0.561-0.681-1.25-1.021-2.07-1.021c-0.8,0-1.468,0.326-2.005,0.979
			C422.661,87.843,422.391,88.874,422.391,90.281z"/>
		<path fill="#040000" d="M432.991,95.581V84.959h1.612v1.492c0.334-0.521,0.777-0.94,1.331-1.256
			c0.55-0.316,1.181-0.475,1.888-0.475c0.788,0,1.432,0.163,1.937,0.489c0.502,0.327,0.859,0.783,1.063,1.37
			c0.841-1.24,1.934-1.859,3.283-1.859c1.051,0,1.861,0.291,2.429,0.874c0.568,0.583,0.85,1.482,0.85,2.694v7.291h-1.79v-6.689
			c0-0.721-0.057-1.239-0.174-1.556s-0.329-0.572-0.636-0.765c-0.307-0.193-0.666-0.29-1.08-0.29c-0.748,0-1.366,0.249-1.86,0.745
			s-0.739,1.292-0.739,2.386v6.17h-1.801v-6.9c0-0.799-0.146-1.399-0.439-1.8c-0.294-0.398-0.773-0.6-1.439-0.6
			c-0.508,0-0.977,0.133-1.405,0.4c-0.43,0.266-0.743,0.656-0.936,1.169c-0.193,0.514-0.291,1.254-0.291,2.22v5.51H432.991
			L432.991,95.581z"/>
		<path fill="#040000" d="M450.472,82.99V80.92h1.8v2.069H450.472z M450.472,95.581V84.959h1.8v10.621H450.472z"/>
		<path fill="#040000" d="M455.423,95.581V84.959h1.621v1.511c0.779-1.167,1.906-1.751,3.379-1.751c0.641,0,1.229,0.116,1.764,0.345
			c0.538,0.23,0.938,0.533,1.208,0.907c0.266,0.372,0.452,0.815,0.561,1.329c0.065,0.334,0.097,0.916,0.097,1.751v6.529h-1.799
			v-6.459c0-0.734-0.07-1.282-0.208-1.646c-0.142-0.363-0.39-0.653-0.746-0.871c-0.357-0.216-0.774-0.324-1.254-0.324
			c-0.767,0-1.431,0.243-1.986,0.73c-0.557,0.486-0.836,1.409-0.836,2.771v5.8H455.423L455.423,95.581z"/>
		<path fill="#040000" d="M467.234,82.99V80.92h1.8v2.069H467.234z M467.234,95.581V84.959h1.8v10.621H467.234z"/>
		<path fill="#040000" d="M471.461,92.412l1.781-0.279c0.1,0.713,0.379,1.26,0.838,1.64c0.455,0.379,1.093,0.569,1.911,0.569
			c0.831,0,1.44-0.167,1.841-0.505c0.399-0.336,0.6-0.73,0.6-1.185c0-0.407-0.176-0.727-0.53-0.96
			c-0.244-0.16-0.858-0.363-1.84-0.61c-1.319-0.334-2.235-0.621-2.745-0.865c-0.51-0.243-0.896-0.58-1.16-1.01
			c-0.263-0.43-0.395-0.906-0.395-1.426c0-0.475,0.107-0.912,0.326-1.315c0.215-0.404,0.51-0.737,0.885-1.006
			c0.28-0.205,0.661-0.382,1.145-0.525c0.482-0.144,1.001-0.215,1.555-0.215c0.833,0,1.565,0.12,2.195,0.359
			c0.631,0.241,1.096,0.566,1.396,0.977s0.507,0.959,0.62,1.645l-1.76,0.24c-0.083-0.546-0.313-0.972-0.696-1.279
			c-0.382-0.309-0.925-0.462-1.624-0.462c-0.826,0-1.418,0.139-1.771,0.411c-0.353,0.273-0.53,0.594-0.53,0.96
			c0,0.233,0.074,0.443,0.221,0.629c0.146,0.194,0.378,0.353,0.69,0.48c0.178,0.066,0.71,0.221,1.589,0.46
			c1.273,0.342,2.163,0.619,2.664,0.836c0.505,0.218,0.901,0.532,1.187,0.946c0.286,0.414,0.43,0.927,0.43,1.539
			c0,0.601-0.176,1.167-0.526,1.695c-0.349,0.531-0.854,0.939-1.514,1.229c-0.662,0.29-1.407,0.435-2.24,0.435
			c-1.382,0-2.432-0.284-3.156-0.859C472.123,94.386,471.664,93.537,471.461,92.412z"/>
		<path fill="#040000" d="M486.765,93.971l0.259,1.589c-0.506,0.106-0.959,0.162-1.359,0.162c-0.652,0-1.161-0.104-1.521-0.312
			c-0.359-0.205-0.613-0.479-0.762-0.815c-0.145-0.336-0.217-1.045-0.217-2.126V86.36h-1.32v-1.4h1.32v-2.628l1.789-1.081v3.709
			h1.811v1.4h-1.811v6.212c0,0.514,0.031,0.843,0.094,0.989c0.063,0.146,0.168,0.264,0.313,0.351c0.142,0.087,0.348,0.13,0.613,0.13
			C486.175,94.042,486.439,94.016,486.765,93.971z"/>
		<path fill="#040000" d="M488.914,95.581V84.959h1.619v1.611c0.414-0.754,0.799-1.25,1.146-1.49
			c0.35-0.241,0.733-0.359,1.154-0.359c0.607,0,1.223,0.192,1.852,0.579l-0.622,1.672c-0.439-0.262-0.878-0.392-1.317-0.392
			c-0.393,0-0.747,0.118-1.06,0.354c-0.313,0.238-0.538,0.566-0.672,0.985c-0.199,0.642-0.299,1.341-0.299,2.102v5.56H488.914
			L488.914,95.581z"/>
		<path fill="#040000" d="M503.095,94.271c-0.665,0.566-1.31,0.968-1.925,1.2c-0.616,0.233-1.28,0.35-1.987,0.35
			c-1.166,0-2.06-0.283-2.688-0.854c-0.626-0.57-0.94-1.3-0.94-2.186c0-0.521,0.119-0.994,0.354-1.426
			c0.237-0.43,0.546-0.774,0.931-1.034c0.382-0.26,0.813-0.457,1.294-0.59c0.353-0.095,0.888-0.186,1.601-0.271
			c1.453-0.173,2.524-0.379,3.21-0.619c0.007-0.248,0.011-0.404,0.011-0.47c0-0.734-0.17-1.251-0.511-1.55
			c-0.46-0.407-1.143-0.61-2.05-0.61c-0.847,0-1.472,0.148-1.875,0.444s-0.702,0.822-0.896,1.575l-1.76-0.24
			c0.16-0.753,0.422-1.361,0.789-1.825c0.368-0.464,0.897-0.821,1.59-1.07c0.694-0.249,1.497-0.374,2.411-0.374
			c0.908,0,1.644,0.104,2.21,0.319c0.568,0.214,0.983,0.481,1.251,0.805c0.266,0.323,0.452,0.732,0.561,1.224
			c0.059,0.309,0.089,0.862,0.089,1.662v2.399c0,1.673,0.04,2.731,0.116,3.175c0.076,0.442,0.229,0.869,0.454,1.275h-1.881
			C503.267,95.208,503.149,94.772,503.095,94.271z M502.946,90.25c-0.654,0.268-1.633,0.495-2.942,0.682
			c-0.74,0.106-1.263,0.226-1.569,0.359c-0.308,0.132-0.544,0.327-0.711,0.585c-0.165,0.257-0.249,0.541-0.249,0.854
			c0,0.48,0.181,0.881,0.544,1.201c0.364,0.32,0.896,0.48,1.596,0.48c0.694,0,1.309-0.152,1.85-0.456
			c0.54-0.303,0.938-0.719,1.19-1.246c0.193-0.405,0.29-1.006,0.29-1.799V90.25H502.946z"/>
		<path fill="#040000" d="M511.896,93.971l0.259,1.589c-0.506,0.106-0.959,0.162-1.359,0.162c-0.652,0-1.161-0.104-1.521-0.312
			c-0.359-0.205-0.611-0.479-0.76-0.815c-0.146-0.336-0.219-1.045-0.219-2.126V86.36h-1.32v-1.4h1.32v-2.628l1.789-1.081v3.709
			h1.811v1.4h-1.811v6.212c0,0.514,0.032,0.843,0.097,0.989c0.06,0.146,0.165,0.264,0.31,0.351c0.142,0.087,0.348,0.13,0.614,0.13
			C511.306,94.042,511.569,94.016,511.896,93.971z"/>
		<path fill="#040000" d="M514.075,82.99V80.92h1.8v2.069H514.075z M514.075,95.581V84.959h1.8v10.621H514.075z"/>
		<path fill="#040000" d="M518.356,90.27c0-1.967,0.547-3.423,1.64-4.369c0.913-0.786,2.026-1.18,3.34-1.18
			c1.461,0,2.653,0.477,3.581,1.434s1.39,2.279,1.39,3.967c0,1.366-0.204,2.441-0.615,3.225c-0.408,0.784-1.005,1.393-1.79,1.826
			c-0.783,0.433-1.639,0.647-2.565,0.647c-1.487,0-2.688-0.477-3.605-1.429C518.811,93.438,518.356,92.065,518.356,90.27z
			 M520.207,90.27c0,1.359,0.296,2.381,0.889,3.057c0.593,0.677,1.341,1.015,2.24,1.015c0.895,0,1.637-0.339,2.231-1.021
			c0.593-0.68,0.89-1.716,0.89-3.109c0-1.314-0.299-2.309-0.895-2.985c-0.598-0.679-1.34-1.016-2.227-1.016
			c-0.899,0-1.647,0.336-2.24,1.01C520.502,87.895,520.207,88.912,520.207,90.27z"/>
		<path fill="#040000" d="M530.827,95.581V84.959h1.621v1.511c0.779-1.167,1.906-1.751,3.379-1.751c0.641,0,1.229,0.116,1.764,0.345
			c0.538,0.23,0.938,0.533,1.207,0.907c0.267,0.372,0.453,0.815,0.56,1.329c0.067,0.334,0.101,0.916,0.101,1.751v6.529h-1.802
			v-6.459c0-0.734-0.069-1.282-0.207-1.646c-0.142-0.363-0.391-0.653-0.747-0.871c-0.356-0.216-0.773-0.324-1.254-0.324
			c-0.767,0-1.43,0.243-1.985,0.73c-0.557,0.486-0.837,1.409-0.837,2.771v5.8H530.827L530.827,95.581z"/>
		<path fill="#040000" d="M163.76,120.161v-14.662h10.601v1.729h-8.662v4.491h8.111v1.721h-8.111v4.99h9v1.73H163.76z"/>
		<path fill="#040000" d="M176.361,120.161l3.88-5.521l-3.591-5.102h2.25l1.63,2.491c0.307,0.472,0.554,0.87,0.74,1.188
			c0.294-0.439,0.564-0.829,0.811-1.167l1.79-2.513h2.151l-3.671,5.001l3.95,5.621h-2.21l-2.18-3.3l-0.58-0.89l-2.79,4.189H176.361
			L176.361,120.161z"/>
		<path fill="#040000" d="M195.482,116.739l1.86,0.231c-0.293,1.085-0.836,1.929-1.63,2.529c-0.794,0.6-1.807,0.9-3.04,0.9
			c-1.555,0-2.785-0.478-3.696-1.434c-0.909-0.958-1.365-2.3-1.365-4.025c0-1.788,0.46-3.173,1.38-4.162
			c0.92-0.984,2.114-1.479,3.581-1.479c1.42,0,2.58,0.484,3.48,1.451s1.35,2.326,1.35,4.079c0,0.106-0.003,0.268-0.01,0.48h-7.921
			c0.067,1.168,0.397,2.06,0.991,2.682c0.593,0.62,1.334,0.929,2.22,0.929c0.66,0,1.224-0.173,1.69-0.52
			C194.838,118.052,195.209,117.5,195.482,116.739z M189.572,113.829h5.931c-0.081-0.894-0.307-1.563-0.681-2.011
			c-0.573-0.693-1.317-1.04-2.229-1.04c-0.827,0-1.522,0.277-2.085,0.83C189.943,112.164,189.631,112.902,189.572,113.829z"/>
		<path fill="#040000" d="M206.941,116.268l1.771,0.231c-0.193,1.221-0.689,2.175-1.484,2.866c-0.797,0.688-1.776,1.034-2.936,1.034
			c-1.453,0-2.622-0.475-3.505-1.426c-0.883-0.95-1.326-2.313-1.326-4.085c0-1.148,0.19-2.151,0.57-3.011
			c0.38-0.862,0.958-1.505,1.736-1.936c0.776-0.43,1.622-0.646,2.535-0.646c1.153,0,2.096,0.293,2.83,0.875
			c0.734,0.584,1.204,1.412,1.409,2.486l-1.749,0.27c-0.167-0.714-0.462-1.249-0.886-1.609s-0.934-0.541-1.535-0.541
			c-0.906,0-1.644,0.325-2.21,0.976c-0.566,0.651-0.85,1.678-0.85,3.086c0,1.427,0.273,2.464,0.82,3.109
			c0.546,0.646,1.26,0.971,2.14,0.971c0.707,0,1.297-0.218,1.771-0.649C206.516,117.836,206.815,117.169,206.941,116.268z"/>
		<path fill="#040000" d="M217.623,120.161V118.6c-0.826,1.2-1.95,1.8-3.371,1.8c-0.627,0-1.211-0.119-1.754-0.359
			c-0.544-0.24-0.947-0.543-1.211-0.906c-0.262-0.363-0.448-0.809-0.555-1.334c-0.074-0.354-0.11-0.915-0.11-1.681v-6.583h1.799
			v5.892c0,0.94,0.037,1.574,0.111,1.901c0.113,0.473,0.354,0.843,0.721,1.113c0.367,0.271,0.82,0.406,1.36,0.406
			c0.539,0,1.046-0.14,1.52-0.416c0.473-0.276,0.809-0.652,1.005-1.131c0.196-0.477,0.294-1.168,0.294-2.074v-5.691h1.799v10.622
			h-1.609V120.161z"/>
		<path fill="#040000" d="M226.393,118.549l0.26,1.591c-0.507,0.105-0.959,0.159-1.36,0.159c-0.654,0-1.16-0.103-1.521-0.31
			c-0.36-0.207-0.613-0.479-0.76-0.815c-0.147-0.336-0.221-1.046-0.221-2.125v-6.11h-1.319v-1.4h1.319v-2.63l1.791-1.08v3.71h1.81
			v1.4h-1.81v6.211c0,0.512,0.032,0.844,0.095,0.988c0.063,0.146,0.167,0.266,0.31,0.352c0.143,0.085,0.349,0.129,0.615,0.129
			C225.803,118.619,226.066,118.596,226.393,118.549z"/>
		<path fill="#040000" d="M228.573,107.569v-2.07h1.799v2.07H228.573z M228.573,120.161v-10.622h1.799v10.622H228.573z"/>
		<path fill="#040000" d="M236.474,120.161l-4.04-10.622h1.9l2.281,6.359c0.246,0.688,0.473,1.401,0.68,2.143
			c0.161-0.561,0.384-1.235,0.67-2.021l2.359-6.48h1.852l-4.021,10.622H236.474z"/>
		<path fill="#040000" d="M251.444,116.739l1.86,0.231c-0.294,1.085-0.836,1.929-1.631,2.529c-0.794,0.6-1.807,0.9-3.04,0.9
			c-1.554,0-2.785-0.478-3.696-1.434c-0.909-0.958-1.365-2.3-1.365-4.025c0-1.788,0.46-3.173,1.381-4.162
			c0.919-0.984,2.114-1.479,3.581-1.479c1.42,0,2.58,0.484,3.48,1.451c0.9,0.967,1.35,2.326,1.35,4.079
			c0,0.106-0.003,0.268-0.009,0.48h-7.921c0.066,1.168,0.396,2.06,0.991,2.682c0.593,0.62,1.333,0.929,2.22,0.929
			c0.66,0,1.224-0.173,1.69-0.52C250.8,118.052,251.171,117.5,251.444,116.739z M245.534,113.829h5.931
			c-0.08-0.894-0.307-1.563-0.681-2.011c-0.573-0.693-1.317-1.04-2.23-1.04c-0.826,0-1.521,0.277-2.084,0.83
			C245.905,112.164,245.593,112.902,245.534,113.829z"/>
		<path fill="#040000" d="M266.065,120.161v-6.212l-5.65-8.45h2.359l2.891,4.421c0.534,0.826,1.031,1.653,1.49,2.48
			c0.439-0.768,0.973-1.631,1.6-2.59l2.84-4.312h2.26l-5.851,8.45v6.212H266.065z"/>
		<path fill="#040000" d="M281.605,120.161V118.6c-0.828,1.2-1.951,1.8-3.37,1.8c-0.627,0-1.212-0.119-1.756-0.359
			c-0.542-0.24-0.946-0.543-1.21-0.906c-0.262-0.363-0.448-0.809-0.555-1.334c-0.074-0.354-0.11-0.915-0.11-1.681v-6.583h1.799
			v5.892c0,0.94,0.037,1.574,0.111,1.901c0.113,0.473,0.353,0.843,0.72,1.113c0.366,0.271,0.819,0.406,1.36,0.406
			c0.539,0,1.046-0.14,1.52-0.416c0.472-0.276,0.808-0.652,1.005-1.131c0.197-0.477,0.294-1.168,0.294-2.074v-5.691h1.8v10.622
			h-1.609V120.161z"/>
		<path fill="#040000" d="M293.375,118.849c-0.666,0.566-1.308,0.967-1.926,1.2c-0.615,0.235-1.278,0.351-1.984,0.351
			c-1.167,0-2.064-0.284-2.69-0.855c-0.625-0.57-0.94-1.298-0.94-2.185c0-0.52,0.119-0.994,0.355-1.426
			c0.237-0.43,0.546-0.774,0.93-1.035c0.384-0.259,0.814-0.455,1.294-0.59c0.353-0.093,0.887-0.183,1.6-0.269
			c1.454-0.175,2.523-0.382,3.21-0.622c0.006-0.245,0.01-0.403,0.01-0.469c0-0.733-0.17-1.25-0.511-1.549
			c-0.458-0.408-1.143-0.611-2.048-0.611c-0.847,0-1.473,0.148-1.875,0.444c-0.404,0.298-0.702,0.821-0.896,1.575l-1.76-0.24
			c0.16-0.754,0.423-1.36,0.79-1.824c0.367-0.464,0.897-0.82,1.59-1.069c0.693-0.251,1.497-0.377,2.41-0.377
			c0.906,0,1.644,0.107,2.21,0.32c0.566,0.214,0.982,0.481,1.249,0.805c0.266,0.324,0.454,0.733,0.561,1.225
			c0.06,0.309,0.09,0.861,0.09,1.661v2.4c0,1.672,0.038,2.73,0.115,3.174c0.077,0.444,0.229,0.869,0.456,1.276h-1.881
			C293.549,119.787,293.431,119.349,293.375,118.849z M293.226,114.83c-0.653,0.267-1.635,0.494-2.942,0.681
			c-0.738,0.105-1.263,0.226-1.569,0.359c-0.308,0.133-0.544,0.328-0.711,0.584c-0.167,0.257-0.249,0.542-0.249,0.854
			c0,0.48,0.181,0.882,0.544,1.202c0.363,0.319,0.896,0.479,1.595,0.479c0.694,0,1.311-0.15,1.852-0.456
			c0.539-0.301,0.935-0.719,1.189-1.244c0.194-0.405,0.291-1.006,0.291-1.799L293.226,114.83L293.226,114.83z"/>
		<path fill="#040000" d="M298.247,120.161v-10.622h1.619v1.51c0.78-1.166,1.908-1.75,3.381-1.75c0.64,0,1.228,0.115,1.765,0.346
			s0.938,0.53,1.206,0.905c0.268,0.374,0.452,0.816,0.56,1.33c0.065,0.333,0.1,0.917,0.1,1.75v6.531h-1.8v-6.462
			c0-0.732-0.069-1.282-0.211-1.646c-0.139-0.363-0.389-0.651-0.744-0.87c-0.356-0.217-0.775-0.325-1.256-0.325
			c-0.766,0-1.428,0.243-1.984,0.729c-0.557,0.488-0.834,1.411-0.834,2.771v5.801L298.247,120.161L298.247,120.161z"/>
		<path fill="#040000" d="M310.516,120.161v-2.051h2.051v2.051c0,0.753-0.133,1.361-0.398,1.824
			c-0.269,0.464-0.691,0.822-1.272,1.074l-0.501-0.769c0.382-0.167,0.662-0.412,0.841-0.735c0.18-0.323,0.28-0.788,0.301-1.395
			H310.516L310.516,120.161z"/>
		<path fill="#040000" d="M322.506,120.161v-14.662h6.501c1.306,0,2.302,0.132,2.981,0.395c0.68,0.265,1.223,0.728,1.63,1.396
			c0.407,0.666,0.61,1.402,0.61,2.208c0,1.04-0.338,1.917-1.011,2.632c-0.673,0.713-1.713,1.167-3.12,1.359
			c0.513,0.246,0.904,0.489,1.17,0.729c0.566,0.52,1.102,1.171,1.609,1.95l2.552,3.99h-2.44l-1.941-3.052
			c-0.566-0.879-1.033-1.552-1.4-2.019c-0.366-0.468-0.695-0.795-0.984-0.981c-0.29-0.186-0.584-0.316-0.884-0.39
			c-0.22-0.048-0.581-0.071-1.081-0.071h-2.25v6.512h-1.941V120.161z M324.448,111.968h4.17c0.888,0,1.579-0.092,2.081-0.275
			c0.501-0.183,0.879-0.478,1.139-0.88c0.261-0.403,0.391-0.842,0.391-1.316c0-0.692-0.252-1.264-0.757-1.709
			c-0.504-0.447-1.298-0.67-2.385-0.67h-4.641v4.851H324.448z"/>
		<path fill="#040000" d="M337.958,120.161v-2.051h2.051v2.051H337.958z"/>
		<path fill="#040000" d="M343.188,113.019c0-2.434,0.652-4.338,1.96-5.715c1.306-1.379,2.993-2.065,5.062-2.065
			c1.353,0,2.573,0.324,3.659,0.97c1.087,0.646,1.915,1.548,2.485,2.706c0.57,1.156,0.855,2.468,0.855,3.934
			c0,1.487-0.302,2.818-0.901,3.992c-0.6,1.172-1.449,2.06-2.548,2.664c-1.102,0.604-2.288,0.905-3.562,0.905
			c-1.381,0-2.615-0.333-3.701-1s-1.91-1.577-2.47-2.73C343.467,115.525,343.188,114.305,343.188,113.019z M345.188,113.047
			c0,1.768,0.475,3.16,1.425,4.176c0.951,1.02,2.143,1.525,3.576,1.525c1.461,0,2.662-0.513,3.604-1.539
			c0.945-1.027,1.416-2.484,1.416-4.37c0-1.194-0.202-2.234-0.604-3.125c-0.404-0.89-0.993-1.581-1.771-2.07
			c-0.774-0.489-1.647-0.735-2.615-0.735c-1.373,0-2.555,0.472-3.545,1.417C345.682,109.267,345.188,110.843,345.188,113.047z"/>
		<path fill="#040000" d="M360.4,120.161v-2.051h2.051v2.051H360.4z"/>
		<path fill="#040000" d="M376.68,115.019l1.941,0.491c-0.408,1.593-1.139,2.809-2.196,3.645c-1.058,0.837-2.349,1.255-3.875,1.255
			c-1.581,0-2.866-0.321-3.856-0.965c-0.989-0.643-1.742-1.575-2.26-2.796c-0.517-1.219-0.776-2.529-0.776-3.93
			c0-1.527,0.293-2.858,0.874-3.995c0.585-1.137,1.415-2,2.492-2.591c1.076-0.59,2.263-0.886,3.554-0.886
			c1.47,0,2.702,0.373,3.701,1.122c1.001,0.746,1.696,1.796,2.092,3.149l-1.91,0.45c-0.34-1.067-0.835-1.844-1.481-2.33
			s-1.46-0.729-2.439-0.729c-1.126,0-2.068,0.27-2.824,0.81c-0.758,0.538-1.29,1.266-1.595,2.175
			c-0.308,0.91-0.462,1.849-0.462,2.815c0,1.247,0.184,2.336,0.545,3.265c0.364,0.931,0.929,1.626,1.694,2.085
			c0.767,0.463,1.597,0.69,2.49,0.69c1.088,0,2.007-0.313,2.761-0.941C375.904,117.183,376.412,116.252,376.68,115.019z"/>
		<path fill="#040000" d="M381.701,120.161v-2.051h2.049v2.051H381.701z"/>
		<path fill="#040000" d="M390.73,124.469c-0.993-1.253-1.833-2.721-2.52-4.399c-0.688-1.68-1.03-3.421-1.03-5.221
			c0-1.587,0.256-3.106,0.771-4.561c0.601-1.686,1.525-3.366,2.779-5.041h1.29c-0.808,1.389-1.342,2.377-1.601,2.972
			c-0.406,0.919-0.726,1.88-0.961,2.879c-0.285,1.247-0.427,2.502-0.427,3.762c0,3.206,0.996,6.41,2.988,9.61L390.73,124.469
			L390.73,124.469z"/>
		<path fill="#040000" d="M398.48,120.161v-12.933h-4.831V105.5h11.62v1.729h-4.848v12.933H398.48z"/>
		<path fill="#040000" d="M412.099,118.849c-0.665,0.566-1.307,0.967-1.925,1.2c-0.613,0.235-1.278,0.351-1.984,0.351
			c-1.167,0-2.063-0.284-2.69-0.855c-0.625-0.57-0.939-1.298-0.939-2.185c0-0.52,0.118-0.994,0.354-1.426
			c0.236-0.43,0.547-0.774,0.932-1.035c0.382-0.259,0.813-0.455,1.293-0.59c0.354-0.093,0.887-0.183,1.601-0.269
			c1.454-0.175,2.523-0.382,3.21-0.622c0.008-0.245,0.012-0.403,0.012-0.469c0-0.733-0.171-1.25-0.513-1.549
			c-0.458-0.408-1.143-0.611-2.048-0.611c-0.848,0-1.471,0.148-1.876,0.444c-0.403,0.298-0.702,0.821-0.895,1.575l-1.761-0.24
			c0.159-0.754,0.424-1.36,0.79-1.824s0.897-0.82,1.589-1.069c0.694-0.251,1.498-0.377,2.411-0.377c0.908,0,1.644,0.107,2.211,0.32
			c0.567,0.214,0.982,0.481,1.25,0.805c0.266,0.324,0.453,0.733,0.561,1.225c0.058,0.309,0.089,0.861,0.089,1.661v2.4
			c0,1.672,0.04,2.73,0.115,3.174c0.078,0.444,0.229,0.869,0.455,1.276h-1.88C412.275,119.787,412.156,119.349,412.099,118.849z
			 M411.95,114.83c-0.651,0.267-1.633,0.494-2.94,0.681c-0.739,0.105-1.263,0.226-1.568,0.359c-0.309,0.133-0.545,0.328-0.713,0.584
			c-0.164,0.257-0.248,0.542-0.248,0.854c0,0.48,0.181,0.882,0.545,1.202c0.363,0.319,0.895,0.479,1.595,0.479
			c0.693,0,1.31-0.15,1.851-0.456c0.539-0.301,0.937-0.719,1.189-1.244c0.193-0.405,0.29-1.006,0.29-1.799V114.83L411.95,114.83z"/>
		<path fill="#040000" d="M416.982,107.569v-2.07h1.798v2.07H416.982z M416.982,120.161v-10.622h1.798v10.622H416.982z"/>
		<path fill="#040000" d="M423.892,120.161l-3.251-10.622h1.862l1.688,6.132l0.631,2.28c0.026-0.114,0.21-0.845,0.55-2.19
			l1.69-6.222h1.849l1.59,6.161l0.532,2.031l0.609-2.051l1.82-6.142h1.75l-3.32,10.622h-1.871l-1.689-6.36l-0.41-1.811l-2.15,8.171
			H423.892L423.892,120.161z"/>
		<path fill="#040000" d="M444.064,118.849c-0.668,0.566-1.311,0.967-1.925,1.2c-0.617,0.235-1.279,0.351-1.986,0.351
			c-1.167,0-2.063-0.284-2.688-0.855c-0.629-0.57-0.942-1.298-0.942-2.185c0-0.52,0.119-0.994,0.354-1.426
			c0.236-0.43,0.548-0.774,0.931-1.035c0.384-0.259,0.814-0.455,1.295-0.59c0.353-0.093,0.887-0.183,1.601-0.269
			c1.452-0.175,2.523-0.382,3.21-0.622c0.006-0.245,0.01-0.403,0.01-0.469c0-0.733-0.169-1.25-0.511-1.549
			c-0.458-0.408-1.142-0.611-2.05-0.611c-0.848,0-1.472,0.148-1.875,0.444c-0.402,0.298-0.699,0.821-0.895,1.575l-1.76-0.24
			c0.159-0.754,0.422-1.36,0.79-1.824c0.366-0.464,0.895-0.82,1.589-1.069c0.693-0.251,1.498-0.377,2.411-0.377
			c0.907,0,1.644,0.107,2.21,0.32c0.565,0.214,0.983,0.481,1.249,0.805c0.269,0.324,0.455,0.733,0.56,1.225
			c0.062,0.309,0.092,0.861,0.092,1.661v2.4c0,1.672,0.037,2.73,0.114,3.174c0.077,0.444,0.228,0.869,0.456,1.276h-1.88
			C444.235,119.787,444.115,119.349,444.064,118.849z M443.915,114.83c-0.654,0.267-1.635,0.494-2.942,0.681
			c-0.739,0.105-1.264,0.226-1.571,0.359c-0.305,0.133-0.543,0.328-0.709,0.584c-0.166,0.257-0.25,0.542-0.25,0.854
			c0,0.48,0.182,0.882,0.546,1.202c0.363,0.319,0.894,0.479,1.594,0.479c0.693,0,1.311-0.15,1.852-0.456
			c0.539-0.301,0.936-0.719,1.189-1.244c0.194-0.405,0.29-1.006,0.29-1.799v-0.66H443.915z"/>
		<path fill="#040000" d="M448.933,120.161v-10.622h1.621v1.51c0.779-1.166,1.906-1.75,3.379-1.75c0.64,0,1.229,0.115,1.764,0.346
			c0.539,0.23,0.94,0.53,1.207,0.905c0.268,0.374,0.454,0.816,0.56,1.33c0.068,0.333,0.102,0.917,0.102,1.75v6.531h-1.801v-6.462
			c0-0.732-0.071-1.282-0.21-1.646c-0.142-0.363-0.388-0.651-0.744-0.87c-0.357-0.217-0.776-0.325-1.256-0.325
			c-0.767,0-1.429,0.243-1.984,0.729c-0.558,0.488-0.837,1.411-0.837,2.771v5.801L448.933,120.161L448.933,120.161z"/>
		<path fill="#040000" d="M461.915,124.469h-1.29c1.993-3.2,2.99-6.403,2.99-9.61c0-1.254-0.145-2.497-0.431-3.731
			c-0.226-0.999-0.543-1.96-0.949-2.879c-0.261-0.599-0.797-1.6-1.61-3.001h1.29c1.254,1.675,2.178,3.355,2.779,5.041
			c0.515,1.454,0.769,2.974,0.769,4.561c0,1.8-0.345,3.541-1.033,5.221C463.74,121.749,462.899,123.216,461.915,124.469z"/>
	</g>
</g>
</svg>
