<?xml version="1.0" encoding="utf-8"?>
<!-- Generator: Adobe Illustrator 22.1.0, SVG Export Plug-In . SVG Version: 6.00 Build 0)  -->
<svg version="1.1" id="圖層_1" xmlns="http://www.w3.org/2000/svg" xmlns:xlink="http://www.w3.org/1999/xlink" x="0px" y="0px"
	 viewBox="0 0 47.5 47.5" style="enable-background:new 0 0 47.5 47.5;" xml:space="preserve">
<style type="text/css">
	.st0{fill-rule:evenodd;clip-rule:evenodd;fill:#357F65;}
	.st1{fill:#FCFDFD;}
</style>
<g>
	<path class="st0" d="M47.5,23.7c0,13.1-10.6,23.7-23.7,23.7C10.6,47.5,0,36.8,0,23.7C0,10.6,10.6,0,23.7,0
		C36.8,0,47.5,10.6,47.5,23.7"/>
</g>
<g>
	<path class="st1" d="M36.3,34.7H10.7c-1.5,0-2.7-1.2-2.7-2.7V15.5c0-1.5,1.2-2.7,2.7-2.7h25.7c1.5,0,2.7,1.2,2.7,2.7v16.4
		C39.1,33.4,37.8,34.7,36.3,34.7z M10.7,14.5c-0.5,0-1,0.5-1,1v16.4c0,0.6,0.4,1,1,1h25.7c0.5,0,1-0.5,1-1V15.5c0-0.6-0.4-1-1-1
		H10.7z"/>
	<path class="st1" d="M35.2,31.3c-0.2,0-0.4-0.1-0.6-0.2l-8.4-7.3c-0.4-0.3-0.4-0.9-0.1-1.2c0.3-0.4,0.9-0.4,1.2-0.1l8.4,7.3
		c0.4,0.3,0.4,0.9,0.1,1.2C35.7,31.2,35.4,31.3,35.2,31.3z"/>
	<path class="st1" d="M12.1,31.4c-0.2,0-0.5-0.1-0.7-0.3c-0.3-0.4-0.3-0.9,0.1-1.2l8.4-7.3c0.4-0.3,0.9-0.3,1.2,0.1
		c0.3,0.4,0.3,0.9-0.1,1.2l-8.4,7.3C12.5,31.3,12.3,31.4,12.1,31.4z"/>
	<path class="st1" d="M23.5,26.4c-0.2,0-0.4-0.1-0.6-0.2l-10.7-9.3c-0.4-0.3-0.4-0.9-0.1-1.2c0.3-0.4,0.9-0.4,1.2-0.1l10.1,8.8
		l10.1-8.8c0.4-0.3,0.9-0.3,1.2,0.1c0.3,0.4,0.3,0.9-0.1,1.2l-10.7,9.3C23.9,26.3,23.7,26.4,23.5,26.4z"/>
</g>
</svg>
