<?xml version="1.0" ?>
<!-- Uploaded to: SVG Repo, www.svgrepo.com, Generator: SVG Repo Mixer Tools -->
<svg width="800px" height="800px" viewBox="0 0 64 64" xmlns="http://www.w3.org/2000/svg">
<g id="a"/>
<g id="b"/>
<g id="c"/>
<g id="d"/>
<g id="e"/>
<g id="f"/>
<g id="g"/>
<g id="h"/>
<g id="i"/>
<g id="j"/>
<g id="k"/>
<g id="l"/>
<g id="m"/>
<g id="n"/>
<g id="o"/>
<g id="p"/>
<g id="q"/>
<g id="r"/>
<g id="s"/>
<g id="t"/>
<g id="u"/>
<g id="v"/>
<g id="w"/>
<g id="x"/>
<g id="y"/>
<g id="a`"/>
<g id="aa"/>
<g id="ab"/>
<g id="ac"/>
<g id="ad"/>
<g id="ae"/>
<g id="af"/>
<g id="ag"/>
<g id="ah">
<path d="M29.7,14.33c-1.15,0-2.08,.93-2.08,2.08s.93,2.08,2.08,2.08h7.56c.8,0,1.45,.65,1.45,1.46s-.65,1.46-1.45,1.46h-.67c-1.15,0-2.08,.93-2.08,2.08s.93,2.08,2.08,2.08h16.12c1.15,0,2.08-.93,2.08-2.08s-.93-2.08-2.08-2.08h-7.08c-.81,0-1.46-.65-1.46-1.46s.65-1.46,1.46-1.46h.89c1.15,0,2.08-.93,2.08-2.08s-.93-2.08-2.08-2.08H29.7Z" fill="#feccba" fill-rule="evenodd"/>
<path d="M7.26,47.59c6.38-18.59,16.23-18.66,23.66-14.8,.29,.15,.6,.32,.91,.52,0,0-2.76,12.83-7.09,15.46-4.32,2.64-17.48-1.18-17.48-1.18Z" fill="#e2eef2" fill-rule="evenodd"/>
<path d="M18.22,43.83c5.47-3.74,10.77-9.1,14.52-11.04,7.33-3.8,17.01-3.79,23.39,14.04l-25.66,5.49-12.25-8.5Z" fill="#f0f4f6" fill-rule="evenodd"/>
<path d="M55.16,30.62c0,1.02-.83,1.85-1.85,1.85s-1.85-.83-1.85-1.85,.83-1.85,1.85-1.85,1.85,.83,1.85,1.85Z" fill="#d1f1f4" fill-rule="evenodd"/>
<path d="M26.33,24.52c0,.9-.73,1.62-1.62,1.62s-1.62-.73-1.62-1.62,.73-1.62,1.62-1.62,1.62,.73,1.62,1.62Z" fill="#d1f1f4" fill-rule="evenodd"/>
<path d="M12.06,30.89c0,.9-.73,1.62-1.62,1.62s-1.62-.73-1.62-1.62,.73-1.62,1.62-1.62,1.62,.73,1.62,1.62Z" fill="#d1f1f4" fill-rule="evenodd"/>
<circle cx="37.55" cy="37.92" fill="#d1f1f4" r="1.62"/>
<path d="M29.19,6.34c1.23,0,2.22,.99,2.22,2.22s-.99,2.22-2.22,2.22h-10.27c-.86,0-1.55,.7-1.55,1.56s.69,1.55,1.55,1.56h.71c1.23,0,2.22,.99,2.22,2.22s-.99,2.22-2.22,2.22H8.7c-1.23,0-2.22-.99-2.22-2.22s.99-2.22,2.22-2.22h3.09c.86,0,1.56-.7,1.56-1.56s-.69-1.56-1.56-1.56h-.95c-1.23,0-2.22-.99-2.22-2.22s.99-2.22,2.22-2.22H29.19Z" fill="#feccba" fill-rule="evenodd"/>
<path d="M40.54,6.34h9.69c1.14,0,2.07,.92,2.07,2.07s-.92,2.07-2.07,2.07h-9.69c-1.14,0-2.07-.92-2.07-2.07s.92-2.07,2.07-2.07Z" fill="#feccba" fill-rule="evenodd"/>
<path d="M26.58,46.06c23.54,9.1,32.42,2.2,32.42,9.08,0,1.4-1.25,2.53-2.8,2.53H7.8c-1.55,0-2.8-1.13-2.8-2.53,0-2.95,1.2-16.95,21.58-9.08Z" fill="#a6e5f0" fill-rule="evenodd"/>
<path d="M37.42,46.06c-23.54,9.1-32.42,2.2-32.42,9.08,0,1.4,1.25,2.53,2.8,2.53H56.2c1.55,0,2.8-1.13,2.8-2.53,0-2.95-1.2-16.95-21.58-9.08Z" fill="#d1f1f4" fill-rule="evenodd"/>
<path d="M48.22,41.68c-3.14-.03-6.91,.73-11.52,2.51-4.03,1.56-7.61,2.63-10.77,3.38-1.08,.26-1.74,1.33-1.49,2.41,.25,1.08,1.33,1.74,2.41,1.49,3.34-.79,7.09-1.92,11.29-3.55,1.27-.49,2.46-.89,3.56-1.21,.96-.28,1.75,.36,1.75,1.35s.83,1.86,1.86,1.86,1.86-.83,1.86-1.86v-.43c0-1.06,.86-1.99,1.92-1.92,.24,.02,.47,.04,.69,.07,1.1,.14,2.1-.63,2.24-1.72,.14-1.1-.63-2.1-1.72-2.24-.66-.09-1.35-.13-2.07-.14Z" fill="#e2eef2" fill-rule="evenodd"/>
<path d="M29.7,14.33c-1.15,0-2.08,.93-2.08,2.08s.93,2.08,2.08,2.08h7.56c.81,0,1.45,.66,1.45,1.46s-.65,1.46-1.45,1.46h-.67c-1.15,0-2.08,.93-2.08,2.08s.93,2.08,2.08,2.08h16.12c1.15,0,2.08-.93,2.08-2.08s-.93-2.08-2.08-2.08h-7.08c-.81,0-1.46-.65-1.46-1.46s.65-1.46,1.46-1.46h.89c1.15,0,2.08-.93,2.08-2.08s-.93-2.08-2.08-2.08H29.7Zm10.84-7.99c-1.15,0-2.07,.92-2.07,2.07s.92,2.07,2.07,2.07h9.69c1.14,0,2.07-.92,2.07-2.07s-.92-2.07-2.07-2.07h-9.69Zm-29.7,0c-1.23,0-2.22,.99-2.22,2.22s.99,2.22,2.22,2.22h.95c.86,0,1.56,.7,1.56,1.56s-.7,1.56-1.56,1.56h-3.09c-1.23,0-2.22,.99-2.22,2.22s.99,2.22,2.22,2.22h10.93c1.23,0,2.22-.99,2.22-2.22s-.99-2.22-2.22-2.22h-.71c-.86,0-1.55-.7-1.55-1.56s.69-1.55,1.55-1.56h10.28c1.23,0,2.22-.99,2.22-2.22s-.99-2.22-2.22-2.22H10.84Z" fill="#f0f4f6" fill-rule="evenodd"/>
<circle cx="50.08" cy="48.52" fill="#a6e5f0" r="1"/>
<circle cx="44.47" cy="53.87" fill="#a6e5f0" r="1"/>
<circle cx="35.76" cy="52.25" fill="#a6e5f0" r="1"/>
<circle cx="15.71" cy="47.9" fill="#d1f1f4" r="1"/>
</g>
<g id="ai"/>
<g id="aj"/>
<g id="ak"/>
<g id="al"/>
<g id="am"/>
<g id="an"/>
<g id="ao"/>
<g id="ap"/>
<g id="aq"/>
<g id="ar"/>
<g id="as"/>
<g id="at"/>
<g id="au"/>
<g id="av"/>
<g id="aw"/>
<g id="ax"/>
</svg>