<?xml version="1.0" ?>
<!-- Uploaded to: SVG Repo, www.svgrepo.com, Generator: SVG Repo Mixer Tools -->
<svg width="800px" height="800px" viewBox="0 0 64 64" xmlns="http://www.w3.org/2000/svg">
<g id="a"/>
<g id="b"/>
<g id="c"/>
<g id="d"/>
<g id="e"/>
<g id="f"/>
<g id="g"/>
<g id="h"/>
<g id="i"/>
<g id="j"/>
<g id="k"/>
<g id="l"/>
<g id="m"/>
<g id="n"/>
<g id="o"/>
<g id="p"/>
<g id="q"/>
<g id="r"/>
<g id="s"/>
<g id="t"/>
<g id="u"/>
<g id="v"/>
<g id="w"/>
<g id="x"/>
<g id="y"/>
<g id="a`"/>
<g id="aa"/>
<g id="ab"/>
<g id="ac"/>
<g id="ad"/>
<g id="ae"/>
<g id="af"/>
<g id="ag"/>
<g id="ah"/>
<g id="ai"/>
<g id="aj"/>
<g id="ak"/>
<g id="al"/>
<g id="am"/>
<g id="an"/>
<g id="ao"/>
<g id="ap"/>
<g id="aq"/>
<g id="ar">
<path d="M21.54,55.44c-.55,0-1,.45-1,1s.45,1,1,1h26.35c.55,0,1-.44,1-1s-.45-1-1-1H21.54Z" fill="#9dacb9" fill-rule="evenodd"/>
<path d="M13.04,57.44H7.49c-1.33,0-2.42-1.08-2.42-2.41V28.78c0-1.33,1.08-2.42,2.42-2.42h2.36c1.86,0,3.67,.64,5.13,1.81l.09,.07,2.22,13.98v4.61l-4.25,10.61Z" fill="#e2eef2" fill-rule="evenodd"/>
<path d="M16.41,46.83c-1.87,0-3.38,1.51-3.38,3.38v7.23h8.51c1.33,0,2.41-1.08,2.41-2.41v-3.38c0-1.12-.4-2.19-1.13-3.04l-.42-.48c-.72-.82-1.76-1.3-2.85-1.3h-3.15Z" fill="#f0f4f6" fill-rule="evenodd"/>
<path d="M50.22,47.83l-2.99,.38c-.9,.12-1.65,.72-1.96,1.57,0,0-.27,.69-.38,2.3-.1,1.4,0,2.95,0,2.95,0,1.33,1.08,2.41,2.42,2.41h2.91l1.45-5.2-1.45-4.41Z" fill="#e2eef2" fill-rule="evenodd"/>
<path d="M50.22,57.44v-13.08c0-1.62,.31-3.23,.92-4.73l2.1-5.17c.33-.82,.94-1.49,1.72-1.89l.49-.25c1.62-.84,3.55,.34,3.55,2.16v20.55c0,1.33-1.08,2.41-2.42,2.41h-6.37Z" fill="#f0f4f6" fill-rule="evenodd"/>
<path d="M16.57,27.15l-1.81,2.55c-.19,.28-.3,.61-.3,.95v4.91c0,.34,.11,.67,.3,.95l1.81,2.55,10.09,1,8.22-1,1.81-2.55c.2-.28,.3-.61,.3-.95v-4.91c0-.34-.11-.67-.3-.95l-1.81-2.55-7.27-1.16-11.04,1.16Z" fill="#fdda5c" fill-rule="evenodd"/>
<path d="M33.9,13.84l-1.35,1.24,.55,1.72c7.96,2.13,15.93,4.26,23.9,6.4,.82,.22,1.66-.26,1.88-1.08s-.26-1.66-1.08-1.88c-7.96-2.13-15.93-4.27-23.89-6.4Z" fill="#d7e5eb" fill-rule="evenodd"/>
<path d="M6.47,6.56c-.65,.02-1.24,.47-1.42,1.13-.22,.82,.26,1.66,1.08,1.88l11.42,3.06,.93-1.26-.14-1.7L6.93,6.61c-.15-.04-.31-.06-.46-.05Z" fill="#d7e5eb" fill-rule="evenodd"/>
<path d="M21.09,15.91l-2.22-.6c-1.06-.28-1.68-1.36-1.39-2.41l.94-3.5c.28-1.06,1.36-1.68,2.41-1.39,.74,.19,1.48,.39,2.22,.59l7.31,1.96,2.22,.59c1.05,.29,1.68,1.36,1.39,2.42l-.94,3.5c-.28,1.05-1.36,1.67-2.41,1.39l-2.22-.59-7.31-1.96Z" fill="#8598ab" fill-rule="evenodd"/>
<path d="M24.23,18.37c-2.79-.82-4.42-3.71-3.67-6.52,.76-2.85,3.7-4.55,6.55-3.78,2.85,.76,4.55,3.69,3.78,6.55-.48,1.8-1.87,3.22-3.67,3.75h-3Z" fill="#9dacb9" fill-rule="evenodd"/>
<path d="M25.72,13.23c-.83,0-1.5,.67-1.5,1.5v6.94h3v-6.94c0-.83-.67-1.5-1.5-1.5Z" fill="#8598ab" fill-rule="evenodd"/>
<path d="M34.32,23.99v-.97c0-1.01-.82-1.83-1.83-1.83h-13.54c-1.01,0-1.83,.82-1.83,1.83v.97l8.73,1.4,8.46-1.4Z" fill="#fdda5c" fill-rule="evenodd"/>
<path d="M26.44,39.06v-5.99c0-.88-.71-1.58-1.58-1.58h-3.49c-.88,0-1.58,.7-1.58,1.58v5.99h6.65Z" fill="#f0f4f6" fill-rule="evenodd"/>
<path d="M46.71,25.94c-1.05,0-1.9,.85-1.9,1.9s.85,1.9,1.9,1.9h.81c.74,0,1.33,.6,1.33,1.34s-.6,1.33-1.33,1.33h-4.97c-1.05,0-1.9,.85-1.9,1.9s.85,1.9,1.9,1.9h9.98l2.74-3.8h-.11c-.74,0-1.33-.6-1.33-1.33s.59-1.33,1.33-1.34h1.89c1.05,0,1.9-.84,1.9-1.9s-.85-1.9-1.9-1.9h-10.33Z" fill="#d1f1f4" fill-rule="evenodd"/>
<polygon fill="#9dacb9" fill-rule="evenodd" points="23.29 50.82 45.69 50.82 45.5 53.37 23.29 53.37 23.29 50.82"/>
<path d="M31.1,39.06c.88,0,1.58,.71,1.58,1.58s-.71,1.58-1.58,1.58h3.78c.88,0,1.58-.7,1.58-1.58s-.7-1.58-1.58-1.58h-3.78Zm0-15.07c.88,0,1.58,.7,1.58,1.58s-.71,1.58-1.58,1.58h3.78c.88,0,1.58-.71,1.58-1.58s-.7-1.58-1.58-1.58h-3.78Z" fill="#62d9fa" fill-rule="evenodd"/>
<path d="M16.57,23.99h18.31c.88,0,1.58,.7,1.58,1.58s-.71,1.58-1.58,1.58H16.57c-.88,0-1.58-.7-1.58-1.58s.7-1.58,1.58-1.58Z" fill="#62d9fa" fill-rule="evenodd"/>
<path d="M16.57,39.06h18.31c.88,0,1.58,.71,1.58,1.58s-.71,1.58-1.58,1.58H16.57c-.88,0-1.58-.7-1.58-1.58s.7-1.58,1.58-1.58Z" fill="#62d9fa" fill-rule="evenodd"/>
<path d="M31.81,39.06c.88,0,1.58,.71,1.58,1.58s-.71,1.58-1.58,1.58h3.06c.88,0,1.58-.7,1.58-1.58s-.7-1.58-1.58-1.58h-3.06Zm0-15.07c.88,0,1.58,.7,1.58,1.58s-.71,1.58-1.58,1.58h3.06c.88,0,1.58-.71,1.58-1.58s-.7-1.58-1.58-1.58h-3.06Z" fill="#62d9fa" fill-rule="evenodd"/>
<path d="M9.05,35.01c-.55,0-1,.45-1,1v10.93c0,.55,.45,1,1,1s1-.45,1-1v-10.93c0-.55-.45-1-1-1Z" fill="#d7e5eb" fill-rule="evenodd"/>
<path d="M17.29,53.03c-.55,0-1,.44-1,1v1.41c0,.56,.45,1,1,1s1-.44,1-1v-1.41c0-.56-.45-1-1-1Z" fill="#e2eef2" fill-rule="evenodd"/>
<path d="M17.29,48.39c-.55,0-1,.45-1,1v1.31c0,.55,.45,1,1,1s1-.45,1-1v-1.31c0-.55-.45-1-1-1Z" fill="#e2eef2" fill-rule="evenodd"/>
<path d="M54.02,40.91c-.55,0-1,.45-1,1v2.28c0,.55,.45,1,1,1s1-.45,1-1v-2.28c0-.55-.45-1-1-1Z" fill="#d7e5eb" fill-rule="evenodd"/>
<path d="M54.02,47.81c-.55,0-1,.45-1,1v6.63c0,.56,.45,1,1,1s1-.44,1-1v-6.63c0-.55-.45-1-1-1Z" fill="#d7e5eb" fill-rule="evenodd"/>
<path d="M27.35,52.37c-.55,0-1,.44-1,1v2.07c0,.56,.45,1,1,1s1-.44,1-1v-2.07c0-.56-.45-1-1-1Z" fill="#9dacb9" fill-rule="evenodd"/>
<path d="M32.05,52.37c-.55,0-1,.44-1,1v2.07c0,.56,.45,1,1,1s1-.44,1-1v-2.07c0-.56-.45-1-1-1Z" fill="#9dacb9" fill-rule="evenodd"/>
<path d="M41.45,52.37c-.55,0-1,.44-1,1v2.07c0,.56,.45,1,1,1s1-.44,1-1v-2.07c0-.56-.45-1-1-1Z" fill="#9dacb9" fill-rule="evenodd"/>
<path d="M36.75,52.37c-.55,0-1,.44-1,1v2.07c0,.56,.45,1,1,1s1-.44,1-1v-2.07c0-.56-.45-1-1-1Z" fill="#9dacb9" fill-rule="evenodd"/>
</g>
<g id="as"/>
<g id="at"/>
<g id="au"/>
<g id="av"/>
<g id="aw"/>
<g id="ax"/>
</svg>