<svg xmlns="http://www.w3.org/2000/svg" xmlns:xlink="http://www.w3.org/1999/xlink" version="1.1" width="256" height="256" viewBox="0 0 256 256" xml:space="preserve">

<defs>
</defs>
<g style="stroke: none; stroke-width: 0; stroke-dasharray: none; stroke-linecap: butt; stroke-linejoin: miter; stroke-miterlimit: 10; fill: none; fill-rule: nonzero; opacity: 1;" transform="translate(1.4065934065934016 1.4065934065934016) scale(2.81 2.81)" >
	<path d="M 68.021 21.766 V 7.764 c 0 -2.116 -1.715 -3.831 -3.831 -3.831 H 25.811 c -2.116 0 -3.831 1.715 -3.831 3.831 v 14.002" style="stroke: none; stroke-width: 1; stroke-dasharray: none; stroke-linecap: butt; stroke-linejoin: miter; stroke-miterlimit: 10; fill: rgb(173,173,173); fill-rule: nonzero; opacity: 1;" transform=" matrix(1 0 0 1 0 0) " stroke-linecap="round" />
	<path d="M 68.021 22.766 c -0.553 0 -1 -0.448 -1 -1 V 7.764 c 0 -1.561 -1.27 -2.831 -2.831 -2.831 H 25.811 c -1.561 0 -2.831 1.27 -2.831 2.831 v 14.002 c 0 0.552 -0.448 1 -1 1 s -1 -0.448 -1 -1 V 7.764 c 0 -2.664 2.167 -4.831 4.831 -4.831 h 38.379 c 2.664 0 4.831 2.167 4.831 4.831 v 14.002 C 69.021 22.318 68.573 22.766 68.021 22.766 z" style="stroke: none; stroke-width: 1; stroke-dasharray: none; stroke-linecap: butt; stroke-linejoin: miter; stroke-miterlimit: 10; fill: rgb(173,173,173); fill-rule: nonzero; opacity: 1;" transform=" matrix(1 0 0 1 0 0) " stroke-linecap="round" />
	<path d="M 21.979 69.643 H 7.683 C 3.992 69.643 1 66.651 1 62.96 V 28.449 c 0 -3.691 2.992 -6.683 6.683 -6.683 h 74.634 c 3.691 0 6.683 2.992 6.683 6.683 V 62.96 c 0 3.691 -2.992 6.683 -6.683 6.683 H 68.021" style="stroke: none; stroke-width: 1; stroke-dasharray: none; stroke-linecap: butt; stroke-linejoin: miter; stroke-miterlimit: 10; fill: rgb(59,59,59); fill-rule: nonzero; opacity: 1;" transform=" matrix(1 0 0 1 0 0) " stroke-linecap="round" />
	<path d="M 82.316 70.644 H 68.021 v -2 h 14.296 c 3.134 0 5.684 -2.55 5.684 -5.684 V 28.449 c 0 -3.134 -2.55 -5.683 -5.684 -5.683 H 7.683 C 4.549 22.766 2 25.315 2 28.449 V 62.96 c 0 3.134 2.549 5.684 5.683 5.684 h 14.296 v 2 H 7.683 C 3.447 70.644 0 67.196 0 62.96 V 28.449 c 0 -4.236 3.447 -7.683 7.683 -7.683 h 74.633 c 4.236 0 7.684 3.447 7.684 7.683 V 62.96 C 90 67.196 86.553 70.644 82.316 70.644 z" style="stroke: none; stroke-width: 1; stroke-dasharray: none; stroke-linecap: butt; stroke-linejoin: miter; stroke-miterlimit: 10; fill: rgb(59,59,59); fill-rule: nonzero; opacity: 1;" transform=" matrix(1 0 0 1 0 0) " stroke-linecap="round" />
	<path d="M 21.979 54.952 v 27.284 c 0 2.116 1.715 3.831 3.831 3.831 h 38.378 c 2.116 0 3.831 -1.715 3.831 -3.831 V 54.952" style="stroke: none; stroke-width: 1; stroke-dasharray: none; stroke-linecap: butt; stroke-linejoin: miter; stroke-miterlimit: 10; fill: rgb(173,173,173); fill-rule: nonzero; opacity: 1;" transform=" matrix(1 0 0 1 0 0) " stroke-linecap="round" />
	<path d="M 64.189 87.067 H 25.811 c -2.664 0 -4.831 -2.167 -4.831 -4.831 V 54.952 c 0 -0.553 0.448 -1 1 -1 s 1 0.447 1 1 v 27.284 c 0 1.562 1.27 2.831 2.831 2.831 h 38.379 c 1.562 0 2.831 -1.27 2.831 -2.831 V 54.952 c 0 -0.553 0.447 -1 1 -1 s 1 0.447 1 1 v 27.284 C 69.021 84.9 66.854 87.067 64.189 87.067 z" style="stroke: none; stroke-width: 1; stroke-dasharray: none; stroke-linecap: butt; stroke-linejoin: miter; stroke-miterlimit: 10; fill: rgb(173,173,173); fill-rule: nonzero; opacity: 1;" transform=" matrix(1 0 0 1 0 0) " stroke-linecap="round" />
	<circle cx="74" cy="29.13" r="1.5" style="stroke: none; stroke-width: 1; stroke-dasharray: none; stroke-linecap: butt; stroke-linejoin: miter; stroke-miterlimit: 10; fill: rgb(97,97,97); fill-rule: nonzero; opacity: 1;" transform="  matrix(1 0 0 1 0 0) "/>
	<circle cx="81" cy="29.13" r="1.5" style="stroke: none; stroke-width: 1; stroke-dasharray: none; stroke-linecap: butt; stroke-linejoin: miter; stroke-miterlimit: 10; fill: rgb(97,97,97); fill-rule: nonzero; opacity: 1;" transform="  matrix(1 0 0 1 0 0) "/>
	<circle cx="67" cy="29.13" r="1.5" style="stroke: none; stroke-width: 1; stroke-dasharray: none; stroke-linecap: butt; stroke-linejoin: miter; stroke-miterlimit: 10; fill: rgb(97,97,97); fill-rule: nonzero; opacity: 1;" transform="  matrix(1 0 0 1 0 0) "/>
	<path d="M 59.705 65.952 h -30 c -0.552 0 -1 -0.447 -1 -1 s 0.448 -1 1 -1 h 30 c 0.553 0 1 0.447 1 1 S 60.258 65.952 59.705 65.952 z" style="stroke: none; stroke-width: 1; stroke-dasharray: none; stroke-linecap: butt; stroke-linejoin: miter; stroke-miterlimit: 10; fill: rgb(204,204,204); fill-rule: nonzero; opacity: 1;" transform=" matrix(1 0 0 1 0 0) " stroke-linecap="round" />
	<path d="M 59.705 75.952 h -30 c -0.552 0 -1 -0.447 -1 -1 s 0.448 -1 1 -1 h 30 c 0.553 0 1 0.447 1 1 S 60.258 75.952 59.705 75.952 z" style="stroke: none; stroke-width: 1; stroke-dasharray: none; stroke-linecap: butt; stroke-linejoin: miter; stroke-miterlimit: 10; fill: rgb(204,204,204); fill-rule: nonzero; opacity: 1;" transform=" matrix(1 0 0 1 0 0) " stroke-linecap="round" />
	<path d="M 76.252 54.952 H 13.158 c -0.552 0 -1 -0.447 -1 -1 s 0.448 -1 1 -1 h 63.094 c 0.553 0 1 0.447 1 1 S 76.805 54.952 76.252 54.952 z" style="stroke: none; stroke-width: 1; stroke-dasharray: none; stroke-linecap: butt; stroke-linejoin: miter; stroke-miterlimit: 10; fill: rgb(97,97,97); fill-rule: nonzero; opacity: 1;" transform=" matrix(1 0 0 1 0 0) " stroke-linecap="round" />
</g>
</svg>