<svg xmlns="http://www.w3.org/2000/svg"  viewBox="0 0 48 48" width="48px" height="48px" baseProfile="basic"><linearGradient id="fUg_v5_WSo_1-zOpR9d25a" x1="3677.644" x2="3701.312" y1="614.979" y2="601.314" gradientTransform="rotate(-90 1561 2157)" gradientUnits="userSpaceOnUse"><stop offset="0" stop-color="#262626" stop-opacity="0"/><stop offset="1" stop-color="#262626" stop-opacity=".8"/></linearGradient><polygon fill="url(#fUg_v5_WSo_1-zOpR9d25a)" points="20,30 6,30 13,19"/><linearGradient id="fUg_v5_WSo_1-zOpR9d25b" x1="3660.751" x2="3703.948" y1="632.803" y2="607.863" gradientTransform="rotate(-90 1561 2157)" gradientUnits="userSpaceOnUse"><stop offset="0" stop-color="#262626" stop-opacity="0"/><stop offset="1" stop-color="#262626" stop-opacity=".8"/></linearGradient><path fill="url(#fUg_v5_WSo_1-zOpR9d25b)" d="M38,32v12H18c-4.418,0-8-3.582-8-8v-6h6v5.5c0,1.381,1.119,2.5,2.5,2.5H32v-3 c0-1.657,1.343-3,3-3H38z"/><g><linearGradient id="fUg_v5_WSo_1-zOpR9d25c" x1="3432.644" x2="3456.312" y1="726.979" y2="713.314" gradientTransform="rotate(90 2090.5 -1334.5)" gradientUnits="userSpaceOnUse"><stop offset="0" stop-color="#262626" stop-opacity="0"/><stop offset="1" stop-color="#262626" stop-opacity=".8"/></linearGradient><polygon fill="url(#fUg_v5_WSo_1-zOpR9d25c)" points="28,18 42,18 35,29"/><linearGradient id="fUg_v5_WSo_1-zOpR9d25d" x1="3415.751" x2="3458.948" y1="744.803" y2="719.863" gradientTransform="rotate(90 2090.5 -1334.5)" gradientUnits="userSpaceOnUse"><stop offset="0" stop-color="#262626" stop-opacity="0"/><stop offset="1" stop-color="#262626" stop-opacity=".8"/></linearGradient><path fill="url(#fUg_v5_WSo_1-zOpR9d25d)" d="M10,16V4h20c4.418,0,8,3.582,8,8v6h-6v-5.5c0-1.381-1.119-2.5-2.5-2.5H16v3 c0,1.657-1.343,3-3,3H10z"/></g></svg>