<svg xmlns="http://www.w3.org/2000/svg"  viewBox="0 0 48 48" width="48px" height="48px" baseProfile="basic"><linearGradient id="98T7RiHnaRl1PT1YsfuGNa" x1="3676.929" x2="3708.877" y1="613.001" y2="601.456" gradientTransform="rotate(-90 1561 2157)" gradientUnits="userSpaceOnUse"><stop offset="0" stop-color="#344878"/><stop offset=".103" stop-color="#3c4f7c"/><stop offset=".26" stop-color="#516187"/><stop offset=".451" stop-color="#737f99"/><stop offset=".669" stop-color="#a3a8b2"/><stop offset=".907" stop-color="#e0ddd2"/><stop offset="1" stop-color="#faf3df"/></linearGradient><polygon fill="url(#98T7RiHnaRl1PT1YsfuGNa)" points="20,30 6,30 13,19"/><linearGradient id="98T7RiHnaRl1PT1YsfuGNb" x1="3660.751" x2="3703.948" y1="632.803" y2="607.863" gradientTransform="rotate(-90 1561 2157)" gradientUnits="userSpaceOnUse"><stop offset="0" stop-color="#5578b8"/><stop offset="1" stop-color="#faf3df"/></linearGradient><path fill="url(#98T7RiHnaRl1PT1YsfuGNb)" d="M38,32v12H18c-4.418,0-8-3.582-8-8v-6h6v5.5c0,1.381,1.119,2.5,2.5,2.5H32v-3	c0-1.657,1.343-3,3-3H38z"/><linearGradient id="98T7RiHnaRl1PT1YsfuGNc" x1="3432.124" x2="3466.115" y1="724.22" y2="714.157" gradientTransform="rotate(90 2090.5 -1334.5)" gradientUnits="userSpaceOnUse"><stop offset="0" stop-color="#344878"/><stop offset=".103" stop-color="#3c4f7c"/><stop offset=".26" stop-color="#516187"/><stop offset=".451" stop-color="#737f99"/><stop offset=".669" stop-color="#a3a8b2"/><stop offset=".907" stop-color="#e0ddd2"/><stop offset="1" stop-color="#faf3df"/></linearGradient><polygon fill="url(#98T7RiHnaRl1PT1YsfuGNc)" points="28,18 42,18 35,29"/><linearGradient id="98T7RiHnaRl1PT1YsfuGNd" x1="3415.751" x2="3458.948" y1="744.803" y2="719.863" gradientTransform="rotate(90 2090.5 -1334.5)" gradientUnits="userSpaceOnUse"><stop offset="0" stop-color="#5578b8"/><stop offset="1" stop-color="#faf3df"/></linearGradient><path fill="url(#98T7RiHnaRl1PT1YsfuGNd)" d="M10,16V4h20c4.418,0,8,3.582,8,8v6h-6v-5.5c0-1.381-1.119-2.5-2.5-2.5H16v3	c0,1.657-1.343,3-3,3H10z"/></svg>