<svg xmlns="http://www.w3.org/2000/svg"  viewBox="0 0 48 48" width="48px" height="48px"><path d="M 37 4 C 33.145666 4 30 7.1456661 30 11 C 30 11.723599 30.254088 12.375715 30.458984 13.041016 L 14.982422 20.492188 A 1.0001 1.0001 0 0 0 14.515625 21.828125 C 14.828633 22.476381 15 23.212766 15 24 C 15 26.773666 12.773666 29 10 29 C 7.2263339 29 5 26.773666 5 24 C 5 21.226334 7.2263339 19 10 19 C 10.582015 19 11.137771 19.09992 11.654297 19.28125 A 1.0006835 1.0006835 0 1 0 12.316406 17.392578 C 11.590932 17.137903 10.809985 17 10 17 C 6.1456661 17 3 20.145666 3 24 C 3 27.854334 6.1456661 31 10 31 C 13.854334 31 17 27.854334 17 24 C 17 23.276618 16.745857 22.625895 16.541016 21.960938 L 32.017578 14.509766 A 1.0001 1.0001 0 0 0 32.484375 13.173828 C 32.171083 12.52416 32 11.787234 32 11 C 32 8.2263339 34.226334 6 37 6 C 39.773666 6 42 8.2263339 42 11 C 42 13.773666 39.773666 16 37 16 C 36.424403 16 35.874993 15.90379 35.363281 15.726562 A 1.0001 1.0001 0 1 0 34.708984 17.615234 C 35.427272 17.864007 36.199597 18 37 18 C 40.854334 18 44 14.854334 44 11 C 44 7.1456661 40.854334 4 37 4 z M 18.986328 27.345703 A 1.0001 1.0001 0 0 0 18.603516 29.251953 L 31.150391 35.292969 A 1.0001 1.0001 0 0 0 32.484375 34.826172 C 33.289784 33.155509 35.005952 32 37 32 C 39.773666 32 42 34.226334 42 37 C 42 39.773666 39.773666 42 37 42 C 34.825009 42 32.988871 40.620187 32.294922 38.697266 A 1.0001 1.0001 0 1 0 30.414062 39.375 C 31.388113 42.074079 33.976991 44 37 44 C 40.854334 44 44 40.854334 44 37 C 44 33.145666 40.854334 30 37 30 C 34.593152 30 32.506417 31.255282 31.244141 33.117188 L 19.470703 27.449219 A 1.0001 1.0001 0 0 0 18.986328 27.345703 z"/></svg>