<?xml version="1.0" encoding="iso-8859-1"?>
<!-- Uploaded to: SVG Repo, www.svgrepo.com, Generator: SVG Repo Mixer Tools -->
<svg height="800px" width="800px" version="1.1" id="Layer_1" xmlns="http://www.w3.org/2000/svg" xmlns:xlink="http://www.w3.org/1999/xlink" 
	 viewBox="0 0 392.404 392.404" xml:space="preserve">
<path style="fill:#FFFFFF;" d="M307.652,306.36c-17.713,0-32.129,14.481-32.129,32.129c0,17.713,14.481,32.129,32.129,32.129
	s32.129-14.481,32.129-32.129S325.301,306.36,307.652,306.36z"/>
<path style="fill:#FFC10D;" d="M307.652,21.786c-17.713,0-32.129,14.481-32.129,32.129s14.481,32.129,32.129,32.129
	s32.129-14.481,32.129-32.129S325.301,21.786,307.652,21.786z"/>
<path style="fill:#56ACE0;" d="M84.751,164.137c-17.713,0-32.129,14.481-32.129,32.129c0,17.713,14.481,32.129,32.129,32.129
	s32.129-14.481,32.129-32.129S102.529,164.137,84.751,164.137z"/>
<path style="fill:#194F82;" d="M307.652,284.574c-16.549,0-31.354,7.499-41.244,19.329l-129.875-92.315
	c1.487-4.848,2.263-9.956,2.263-15.321c0-5.301-0.776-10.408-2.263-15.321l129.745-92.444c9.891,11.83,24.76,19.329,41.309,19.329
	c29.737,0,53.915-24.178,53.915-53.915S337.325,0,307.588,0s-53.915,24.178-53.915,53.915c0,5.301,0.776,10.408,2.263,15.321
	l-129.81,92.444c-9.891-11.83-24.76-19.329-41.309-19.329c-29.737,0-53.915,24.178-53.915,53.915s24.178,53.915,53.915,53.915
	c16.549,0,31.354-7.499,41.309-19.329l129.81,92.315c-1.487,4.849-2.263,9.956-2.263,15.321c0,29.737,24.178,53.915,53.915,53.915
	c29.737,0,53.915-24.178,53.915-53.915C361.568,308.881,337.39,284.574,307.652,284.574z M307.652,21.786
	c17.713,0,32.129,14.481,32.129,32.129s-14.481,32.129-32.129,32.129s-32.129-14.481-32.129-32.129S289.875,21.786,307.652,21.786z
	 M84.751,228.396c-17.713,0-32.129-14.481-32.129-32.129s14.481-32.129,32.129-32.129s32.129,14.481,32.129,32.129
	C116.945,213.98,102.529,228.396,84.751,228.396z M307.652,370.747c-17.713,0-32.129-14.481-32.129-32.129
	c0-17.713,14.481-32.129,32.129-32.129s32.129,14.481,32.129,32.129S325.301,370.747,307.652,370.747z"/>
</svg>