<svg xmlns="http://www.w3.org/2000/svg" xmlns:xlink="http://www.w3.org/1999/xlink" version="1.1" width="256" height="256" viewBox="0 0 256 256" xml:space="preserve">

<defs>
</defs>
<g style="stroke: none; stroke-width: 0; stroke-dasharray: none; stroke-linecap: butt; stroke-linejoin: miter; stroke-miterlimit: 10; fill: none; fill-rule: nonzero; opacity: 1;" transform="translate(1.4065934065934016 1.4065934065934016) scale(2.81 2.81)" >
	<circle cx="45" cy="45" r="44" style="stroke: none; stroke-width: 1; stroke-dasharray: none; stroke-linecap: butt; stroke-linejoin: miter; stroke-miterlimit: 10; fill: rgb(158,200,255); fill-rule: nonzero; opacity: 1;" transform="  matrix(1 0 0 1 0 0) "/>
	<path d="M 44.248 24.316 L 28.906 40.509 c -0.625 0.66 -0.157 1.748 0.752 1.748 h 7.873 c 0.572 0 1.036 0.464 1.036 1.036 v 22.149 c 0 0.572 0.464 1.036 1.036 1.036 h 10.795 c 0.572 0 1.036 -0.464 1.036 -1.036 V 43.293 c 0 -0.572 0.464 -1.036 1.036 -1.036 h 7.873 c 0.909 0 1.377 -1.088 0.752 -1.748 L 45.752 24.316 C 45.343 23.885 44.657 23.885 44.248 24.316 z" style="stroke: none; stroke-width: 1; stroke-dasharray: none; stroke-linecap: butt; stroke-linejoin: miter; stroke-miterlimit: 10; fill: rgb(52,107,180); fill-rule: nonzero; opacity: 1;" transform=" matrix(1 0 0 1 0 0) " stroke-linecap="round" />
	<path d="M 90 45 c 0 24.813 -20.187 45 -45 45 C 20.187 90 0 69.813 0 45 C 0 20.187 20.187 0 45 0 C 69.813 0 90 20.187 90 45 z M 8 45 c 0 20.402 16.598 37 37 37 c 20.402 0 37 -16.598 37 -37 C 82 24.598 65.402 8 45 8 C 24.598 8 8 24.598 8 45 z" style="stroke: none; stroke-width: 1; stroke-dasharray: none; stroke-linecap: butt; stroke-linejoin: miter; stroke-miterlimit: 10; fill: rgb(52,107,180); fill-rule: nonzero; opacity: 1;" transform=" matrix(1 0 0 1 0 0) " stroke-linecap="round" />
</g>
</svg>