<?xml version="1.0" encoding="utf-8"?>
<!-- Generator: Adobe Illustrator 22.1.0, SVG Export Plug-In . SVG Version: 6.00 Build 0)  -->
<svg version="1.1" id="圖層_1" xmlns="http://www.w3.org/2000/svg" xmlns:xlink="http://www.w3.org/1999/xlink" x="0px" y="0px"
	 viewBox="0 0 47.5 47.5" style="enable-background:new 0 0 47.5 47.5;" xml:space="preserve">
<style type="text/css">
	.st0{fill-rule:evenodd;clip-rule:evenodd;fill:#C30D23;}
	.st1{fill:#FFFFFF;}
</style>
<g>
	<path class="st0" d="M47.5,23.7c0,13.1-10.6,23.7-23.7,23.7C10.6,47.5,0,36.8,0,23.7C0,10.6,10.6,0,23.7,0
		C36.8,0,47.5,10.6,47.5,23.7"/>
	<path class="st1" d="M26.6,29.3c0-0.1,0-0.3-0.1-0.4c-0.1-0.2-0.2-0.3-0.4-0.3c-0.2,0-0.4,0.1-0.6,0.2c-0.1,0.1-0.1,0.1-0.1,0.1
		v4.7v0.1c0,0,0,0.1,0.1,0.1c0.1,0.1,0.3,0.3,0.5,0.3c0.3,0.1,0.6-0.1,0.6-0.4c0-0.1,0-0.2,0-0.2C26.6,32.1,26.6,30.7,26.6,29.3
		 M26.6,29.3c0-0.1,0-0.3-0.1-0.4c-0.1-0.2-0.2-0.3-0.4-0.3c-0.2,0-0.4,0.1-0.6,0.2c-0.1,0.1-0.1,0.1-0.1,0.1v4.7v0.1
		c0,0,0,0.1,0.1,0.1c0.1,0.1,0.3,0.3,0.5,0.3c0.3,0.1,0.6-0.1,0.6-0.4c0-0.1,0-0.2,0-0.2C26.6,32.1,26.6,30.7,26.6,29.3 M31.8,22.2
		c-5.5-0.1-11.1-0.1-16.6,0c-1.9,0-3.5,1.6-3.5,3.5v8.7c0,1.9,1.5,3.5,3.5,3.5c5.5,0.1,11.1,0.1,16.6,0c1.9,0,3.5-1.6,3.5-3.5v-8.7
		C35.3,23.8,33.7,22.2,31.8,22.2 M16.8,35.2h-1.6v-9h-1.7v-1.5h4.9v1.5h-1.7V35.2z M22.5,31.4v3.8h-1.4v-0.9
		c-0.1,0.1-0.1,0.1-0.1,0.1c-0.3,0.3-0.6,0.6-1.1,0.8c-0.2,0.1-0.4,0.1-0.7,0.1c-0.3,0-0.5-0.2-0.6-0.5c-0.1-0.3-0.1-0.5-0.2-0.8
		c0-1,0-6.5,0-6.5h1.4c0,0,0,4,0,5.9c0,0.1,0,0.2,0,0.3c0.1,0.3,0.2,0.4,0.5,0.3c0.3-0.1,0.5-0.3,0.7-0.5c0,0,0-0.1,0-0.1v-5.8
		l1.4,0V31.4z M27.9,34.4c-0.2,0.6-0.6,0.9-1.2,0.9c-0.5,0-0.9-0.2-1.2-0.5c0,0-0.1-0.1-0.1-0.1v0.6H24V24.6h1.4v3.5
		c0,0,0.1-0.2,0.2-0.2c0.2-0.2,0.5-0.4,0.8-0.5c0.5-0.1,1.2,0,1.5,0.7c0.2,0.4,0.2,0.8,0.2,1.2c0,1.5,0,2.9,0,4.4
		C28,33.9,28,34.2,27.9,34.4 M33.1,34.1c-0.3,0.7-0.8,1.1-1.5,1.2c-0.5,0.1-0.9,0.1-1.4-0.1c-0.6-0.3-0.9-0.8-1.1-1.4
		c-0.1-0.3-0.1-0.6-0.1-0.9c0-1.2,0-2.3,0-3.5c0-0.6,0.1-1.2,0.6-1.6c0.5-0.5,1.1-0.7,1.8-0.7c0.2,0,0.4,0.1,0.6,0.1
		c0.7,0.2,1,0.7,1.2,1.4c0.1,0.3,0.1,0.5,0.1,0.8c0,0.6,0,2,0,2h-2.7v1.9c0,0.4,0.3,0.6,0.6,0.6c0.3,0,0.6-0.3,0.6-0.6v-1h1.5
		C33.3,32.4,33.3,33.6,33.1,34.1 M31.9,29.2c0-0.3-0.3-0.6-0.6-0.6c-0.4,0-0.6,0.3-0.6,0.6v1.1h1.3V29.2z M26.5,28.8
		c-0.1-0.2-0.2-0.3-0.4-0.3c-0.2,0-0.4,0.1-0.6,0.2c-0.1,0.1-0.1,0.1-0.1,0.1v4.7v0.1c0,0,0,0.1,0.1,0.1c0.1,0.1,0.3,0.3,0.5,0.3
		c0.3,0.1,0.6-0.1,0.6-0.4c0-0.1,0-0.2,0-0.2c0-1.4,0-2.8,0-4.2C26.6,29.1,26.5,29,26.5,28.8"/>
	<path class="st1" d="M30.1,12.2l0,7.8h-1.5l0-0.8c-0.2,0.2-0.3,0.3-0.5,0.4c-0.3,0.2-0.6,0.4-0.9,0.5c-0.5,0.1-1-0.1-1.2-0.6
		C26,19.3,26,19.1,26,18.9v-6.7h1.4v6c0,0.1,0,0.2,0,0.2c0,0.2,0.2,0.4,0.5,0.3c0.3-0.1,0.5-0.3,0.7-0.5c0,0,0-0.1,0-0.1v-5.8H30.1z
		"/>
	<path class="st1" d="M18.1,13.6c-0.3-1.3-1-4.1-1-4.1h-1.6c0,0,1.3,4.2,1.8,6.1c0,0.1,0,0.1,0,0.2V20h1.5v-4.3c0-0.1,0-0.1,0-0.2
		c0.6-1.9,1.8-6.1,1.8-6.1h-1.6C19.1,9.4,18.4,12.2,18.1,13.6L18.1,13.6z"/>
	<path class="st1" d="M22.7,12c-1.1,0-2.1,0.9-2.1,2.1v4.1c0,1.1,0.9,2.1,2.1,2.1c1.1,0,2.1-0.9,2.1-2.1v-4.1
		C24.8,12.9,23.9,12,22.7,12 M23.3,18.2c0,0.3-0.3,0.6-0.6,0.6c-0.3,0-0.6-0.3-0.6-0.6V14c0-0.3,0.3-0.6,0.6-0.6
		c0.3,0,0.6,0.3,0.6,0.6V18.2z"/>
</g>
</svg>
